<?xml version="1.0" standalone="no"?>
<!DOCTYPE svg PUBLIC "-//W3C//DTD SVG 20010904//EN"
 "http://www.w3.org/TR/2001/REC-SVG-20010904/DTD/svg10.dtd">
<svg version="1.0" xmlns="http://www.w3.org/2000/svg"
 width="493.000000pt" height="75.000000pt" viewBox="0 0 493.000000 75.000000"
 preserveAspectRatio="xMidYMid meet">
<metadata>
Created by potrace 1.15, written by Peter Selinger 2001-2017
</metadata>
<g transform="translate(0.000000,75.000000) scale(0.100000,-0.100000)"
fill="#000000" stroke="none">
<path d="M10 580 l0 -170 35 0 35 0 0 97 0 97 47 -97 c46 -96 47 -97 82 -96
35 0 37 2 83 97 l47 97 0 -97 1 -98 35 0 35 0 0 170 0 170 -43 0 -43 0 -54
-120 c-30 -66 -57 -120 -60 -120 -4 0 -32 54 -63 120 l-56 120 -40 0 -41 0 0
-170z"/>
<path d="M460 580 l0 -170 35 0 35 0 0 170 0 170 -35 0 -35 0 0 -170z"/>
<path d="M606 734 c-24 -24 -28 -53 -24 -173 4 -150 -1 -145 182 -149 139 -3
144 -3 171 21 l28 24 -19 26 c-20 28 -39 34 -49 17 -4 -6 -55 -10 -120 -10
-129 0 -125 -3 -125 91 0 97 3 99 125 99 82 0 107 -3 120 -16 15 -15 18 -15
41 6 29 28 30 34 4 60 -18 18 -33 20 -169 20 -123 0 -152 -3 -165 -16z"/>
<path d="M1000 580 l0 -170 35 0 35 0 0 70 0 70 95 0 95 0 0 -70 0 -70 35 0
35 0 0 170 0 170 -35 0 -35 0 0 -65 0 -65 -95 0 -95 0 0 65 0 65 -35 0 -35 0
0 -170z"/>
<path d="M1448 587 c-49 -90 -88 -167 -88 -170 0 -4 18 -7 40 -7 36 0 42 4 62
40 l23 40 92 0 92 0 23 -40 c21 -37 26 -40 66 -40 23 0 42 2 42 4 0 2 -40 77
-89 167 l-89 164 -44 3 -43 3 -87 -164z"/>
<path d="M1820 580 l0 -170 165 0 165 0 0 40 0 40 -125 0 -125 0 0 30 0 30
120 0 120 0 0 35 0 35 -120 0 -120 0 0 30 0 30 125 0 125 0 0 35 0 35 -165 0
-165 0 0 -170z"/>
<path d="M2190 580 l0 -170 160 0 160 0 0 40 0 40 -120 0 -120 0 0 130 0 130
-40 0 -40 0 0 -170z"/>
<path d="M2690 580 l0 -170 40 0 40 0 0 55 0 55 115 0 c110 0 117 1 140 25 21
20 25 34 25 85 0 60 -11 97 -34 112 -6 4 -82 8 -168 8 l-158 0 0 -170z m275
55 l0 -40 -97 -3 -98 -3 0 46 0 46 98 -3 97 -3 0 -40z"/>
<path d="M3090 580 l0 -170 35 0 35 0 0 70 0 70 95 0 95 0 0 -70 0 -70 35 0
35 0 0 170 0 170 -35 0 -35 0 0 -65 0 -65 -95 0 -95 0 0 65 0 65 -35 0 -35 0
0 -170z"/>
<path d="M3470 580 l0 -170 165 0 165 0 0 40 0 40 -130 0 -130 0 0 30 0 30
125 0 125 0 0 35 0 35 -125 0 -125 0 0 30 0 30 130 0 130 0 0 35 0 35 -165 0
-165 0 0 -170z"/>
<path d="M3840 580 l0 -170 160 0 160 0 0 40 0 40 -125 0 -125 0 0 130 0 130
-35 0 -35 0 0 -170z"/>
<path d="M4190 580 l0 -170 35 0 35 0 0 55 0 55 119 0 c157 0 166 6 166 113 0
116 -1 117 -197 117 l-158 0 0 -170z m275 55 l0 -40 -102 -3 -103 -3 0 46 0
46 103 -3 102 -3 0 -40z"/>
<path d="M4603 735 c-46 -32 -37 -151 13 -174 14 -6 69 -11 123 -11 103 0 128
-10 115 -44 -5 -14 -25 -16 -134 -16 -138 0 -140 -1 -140 -57 l0 -24 156 3
c150 3 157 4 175 27 13 16 19 39 19 77 0 88 -15 95 -230 107 -38 2 -45 5 -48
24 -4 29 12 32 153 36 l110 2 3 33 3 32 -148 0 c-116 0 -153 -3 -170 -15z"/>
<path d="M30 297 c-22 -11 -25 -20 -28 -69 l-3 -56 53 -29 c42 -22 54 -34 56
-55 4 -37 -32 -56 -77 -40 -29 10 -31 9 -31 -12 0 -13 7 -27 16 -30 45 -17
125 6 138 39 22 57 -3 104 -75 140 -33 17 -49 32 -49 45 0 29 35 44 72 31 40
-14 38 -15 38 13 0 35 -61 48 -110 23z"/>
<path d="M437 288 c-41 -24 -77 -87 -77 -134 0 -47 40 -115 80 -136 40 -21
126 -24 165 -6 23 10 25 16 25 80 l0 68 -55 0 c-48 0 -55 -2 -55 -20 0 -16 7
-20 35 -20 33 0 35 -2 35 -34 0 -26 -5 -35 -22 -40 -64 -17 -126 10 -147 63
-39 92 59 186 153 147 33 -14 35 -14 42 6 9 31 -10 42 -79 45 -50 3 -69 -1
-100 -19z"/>
<path d="M710 155 l0 -155 25 0 c24 0 24 1 27 109 l3 109 95 -109 c52 -60 101
-109 108 -109 9 0 12 38 12 155 l0 155 -25 0 c-24 0 -24 -1 -27 -102 l-3 -101
-89 101 c-124 142 -126 141 -126 -53z"/>
<path d="M1116 188 c-27 -68 -56 -138 -63 -155 -13 -32 -13 -33 12 -33 20 0
28 8 41 40 16 40 16 40 71 40 54 0 55 0 70 -40 12 -31 21 -40 40 -40 12 0 23
3 23 8 -1 24 -121 297 -132 300 -8 1 -31 -42 -62 -120z"/>
<path d="M1310 285 c0 -23 3 -25 50 -25 l50 0 0 -130 0 -130 25 0 25 0 0 130
0 130 45 0 c41 0 45 2 45 25 l0 25 -120 0 -120 0 0 -25z"/>
<path d="M1610 189 l0 -121 34 -34 c29 -29 41 -34 80 -34 57 0 104 22 116 56
6 14 10 77 10 140 0 107 -1 114 -20 114 -19 0 -20 -7 -20 -95 0 -119 -15 -160
-60 -170 -24 -5 -39 -2 -59 12 -25 19 -26 24 -29 137 -3 116 -3 116 -27 116
l-25 0 0 -121z"/>
<path d="M1940 155 c0 -148 1 -155 20 -155 18 0 20 7 20 65 0 56 2 65 18 65
12 0 36 -25 63 -65 37 -54 49 -65 73 -65 35 0 32 10 -25 85 -42 55 -42 56 -21
70 27 20 37 67 20 102 -15 32 -62 52 -125 52 l-43 1 0 -155z"/>
<path d="M2200 155 l0 -155 90 0 c89 0 90 0 90 25 0 24 -2 25 -65 25 l-65 0 0
40 0 40 50 0 c47 0 50 2 50 25 0 23 -3 25 -50 25 l-50 0 0 40 0 40 60 0 c57 0
60 1 60 25 0 25 -1 25 -85 25 l-85 0 0 -155z"/>
<path d="M2623 300 c-46 -19 -58 -93 -20 -127 12 -11 39 -28 59 -38 48 -22 59
-52 28 -77 -27 -22 -46 -23 -84 -3 -36 19 -36 19 -36 -9 0 -31 46 -51 101 -43
57 8 79 31 79 84 0 48 -19 74 -72 96 -18 8 -39 21 -47 31 -12 14 -11 19 5 37
18 20 37 21 75 5 12 -5 18 -1 22 14 9 34 -57 51 -110 30z"/>
<path d="M2810 298 c0 -32 99 -293 111 -293 8 0 28 41 49 102 19 57 37 103 41
103 3 0 20 -47 39 -105 33 -101 50 -124 65 -87 15 35 95 276 95 285 0 5 -10 7
-22 5 -18 -2 -27 -19 -52 -95 -17 -51 -33 -93 -36 -93 -3 0 -19 42 -36 93 -24
74 -34 93 -51 95 -18 3 -25 -10 -55 -100 l-34 -102 -35 99 c-28 83 -38 101
-56 103 -14 2 -23 -2 -23 -10z"/>
<path d="M3280 155 l0 -155 25 0 25 0 0 155 0 155 -25 0 -25 0 0 -155z"/>
<path d="M3427 238 c-22 -245 -22 -238 0 -238 23 0 33 37 33 122 0 26 4 49 8
52 5 3 28 -35 52 -85 24 -49 49 -89 55 -89 6 0 31 40 55 90 47 96 60 100 60
19 0 -77 10 -109 33 -109 19 0 20 4 13 93 -13 183 -18 217 -32 217 -8 0 -40
-52 -71 -115 l-58 -114 -54 114 c-67 143 -85 151 -94 43z"/>
<path d="M4003 300 c-27 -11 -43 -40 -43 -79 0 -36 18 -55 76 -82 53 -25 66
-55 34 -81 -27 -22 -46 -23 -84 -3 -36 19 -36 19 -36 -9 0 -31 46 -51 101 -43
57 8 79 31 79 84 0 48 -19 74 -72 96 -18 8 -39 21 -47 31 -12 14 -11 19 5 37
18 20 37 21 75 5 12 -5 18 -1 22 14 9 34 -57 51 -110 30z"/>
<path d="M4210 156 c0 -149 1 -156 20 -156 18 0 20 7 20 64 l0 63 46 6 c60 6
94 38 94 87 0 56 -33 81 -114 87 l-66 6 0 -157z"/>
<path d="M4471 160 c-33 -82 -61 -152 -61 -155 0 -3 11 -5 23 -5 19 0 28 9 40
40 15 40 16 40 70 40 55 0 55 0 71 -40 13 -32 21 -40 42 -40 17 0 24 4 21 12
-70 179 -124 298 -133 298 -6 0 -39 -67 -73 -150z"/>
<path d="M4785 298 c-31 -17 -45 -39 -45 -73 0 -37 22 -60 84 -90 46 -22 56
-47 30 -76 -20 -22 -49 -24 -84 -4 -34 19 -40 18 -40 -4 0 -49 104 -69 153
-31 59 47 41 120 -38 160 -54 27 -68 56 -40 80 13 11 23 11 48 2 24 -9 33 -9
39 1 13 20 9 27 -18 37 -33 13 -64 12 -89 -2z"/>
</g>
</svg>
