<?xml version="1.0" standalone="no"?>
<!DOCTYPE svg PUBLIC "-//W3C//DTD SVG 1.1//EN" "http://www.w3.org/Graphics/SVG/1.1/DTD/svg11.dtd" >
<svg>
<metadata>
Created by FontForge 20090914 at Tue Dec 15 18:14:59 2015
 By www-data
Copyright (c) The Font Bureau, Inc, 2001. All rights reserved.
</metadata>
<defs>
<font id="Agenda-Light" horiz-adv-x="500" >
  <font-face 
    font-family="Agenda-Light"
    font-weight="400"
    font-stretch="normal"
    units-per-em="1000"
    panose-1="2 0 6 3 4 0 0 2 0 4"
    ascent="715"
    descent="-285"
    x-height="452.999"
    cap-height="638"
    bbox="-80 -233.001 1002 908.999"
    underline-thickness="20"
    underline-position="-70"
    unicode-range="U+0020-U+FB02"
  />
<missing-glyph 
 />
    <glyph glyph-name=".notdef" 
 />
    <glyph glyph-name="space" unicode=" " horiz-adv-x="238" 
 />
    <glyph glyph-name="exclam" unicode="!" horiz-adv-x="243" 
d="M163 638h-75l11 -460l53 -14zM176 39c0 4 -1.83301 8.66699 -5.5 14s-8 10.666 -13 15.999s-10.333 9.83301 -16 13.5s-10.5 5.5 -14.5 5.5s-8.83301 -1.83301 -14.5 -5.5s-11 -8.16699 -16 -13.5s-9.33301 -10.666 -13 -15.999s-5.5 -10 -5.5 -14
s1.83301 -8.83301 5.5 -14.5s8 -11 13 -16s10.333 -9.33301 16 -13s10.5 -5.5 14.5 -5.5s8.83301 1.83301 14.5 5.5s11 8 16 13s9.33301 10.333 13 16s5.5 10.5 5.5 14.5z" />
    <glyph glyph-name="quotedbl" unicode="&#x22;" horiz-adv-x="277" 
d="M240 638h-62l13 -205h36zM99 638h-63l12 -205h36z" />
    <glyph glyph-name="numbersign" unicode="#" horiz-adv-x="385" 
d="M378 385v42h-58l48 211h-47l-49 -211h-108l49 211h-48l-48 -211h-80v-42h70l-31 -132h-69v-42h59l-49 -211h48l49 211h107l-48 -211h47l49 211h79v42h-69l31 132h68zM262 385l-31 -132h-107l30 132h108z" />
    <glyph glyph-name="dollar" unicode="$" horiz-adv-x="450" 
d="M408 168c0 48.667 -15.835 88.834 -47.502 120.501s-76.167 58.167 -133.5 79.5c-40.667 15.333 -70.834 32.666 -90.501 51.999s-29.5 43 -29.5 71c0 12 2.5 24.167 7.5 36.5s12.5 23.5 22.5 33.5s22.5 18 37.5 24s32.833 9 53.5 9c25.333 0 49 -3.66699 71 -11
s41 -16 57 -26l13 55c-37.333 22.667 -80.666 35 -129.999 37v88h-42v-89c-46 -6 -82.833 -23.833 -110.5 -53.5s-41.5 -65.834 -41.5 -108.501s14.833 -79 44.5 -109s71.834 -54.667 126.501 -74c44 -16 76.5 -35.333 97.5 -58s31.5 -50 31.5 -82
c0 -32.667 -11.833 -60.5 -35.5 -83.5s-57.5 -34.5 -101.5 -34.5c-32 0 -60.667 5.33301 -86 16s-47 23 -65 37l-15 -58c22.667 -16.667 46.834 -29 72.501 -37s53.167 -12.667 82.5 -14v-86h42v88c24 2.66699 46.333 8.33398 67 17.001s38.5 20.5 53.5 35.5
s26.833 33 35.5 54s13 44.5 13 70.5z" />
    <glyph glyph-name="percent" unicode="%" horiz-adv-x="700" 
d="M658 125c0 20 -3.33301 38.167 -10 54.5s-16 30.5 -28 42.5s-26.167 21.333 -42.5 28s-34.166 10 -53.499 10s-37.166 -3.33301 -53.499 -10s-30.5 -16 -42.5 -28s-21.5 -26.167 -28.5 -42.5s-10.5 -34.5 -10.5 -54.5s3.5 -38.333 10.5 -55s16.5 -31 28.5 -43
s26.167 -21.333 42.5 -28s34.166 -10 53.499 -10s37.166 3.33301 53.499 10s30.5 16 42.5 28s21.333 26.333 28 43s10 35 10 55zM605 125c0 -26.667 -8 -47.834 -24 -63.501s-35 -23.5 -57 -23.5s-41.167 7.83301 -57.5 23.5s-24.5 36.834 -24.5 63.501
s8.16699 47.334 24.5 62.001s35.5 22 57.5 22s41 -7.33301 57 -22s24 -35.334 24 -62.001zM625 630l-32 27l-524 -648l32 -28zM306 514c0 20 -3.33301 38.167 -10 54.5s-16 30.5 -28 42.5s-26.167 21.333 -42.5 28s-34.166 10 -53.499 10s-37.166 -3.33301 -53.499 -10
s-30.5 -16 -42.5 -28s-21.5 -26.167 -28.5 -42.5s-10.5 -34.5 -10.5 -54.5s3.5 -38.333 10.5 -55s16.5 -30.834 28.5 -42.501s26.167 -20.834 42.5 -27.501s34.166 -10 53.499 -10s37.166 3.33301 53.499 10s30.5 15.834 42.5 27.501s21.333 25.834 28 42.501s10 35 10 55z
M253 514c0 -26.667 -8 -47.667 -24 -63s-35 -23 -57 -23s-41.167 7.66699 -57.5 23s-24.5 36.333 -24.5 63s8.16699 47.5 24.5 62.5s35.5 22.5 57.5 22.5s41 -7.5 57 -22.5s24 -35.833 24 -62.5z" />
    <glyph glyph-name="ampersand" unicode="&#x26;" horiz-adv-x="604" 
d="M597 0l-117 116.998c30.667 40.667 55 89.334 73 146.001l-43 44c-8.66699 -28 -19 -54.5 -31 -79.5s-25.667 -47.833 -41 -68.5l-169 170c46 26.667 79.5 53.667 100.5 81s31.5 57.333 31.5 90c0 23.333 -4.5 44.166 -13.5 62.499s-21 34 -36 47
s-32.333 22.833 -52 29.5s-39.834 10 -60.501 10c-20 0 -39.333 -3.5 -58 -10.5s-35.167 -17 -49.5 -30s-25.833 -28.833 -34.5 -47.5s-13 -39.334 -13 -62.001c0 -26 7 -51.333 21 -76s36 -52 66 -82c-40 -23.333 -71.5 -49.166 -94.5 -77.499
s-34.5 -64.166 -34.5 -107.499c0 -22 4.5 -43.167 13.5 -63.5s21.833 -38.166 38.5 -53.499s36.834 -27.5 60.501 -36.5s50.167 -13.5 79.5 -13.5c40.667 0 78.167 7.16699 112.5 21.5s65.5 34.833 93.5 61.5l72 -72h85zM340 498.998c0 -22 -8.66699 -43.1641 -26 -63.4971
s-46.333 -41.833 -87 -64.5c-27.333 27.333 -47.833 50.666 -61.5 69.999s-20.5 39.666 -20.5 60.999c0 25.333 8.66699 47.166 26 65.499s40 27.5 68 27.5c30.667 0 55.167 -9.5 73.5 -28.5s27.5 -41.5 27.5 -67.5zM398 114.001
c-23.333 -21.333 -48.5 -38.168 -75.5 -50.501s-55.5 -18.5 -85.5 -18.5c-19.333 0 -37 3 -53 9s-29.667 14.167 -41 24.5s-20.333 22.333 -27 36s-10 28.5 -10 44.5c0 32.667 10 59.834 30 81.501s45.667 41.167 77 58.5z" />
    <glyph glyph-name="quotesingle" unicode="'" horiz-adv-x="135" 
d="M99 638h-63l12 -205h36z" />
    <glyph glyph-name="parenleft" unicode="(" horiz-adv-x="226" 
d="M219 695l-63.999 13.999c-35.333 -66 -63 -136.833 -83 -212.5s-30 -161.5 -30 -257.5c0 -49.333 2.5 -94.5 7.5 -135.5s12.167 -79.5 21.5 -115.5s20.5 -70 33.5 -102s27.167 -63.333 42.5 -94l68 -16c-36.667 74 -64.334 147.833 -83.001 221.5s-28 154.5 -28 242.5
c0 85.333 10.667 166.833 32 244.5s49 147.834 83 210.501z" />
    <glyph glyph-name="parenright" unicode=")" horiz-adv-x="226" 
d="M184 246c0 48.667 -2.50098 93.666 -7.50098 134.999s-12.167 80 -21.5 116s-20.5 70 -33.5 102s-27.167 63.333 -42.5 94l-68 17c18 -37.333 33.833 -74.166 47.5 -110.499s25.334 -73.5 35.001 -111.5s16.834 -77 21.501 -117s7 -82 7 -126
c0 -84.667 -10.667 -166 -32 -244s-49 -148.333 -83 -211l63 -14c35.333 66 63.166 137 83.499 213s30.5 161.667 30.5 257z" />
    <glyph glyph-name="asterisk" unicode="*" horiz-adv-x="408" 
d="M394 526l-31 53l-137 -52l7 159l-59 -14l5 -145l-147 53l-7 -58l141 -38l-97 -126l54 -25l80 123l90 -133l40 45l-92 117z" />
    <glyph glyph-name="plus" unicode="+" horiz-adv-x="462" 
d="M418 250v54h-157v149h-60v-149h-157v-54h157v-149h60v149h157z" />
    <glyph glyph-name="comma" unicode="," horiz-adv-x="186" 
d="M142 39c0 4.66699 -1.83398 9.83301 -5.50098 15.5s-8.16699 11 -13.5 16s-10.833 9.16699 -16.5 12.5s-10.167 5 -13.5 5c-4 0 -8.66699 -1.83301 -14 -5.5s-10.666 -8 -15.999 -13s-9.83301 -10.333 -13.5 -16s-5.5 -10.5 -5.5 -14.5
c0 -3.33301 1.5 -7.16602 4.5 -11.499s6.66699 -8.5 11 -12.5s9 -7.66699 14 -11s9.83301 -5.33301 14.5 -6c0 -15.333 -4 -33.333 -12 -54s-18.333 -39 -31 -55l25 -4c8.66699 8.66699 17.167 19.5 25.5 32.5s16 26.5 23 40.5s12.667 28.167 17 42.5s6.5 27.166 6.5 38.499
z" />
    <glyph glyph-name="hyphen" unicode="-" horiz-adv-x="338" 
d="M294 250v54h-250v-54h250z" />
    <glyph glyph-name="hyphen" unicode="&#xad;" horiz-adv-x="338" 
d="M294 250v54h-250v-54h250z" />
    <glyph glyph-name="period" unicode="." horiz-adv-x="186" 
d="M142 39c0 4 -1.83301 8.66699 -5.5 14s-8 10.666 -13 15.999s-10.333 9.83301 -16 13.5s-10.5 5.5 -14.5 5.5s-8.83301 -1.83301 -14.5 -5.5s-11 -8.16699 -16 -13.5s-9.33301 -10.666 -13 -15.999s-5.5 -10 -5.5 -14s1.83301 -8.83301 5.5 -14.5s8 -11 13 -16
s10.333 -9.33301 16 -13s10.5 -5.5 14.5 -5.5s8.83301 1.83301 14.5 5.5s11 8 16 13s9.33301 10.333 13 16s5.5 10.5 5.5 14.5z" />
    <glyph glyph-name="slash" unicode="/" horiz-adv-x="459" 
d="M413 639l-48 25l-407 -798l48 -25z" />
    <glyph glyph-name="zero" unicode="0" horiz-adv-x="504" 
d="M462 320c0 53.333 -5.66699 100.5 -17 141.5s-26.5 75.333 -45.5 103s-41.333 48.667 -67 63s-52.5 21.5 -80.5 21.5c-28.667 0 -55.667 -7 -81 -21s-47.5 -34.833 -66.5 -62.5s-34.167 -62 -45.5 -103s-17 -88.5 -17 -142.5s5.66699 -101.667 17 -143
s26.5 -75.833 45.5 -103.5s41.167 -48.5 66.5 -62.5s52.333 -21 81 -21c28 0 54.833 7 80.5 21s48 35 67 63s34.167 62.5 45.5 103.5s17 88.5 17 142.5zM398 320c0 -46.667 -4 -87.168 -12 -121.501s-18.833 -62.833 -32.5 -85.5s-29.334 -39.5 -47.001 -50.5
s-35.834 -16.5 -54.501 -16.5c-19.333 0 -37.833 5.5 -55.5 16.5s-33.167 27.833 -46.5 50.5s-24 51.167 -32 85.5s-12 74.833 -12 121.5c0 46 4 86 12 120s18.667 62.333 32 85s28.833 39.5 46.5 50.5s36.167 16.5 55.5 16.5c18.667 0 36.834 -5.5 54.501 -16.5
s33.334 -27.667 47.001 -50s24.5 -50.666 32.5 -84.999s12 -74.5 12 -120.5z" />
    <glyph glyph-name="one" unicode="1" horiz-adv-x="255" 
d="M186 0v644l-165 -15l-14 -55l115 12v-586h64z" />
    <glyph glyph-name="two" unicode="2" horiz-adv-x="450" 
d="M408 0l-0.00390625 54.998h-267c35.333 38 67.5 74.833 96.5 110.5s53.833 70.5 74.5 104.5s36.667 66.667 48 98s17 61.333 17 90c0 31.333 -4.66699 58.833 -14 82.5s-22.333 43.5 -39 59.5s-36.667 28.167 -60 36.5s-48.666 12.5 -75.999 12.5
c-28 0 -53.833 -3.33301 -77.5 -10s-44.167 -15.667 -61.5 -27l15 -55c16.667 10.667 35.834 19.334 57.501 26.001s43.834 10 66.501 10c35.333 0 65 -10.833 89 -32.5s36 -55.167 36 -100.5c0 -50.667 -23.667 -113.167 -71 -187.5s-115.666 -160.166 -204.999 -257.499
v-15h371z" />
    <glyph glyph-name="three" unicode="3" horiz-adv-x="434" 
d="M392 191c0 26.667 -4.33008 50.834 -12.9971 72.501s-20 40.334 -34 56.001s-30.167 28.334 -48.5 38.001s-37.166 15.5 -56.499 17.5c14 3.33301 27.167 8.83301 39.5 16.5s23.166 17 32.499 28s16.666 23.667 21.999 38s8 30.166 8 47.499c0 20.667 -4 39.667 -12 57
s-19.333 32.333 -34 45s-32.334 22.667 -53.001 30s-43.334 11 -68.001 11c-23.333 0 -44.833 -2.83301 -64.5 -8.5s-38.167 -13.5 -55.5 -23.5l14 -54c32.667 20.667 67.334 31 104.001 31c33.333 0 59.166 -9.16699 77.499 -27.5s27.5 -40.166 27.5 -65.499
c0 -28 -12.333 -52.333 -37 -73s-57 -34.667 -97 -42l14 -53c5.33301 0.666992 10.5 1.16699 15.5 1.5s9.83301 0.5 14.5 0.5c19.333 0 37.5 -3.66699 54.5 -11s31.833 -17.166 44.5 -29.499s22.667 -26.833 30 -43.5s11 -34.334 11 -53.001c0 -24 -4.33301 -45.333 -13 -64
s-20.5 -34.334 -35.5 -47.001s-32.167 -22.334 -51.5 -29.001s-40 -10 -62 -10c-20.667 0 -41.834 3.16699 -63.501 9.5s-41.167 14.833 -58.5 25.5l8 -64c15.333 -8 33.5 -14.5 54.5 -19.5s41.833 -7.5 62.5 -7.5c34.667 0 65.834 5 93.501 15s51.167 23.833 70.5 41.5
s34 38.667 44 63s15 51.166 15 80.499z" />
    <glyph glyph-name="four" unicode="4" horiz-adv-x="470" 
d="M428 183v52h-71v403h-43l-307 -404l12 -51h274v-183h64v183h71zM294 527c-0.666992 -17.333 -0.999023 -33.667 -0.999023 -49v-48v-195h-219l147 194l35.5 47.5c12.333 16.333 24.166 33.5 35.499 51.5z" />
    <glyph glyph-name="five" unicode="5" horiz-adv-x="454" 
d="M412 191c0 30.667 -5.50098 58.668 -16.501 84.001s-26 46.833 -45 64.5s-41.333 31.334 -67 41.001s-53.167 14.5 -82.5 14.5c-11.333 0 -21.833 -1 -31.5 -3s-17.167 -3.66699 -22.5 -5l6 196h194l14 55h-269l-10 -319c15.333 6 32.5 10.833 51.5 14.5
s39.833 5.5 62.5 5.5c20.667 0 40.334 -3.66699 59.001 -11s34.834 -17.5 48.501 -30.5s24.5 -28.5 32.5 -46.5s12 -38 12 -60s-4 -42 -12 -60s-19 -33.167 -33 -45.5s-30.333 -22 -49 -29s-38.667 -10.5 -60 -10.5c-48.667 0 -92.334 13 -131.001 39l8 -65
c13.333 -8 31.333 -15 54 -21s46.667 -9 72 -9c34 0 64.333 5.33301 91 16s49.167 25.167 67.5 43.5s32.333 39.666 42 63.999s14.5 50.166 14.5 77.499z" />
    <glyph glyph-name="six" unicode="6" horiz-adv-x="490" 
d="M453 191c0 29.333 -4.83203 56.332 -14.499 80.999s-23.334 46 -41.001 64s-38.834 32 -63.501 42s-52 15 -82 15c-28.667 0 -53 -5.66699 -73 -17s-36.667 -25.666 -50 -42.999c21.333 62 55.333 117.667 102 167s102.334 91 167.001 125l-64 28
c-42 -22.667 -80.833 -50.334 -116.5 -83.001s-66.5 -68.334 -92.5 -107.001s-46.333 -79.5 -61 -122.5s-22 -85.833 -22 -128.5c0 -35.333 5.5 -66.666 16.5 -93.999s26 -50.5 45 -69.5s41.167 -33.5 66.5 -43.5s52 -15 80 -15c29.333 0 56.5 5 81.5 15s46.5 24 64.5 42
s32 39.333 42 64s15 51.334 15 80.001zM389.001 187.999c0 -21.333 -3.50098 -40.834 -10.501 -58.501s-16.667 -33 -29 -46s-27 -23 -44 -30s-35.167 -10.5 -54.5 -10.5s-37.833 3.83301 -55.5 11.5s-33 18.5 -46 32.5s-23.333 30.5 -31 49.5s-11.5 39.5 -11.5 61.5v14
c0 4.66699 0.333008 9.33398 1 14.001c8.66699 37.333 25.834 64.833 51.501 82.5s55.167 26.5 88.5 26.5c20.667 0 39.5 -3.66699 56.5 -11s31.833 -17.5 44.5 -30.5s22.5 -28.5 29.5 -46.5s10.5 -37.667 10.5 -59z" />
    <glyph glyph-name="seven" unicode="7" horiz-adv-x="449" 
d="M423 638h-416v-55h325l-250 -583h68z" />
    <glyph glyph-name="eight" unicode="8" horiz-adv-x="498" 
d="M456 173c0 24 -4.49902 45.834 -13.499 65.501s-20.333 37 -34 52s-28.834 27.5 -45.501 37.5s-33 17.333 -49 22c14.667 4.66699 28.667 11.5 42 20.5s25.333 19.667 36 32s19.167 26.166 25.5 41.499s9.5 32 9.5 50c0 23.333 -4.66699 44.5 -14 63.5s-22 35.333 -38 49
s-34.833 24.167 -56.5 31.5s-44.834 11 -69.501 11s-47.834 -3.66699 -69.501 -11s-40.667 -17.833 -57 -31.5s-29.166 -30 -38.499 -49s-14 -40.167 -14 -63.5c0 -18 3.16699 -34.833 9.5 -50.5s14.833 -29.5 25.5 -41.5s22.834 -22.5 36.501 -31.5
s27.834 -16.167 42.501 -21.5c-16 -5.33301 -32.5 -12.833 -49.5 -22.5s-32.333 -22 -46 -37s-24.834 -32.167 -33.501 -51.5s-13 -41 -13 -65c0 -28.667 5.5 -54.334 16.5 -77.001s25.833 -42 44.5 -58s40.667 -28.167 66 -36.5s52 -12.5 80 -12.5s54.667 4.16699 80 12.5
s47.333 20.5 66 36.5s33.5 35.333 44.5 58s16.5 48.334 16.5 77.001zM366.001 493.001c0 -26.667 -9.99902 -50.332 -29.999 -70.999s-48 -36.334 -84 -47.001c-36.667 10 -65.667 25.5 -87 46.5s-32 44.833 -32 71.5c0 14.667 3.16699 28.334 9.5 41.001
s14.666 23.5 24.999 32.5s22.5 16 36.5 21s29 7.5 45 7.5s31.167 -2.5 45.5 -7.5s26.833 -12 37.5 -21s19 -19.833 25 -32.5s9 -26.334 9 -41.001zM392.002 175.003c0 -20 -3.83496 -38.001 -11.502 -54.001s-18.167 -29.667 -31.5 -41s-28.833 -20 -46.5 -26
s-36.167 -9 -55.5 -9s-37.666 3 -54.999 9s-32.666 14.667 -45.999 26s-24 25 -32 41s-12 34 -12 54c0 18.667 4 35.667 12 51s18.5 29.166 31.5 41.499s28.167 22.833 45.5 31.5s35 15.334 53 20.001c19.333 -5.33301 38 -12.333 56 -21s33.833 -19.167 47.5 -31.5
s24.5 -26.166 32.5 -41.499s12 -32 12 -50z" />
    <glyph glyph-name="nine" unicode="9" horiz-adv-x="490" 
d="M448 428c0 35.333 -5.5 66.666 -16.5 93.999s-26 50.5 -45 69.5s-41.167 33.333 -66.5 43s-52 14.5 -80 14.5c-29.333 0 -56.5 -5 -81.5 -15s-46.5 -24 -64.5 -42s-32 -39.167 -42 -63.5s-15 -50.833 -15 -79.5c0 -29.333 4.83301 -56.333 14.5 -81
s23.334 -46 41.001 -64s38.834 -32.167 63.501 -42.5s52 -15.5 82 -15.5c28.667 0 53.167 5.5 73.5 16.5s37.166 25.167 50.499 42.5c-21.333 -61.333 -55.333 -116.5 -102 -165.5s-102.334 -90.833 -167.001 -125.5l64 -28c42 22.667 80.667 50.334 116 83.001
s66 68.5 92 107.5s46.333 80 61 123s22 85.833 22 128.5zM384 438v-14c0 -4 -0.333008 -8.33301 -1 -13c-8.66699 -38 -25.834 -65.833 -51.501 -83.5s-55.5 -26.5 -89.5 -26.5c-20.667 0 -39.667 3.66699 -57 11s-32.166 17.5 -44.499 30.5s-22 28.5 -29 46.5
s-10.5 37.667 -10.5 59s3.5 40.833 10.5 58.5s16.667 32.834 29 45.501s27 22.5 44 29.5s35.167 10.5 54.5 10.5s37.833 -3.83301 55.5 -11.5s33.167 -18.334 46.5 -32.001s23.833 -30 31.5 -49s11.5 -39.5 11.5 -61.5z" />
    <glyph glyph-name="colon" unicode=":" horiz-adv-x="186" 
d="M142 414c0 4 -1.83301 8.83301 -5.5 14.5s-8 11 -13 16s-10.333 9.33301 -16 13s-10.5 5.5 -14.5 5.5s-8.83301 -1.83301 -14.5 -5.5s-11 -8 -16 -13s-9.33301 -10.333 -13 -16s-5.5 -10.5 -5.5 -14.5s1.83301 -8.66699 5.5 -14s8 -10.5 13 -15.5s10.333 -9.33301 16 -13
s10.5 -5.5 14.5 -5.5s8.83301 1.83301 14.5 5.5s11 8 16 13s9.33301 10.167 13 15.5s5.5 10 5.5 14zM142 39c0 4 -1.83301 8.66699 -5.5 14s-8 10.666 -13 15.999s-10.333 9.83301 -16 13.5s-10.5 5.5 -14.5 5.5s-8.83301 -1.83301 -14.5 -5.5s-11 -8.16699 -16 -13.5
s-9.33301 -10.666 -13 -15.999s-5.5 -10 -5.5 -14s1.83301 -8.83301 5.5 -14.5s8 -11 13 -16s10.333 -9.33301 16 -13s10.5 -5.5 14.5 -5.5s8.83301 1.83301 14.5 5.5s11 8 16 13s9.33301 10.333 13 16s5.5 10.5 5.5 14.5z" />
    <glyph glyph-name="semicolon" unicode=";" horiz-adv-x="186" 
d="M142 414c0 4 -1.83301 8.83301 -5.5 14.5s-8 11 -13 16s-10.333 9.33301 -16 13s-10.5 5.5 -14.5 5.5s-8.83301 -1.83301 -14.5 -5.5s-11 -8 -16 -13s-9.33301 -10.333 -13 -16s-5.5 -10.5 -5.5 -14.5s1.83301 -8.66699 5.5 -14s8 -10.5 13 -15.5s10.333 -9.33301 16 -13
s10.5 -5.5 14.5 -5.5s8.83301 1.83301 14.5 5.5s11 8 16 13s9.33301 10.167 13 15.5s5.5 10 5.5 14zM142 39c0 4.66699 -1.83398 9.83301 -5.50098 15.5s-8.16699 11 -13.5 16s-10.833 9.16699 -16.5 12.5s-10.167 5 -13.5 5c-4 0 -8.66699 -1.83301 -14 -5.5
s-10.666 -8 -15.999 -13s-9.83301 -10.333 -13.5 -16s-5.5 -10.5 -5.5 -14.5c0 -3.33301 1.5 -7.16602 4.5 -11.499s6.66699 -8.5 11 -12.5s9 -7.66699 14 -11s9.83301 -5.33301 14.5 -6c0 -15.333 -4 -33.333 -12 -54s-18.333 -39 -31 -55l25 -4
c8.66699 8.66699 17.167 19.5 25.5 32.5s16 26.5 23 40.5s12.667 28.167 17 42.5s6.5 27.166 6.5 38.499z" />
    <glyph glyph-name="semicolon" unicode="&#x37e;" horiz-adv-x="186" 
d="M142 414c0 4 -1.83301 8.83301 -5.5 14.5s-8 11 -13 16s-10.333 9.33301 -16 13s-10.5 5.5 -14.5 5.5s-8.83301 -1.83301 -14.5 -5.5s-11 -8 -16 -13s-9.33301 -10.333 -13 -16s-5.5 -10.5 -5.5 -14.5s1.83301 -8.66699 5.5 -14s8 -10.5 13 -15.5s10.333 -9.33301 16 -13
s10.5 -5.5 14.5 -5.5s8.83301 1.83301 14.5 5.5s11 8 16 13s9.33301 10.167 13 15.5s5.5 10 5.5 14zM142 39c0 4.66699 -1.83398 9.83301 -5.50098 15.5s-8.16699 11 -13.5 16s-10.833 9.16699 -16.5 12.5s-10.167 5 -13.5 5c-4 0 -8.66699 -1.83301 -14 -5.5
s-10.666 -8 -15.999 -13s-9.83301 -10.333 -13.5 -16s-5.5 -10.5 -5.5 -14.5c0 -3.33301 1.5 -7.16602 4.5 -11.499s6.66699 -8.5 11 -12.5s9 -7.66699 14 -11s9.83301 -5.33301 14.5 -6c0 -15.333 -4 -33.333 -12 -54s-18.333 -39 -31 -55l25 -4
c8.66699 8.66699 17.167 19.5 25.5 32.5s16 26.5 23 40.5s12.667 28.167 17 42.5s6.5 27.166 6.5 38.499z" />
    <glyph glyph-name="less" unicode="&#x3c;" horiz-adv-x="462" 
d="M418 118v57l-322 102l322 102v58l-374 -122v-75z" />
    <glyph glyph-name="equal" unicode="=" horiz-adv-x="462" 
d="M418 336v54h-374v-54h374zM418 164v54h-374v-54h374z" />
    <glyph glyph-name="greater" unicode="&#x3e;" horiz-adv-x="462" 
d="M418 240v75l-374 122v-58l322 -102l-322 -102v-57z" />
    <glyph glyph-name="question" unicode="?" horiz-adv-x="374" 
d="M333 495c0 24 -4.16797 45.499 -12.501 64.499s-20 35.167 -35 48.5s-32.667 23.5 -53 30.5s-42.5 10.5 -66.5 10.5c-26.667 0 -50.667 -3.33301 -72 -10s-39.666 -15 -54.999 -25l14 -57c15.333 10 32.333 18.333 51 25s39.334 10 62.001 10
c30.667 0 55 -9.33301 73 -28s27 -40 27 -64c0 -24.667 -6.33301 -46.167 -19 -64.5s-28.334 -36.833 -47.001 -55.5c-19.333 -19.333 -34.333 -41.333 -45 -66s-16 -51.667 -16 -81c0 -9.33301 0.666992 -18.666 2 -27.999s3 -18.333 5 -27l58 -14
c-2 9.33301 -3.5 20 -4.5 32s-1.5 22.667 -1.5 32c0 39.333 16.333 76.333 49 111c25.333 26.667 46 51.667 62 75s24 50.333 24 81zM225.999 38.999c0 4 -1.83301 8.66699 -5.5 14s-8 10.666 -13 15.999s-10.333 9.83301 -16 13.5s-10.5 5.5 -14.5 5.5
s-8.83301 -1.83301 -14.5 -5.5s-11 -8.16699 -16 -13.5s-9.33301 -10.666 -13 -15.999s-5.5 -10 -5.5 -14s1.83301 -8.83301 5.5 -14.5s8 -11 13 -16s10.333 -9.33301 16 -13s10.5 -5.5 14.5 -5.5s8.83301 1.83301 14.5 5.5s11 8 16 13s9.33301 10.333 13 16
s5.5 10.5 5.5 14.5z" />
    <glyph glyph-name="at" unicode="@" horiz-adv-x="757" 
d="M715 330c0 48 -9.00293 91.667 -27.0029 131s-42.333 72.833 -73 100.5s-66.334 49.167 -107.001 64.5s-83.334 23 -128.001 23s-87.5 -7.83301 -128.5 -23.5s-77 -37.834 -108 -66.501s-55.667 -63.167 -74 -103.5s-27.5 -85.166 -27.5 -134.499
s8.83301 -94.166 26.5 -134.499s41.5 -74.833 71.5 -103.5s64.667 -50.834 104 -66.501s80.666 -23.5 123.999 -23.5c41.333 0 72 4 92 12l6 47c-13.333 -4.66699 -28.333 -8 -45 -10s-33.667 -3 -51 -3c-36 0 -70.667 6.66699 -104 20s-62.666 32.166 -87.999 56.499
s-45.666 53.833 -60.999 88.5s-23 73.334 -23 116.001s7.83301 81.334 23.5 116.001s36.834 64.334 63.501 89.001s57.167 43.5 91.5 56.5s70.5 19.5 108.5 19.5c37.333 0 73 -6.5 107 -19.5s64 -31.333 90 -55s46.833 -52.167 62.5 -85.5s23.5 -70.333 23.5 -111
c0 -45.333 -10.5 -81.666 -31.5 -108.999s-47.167 -41 -78.5 -41c-10.667 0 -20.167 3.5 -28.5 10.5s-12.5 18.833 -12.5 35.5v155c0 38 -12.667 67 -38 87s-57 30 -95 30c-21.333 0 -41.666 -2.83301 -60.999 -8.5s-35.666 -12.834 -48.999 -21.501l13 -47
c12.667 8 27.167 14.667 43.5 20s33.166 8 50.499 8c25.333 0 44.833 -5.83301 58.5 -17.5s20.5 -27.167 20.5 -46.5v-29l-88 -8c-14.667 -1.33301 -29 -4.5 -43 -9.5s-26.5 -12 -37.5 -21s-19.833 -20 -26.5 -33s-10 -28.167 -10 -45.5
c0 -14.667 2.83301 -28.334 8.5 -41.001s13.5 -23.667 23.5 -33s22 -16.666 36 -21.999s29.667 -8 47 -8c22.667 0 43.834 5.16699 63.501 15.5s34.167 26.166 43.5 47.499c3.33301 -21.333 12.833 -37.166 28.5 -47.499s32.834 -15.5 51.501 -15.5c26 0 49 5.83301 69 17.5
s37 26.667 51 45s24.5 39.166 31.5 62.499s10.5 46.666 10.5 69.999zM455.997 267c0 -13.333 -2.5 -25.168 -7.5 -35.501s-11.5 -19.166 -19.5 -26.499s-17.167 -12.833 -27.5 -16.5s-20.833 -5.5 -31.5 -5.5c-19.333 0 -34.833 5.33301 -46.5 16s-17.5 24 -17.5 40
c0 20.667 7.16699 35.667 21.5 45s31.5 15 51.5 17l77 8v-42z" />
    <glyph glyph-name="A" unicode="A" horiz-adv-x="601" 
d="M575 0l-262 647h-25l-262 -647h67l72 179h269l73 -179h68zM411 234h-223l77 196l17 47c6 16.667 11.667 33.667 17 51h2c5.33301 -17.333 11 -34.333 17 -51l17 -47z" />
    <glyph glyph-name="B" unicode="B" horiz-adv-x="505" 
d="M463 190c0 21.333 -3.66699 41.502 -11 60.502s-17.333 36 -30 51s-27.167 27.667 -43.5 38s-33.5 17.5 -51.5 21.5c21.333 9.33301 38.333 25.166 51 47.499s19 46.166 19 71.499c0 24.667 -4.66699 46.834 -14 66.501s-22 36.167 -38 49.5s-34.333 23.666 -55 30.999
s-42 11 -64 11h-157v-638h193c26 -0 51 4.33301 75 13s45.333 21 64 37s33.667 35.833 45 59.5s17 50.5 17 80.5zM330 480.002c0 -32.667 -10.999 -57.666 -32.999 -74.999s-48 -26 -78 -26h-86v203h83c31.333 0 58.166 -8.83301 80.499 -26.5s33.5 -42.834 33.5 -75.501z
M396.001 190.003c0 -21.333 -4 -40.3311 -12 -56.998s-18.667 -30.667 -32 -42s-28.833 -20 -46.5 -26s-36.167 -9 -55.5 -9h-117v268h112c20.667 0 40.167 -3 58.5 -9s34.333 -14.833 48 -26.5s24.5 -25.834 32.5 -42.501s12 -35.334 12 -56.001z" />
    <glyph glyph-name="C" unicode="C" horiz-adv-x="604" 
d="M562 602c-20.667 11.333 -46.832 21.168 -78.499 29.501s-67.5 12.5 -107.5 12.5c-42 0 -83.167 -7.33301 -123.5 -22s-76 -36 -107 -64s-56 -62.167 -75 -102.5s-28.5 -85.833 -28.5 -136.5s9.5 -96 28.5 -136s44 -74 75 -102s66.5 -49.5 106.5 -64.5
s81.333 -22.5 124 -22.5c39.333 0 72.5 3 99.5 9s50.167 14.667 69.5 26l7 63c-21.333 -12.667 -45.833 -22.5 -73.5 -29.5s-59.834 -10.5 -96.501 -10.5c-36 0 -70.5 6.16699 -103.5 18.5s-62 30 -87 53s-44.833 50.833 -59.5 83.5s-22 69.667 -22 111s7.5 78.5 22.5 111.5
s35 61 60 84s54 40.5 87 52.5s67.167 18 102.5 18c34 0 65.833 -4.33301 95.5 -13s53.167 -18.334 70.5 -29.001z" />
    <glyph glyph-name="D" unicode="D" horiz-adv-x="632" 
d="M590 319c0 50.667 -9.33301 95.832 -28 135.499s-44.167 73 -76.5 100s-70 47.667 -113 62s-88.5 21.5 -136.5 21.5h-167v-638h167c48 0 93.5 7.16699 136.5 21.5s80.667 35 113 62s57.833 60.333 76.5 100s28 84.834 28 135.501zM521 317.998
c0 -42.667 -7.5 -80.166 -22.5 -112.499s-35.667 -59.5 -62 -81.5s-57.5 -38.667 -93.5 -50s-75 -17 -117 -17h-89v523h89c42 0 81 -5.66699 117 -17s67.167 -28 93.5 -50s47 -49.333 62 -82s22.5 -70.334 22.5 -113.001z" />
    <glyph glyph-name="E" unicode="E" horiz-adv-x="444" 
d="M437 0v58h-301v234h218v58h-218v230h266v58h-333v-638h368z" />
    <glyph glyph-name="F" unicode="F" horiz-adv-x="415" 
d="M408 580v58h-339v-638h67v292h232v58h-232v230h272z" />
    <glyph glyph-name="G" unicode="G" horiz-adv-x="676" 
d="M617 58l0.00292969 252.001h-233v-55h169v-166c-18.667 -12.667 -41.834 -22.834 -69.501 -30.501s-59.5 -11.5 -95.5 -11.5c-36.667 0 -71.834 6.16699 -105.501 18.5s-63.167 30.166 -88.5 53.499s-45.666 51.666 -60.999 84.999s-23 71 -23 113
s7.66699 79.833 23 113.5s35.666 62.334 60.999 86.001s54.833 41.667 88.5 54s68.5 18.5 104.5 18.5c34 0 66.667 -4.5 98 -13.5s58.666 -20.833 81.999 -35.5l14 60c-24 15.333 -53 27.333 -87 36s-72 13 -114 13c-42.667 0 -84.334 -7.5 -125.001 -22.5
s-76.667 -36.667 -108 -65s-56.666 -62.833 -75.999 -103.5s-29 -87 -29 -139c0 -51.333 9.5 -97.333 28.5 -138s44.333 -75.167 76 -103.5s68 -50.166 109 -65.499s83.833 -23 128.5 -23c95.333 0 173 23 233 69z" />
    <glyph glyph-name="H" unicode="H" horiz-adv-x="638" 
d="M569 0v638h-67v-288h-366v288h-67v-638h67v292h366v-292h67z" />
    <glyph glyph-name="I" unicode="I" horiz-adv-x="225" 
d="M146 0v638h-67v-638h67z" />
    <glyph glyph-name="J" unicode="J" horiz-adv-x="225" 
d="M146 129l-0.000976562 509h-67v-502c0 -63.333 -13.667 -112.333 -41 -147s-66.666 -57.334 -117.999 -68.001l44 -45c23.333 4.66699 46 13.334 68 26.001s41.5 29.5 58.5 50.5s30.5 46.167 40.5 75.5s15 63 15 101z" />
    <glyph glyph-name="K" unicode="K" horiz-adv-x="518" 
d="M505 0l-298 325l284 313h-77l-277 -307h-1v307h-67v-638h67v306h1l280 -306h88z" />
    <glyph glyph-name="L" unicode="L" horiz-adv-x="440" 
d="M433 0v58h-297v580h-67v-638h364z" />
    <glyph glyph-name="M" unicode="M" horiz-adv-x="805" 
d="M756 0l-52.998 638.001h-43l-174 -357l-43 -90c-14 -30 -27 -59.667 -39 -89h-2c-12.667 30 -26.334 60.333 -41.001 91l-42 88l-175 357h-44l-51 -638h61l26 331c2 24 3.83301 50.667 5.5 80s3.16699 57.666 4.5 84.999h2l39 -87l39 -82l161 -331h25l161 331l40.5 84.5
c14.333 30.333 27.166 58.833 38.499 85.5h2c1.33301 -27.333 3 -55 5 -83l6 -83l26 -331h65z" />
    <glyph glyph-name="N" unicode="N" horiz-adv-x="692" 
d="M623 -10v648h-67v-340v-83c0 -28 0.666992 -56.333 2 -85l-2 -1l-34.5 42l-37.5 44.5l-37.5 44.5l-34.5 40l-296 338h-47v-638h67v352v87c0 29.333 -0.666992 59 -2 89l2 1l74.5 -90l80.5 -94l312 -355h20z" />
    <glyph glyph-name="O" unicode="O" horiz-adv-x="752" 
d="M710 320c0 49.333 -9.16699 94.166 -27.5 134.499s-42.833 75 -73.5 104s-66.167 51.333 -106.5 67s-82.5 23.5 -126.5 23.5s-86.167 -7.83301 -126.5 -23.5s-75.833 -38 -106.5 -67s-55.167 -63.667 -73.5 -104s-27.5 -85.166 -27.5 -134.499s9.16699 -94.333 27.5 -135
s42.833 -75.5 73.5 -104.5s66.167 -51.5 106.5 -67.5s82.5 -24 126.5 -24s86.167 8 126.5 24s75.833 38.5 106.5 67.5s55.167 63.833 73.5 104.5s27.5 85.667 27.5 135zM642 318c0 -41.333 -7.33301 -78.666 -22 -111.999s-34.334 -61.666 -59.001 -84.999
s-53 -41.5 -85 -54.5s-65.333 -19.5 -100 -19.5c-35.333 0 -69 6.5 -101 19.5s-60.167 31.167 -84.5 54.5s-43.833 51.666 -58.5 84.999s-22 70.666 -22 111.999c0 40.667 7.33301 77.834 22 111.501s34.167 62.167 58.5 85.5s52.5 41.5 84.5 54.5s65.667 19.5 101 19.5
c34.667 0 68 -6.5 100 -19.5s60.333 -31.167 85 -54.5s44.334 -51.833 59.001 -85.5s22 -70.834 22 -111.501z" />
    <glyph glyph-name="P" unicode="P" horiz-adv-x="479" 
d="M442 465c0 27.333 -5.16797 51.668 -15.501 73.001s-24.166 39.5 -41.499 54.5s-37.333 26.333 -60 34s-46 11.5 -70 11.5h-186v-638h67v292h121c24 0 47.167 3.83301 69.5 11.5s42 19 59 34s30.667 33.167 41 54.5s15.5 45.666 15.5 72.999zM373.999 464.002
c0 -18 -3.50098 -34.167 -10.501 -48.5s-16.333 -26.5 -28 -36.5s-25.167 -17.5 -40.5 -22.5s-31.666 -7.5 -48.999 -7.5h-110v230h108c17.333 0 33.833 -2.66699 49.5 -8s29.5 -12.833 41.5 -22.5s21.5 -21.667 28.5 -36s10.5 -30.5 10.5 -48.5z" />
    <glyph glyph-name="Q" unicode="Q" horiz-adv-x="752" 
d="M749 -54c-24 -10.667 -50.6602 -15.999 -79.9932 -15.999c-23.333 0 -46.833 3.5 -70.5 10.5s-51.834 18.5 -84.501 34.5c-15.333 7.33301 -29.333 13.166 -42 17.499s-24.334 7.5 -35.001 9.5v2c38 4 73.667 14.667 107 32s62.166 40 86.499 68s43.666 60.333 57.999 97
s21.5 76.334 21.5 119.001c0 49.333 -9.16699 94.166 -27.5 134.499s-42.833 75 -73.5 104s-66.167 51.333 -106.5 67s-82.5 23.5 -126.5 23.5s-86.167 -7.83301 -126.5 -23.5s-75.833 -38 -106.5 -67s-55.167 -63.667 -73.5 -104s-27.5 -85.166 -27.5 -134.499
c0 -46.667 8 -89.334 24 -128.001s37.833 -72.167 65.5 -100.5s59.667 -51.166 96 -68.499s75.166 -28 116.499 -32c15.333 -6.66699 33.5 -15 54.5 -25s44.167 -21.667 69.5 -35c18 -10 34.833 -18.333 50.5 -25s31 -12.334 46 -17.001s29.833 -8 44.5 -10s30.667 -3 48 -3
c9.33301 0 18.166 0.833008 26.499 2.5s15.166 3.16699 20.499 4.5zM642.007 318.001c0 -41.333 -7.33301 -78.666 -22 -111.999s-34.334 -61.666 -59.001 -84.999s-53 -41.5 -85 -54.5s-65.333 -19.5 -100 -19.5c-35.333 0 -69 6.5 -101 19.5s-60.167 31.167 -84.5 54.5
s-43.833 51.666 -58.5 84.999s-22 70.666 -22 111.999c0 40.667 7.33301 77.834 22 111.501s34.167 62.167 58.5 85.5s52.5 41.5 84.5 54.5s65.667 19.5 101 19.5c34.667 0 68 -6.5 100 -19.5s60.333 -31.167 85 -54.5s44.334 -51.833 59.001 -85.5s22 -70.834 22 -111.501z
" />
    <glyph glyph-name="R" unicode="R" horiz-adv-x="505" 
d="M531 0l-224.001 302.001c36 10 65.833 29.167 89.5 57.5s35.5 63.5 35.5 105.5c0 27.333 -5.16699 51.666 -15.5 72.999s-24.166 39.5 -41.499 54.5s-37.333 26.333 -60 34s-46 11.5 -70 11.5h-176v-638h67v292h100l212 -292h83zM363.999 464.001
c0 -18 -3.50098 -34.167 -10.501 -48.5s-16.333 -26.5 -28 -36.5s-25.167 -17.5 -40.5 -22.5s-31.666 -7.5 -48.999 -7.5h-100v230h98c17.333 0 33.833 -2.66699 49.5 -8s29.5 -12.833 41.5 -22.5s21.5 -21.667 28.5 -36s10.5 -30.5 10.5 -48.5z" />
    <glyph glyph-name="S" unicode="S" horiz-adv-x="468" 
d="M426 173c0 26.667 -4.1748 49.998 -12.5078 69.998s-20.166 37.833 -35.499 53.5s-34.166 29.5 -56.499 41.5s-47.5 23 -75.5 33c-40 14.667 -69.167 31.167 -87.5 49.5s-27.5 41.166 -27.5 68.499c0 12.667 2.66699 24.834 8 36.501s13 22.167 23 31.5
s22.5 16.833 37.5 22.5s32.167 8.5 51.5 8.5c24 0 47.167 -3.83301 69.5 -11.5s39.5 -16.167 51.5 -25.5l15 57c-13.333 8.66699 -31.666 16.834 -54.999 24.501s-49.666 11.5 -78.999 11.5c-32 0 -59.667 -4.5 -83 -13.5s-42.666 -21 -57.999 -36s-26.666 -32 -33.999 -51
s-11 -38.5 -11 -58.5c0 -44 13.333 -80.167 40 -108.5s68.334 -52.5 125.001 -72.5c44 -16 76.167 -34.167 96.5 -54.5s30.5 -47.5 30.5 -81.5c0 -34.667 -12.5 -62.5 -37.5 -83.5s-57.167 -31.5 -96.5 -31.5c-36.667 0 -69.834 5.83301 -99.501 17.5
s-56.167 26.834 -79.5 45.501l9 -73c17.333 -12.667 40.333 -23.834 69 -33.501s61.334 -14.5 98.001 -14.5c31.333 0 59.5 4.16699 84.5 12.5s46.333 20.333 64 36s31.334 34.334 41.001 56.001s14.5 46.167 14.5 73.5z" />
    <glyph glyph-name="T" unicode="T" horiz-adv-x="520" 
d="M513 580v58h-506v-58h219v-580h67v580h220z" />
    <glyph glyph-name="U" unicode="U" horiz-adv-x="636" 
d="M567 221v417h-65v-411c0 -56 -16 -99.667 -48 -131s-77 -47 -135 -47s-103 15.667 -135 47s-48 75 -48 131v411h-67v-417c0 -36 6 -68.333 18 -97s29 -53 51 -73s48.167 -35.333 78.5 -46s64.166 -16 101.499 -16c36.667 0 70.334 5.33301 101.001 16s57 26 79 46
s39 44.333 51 73s18 61 18 97z" />
    <glyph glyph-name="V" unicode="V" horiz-adv-x="584" 
d="M558 638h-64l-135 -344l-32.5 -86c-11 -30 -21.167 -59 -30.5 -87h-2l-30.5 88l-31.5 85l-135 344h-71l255 -649h22z" />
    <glyph glyph-name="W" unicode="W" horiz-adv-x="924" 
d="M898 638l-62.001 0.000976562l-117 -338l-28.5 -83.5c-9.66699 -29 -18.167 -57.167 -25.5 -84.5h-2c-7.33301 28 -15.666 56.333 -24.999 85l-28 84l-115 337h-59l-115 -337l-28 -83c-9.33301 -28.667 -18 -57.334 -26 -86.001h-2c-7.33301 28.667 -16 57.5 -26 86.5
l-29 82.5l-116 337h-68l225 -649h23l127 369l30 88.5c10 29.667 20 62.167 30 97.5h2l30.5 -98.5l29.5 -87.5l126 -369h23z" />
    <glyph glyph-name="X" unicode="X" horiz-adv-x="577" 
d="M535 0l-206.001 329l196 309h-72l-111 -174l-26 -43.5l-25 -43.5h-2l-25 43.5l-26 43.5l-109 174h-77l196 -313l-206 -325h72l117 184l27.5 44c9.66699 16 18.834 32 27.501 48h2c8.66699 -16 17.667 -31.667 27 -47l28 -45l115 -184h77z" />
    <glyph glyph-name="Y" unicode="Y" horiz-adv-x="606" 
d="M580 638h-70l-138 -194l-33.5 -48.5l-32.5 -48.5h-2c-10 16 -20.833 32.333 -32.5 49l-33.5 48l-137 194h-75l243 -343v-295h66v295z" />
    <glyph glyph-name="Z" unicode="Z" horiz-adv-x="521" 
d="M479 0v58h-344l-1 2l55.5 90l56.5 95l221 376v17h-400v-58h306l1 -2l-55.5 -89.5l-57.5 -97.5l-219 -374v-17h437z" />
    <glyph glyph-name="bracketleft" unicode="[" horiz-adv-x="273" 
d="M266 -218v54h-134v810h134v54h-197v-918h197z" />
    <glyph glyph-name="backslash" unicode="\" horiz-adv-x="459" 
d="M501 -134l-407 798l-48 -25l407 -798z" />
    <glyph glyph-name="bracketright" unicode="]" horiz-adv-x="273" 
d="M204 -218v918h-197v-54h134v-810h-134v-54h197z" />
    <glyph glyph-name="asciicircum" unicode="^" 
d="M405 534c-22.667 17.333 -46.1709 38.499 -70.5039 63.499s-44.833 49.5 -61.5 73.5c-3.33301 4 -7.16602 7.5 -11.499 10.5s-8.16602 4.5 -11.499 4.5s-7.16602 -1.5 -11.499 -4.5s-8.16602 -6.5 -11.499 -10.5c-16.667 -24 -37.167 -48.667 -61.5 -74
s-47.833 -46.666 -70.5 -63.999l40 -18c20 13.333 39.5 27.5 58.5 42.5s36.833 30.833 53.5 47.5c16.667 -16.667 35 -32.5 55 -47.5s40 -29.167 60 -42.5z" />
    <glyph glyph-name="underscore" unicode="_" 
d="M502 -231v55h-503v-55h503z" />
    <glyph glyph-name="grave" unicode="`" 
d="M290 534c-22.667 18 -46.1699 39.332 -70.5029 63.999s-45.166 49 -62.499 73c-3.33301 4.66699 -7.16602 8.33398 -11.499 11.001s-8.16602 4 -11.499 4s-7 -1.33301 -11 -4s-8 -6 -12 -10s-7.33301 -8 -10 -12s-4 -7.33301 -4 -10c0 -3.33301 1 -6.66602 3 -9.99902
s4.33301 -6.66602 7 -9.99902c20 -22.667 41.667 -43.334 65 -62.001s48 -36.334 74 -53.001z" />
    <glyph glyph-name="a" unicode="a" horiz-adv-x="437" 
d="M423 31c-14.667 2.66699 -27.667 9.99902 -39 21.999s-17 29.333 -17 52v207c0 24 -4.16699 45.5 -12.5 64.5s-20 34.833 -35 47.5s-32.833 22.334 -53.5 29.001s-43 10 -67 10c-27.333 0 -52.5 -3 -75.5 -9s-43.167 -15 -60.5 -27l13 -53
c14.667 10 32.667 18.167 54 24.5s43.333 9.5 66 9.5c34 0 60.333 -8 79 -24s28 -38 28 -66v-43l-119 -11c-19.333 -2 -37.833 -6.33301 -55.5 -13s-33.334 -15.834 -47.001 -27.501s-24.5 -25.834 -32.5 -42.501s-12 -36 -12 -58c0 -18.667 3.5 -36 10.5 -52
s16.833 -30 29.5 -42s27.834 -21.5 45.501 -28.5s37.5 -10.5 59.5 -10.5c29.333 0 56 6.83301 80 20.5s40.333 33.5 49 59.5c2 -23.333 10.5 -41.666 25.5 -54.999s30.167 -21.666 45.5 -24.999zM303 160.999c0 -18 -3.33203 -34.334 -9.99902 -49.001s-15.5 -27 -26.5 -37
s-23.333 -17.667 -37 -23s-27.834 -8 -42.501 -8c-26 0 -47.333 7.5 -64 22.5s-25 33.833 -25 56.5c0 24.667 8.33301 44.834 25 60.501s41 25.167 73 28.5l107 10v-61z" />
    <glyph glyph-name="b" unicode="b" horiz-adv-x="529" 
d="M492 228c0 34 -5.83594 65.333 -17.5029 94s-27.667 53.5 -48 74.5s-44.666 37.333 -72.999 49s-59.166 17.5 -92.499 17.5c-28.667 0 -55.334 -4.5 -80.001 -13.5s-42.667 -19.167 -54 -30.5v293h-63v-669c18.667 -13.333 44.334 -25.5 77.001 -36.5
s68.334 -16.5 107.001 -16.5c36.667 0 70 6 100 18s55.667 28.5 77 49.5s37.833 46 49.5 75s17.5 60.833 17.5 95.5zM427.997 227c0 -26.667 -4.50098 -51.166 -13.501 -73.499s-21.5 -41.5 -37.5 -57.5s-35.5 -28.5 -58.5 -37.5s-48.5 -13.5 -76.5 -13.5
c-22.667 0 -44.667 3.16699 -66 9.5s-37.666 13.166 -48.999 20.499v281c10 10.667 26 21.667 48 33s49 17 81 17c24.667 0 47.5 -4.5 68.5 -13.5s39.167 -21.5 54.5 -37.5s27.333 -34.833 36 -56.5s13 -45.5 13 -71.5z" />
    <glyph glyph-name="c" unicode="c" horiz-adv-x="453" 
d="M416 424c-17.333 10 -37.8311 18.3291 -61.498 24.9961s-49.834 10 -78.501 10c-32.667 0 -63.5 -5.5 -92.5 -16.5s-54.333 -26.667 -76 -47s-38.834 -44.833 -51.501 -73.5s-19 -60.667 -19 -96s6.33301 -67.333 19 -96s30 -53 52 -73s47.5 -35.5 76.5 -46.5
s59.5 -16.5 91.5 -16.5c23.333 0 45.333 2 66 6s38.667 10 54 18l8 61c-19.333 -11.333 -38.833 -19.166 -58.5 -23.499s-41.167 -6.5 -64.5 -6.5c-25.333 0 -49 4.33301 -71 13s-41 20.834 -57 36.501s-28.667 34.167 -38 55.5s-14 45 -14 71s4.5 49.833 13.5 71.5
s21.5 40.334 37.5 56.001s34.833 27.834 56.5 36.501s45.167 13 70.5 13c46.667 0 88 -12.333 124 -37z" />
    <glyph glyph-name="d" unicode="d" horiz-adv-x="531" 
d="M467 0l-0.00195312 712.001h-64v-296c-11.333 12 -29.166 22.833 -53.499 32.5s-51.166 14.5 -80.499 14.5c-33.333 0 -64.166 -5.83301 -92.499 -17.5s-52.833 -28 -73.5 -49s-36.834 -46 -48.501 -75s-17.5 -60.833 -17.5 -95.5c0 -37.333 6.5 -70.5 19.5 -99.5
s30 -53.667 51 -74s45 -35.833 72 -46.5s54.833 -16 83.5 -16c36 0 65.833 6.16699 89.5 18.5s41.167 26.166 52.5 41.499h1v-50h61zM402.998 105.001c-11.333 -15.333 -27.998 -29.167 -49.998 -41.5s-48 -18.5 -78 -18.5c-24.667 0 -47.5 4.33301 -68.5 13
s-39.333 21 -55 37s-28 35 -37 57s-13.5 46.333 -13.5 73s4.5 51 13.5 73s21.333 41 37 57s34 28.5 55 37.5s43.833 13.5 68.5 13.5c31.333 0 57.666 -5.83301 78.999 -17.5s37.666 -23.5 48.999 -35.5v-248z" />
    <glyph glyph-name="e" unicode="e" horiz-adv-x="486" 
d="M449 288c0 22 -4.16309 43.502 -12.4961 64.502s-20.833 39.667 -37.5 56s-37 29.5 -61 39.5s-51.333 15 -82 15c-27.333 0 -54 -5.5 -80 -16.5s-49.333 -26.833 -70 -47.5s-37.334 -45.5 -50.001 -74.5s-19 -61.833 -19 -98.5c0 -34.667 6.33301 -66.5 19 -95.5
s29.834 -53.833 51.501 -74.5s47 -36.834 76 -48.501s59.833 -17.5 92.5 -17.5c30 0 55.5 2.83301 76.5 8.5s39.167 13.167 54.5 22.5l8 63c-16.667 -11.333 -35.834 -20.5 -57.501 -27.5s-46.5 -10.5 -74.5 -10.5c-28.667 0 -54.334 5.16699 -77.001 15.5
s-41.834 23.666 -57.501 39.999s-27.334 34.833 -35.001 55.5s-11.167 41.667 -10.5 63h306l38 37c1.33301 4.66699 2 9.66699 2 15v16zM385.004 287.002v-8.00098c0 -2.66699 -0.333008 -5 -1 -7h-277c2.66699 18 8.66699 35.167 18 51.5s20.666 30.666 33.999 42.999
s28.666 22.333 45.999 30s35.333 11.5 54 11.5c20.667 0 38.834 -3.66699 54.501 -11s28.834 -16.666 39.501 -27.999s18.667 -24.166 24 -38.499s8 -28.833 8 -43.5z" />
    <glyph glyph-name="f" unicode="f" horiz-adv-x="333" 
d="M366 699c-10.667 4.66699 -23 8.00293 -37 10.0029s-29.333 3 -46 3c-27.333 0 -52.5 -3.83301 -75.5 -11.5s-42.667 -19.334 -59 -35.001s-29 -35.334 -38 -59.001s-13.5 -51.5 -13.5 -83.5v-70h-80v-52h80v-401h64v401h140l13 52h-153v67
c0 47.333 11.333 82.166 34 104.499s53 33.5 91 33.5c10.667 0 22 -1.16699 34 -3.5s22.667 -5.5 32 -9.5z" />
    <glyph glyph-name="g" unicode="g" horiz-adv-x="459" 
d="M431 -87c0 38 -10.4971 67.8301 -31.4971 89.4971s-50.833 39.167 -89.5 52.5l-122 41c-10 3.33301 -18 7.83301 -24 13.5s-9 11.5 -9 17.5c0 23.333 25.333 35 76 35c25.333 0 48.166 4 68.499 12s37.666 19 51.999 33s25.333 30.167 33 48.5s11.5 37.5 11.5 57.5
c0 19.333 -3.83301 36.333 -11.5 51s-16.167 26 -25.5 34c11.333 -1.33301 24.166 -0.5 38.499 2.5s25.166 6.83301 32.499 11.5l-13 52c-8.66699 -5.33301 -19.167 -9.5 -31.5 -12.5s-24.833 -4.5 -37.5 -4.5c-21.333 0 -41 2.66699 -59 8c-16 5.33301 -35.333 8 -58 8
c-24 0 -46.167 -3.66699 -66.5 -11s-37.833 -17.666 -52.5 -30.999s-26.167 -29.166 -34.5 -47.499s-12.5 -38.5 -12.5 -60.5c0 -33.333 9.16699 -61.166 27.5 -83.499s39.166 -37.833 62.499 -46.5c-23.333 -4 -40.333 -13 -51 -27s-16 -29.667 -16 -47l46 -46
c-12.667 -2 -25.167 -6.5 -37.5 -13.5s-23.333 -16.333 -33 -28s-17.5 -25.5 -23.5 -41.5s-9 -34.333 -9 -55c0 -22 4.83301 -42.5 14.5 -61.5s23.334 -35.5 41.001 -49.5s38.834 -25 63.501 -33s52 -12 82 -12c29.333 0 56.166 3.66699 80.499 11s45.333 17.5 63 30.5
s31.334 28.333 41.001 46s14.5 36.5 14.5 56.5zM337.003 312.997c0 -28 -10.333 -51.333 -31 -70s-45.667 -28 -75 -28c-31.333 0 -57.166 9.33301 -77.499 28s-30.5 42 -30.5 70c0 27.333 10.167 50.5 30.5 69.5s46.166 28.5 77.499 28.5c14.667 0 28.5 -2.5 41.5 -7.5
s24.333 -12 34 -21s17.167 -19.5 22.5 -31.5s8 -24.667 8 -38zM371.003 -86.0029c0 -11.333 -3.16602 -22.333 -9.49902 -33s-15.5 -20.334 -27.5 -29.001s-26.667 -15.667 -44 -21s-37 -8 -59 -8c-22.667 0 -42.667 2.83301 -60 8.5s-32 13.334 -44 23.001
s-21.167 20.667 -27.5 33s-9.5 25.166 -9.5 38.499c0 14.667 2.5 28.5 7.5 41.5s12 24.167 21 33.5s19.667 16.833 32 22.5s25.5 8.5 39.5 8.5l100 -31c25.333 -8 45.166 -19.167 59.499 -33.5s21.5 -32.166 21.5 -53.499z" />
    <glyph glyph-name="h" unicode="h" horiz-adv-x="503" 
d="M444 0l-0.000976562 305c0 24.667 -4.33301 46.834 -13 66.501s-20.667 36.167 -36 49.5s-33.666 23.666 -54.999 30.999s-44.333 11 -69 11c-40 0 -71.833 -7 -95.5 -21s-39.5 -30.667 -47.5 -50h-1v320h-63v-712h63v299c0 32 11.5 58.167 34.5 78.5
s54.5 30.5 94.5 30.5s70.833 -10.167 92.5 -30.5s32.5 -46.5 32.5 -78.5v-299h63z" />
    <glyph glyph-name="i" unicode="i" horiz-adv-x="206" 
d="M147 587c0 4 -1.66699 8.5 -5 13.5s-7.16602 9.66699 -11.499 14s-9 8.16602 -14 11.499s-9.5 5 -13.5 5c-3.33301 0 -7.5 -1.66699 -12.5 -5s-9.83301 -7.16602 -14.5 -11.499s-8.66699 -9 -12 -14s-5 -9.5 -5 -13.5c0 -3.33301 1.66699 -7.5 5 -12.5
s7.33301 -9.83301 12 -14.5s9.5 -8.66699 14.5 -12s9.16699 -5 12.5 -5c4 0 8.5 1.66699 13.5 5s9.66699 7.33301 14 12s8.16602 9.5 11.499 14.5s5 9.16699 5 12.5zM135 0v453h-64v-453h64z" />
    <glyph glyph-name="j" unicode="j" horiz-adv-x="206" 
d="M147 587c0 4 -1.66699 8.5 -5 13.5s-7.16602 9.66699 -11.499 14s-9 8.16602 -14 11.499s-9.5 5 -13.5 5c-3.33301 0 -7.5 -1.66699 -12.5 -5s-9.83301 -7.16602 -14.5 -11.499s-8.66699 -9 -12 -14s-5 -9.5 -5 -13.5c0 -3.33301 1.66699 -7.5 5 -12.5
s7.33301 -9.83301 12 -14.5s9.5 -8.66699 14.5 -12s9.16699 -5 12.5 -5c4 0 8.5 1.66699 13.5 5s9.66699 7.33301 14 12s8.16602 9.5 11.499 14.5s5 9.16699 5 12.5zM135 -52l-0.000976562 504.998h-64v-500c0 -41.333 -8.5 -73.666 -25.5 -96.999
s-41.5 -38.666 -73.5 -45.999l41 -40c16.667 4 32.334 11 47.001 21s27.5 22.667 38.5 38s19.833 33 26.5 53s10 42 10 66z" />
    <glyph glyph-name="k" unicode="k" horiz-adv-x="431" 
d="M424 0l-224 231l213 222h-76l-209 -216h-1v475h-63v-712h63v220h1l213 -220h83z" />
    <glyph glyph-name="l" unicode="l" horiz-adv-x="210" 
d="M185 28c-15.333 3.33301 -28.832 11.833 -40.499 25.5s-17.5 31.167 -17.5 52.5v606h-63v-613c0 -18 2.5 -33.667 7.5 -47s11.167 -24.5 18.5 -33.5s15.666 -16.167 24.999 -21.5s18.333 -9.33301 27 -12z" />
    <glyph glyph-name="m" unicode="m" horiz-adv-x="765" 
d="M706 0l0.000976562 312c0 48 -15.167 85.167 -45.5 111.5s-70.5 39.5 -120.5 39.5c-37.333 0 -69 -7.5 -95 -22.5s-43.333 -33.167 -52 -54.5c-11.333 26 -29.5 45.333 -54.5 58s-52.833 19 -83.5 19c-40 0 -70.833 -7 -92.5 -21s-36.167 -30.667 -43.5 -50h-1v61h-59
v-453h63v307c0 30 9.83301 54.333 29.5 73s49.167 28 88.5 28c40 0 68.5 -9.33301 85.5 -28s25.5 -43 25.5 -73v-307h63v307c0 30 9.66699 54.333 29 73s48.666 28 87.999 28c40 0 68.667 -9.33301 86 -28s26 -43 26 -73v-307h63z" />
    <glyph glyph-name="n" unicode="n" horiz-adv-x="498" 
d="M439 0l0.000976562 304.999c0 24.667 -4.33301 46.834 -13 66.501s-20.834 36.167 -36.501 49.5s-34 23.666 -55 30.999s-43.833 11 -68.5 11c-43.333 0 -76.833 -7.66699 -100.5 -23s-39.167 -33.666 -46.5 -54.999h-1v68h-59v-453h63v299c0 32 11.5 58.167 34.5 78.5
s54.5 30.5 94.5 30.5s70.833 -10.167 92.5 -30.5s32.5 -46.5 32.5 -78.5v-299h63z" />
    <glyph glyph-name="o" unicode="o" horiz-adv-x="551" 
d="M514 226c0 34.667 -6 66.5 -18 95.5s-28.667 54 -50 75s-46.5 37.333 -75.5 49s-60.5 17.5 -94.5 17.5s-65.5 -5.83301 -94.5 -17.5s-54.167 -28 -75.5 -49s-38.166 -46 -50.499 -75s-18.5 -60.833 -18.5 -95.5s6.16699 -66.334 18.5 -95.001s29.166 -53.5 50.499 -74.5
s46.5 -37.333 75.5 -49s60.5 -17.5 94.5 -17.5s65.5 5.83301 94.5 17.5s54.167 28 75.5 49s38 45.833 50 74.5s18 60.334 18 95.001zM450 225c0 -26.667 -4.5 -51 -13.5 -73s-21.333 -41 -37 -57s-34.167 -28.333 -55.5 -37s-44 -13 -68 -13s-46.667 4.33301 -68 13
s-40 21 -56 37s-28.5 35 -37.5 57s-13.5 46.333 -13.5 73s4.5 51 13.5 73s21.5 41 37.5 57s34.667 28.5 56 37.5s44 13.5 68 13.5s46.667 -4.5 68 -13.5s39.833 -21.5 55.5 -37.5s28 -35 37 -57s13.5 -46.333 13.5 -73z" />
    <glyph glyph-name="p" unicode="p" horiz-adv-x="526" 
d="M489 227c0 36.667 -6.49707 69.667 -19.4971 99s-30 54.166 -51 74.499s-45 35.833 -72 46.5s-54.833 16 -83.5 16c-36 0 -66 -6.16699 -90 -18.5s-41.667 -26.166 -53 -41.499h-1v50h-60v-684h63v268c11.333 -12 29.166 -22.833 53.499 -32.5s51.166 -14.5 80.499 -14.5
c33.333 0 64.166 5.83301 92.499 17.5s53 28 74 49s37.333 46 49 75s17.5 60.833 17.5 95.5zM425.003 225c0 -26.667 -4.49902 -51 -13.499 -73s-21.333 -41 -37 -57s-34 -28.333 -55 -37s-43.833 -13 -68.5 -13c-31.333 0 -57.833 5.83301 -79.5 17.5
s-38.167 23.5 -49.5 35.5v247c11.333 15.333 28.166 29.333 50.499 42s48.5 19 78.5 19c24.667 0 47.5 -4.5 68.5 -13.5s39.333 -21.5 55 -37.5s28 -35 37 -57s13.5 -46.333 13.5 -73z" />
    <glyph glyph-name="q" unicode="q" horiz-adv-x="524" 
d="M465 -231l0.00292969 690h-19l-29 -34c-13.333 8 -31.333 16.333 -54 25s-51.334 13 -86.001 13c-35.333 0 -67.833 -6 -97.5 -18s-55 -28.5 -76 -49.5s-37.333 -46 -49 -75s-17.5 -60.833 -17.5 -95.5c0 -34 6 -65.333 18 -94s28.5 -53.5 49.5 -74.5
s45.667 -37.333 74 -49s59.166 -17.5 92.499 -17.5c29.333 0 55.666 4.5 78.999 13.5s40.333 19.167 51 30.5v-265h64zM401.003 95c-9.33301 -10.667 -24.335 -21.6689 -45.002 -33.002s-47 -17 -79 -17c-24.667 0 -47.667 4.5 -69 13.5s-40 21.333 -56 37
s-28.5 34.334 -37.5 56.001s-13.5 45.5 -13.5 71.5c0 26.667 4.5 51.334 13.5 74.001s21.5 42 37.5 58s35.167 28.5 57.5 37.5s46.833 13.5 73.5 13.5c11.333 0 22.833 -1.16699 34.5 -3.5s22.834 -5.5 33.501 -9.5s20.334 -8.33301 29.001 -13s15.667 -9 21 -13v-272z" />
    <glyph glyph-name="r" unicode="r" horiz-adv-x="316" 
d="M306 453c-5.33301 2 -12.332 3.49805 -20.999 4.49805s-16 1.5 -22 1.5c-37.333 0 -68.166 -10.167 -92.499 -30.5s-40.166 -46.5 -47.499 -78.5h-1v103h-63v-453h63v231c0 28.667 3.66699 53.334 11 74.001s17.166 37.334 29.499 50.001s26.666 22 42.999 28
s33.166 9 50.499 9c6.66699 0 13.167 -0.333008 19.5 -1s11.5 -1.66699 15.5 -3z" />
    <glyph glyph-name="s" unicode="s" horiz-adv-x="365" 
d="M328 120c0 38 -11.9961 67.832 -35.9961 89.499s-57.333 40.167 -100 55.5c-25.333 9.33301 -44.5 19.333 -57.5 30s-19.5 26 -19.5 46c0 19.333 7 34.833 21 46.5s32 17.5 54 17.5s41.167 -3.16699 57.5 -9.5s29.5 -13.166 39.5 -20.499l14 54
c-9.33301 6.66699 -24 13.167 -44 19.5s-42 9.5 -66 9.5c-40 0 -73 -10.833 -99 -32.5s-39 -50.5 -39 -86.5c0 -35.333 11.167 -63.333 33.5 -84s54.166 -38.334 95.499 -53.001c25.333 -9.33301 45.5 -20.333 60.5 -33s22.5 -29.334 22.5 -50.001
c0 -22 -8.5 -39.167 -25.5 -51.5s-38.167 -18.5 -63.5 -18.5c-27.333 0 -52.333 4.83301 -75 14.5s-42.667 21.834 -60 36.501l9 -69c15.333 -11.333 33.166 -20.166 53.499 -26.499s44.166 -9.5 71.499 -9.5c47.333 0 84.666 11.5 111.999 34.5s41 53.167 41 90.5z" />
    <glyph glyph-name="t" unicode="t" horiz-adv-x="350" 
d="M335 453h-166v131l-62 -33v-98h-90v-52h90v-285c0 -39.333 12 -69.166 36 -89.499s53.333 -30.5 88 -30.5c9.33301 0 18.5 0.666992 27.5 2s16.5 3.66602 22.5 6.99902l7 52c-12 -6 -27.333 -9 -46 -9c-22 0 -39.667 5.5 -53 16.5s-20 29.833 -20 56.5v280h154z" />
    <glyph glyph-name="u" unicode="u" horiz-adv-x="498" 
d="M439 0l-0.000976562 453.001h-63v-299c0 -32 -11.5 -58.167 -34.5 -78.5s-54.5 -30.5 -94.5 -30.5s-70.833 10.167 -92.5 30.5s-32.5 46.5 -32.5 78.5v299h-63v-305c0 -24.667 4.33301 -46.834 13 -66.501s20.834 -36.167 36.501 -49.5s34 -23.666 55 -30.999
s43.833 -11 68.5 -11c43.333 0 76.833 7.66699 100.5 23s39.167 33.666 46.5 54.999h1v-68h59z" />
    <glyph glyph-name="v" unicode="v" horiz-adv-x="460" 
d="M434 453l-60.002 0.000976562l-97 -237c-7.33301 -18 -14.666 -37.167 -21.999 -57.5l-21 -59.5h-2l-21 59.5c-7.33301 20.333 -14.666 39.166 -21.999 56.499l-99 238h-64l191 -463h25z" />
    <glyph glyph-name="w" unicode="w" horiz-adv-x="704" 
d="M678 453l-57.998 0.000976562l-83 -230c-6.66699 -17.333 -13 -36.333 -19 -57l-18 -60h-2l-17 59c-6 20 -12.667 39.333 -20 58l-84 230h-48l-83 -230c-6.66699 -18 -13.167 -37.667 -19.5 -59l-17.5 -58h-2c-4.66699 17.333 -10.334 36.666 -17.001 57.999
s-13.334 41 -20.001 59l-83 230h-61l169 -463h23l91 249c7.33301 18.667 14.5 39 21.5 61l20.5 66h2l20.5 -66c7 -22 14.167 -42.667 21.5 -62l91 -248h23z" />
    <glyph glyph-name="x" unicode="x" horiz-adv-x="438" 
d="M401 0l-146.998 233.001l139 220h-68l-72 -114c-6 -9.33301 -11.667 -18.833 -17 -28.5l-16 -28.5h-2l-16.5 28.5l-17.5 28.5l-71 114h-68l139 -222l-147 -231h68l76 120c5.33301 9.33301 11.666 19.166 18.999 29.499s13.666 20.833 18.999 31.5h2
c11.333 -22 23 -42.333 35 -61l76 -120h69z" />
    <glyph glyph-name="y" unicode="y" horiz-adv-x="468" 
d="M442 453l-60.999 -0.00195312l-97 -236l-23.5 -57l-24.5 -62h-2c-6.66699 20 -14 40.5 -22 61.5s-15.667 40.167 -23 57.5l-97 236h-66l176 -427c-13.333 -30 -27 -56.5 -41 -79.5s-29.167 -43.333 -45.5 -61s-33.833 -32.667 -52.5 -45s-39.334 -23.166 -62.001 -32.499
l41 -41c23.333 10 45.5 22.333 66.5 37s40.833 32.834 59.5 54.501s36.667 47.167 54 76.5s34 64 50 104z" />
    <glyph glyph-name="z" unicode="z" horiz-adv-x="423" 
d="M386 0v51.999h-258l-1 1l40.5 64.5l40.5 64.5l161 257v14h-315v-52h223l1 -1c-13.333 -19.333 -27 -40.666 -41 -63.999l-40 -66l-160 -256v-14h349z" />
    <glyph glyph-name="braceleft" unicode="{" horiz-adv-x="300" 
d="M293 -169c-24.667 0 -45.5 4.66504 -62.5 13.998s-30.667 22.833 -41 40.5s-17.666 38.667 -21.999 63s-6.5 51.5 -6.5 81.5c0 46 -6.16699 86.333 -18.5 121s-32.5 64.334 -60.5 89.001c28 25.333 48.167 55.166 60.5 89.499s18.5 74.5 18.5 120.5
c0 30 2.16699 57.167 6.5 81.5s11.666 45.333 21.999 63s24 31.167 41 40.5s37.833 14 62.5 14l-14 50c-33.333 0 -61.5 -6.33301 -84.5 -19s-41.667 -30.167 -56 -52.5s-24.666 -48.5 -30.999 -78.5s-9.5 -62 -9.5 -96c0 -47.333 -6.66699 -89.333 -20 -126
s-37 -65.667 -71 -87c34 -21.333 57.667 -50.166 71 -86.499s20 -78.166 20 -125.499c0 -34.667 3.16699 -67 9.5 -97s16.666 -56.167 30.999 -78.5s33 -39.833 56 -52.5s51.167 -19 84.5 -19z" />
    <glyph glyph-name="bar" unicode="|" horiz-adv-x="194" 
d="M125 -231v943h-56v-943h56z" />
    <glyph glyph-name="braceright" unicode="}" horiz-adv-x="300" 
d="M293 240c-34 21.333 -57.667 50.335 -71 87.002s-20 78.667 -20 126c0 34 -3.16699 66 -9.5 96s-16.666 56.167 -30.999 78.5s-33 39.833 -56 52.5s-51.167 19 -84.5 19l-14 -50c24.667 0 45.5 -4.66699 62.5 -14s30.667 -22.833 41 -40.5s17.666 -38.667 21.999 -63
s6.5 -51.5 6.5 -81.5c0 -46 6.16699 -86.167 18.5 -120.5s32.5 -64.166 60.5 -89.499c-28 -24.667 -48.167 -54.334 -60.5 -89.001s-18.5 -75 -18.5 -121c0 -30 -2.16699 -57.167 -6.5 -81.5s-11.666 -45.333 -21.999 -63s-24 -31.167 -41 -40.5s-37.833 -14 -62.5 -14
l14 -50c33.333 0 61.5 6.33301 84.5 19s41.667 30.167 56 52.5s24.666 48.5 30.999 78.5s9.5 62.333 9.5 97c0 47.333 6.66699 89.166 20 125.499s37 65.166 71 86.499z" />
    <glyph glyph-name="asciitilde" unicode="~" horiz-adv-x="358" 
d="M314 320l-37 16l-12 -15c-4.66699 -6 -9.66699 -11.833 -15 -17.5s-10.666 -10.5 -15.999 -14.5s-10 -6 -14 -6s-9.5 2.16699 -16.5 6.5l-23 14c-8.33301 5 -16.833 9.66699 -25.5 14s-16 6.5 -22 6.5s-12.833 -3 -20.5 -9s-15.667 -13.667 -24 -23
s-16.333 -19.333 -24 -30s-14.5 -21 -20.5 -31l37 -17c2.66699 4 6.5 9 11.5 15s10.167 11.833 15.5 17.5s10.666 10.5 15.999 14.5s10 6 14 6s9.66699 -2.16699 17 -6.5l23.5 -14c8.33301 -5 16.833 -9.5 25.5 -13.5s16 -6 22 -6s12.833 3 20.5 9s15.5 13.667 23.5 23
s15.833 19.333 23.5 30s14.5 21 20.5 31z" />
    <glyph glyph-name="nonbreakingspace" unicode="&#xa0;" horiz-adv-x="119" 
 />
    <glyph glyph-name="exclamdown" unicode="&#xa1;" horiz-adv-x="239" 
d="M165 599c0 4 -1.83301 8.83301 -5.5 14.5s-8 11 -13 16s-10.333 9.33301 -16 13s-10.5 5.5 -14.5 5.5s-8.83301 -1.83301 -14.5 -5.5s-11 -8 -16 -13s-9.33301 -10.333 -13 -16s-5.5 -10.5 -5.5 -14.5s1.83301 -8.66699 5.5 -14s8 -10.666 13 -15.999
s10.333 -9.83301 16 -13.5s10.5 -5.5 14.5 -5.5s8.83301 1.83301 14.5 5.5s11 8.16699 16 13.5s9.33301 10.666 13 15.999s5.5 10 5.5 14zM155 0l-11 460l-53 14l-11 -474h75z" />
    <glyph glyph-name="cent" unicode="&#xa2;" horiz-adv-x="453" 
d="M298 0l0.000976562 85.998c19.333 1.33301 37.166 3.66602 53.499 6.99902s31.166 8.66602 44.499 15.999l8 61c-19.333 -11.333 -38.833 -19.166 -58.5 -23.499s-41.167 -6.5 -64.5 -6.5c-25.333 0 -49 4.33301 -71 13s-41 20.667 -57 36s-28.667 33.833 -38 55.5
s-14 45.5 -14 71.5s4.5 49.833 13.5 71.5s21.5 40.334 37.5 56.001s34.833 27.834 56.5 36.501s45.167 13 70.5 13c46.667 0 88 -12.333 124 -37l13 59c-15.333 9.33301 -33 17 -53 23s-41.667 9.66699 -65 11v89h-43v-89c-30 -2 -58.167 -9 -84.5 -21s-49.5 -28 -69.5 -48
s-35.667 -43.833 -47 -71.5s-17 -58.167 -17 -91.5s5.83301 -63.666 17.5 -90.999s27.334 -51 47.001 -71s42.667 -36 69 -48s54.5 -19 84.5 -21v-86h43z" />
    <glyph glyph-name="sterling" unicode="&#xa3;" horiz-adv-x="436" 
d="M394 44c-24 8 -49.6699 14.001 -77.0029 18.001s-53.333 6 -78 6c-19.333 0 -40.666 -1.5 -63.999 -4.5s-41.666 -7.16699 -54.999 -12.5c11.333 17.333 21 42 29 74s12 70.333 12 115v61h113l10 41h-123v113c0 47.333 11.333 82.166 34 104.499s53 33.5 91 33.5
c10.667 0 22 -1.33301 34 -4s22.667 -6 32 -10l14 54c-10.667 4.66699 -23 8 -37 10s-29.333 3 -46 3c-27.333 0 -52.5 -3.83301 -75.5 -11.5s-42.667 -19.334 -59 -35.001s-29 -35.167 -38 -58.5s-13.5 -51 -13.5 -83v-116h-80v-41h80v-56c0 -48.667 -4 -90.667 -12 -126
s-20.333 -66.666 -37 -93.999l31 -36c18 6.66699 40.833 12.5 68.5 17.5s55.834 7.5 84.501 7.5c28 0 55 -2.33301 81 -7s48.667 -10.667 68 -18z" />
    <glyph glyph-name="currency" unicode="&#xa4;" horiz-adv-x="493" 
d="M344 286l-183.003 -0.00292969c-0.666992 5.33301 -1 10.666 -1 15.999v16v19c0 6.66699 0.333008 13 1 19h185l9 41h-189c10 62.667 30.667 110.334 62 143.001s68 49 110 49c20 0 38.667 -2.5 56 -7.5s32.333 -11.833 45 -20.5l12 55c-13.333 8 -29.166 15 -47.499 21
s-41.5 9 -69.5 9s-54.833 -5.5 -80.5 -16.5s-48.834 -27.167 -69.501 -48.5s-38.167 -47.5 -52.5 -78.5s-24.5 -66.167 -30.5 -105.5h-84v-41h80c-0.666992 -6 -1 -12 -1 -18v-19v-17c0 -5.33301 0.333008 -10.666 1 -15.999h-80v-40h83
c6 -40.667 16.167 -76.834 30.5 -108.501s31.666 -58.167 51.999 -79.5s43.5 -37.666 69.5 -48.999s53.333 -17 82 -17c20.667 0 39.834 2 57.501 6s31.834 9.66699 42.501 17l8 60c-27.333 -18 -61.666 -27 -102.999 -27c-20 0 -39.5 4.33301 -58.5 13
s-36.167 21.334 -51.5 38.001s-28.666 37.334 -39.999 62.001s-19.333 53 -24 85h170z" />
    <glyph glyph-name="yen" unicode="&#xa5;" horiz-adv-x="501" 
d="M475 638h-64.001l-106 -204l-26 -50.5c-9.33301 -18.333 -17.666 -35.833 -24.999 -52.5h-2c-7.33301 16.667 -15.5 34.167 -24.5 52.5l-25.5 50.5l-106 204h-70l177 -340h-127v-40h141v-258h66v258h142v40h-128z" />
    <glyph glyph-name="brokenbar" unicode="&#xa6;" horiz-adv-x="215" 
d="M135 300v412h-55v-412h55zM135 -231v412h-55v-412h55z" />
    <glyph glyph-name="section" unicode="&#xa7;" horiz-adv-x="482" 
d="M413 -66c0 19.333 -3.00293 38.002 -9.00293 56.002s-15.333 34.667 -28 50l35 122l-254 261c-8.66699 8.66699 -15 19.334 -19 32.001s-6 24.667 -6 36c0 12 2.16699 24 6.5 36s11.333 22.833 21 32.5s21.834 17.334 36.501 23.001s32 8.5 52 8.5
c24 0 46.833 -3.33301 68.5 -10s40.834 -15.667 57.501 -27l14 58c-17.333 10 -37.5 18.5 -60.5 25.5s-49.833 10.5 -80.5 10.5c-30 0 -56.167 -4.5 -78.5 -13.5s-40.833 -21 -55.5 -36s-25.667 -31.833 -33 -50.5s-11 -37.334 -11 -56.001c0 -19.333 2.83301 -38 8.5 -56
s14.834 -34.667 27.501 -50l-34 -122l254 -261c8.66699 -8.66699 15 -19.334 19 -32.001s6 -24.667 6 -36c0 -12 -2.33301 -24 -7 -36s-11.667 -22.833 -21 -32.5s-21.5 -17.334 -36.5 -23.001s-32.5 -8.5 -52.5 -8.5c-24 0 -46.667 3.33301 -68 10s-40.333 15.667 -57 27
l-14 -58c17.333 -10 37.5 -18.5 60.5 -25.5s49.833 -10.5 80.5 -10.5c30 0 56.167 4.5 78.5 13.5s40.833 21 55.5 36s25.667 31.667 33 50s11 37.166 11 56.499zM364.997 137.002l-22 -78l-226 230l22 78z" />
    <glyph glyph-name="dieresis" unicode="&#xa8;" 
d="M366 563c0 3.33301 -1.5 7.5 -4.5 12.5s-6.66699 9.66699 -11 14s-9 8 -14 11s-9.16699 4.5 -12.5 4.5s-7.5 -1.5 -12.5 -4.5s-9.66699 -6.66699 -14 -11s-8 -9 -11 -14s-4.5 -9.16699 -4.5 -12.5s1.5 -7.33301 4.5 -12s6.66699 -9.33398 11 -14.001s9 -8.5 14 -11.5
s9.16699 -4.5 12.5 -4.5s7.5 1.5 12.5 4.5s9.66699 6.83301 14 11.5s8 9.33398 11 14.001s4.5 8.66699 4.5 12zM218 563c0 3.33301 -1.5 7.5 -4.5 12.5s-6.66699 9.66699 -11 14s-9 8 -14 11s-9.16699 4.5 -12.5 4.5s-7.33301 -1.5 -12 -4.5s-9.33398 -6.66699 -14.001 -11
s-8.5 -9 -11.5 -14s-4.5 -9.16699 -4.5 -12.5s1.5 -7.33301 4.5 -12s6.83301 -9.33398 11.5 -14.001s9.33398 -8.5 14.001 -11.5s8.66699 -4.5 12 -4.5s7.5 1.5 12.5 4.5s9.66699 6.83301 14 11.5s8 9.33398 11 14.001s4.5 8.66699 4.5 12z" />
    <glyph glyph-name="copyright" unicode="&#xa9;" horiz-adv-x="612" 
d="M570 250c0 38.667 -6.83301 74.167 -20.5 106.5s-32.334 60 -56.001 83s-51.667 40.833 -84 53.5s-66.833 19 -103.5 19s-71 -6.33301 -103 -19s-60 -30.5 -84 -53.5s-42.833 -50.667 -56.5 -83s-20.5 -67.833 -20.5 -106.5s6.83301 -74 20.5 -106s32.5 -59.5 56.5 -82.5
s52 -41 84 -54s66.333 -19.5 103 -19.5s71.167 6.5 103.5 19.5s60.333 31 84 54s42.334 50.5 56.001 82.5s20.5 67.333 20.5 106zM529 250c0 -32 -5.5 -61.667 -16.5 -89s-26.5 -51 -46.5 -71s-43.667 -35.667 -71 -47s-57 -17 -89 -17s-61.667 5.66699 -89 17
s-50.833 27 -70.5 47s-35 43.667 -46 71s-16.5 57 -16.5 89s5.5 61.667 16.5 89s26.333 51 46 71s43.167 35.667 70.5 47s57 17 89 17s61.667 -5.66699 89 -17s51 -27 71 -47s35.5 -43.667 46.5 -71s16.5 -57 16.5 -89zM406 372c-10 7.33301 -22.6699 13.167 -38.0029 17.5
s-31.666 6.5 -48.999 6.5c-20 0 -38.833 -3.5 -56.5 -10.5s-33.167 -16.667 -46.5 -29s-24 -27.333 -32 -45s-12 -37.167 -12 -58.5c0 -22 4 -41.833 12 -59.5s18.667 -32.667 32 -45s29 -21.833 47 -28.5s36.667 -10 56 -10c28.667 0 52.667 5.66699 72 17l6 48
c-23.333 -12.667 -48.666 -19 -75.999 -19c-28 0 -51.167 9 -69.5 27s-27.5 41 -27.5 69c0 28.667 9.16699 52 27.5 70s41.5 27 69.5 27c12.667 0 25.834 -2 39.501 -6s25.167 -9.66699 34.5 -17z" />
    <glyph glyph-name="ordfeminine" unicode="&#xaa;" horiz-adv-x="371" 
d="M354 307c-13.333 2.66699 -24.6709 8.49707 -34.0039 17.4971s-14 22.167 -14 39.5v164c0 39.333 -12.667 69.333 -38 90s-58 31 -98 31c-44.667 0 -82 -10 -112 -30l11 -47c13.333 9.33301 28.5 16.5 45.5 21.5s34.5 7.5 52.5 7.5c26.667 0 47.167 -6.16699 61.5 -18.5
s21.5 -29.166 21.5 -50.499v-31l-94 -9c-14.667 -1.33301 -29.167 -4.66602 -43.5 -9.99902s-27 -12.666 -38 -21.999s-20 -20.666 -27 -33.999s-10.5 -29 -10.5 -47c0 -15.333 2.83301 -29.5 8.5 -42.5s13.834 -24.333 24.501 -34s23.334 -17.334 38.001 -23.001
s30.667 -8.5 48 -8.5c22 0 42.333 4.66699 61 14s32.334 23.333 41.001 42c3.33301 -16.667 10.833 -29.5 22.5 -38.5s23.834 -14.833 36.501 -17.5zM249.995 408.997c0 -14.667 -2.83203 -27.665 -8.49902 -38.998s-13 -21 -22 -29s-18.833 -14 -29.5 -18
s-21.334 -6 -32.001 -6c-18.667 0 -34.334 5.66699 -47.001 17s-19 25.666 -19 42.999c0 19.333 6.33301 35.166 19 47.499s29.334 19.5 50.001 21.5l89 9v-46zM224.996 153.999c0 3.33301 -1.5 7.5 -4.5 12.5s-6.66699 9.66699 -11 14s-9 8.16602 -14 11.499
s-9.16699 5 -12.5 5s-7.33301 -1.66699 -12 -5s-9.33398 -7.16602 -14.001 -11.499s-8.5 -9 -11.5 -14s-4.5 -9.16699 -4.5 -12.5s1.5 -7.33301 4.5 -12s6.83301 -9.33398 11.5 -14.001s9.33398 -8.5 14.001 -11.5s8.66699 -4.5 12 -4.5s7.5 1.5 12.5 4.5
s9.66699 6.83301 14 11.5s8 9.33398 11 14.001s4.5 8.66699 4.5 12z" />
    <glyph glyph-name="guillemotleft" unicode="&#xab;" horiz-adv-x="382" 
d="M338 116c-17.333 40 -37.333 76.665 -60 109.998c22.667 33.333 42.667 70 60 110l-10 25c-14.667 -19.333 -32.167 -39.666 -52.5 -60.999s-40.166 -39.333 -59.499 -54c-3.33301 -2.66699 -6.33301 -6 -9 -10s-4 -7.33301 -4 -10s1.33301 -6 4 -10
s5.66699 -7.33301 9 -10c19.333 -14.667 39.166 -32.667 59.499 -54s37.833 -41.666 52.5 -60.999zM161 115.998c-17.333 40 -37.333 76.665 -60 109.998c22.667 33.333 42.667 70 60 110l-10 25c-14.667 -19.333 -32.167 -39.666 -52.5 -60.999
s-40.166 -39.333 -59.499 -54c-3.33301 -2.66699 -6.33301 -6 -9 -10s-4 -7.33301 -4 -10s1.33301 -6 4 -10s5.66699 -7.33301 9 -10c19.333 -14.667 39.166 -32.667 59.499 -54s37.833 -41.666 52.5 -60.999z" />
    <glyph glyph-name="logicalnot" unicode="&#xac;" horiz-adv-x="508" 
d="M444 143v161h-400v-54h343v-107h57z" />
    <glyph glyph-name="registered" unicode="&#xae;" horiz-adv-x="452" 
d="M415 462c0 27.333 -4.83301 52.5 -14.5 75.5s-23 42.667 -40 59s-37 29.166 -60 38.499s-47.833 14 -74.5 14s-51.5 -4.66699 -74.5 -14s-43 -22.166 -60 -38.499s-30.333 -36 -40 -59s-14.5 -48.167 -14.5 -75.5s4.83301 -52.5 14.5 -75.5s23 -42.833 40 -59.5
s37 -29.667 60 -39s47.833 -14 74.5 -14s51.5 4.66699 74.5 14s43 22.333 60 39s30.333 36.5 40 59.5s14.5 48.167 14.5 75.5zM381 462c0 -23.333 -4 -44.5 -12 -63.5s-18.833 -35.333 -32.5 -49s-30 -24.334 -49 -32.001s-39.5 -11.5 -61.5 -11.5s-42.5 3.83301 -61.5 11.5
s-35.5 18.334 -49.5 32.001s-24.833 30 -32.5 49s-11.5 40.167 -11.5 63.5c0 22.667 3.83301 43.667 11.5 63s18.5 35.833 32.5 49.5s30.5 24.334 49.5 32.001s39.5 11.5 61.5 11.5s42.5 -3.83301 61.5 -11.5s35.333 -18.334 49 -32.001s24.5 -30.167 32.5 -49.5
s12 -40.333 12 -63zM322 367l-58 83.0029c10.667 5.33301 19.5 13.166 26.5 23.499s10.5 22.166 10.5 35.499c0 19.333 -7.33301 35.166 -22 47.499s-31.667 18.5 -51 18.5h-68v-228h36v94h32l64 -93zM264 509.003c0 -10.667 -3.5 -19.167 -10.5 -25.5
s-16.833 -9.5 -29.5 -9.5h-28v69h28c26.667 0 40 -11.333 40 -34z" />
    <glyph glyph-name="macron" unicode="&#xaf;" 
d="M336 527v55h-172v-55h172z" />
    <glyph glyph-name="macron" unicode="&#x2c9;" 
d="M336 527v55h-172v-55h172z" />
    <glyph glyph-name="degree" unicode="&#xb0;" horiz-adv-x="294" 
d="M249 548c0 14 -2.66699 27.167 -8 39.5s-12.666 23 -21.999 32s-20.166 16.167 -32.499 21.5s-25.5 8 -39.5 8s-27.167 -2.66699 -39.5 -8s-23.333 -12.5 -33 -21.5s-17.167 -19.667 -22.5 -32s-8 -25.5 -8 -39.5s2.66699 -27.167 8 -39.5s12.833 -23 22.5 -32
s20.667 -16.167 33 -21.5s25.5 -8 39.5 -8s27.167 2.66699 39.5 8s23.166 12.5 32.499 21.5s16.666 19.667 21.999 32s8 25.5 8 39.5zM202 548c0 -16.667 -5.16699 -30.5 -15.5 -41.5s-23.5 -16.5 -39.5 -16.5s-29.333 5.5 -40 16.5s-16 24.833 -16 41.5
c0 17.333 5.33301 31.333 16 42s24 16 40 16s29.167 -5.33301 39.5 -16s15.5 -24.667 15.5 -42z" />
    <glyph glyph-name="plusminus" unicode="&#xb1;" horiz-adv-x="827" 
d="M802 28c-15.333 3.33301 -28.8311 11.835 -40.498 25.502s-17.5 31.167 -17.5 52.5v543c-18 16 -41.167 30.5 -69.5 43.5s-61.5 19.5 -99.5 19.5c-28.667 0 -54.667 -4 -78 -12s-43.333 -20.667 -60 -38c-19.333 14 -41.5 25.833 -66.5 35.5s-54.167 14.5 -87.5 14.5
c-27.333 0 -52.5 -3.83301 -75.5 -11.5s-42.667 -19.334 -59 -35.001s-29 -35.334 -38 -59.001s-13.5 -51.5 -13.5 -83.5v-70h-80v-52h80v-401h64v401h228v-401h64v401h114v52h-114v67c0 47.333 11.333 82.166 34 104.499s53 33.5 91 33.5
c20.667 0 40.167 -3.16699 58.5 -9.5s33.166 -14.166 44.499 -23.499v-526c0 -18 2.5 -33.667 7.5 -47s11.167 -24.5 18.5 -33.5s15.666 -16.167 24.999 -21.5s18.333 -9.33301 27 -12zM407.002 613.002c-5.33301 -12.667 -9.66699 -26.5 -13 -41.5s-5 -31.167 -5 -48.5v-70
h-228v67c0 47.333 11.333 82.166 34 104.499s53 33.5 91 33.5c23.333 0 45.5 -4.16699 66.5 -12.5s39.167 -19.166 54.5 -32.499z" />
    <glyph glyph-name="twosuperior" unicode="&#xb2;" horiz-adv-x="356" 
d="M305 247v40h-174c48 42 85.833 83.5 113.5 124.5s41.5 78.167 41.5 111.5c0 38.667 -12.167 69.334 -36.5 92.001s-59.5 34 -105.5 34c-20.667 0 -39.667 -2.16699 -57 -6.5s-32 -10.166 -44 -17.499l11 -40c12.667 7.33301 26.5 13.166 41.5 17.499s31.167 6.5 48.5 6.5
c29.333 0 52.5 -7.16699 69.5 -21.5s25.5 -35.5 25.5 -63.5c0 -29.333 -15.833 -65.333 -47.5 -108s-83.167 -94.334 -154.5 -155.001v-14h268z" />
    <glyph glyph-name="threesuperior" unicode="&#xb3;" horiz-adv-x="317" 
d="M273 367c0 30 -8.50098 54.6689 -25.501 74.002s-37.5 32.666 -61.5 39.999c16 7.33301 29.167 17.333 39.5 30s15.5 28.334 15.5 47.001c0 26.667 -10.333 48.5 -31 65.5s-47.667 25.5 -81 25.5c-29.333 0 -56.333 -7 -81 -21l11 -40
c13.333 7.33301 25.333 12.666 36 15.999s21.667 5 33 5c20.667 0 36.834 -5.33301 48.501 -16s17.5 -23.334 17.5 -38.001c0 -15.333 -7.83301 -29.166 -23.5 -41.499s-37.167 -20.833 -64.5 -25.5l10 -38c5.33301 0.666992 9.33301 1 12 1h9c12 0 23.333 -2.16699 34 -6.5
s20 -10 28 -17s14.333 -15.5 19 -25.5s7 -20.333 7 -31c0 -28.667 -10 -50.667 -30 -66s-43.667 -23 -71 -23c-14 0 -28.167 2.16699 -42.5 6.5s-27.5 10.166 -39.5 17.499l7 -47c10 -5.33301 21.833 -9.5 35.5 -12.5s27.167 -4.5 40.5 -4.5c46 0 82.167 11.667 108.5 35
s39.5 53.333 39.5 90z" />
    <glyph glyph-name="acute" unicode="&#xb4;" 
d="M399 651c0 2.66699 -1.33594 6 -4.00293 10s-5.83398 7.83301 -9.50098 11.5s-7.66699 6.83398 -12 9.50098s-7.83301 4 -10.5 4c-3.33301 0 -7.16602 -1.33301 -11.499 -4s-7.83301 -6 -10.5 -10c-17.333 -24 -38.166 -48.5 -62.499 -73.5
s-48.166 -46.833 -71.499 -65.5l41 -18c26.667 16.667 51.834 34.667 75.501 54s45.167 40.333 64.5 63c3.33301 3.33301 6 6.66602 8 9.99902s3 6.33301 3 9z" />
    <glyph glyph-name="mu" unicode="&#xb5;" horiz-adv-x="600" 
d="M565 151l-54.001 53.001v249h-472v-453h472v97c12.667 0 24.834 4.66699 36.501 14s17.5 22.666 17.5 39.999zM484.999 229.001l-159 159h159v-159zM230.999 388.001c0 -23.333 -8 -43 -24 -59s-35.667 -24 -59 -24s-43 8 -59 24s-24 35.667 -24 59h166zM484.999 25.001
h-420.001v290c10.667 -12.667 22.334 -21.667 35.001 -27l385 -182v-81z" />
    <glyph glyph-name="mu" unicode="&#x3bc;" horiz-adv-x="600" 
d="M565 151l-54.001 53.001v249h-472v-453h472v97c12.667 0 24.834 4.66699 36.501 14s17.5 22.666 17.5 39.999zM484.999 229.001l-159 159h159v-159zM230.999 388.001c0 -23.333 -8 -43 -24 -59s-35.667 -24 -59 -24s-43 8 -59 24s-24 35.667 -24 59h166zM484.999 25.001
h-420.001v290c10.667 -12.667 22.334 -21.667 35.001 -27l385 -182v-81z" />
    <glyph glyph-name="paragraph" unicode="&#xb6;" horiz-adv-x="370" 
d="M363 590l-0.000976562 52.9971h-142c-24 0 -47.167 -3.5 -69.5 -10.5s-42 -17.5 -59 -31.5s-30.5 -31.333 -40.5 -52s-15 -44.667 -15 -72s5 -51.166 15 -71.499s23.5 -37.333 40.5 -51s36.5 -24 58.5 -31s45 -10.5 69 -10.5h12v-360
c0 -41.333 -8.5 -73.666 -25.5 -96.999s-41.5 -38.666 -73.5 -45.999l41 -40c16.667 4 32.334 11 47.001 21s27.5 22.667 38.5 38s19.833 33 26.5 53s10 42 10 66v642h67z" />
    <glyph glyph-name="periodcentered" unicode="&#xb7;" horiz-adv-x="186" 
d="M142 271c0 4 -1.83301 8.66699 -5.5 14s-8 10.5 -13 15.5s-10.333 9.33301 -16 13s-10.5 5.5 -14.5 5.5s-8.83301 -1.83301 -14.5 -5.5s-11 -8 -16 -13s-9.33301 -10.167 -13 -15.5s-5.5 -10 -5.5 -14s1.83301 -8.83301 5.5 -14.5s8 -11 13 -16s10.333 -9.33301 16 -13
s10.5 -5.5 14.5 -5.5s8.83301 1.83301 14.5 5.5s11 8 16 13s9.33301 10.333 13 16s5.5 10.5 5.5 14.5z" />
    <glyph glyph-name="periodcentered" unicode="&#x22c5;" horiz-adv-x="186" 
d="M142 271c0 4 -1.83301 8.66699 -5.5 14s-8 10.5 -13 15.5s-10.333 9.33301 -16 13s-10.5 5.5 -14.5 5.5s-8.83301 -1.83301 -14.5 -5.5s-11 -8 -16 -13s-9.33301 -10.167 -13 -15.5s-5.5 -10 -5.5 -14s1.83301 -8.83301 5.5 -14.5s8 -11 13 -16s10.333 -9.33301 16 -13
s10.5 -5.5 14.5 -5.5s8.83301 1.83301 14.5 5.5s11 8 16 13s9.33301 10.333 13 16s5.5 10.5 5.5 14.5z" />
    <glyph glyph-name="cedilla" unicode="&#xb8;" 
d="M340 -128c0 14.667 -2.83008 27.668 -8.49707 39.001s-12.834 21.166 -21.501 29.499s-18.334 14.666 -29.001 18.999s-21.334 6.83301 -32.001 7.5l10 35h-31l-13 -47c-2 -7.33301 -1.16699 -14.166 2.5 -20.499s11.5 -9.5 23.5 -9.5c10 0 21.167 -4.5 33.5 -13.5
s18.5 -22.833 18.5 -41.5c0 -18 -6 -31.667 -18 -41s-25 -14 -39 -14c-11.333 0 -23 1.83301 -35 5.5s-22.667 9.16699 -32 16.5l-9 -38c23.333 -16 48.333 -24 75 -24c12.667 0 25.167 2 37.5 6s23.5 10 33.5 18s18.167 18.167 24.5 30.5s9.5 26.5 9.5 42.5z" />
    <glyph glyph-name="onesuperior" unicode="&#xb9;" horiz-adv-x="256" 
d="M168 248v401l-116 -10l-11 -43l80 6v-354h47z" />
    <glyph glyph-name="ordmasculine" unicode="&#xba;" horiz-adv-x="458" 
d="M421 460c0 28 -4.83301 53.5 -14.5 76.5s-23.167 42.833 -40.5 59.5s-37.666 29.667 -60.999 39s-48.666 14 -75.999 14s-52.666 -4.66699 -75.999 -14s-43.666 -22.333 -60.999 -39s-30.833 -36.5 -40.5 -59.5s-14.5 -48.5 -14.5 -76.5
c0 -27.333 4.83301 -52.666 14.5 -75.999s23.167 -43.333 40.5 -60s37.666 -29.667 60.999 -39s48.666 -14 75.999 -14s52.666 4.66699 75.999 14s43.666 22.333 60.999 39s30.833 36.667 40.5 60s14.5 48.666 14.5 75.999zM365 460c0 -20.667 -3.5 -39.667 -10.5 -57
s-16.667 -32.333 -29 -45s-26.833 -22.5 -43.5 -29.5s-34.334 -10.5 -53.001 -10.5c-19.333 0 -37.166 3.5 -53.499 10.5s-30.666 16.833 -42.999 29.5s-22 27.667 -29 45s-10.5 36.333 -10.5 57s3.5 39.667 10.5 57s16.667 32.333 29 45s26.666 22.5 42.999 29.5
s34.166 10.5 53.499 10.5c18.667 0 36.334 -3.5 53.001 -10.5s31.167 -16.833 43.5 -29.5s22 -27.667 29 -45s10.5 -36.333 10.5 -57zM271 154c0 3.33301 -1.5 7.5 -4.5 12.5s-6.66699 9.66699 -11 14s-9 8.16602 -14 11.499s-9.16699 5 -12.5 5s-7.33301 -1.66699 -12 -5
s-9.33398 -7.16602 -14.001 -11.499s-8.5 -9 -11.5 -14s-4.5 -9.16699 -4.5 -12.5s1.5 -7.33301 4.5 -12s6.83301 -9.33398 11.5 -14.001s9.33398 -8.5 14.001 -11.5s8.66699 -4.5 12 -4.5s7.5 1.5 12.5 4.5s9.66699 6.83301 14 11.5s8 9.33398 11 14.001
s4.5 8.66699 4.5 12z" />
    <glyph glyph-name="guillemotright" unicode="&#xbb;" horiz-adv-x="382" 
d="M356 226c0 2.66699 -1.33301 5.99805 -4 9.99805s-5.66699 7.33301 -9 10c-19.333 14.667 -39.166 32.667 -59.499 54s-37.833 41.666 -52.5 60.999l-10 -25c8.66699 -19.333 17.834 -38.166 27.501 -56.499s20.5 -36.166 32.5 -53.499
c-12 -17.333 -22.833 -35.166 -32.5 -53.499s-18.834 -37.166 -27.501 -56.499l10 -25c14.667 19.333 32.167 39.666 52.5 60.999s40.166 39.333 59.499 54c3.33301 2.66699 6.33301 6 9 10s4 7.33301 4 10zM179 225.998c0 2.66699 -1.33301 5.99805 -4 9.99805
s-5.66699 7.33301 -9 10c-19.333 14.667 -39 32.667 -59 54s-37.333 41.666 -52 60.999l-11 -25c8.66699 -19.333 17.834 -38.166 27.501 -56.499s20.5 -36.166 32.5 -53.499c-12 -17.333 -22.833 -35.166 -32.5 -53.499s-18.834 -37.166 -27.501 -56.499l11 -25
c14.667 19.333 32 39.666 52 60.999s39.667 39.333 59 54c3.33301 2.66699 6.33301 6 9 10s4 7.33301 4 10z" />
    <glyph glyph-name="onequarter" unicode="&#xbc;" horiz-adv-x="720" 
d="M664 116v40h-54v241h-39l-194 -242l11 -39h175v-116h47v116h54zM566 331c-2 -20 -3 -39.333 -3 -58v-117h-133l91 116l23 30c7.33301 10 14 20 20 30zM612 629l-26 23l-521 -644l27 -22zM168 248v401l-116 -10l-11 -43l80 6v-354h47z" />
    <glyph glyph-name="onehalf" unicode="&#xbd;" horiz-adv-x="784" 
d="M733 0l0.000976562 40.001h-173c48 42 85.667 83.333 113 124s41 77.667 41 111c0 38.667 -12.167 69.5 -36.5 92.5s-59.5 34.5 -105.5 34.5c-20.667 0 -39.667 -2.33301 -57 -7s-32 -10.667 -44 -18l11 -39c12.667 7.33301 26.5 13.166 41.5 17.499s31.167 6.5 48.5 6.5
c29.333 0 52.666 -7.16699 69.999 -21.5s26 -35.5 26 -63.5c0 -29.333 -15.833 -65.5 -47.5 -108.5s-83.167 -94.833 -154.5 -155.5v-13h267zM612.001 629.001l-26 23l-521 -643l27 -23zM168.001 248.001v401l-116 -10l-11 -43l80 6v-354h47z" />
    <glyph glyph-name="threequarters" unicode="&#xbe;" horiz-adv-x="763" 
d="M717 116v40h-54v241h-39l-194 -242l10 -39h176v-116h47v116h54zM619 331c-2 -20 -3 -39.333 -3 -58v-117h-133l91 116c8 10 15.5 20 22.5 30l20.5 30zM665 629l-26 23l-522 -644l28 -22zM273 367c0 30 -8.50098 54.6689 -25.501 74.002s-37.5 32.666 -61.5 39.999
c16 7.33301 29.167 17.333 39.5 30s15.5 28.334 15.5 47.001c0 26.667 -10.333 48.5 -31 65.5s-47.667 25.5 -81 25.5c-29.333 0 -56.333 -7 -81 -21l11 -40c13.333 7.33301 25.333 12.666 36 15.999s21.667 5 33 5c20.667 0 36.834 -5.33301 48.501 -16
s17.5 -23.334 17.5 -38.001c0 -15.333 -7.83301 -29.166 -23.5 -41.499s-37.167 -20.833 -64.5 -25.5l10 -38c5.33301 0.666992 9.33301 1 12 1h9c12 0 23.333 -2.16699 34 -6.5s20 -10 28 -17s14.333 -15.5 19 -25.5s7 -20.333 7 -31c0 -28.667 -10 -50.667 -30 -66
s-43.667 -23 -71 -23c-14 0 -28.167 2.16699 -42.5 6.5s-27.5 10.166 -39.5 17.499l7 -47c10 -5.33301 21.833 -9.5 35.5 -12.5s27.167 -4.5 40.5 -4.5c46 0 82.167 11.667 108.5 35s39.5 53.333 39.5 90z" />
    <glyph glyph-name="questiondown" unicode="&#xbf;" horiz-adv-x="368" 
d="M247 600c0 4 -1.83301 8.83301 -5.5 14.5s-8 11 -13 16s-10.333 9.33301 -16 13s-10.5 5.5 -14.5 5.5s-8.83301 -1.83301 -14.5 -5.5s-11 -8 -16 -13s-9.33301 -10.333 -13 -16s-5.5 -10.5 -5.5 -14.5s1.83301 -8.66699 5.5 -14s8 -10.5 13 -15.5s10.333 -9.33301 16 -13
s10.5 -5.5 14.5 -5.5s8.83301 1.83301 14.5 5.5s11 8 16 13s9.33301 10.167 13 15.5s5.5 10 5.5 14zM335 26l-14 56c-15.333 -10 -32.333 -18.333 -51 -25s-39.334 -10 -62.001 -10c-30.667 0 -55 9.33301 -73 28s-27 40 -27 64c0 24.667 6.5 46.334 19.5 65.001
s28.833 37.334 47.5 56.001c19.333 19.333 34.166 41.166 44.499 65.499s15.5 51.166 15.5 80.499c0 9.33301 -0.666992 18.666 -2 27.999s-3 18.333 -5 27l-58 14c2 -9.33301 3.5 -19.833 4.5 -31.5s1.5 -22.167 1.5 -31.5c0 -20.667 -3.66699 -40 -11 -58
s-19.666 -35.667 -36.999 -53c-23.333 -24 -43.666 -48.167 -60.999 -72.5s-26 -52.166 -26 -83.499c0 -24 4.16699 -45.5 12.5 -64.5s20 -35.333 35 -49s32.833 -24 53.5 -31s43 -10.5 67 -10.5c26.667 0 50.5 3.5 71.5 10.5s39.167 15.5 54.5 25.5z" />
    <glyph glyph-name="Agrave" unicode="&#xc0;" horiz-adv-x="601" 
d="M575 0l-262 647h-25l-262 -647h67l72 179h269l73 -179h68zM411 234h-223l77 196l17 47c6 16.667 11.667 33.667 17 51h2c5.33301 -17.333 11 -34.333 17 -51l17 -47zM378 734c-22.667 18 -46.1699 39.332 -70.5029 63.999s-45.166 49 -62.499 73
c-3.33301 4.66699 -7.16602 8.33398 -11.499 11.001s-8.16602 4 -11.499 4s-7 -1.33301 -11 -4s-8 -6 -12 -10s-7.33301 -8 -10 -12s-4 -7.33301 -4 -10c0 -3.33301 1 -6.66602 3 -9.99902s4.33301 -6.66602 7 -9.99902c20 -22.667 41.667 -43.334 65 -62.001
s48 -36.334 74 -53.001z" />
    <glyph glyph-name="Aacute" unicode="&#xc1;" horiz-adv-x="601" 
d="M575 0l-262 647h-25l-262 -647h67l72 179h269l73 -179h68zM411 234h-223l77 196l17 47c6 16.667 11.667 33.667 17 51h2c5.33301 -17.333 11 -34.333 17 -51l17 -47zM418 851c0 2.66699 -1.33594 6 -4.00293 10s-5.83398 7.83301 -9.50098 11.5
s-7.66699 6.83398 -12 9.50098s-7.83301 4 -10.5 4c-3.33301 0 -7.16602 -1.33301 -11.499 -4s-7.83301 -6 -10.5 -10c-17.333 -24 -38.166 -48.5 -62.499 -73.5s-48.166 -46.833 -71.499 -65.5l41 -18c26.667 16.667 51.834 34.667 75.501 54s45.167 40.333 64.5 63
c3.33301 3.33301 6 6.66602 8 9.99902s3 6.33301 3 9z" />
    <glyph glyph-name="Acircumflex" unicode="&#xc2;" horiz-adv-x="601" 
d="M575 0l-262 647h-25l-262 -647h67l72 179h269l73 -179h68zM411 234h-223l77 196l17 47c6 16.667 11.667 33.667 17 51h2c5.33301 -17.333 11 -34.333 17 -51l17 -47zM457 734c-23.333 18 -47.1719 39.333 -71.5049 64s-44.833 49 -61.5 73
c-3.33301 4.66699 -7.16602 8.33398 -11.499 11.001s-8.16602 4 -11.499 4s-7.16602 -1.33301 -11.499 -4s-8.16602 -6.33398 -11.499 -11.001c-16.667 -24 -37.167 -48.5 -61.5 -73.5s-48.166 -46.5 -71.499 -64.5l41 -18c40.667 26.667 78 56.334 112 89.001
c16.667 -16.667 35 -32.334 55 -47.001l60 -42z" />
    <glyph glyph-name="Atilde" unicode="&#xc3;" horiz-adv-x="601" 
d="M575 0l-262 647h-25l-262 -647h67l72 179h269l73 -179h68zM411 234h-223l77 196l17 47c6 16.667 11.667 33.667 17 51h2c5.33301 -17.333 11 -34.333 17 -51l17 -47zM466 841l-44.001 19c-3.33301 -4.66699 -7.83301 -10.5 -13.5 -17.5s-11.667 -13.833 -18 -20.5
s-12.666 -12.334 -18.999 -17.001s-11.833 -7 -16.5 -7c-4 0 -10.167 2.5 -18.5 7.5l-27.5 16.5c-10 6 -20 11.5 -30 16.5s-18.667 7.5 -26 7.5c-6.66699 0 -14.667 -3.5 -24 -10.5s-18.666 -15.833 -27.999 -26.5s-18.666 -22.5 -27.999 -35.5s-17.333 -25.167 -24 -36.5
l44 -20c3.33301 4.66699 7.83301 10.5 13.5 17.5s11.667 13.833 18 20.5s12.5 12.334 18.5 17.001s11.667 7 17 7c4.66699 0 11.167 -2.5 19.5 -7.5l27 -16c9.66699 -5.66699 19.5 -11 29.5 -16s18.667 -7.5 26 -7.5c6.66699 0 14.667 3.5 24 10.5
s18.666 15.833 27.999 26.5s18.666 22.5 27.999 35.5s17.333 25.167 24 36.5z" />
    <glyph glyph-name="Adieresis" unicode="&#xc4;" horiz-adv-x="601" 
d="M575 0l-262 647h-25l-262 -647h67l72 179h269l73 -179h68zM411 234h-223l77 196l17 47c6 16.667 11.667 33.667 17 51h2c5.33301 -17.333 11 -34.333 17 -51l17 -47zM416 763c0 3.33301 -1.5 7.5 -4.5 12.5s-6.66699 9.66699 -11 14s-9 8 -14 11s-9.16699 4.5 -12.5 4.5
s-7.5 -1.5 -12.5 -4.5s-9.66699 -6.66699 -14 -11s-8 -9 -11 -14s-4.5 -9.16699 -4.5 -12.5s1.5 -7.33301 4.5 -12s6.66699 -9.33398 11 -14.001s9 -8.5 14 -11.5s9.16699 -4.5 12.5 -4.5s7.5 1.5 12.5 4.5s9.66699 6.83301 14 11.5s8 9.33398 11 14.001s4.5 8.66699 4.5 12
zM268 763c0 3.33301 -1.5 7.5 -4.5 12.5s-6.66699 9.66699 -11 14s-9 8 -14 11s-9.16699 4.5 -12.5 4.5s-7.33301 -1.5 -12 -4.5s-9.33398 -6.66699 -14.001 -11s-8.5 -9 -11.5 -14s-4.5 -9.16699 -4.5 -12.5s1.5 -7.33301 4.5 -12s6.83301 -9.33398 11.5 -14.001
s9.33398 -8.5 14.001 -11.5s8.66699 -4.5 12 -4.5s7.5 1.5 12.5 4.5s9.66699 6.83301 14 11.5s8 9.33398 11 14.001s4.5 8.66699 4.5 12z" />
    <glyph glyph-name="Aring" unicode="&#xc5;" horiz-adv-x="601" 
d="M575 0l-262 647h-25l-262 -647h67l72 179h269l73 -179h68zM411 234h-223l77 196l17 47c6 16.667 11.667 33.667 17 51h2c5.33301 -17.333 11 -34.333 17 -51l17 -47zM403 808c0 14 -2.66699 27 -8 39s-12.666 22.667 -21.999 32s-20.166 16.666 -32.499 21.999
s-25.5 8 -39.5 8s-27.167 -2.66699 -39.5 -8s-23.166 -12.666 -32.499 -21.999s-16.666 -20 -21.999 -32s-8 -25 -8 -39s2.66699 -27.167 8 -39.5s12.666 -23.166 21.999 -32.499s20.166 -16.666 32.499 -21.999s25.5 -8 39.5 -8s27.167 2.66699 39.5 8
s23.166 12.666 32.499 21.999s16.666 20.166 21.999 32.499s8 25.5 8 39.5zM356 808c0 -16.667 -5.16699 -30.5 -15.5 -41.5s-23.5 -16.5 -39.5 -16.5s-29.333 5.5 -40 16.5s-16 24.833 -16 41.5s5.33301 30.5 16 41.5s24 16.5 40 16.5s29.167 -5.5 39.5 -16.5
s15.5 -24.833 15.5 -41.5z" />
    <glyph glyph-name="AE" unicode="&#xc6;" horiz-adv-x="794" 
d="M787 0v58h-300v234h217v58h-217v230h265v58h-356l-370 -638h68l104 179h222v-179h367zM421 578c0 -20.667 -0.166992 -39.5 -0.5 -56.5s-0.5 -36.5 -0.5 -58.5v-229h-193l131 228c10.667 18.667 21.167 38 31.5 58l29.5 59z" />
    <glyph glyph-name="Ccedilla" unicode="&#xc7;" horiz-adv-x="604" 
d="M562 602c-20.667 11.333 -46.8301 21.168 -78.4971 29.501s-67.5 12.5 -107.5 12.5c-42 0 -83.167 -7.33301 -123.5 -22s-76 -36 -107 -64s-56 -62.167 -75 -102.5s-28.5 -85.833 -28.5 -136.5c0 -48 8.66699 -91.333 26 -130s40.333 -72 69 -100s61.667 -50 99 -66
s76 -25.333 116 -28l-11 -40c-2 -7.33301 -1.33301 -14.166 2 -20.499s11.333 -9.5 24 -9.5c10 0 21.167 -4.5 33.5 -13.5s18.5 -22.833 18.5 -41.5c0 -18 -6 -31.667 -18 -41s-25 -14 -39 -14c-12 0 -23.833 1.83301 -35.5 5.5s-22.167 9.16699 -31.5 16.5l-9 -38
c10.667 -7.33301 22.334 -13.166 35.001 -17.499s26 -6.5 40 -6.5c12.667 0 25.167 2 37.5 6s23.5 10 33.5 18s18.167 18.167 24.5 30.5s9.5 26.5 9.5 42.5c0 14.667 -2.83301 27.667 -8.5 39s-12.834 21.166 -21.501 29.499s-18.334 14.666 -29.001 18.999
s-21.334 6.83301 -32.001 7.5l7 27c38 0.666992 70 4 96 10s48.333 14.333 67 25l7 63c-21.333 -12.667 -45.833 -22.5 -73.5 -29.5s-59.834 -10.5 -96.501 -10.5c-36 0 -70.5 6.16699 -103.5 18.5s-62 30 -87 53s-44.833 50.833 -59.5 83.5s-22 69.667 -22 111
s7.5 78.5 22.5 111.5s35 61 60 84s54 40.5 87 52.5s67.167 18 102.5 18c34 0 65.833 -4.33301 95.5 -13s53.167 -18.334 70.5 -29.001z" />
    <glyph glyph-name="Egrave" unicode="&#xc8;" horiz-adv-x="444" 
d="M437 0v58h-301v234h218v58h-218v230h266v58h-333v-638h368zM315 734c-22.667 18 -46.1699 39.332 -70.5029 63.999s-45.166 49 -62.499 73c-3.33301 4.66699 -7.16602 8.33398 -11.499 11.001s-8.16602 4 -11.499 4s-7 -1.33301 -11 -4s-8 -6 -12 -10
s-7.33301 -8 -10 -12s-4 -7.33301 -4 -10c0 -3.33301 1 -6.66602 3 -9.99902s4.33301 -6.66602 7 -9.99902c20 -22.667 41.667 -43.334 65 -62.001s48 -36.334 74 -53.001z" />
    <glyph glyph-name="Eacute" unicode="&#xc9;" horiz-adv-x="444" 
d="M437 0v58h-301v234h218v58h-218v230h266v58h-333v-638h368zM370 851c0 2.66699 -1.33594 6 -4.00293 10s-5.83398 7.83301 -9.50098 11.5s-7.66699 6.83398 -12 9.50098s-7.83301 4 -10.5 4c-3.33301 0 -7.16602 -1.33301 -11.499 -4s-7.83301 -6 -10.5 -10
c-17.333 -24 -38.166 -48.5 -62.499 -73.5s-48.166 -46.833 -71.499 -65.5l41 -18c26.667 16.667 51.834 34.667 75.501 54s45.167 40.333 64.5 63c3.33301 3.33301 6 6.66602 8 9.99902s3 6.33301 3 9z" />
    <glyph glyph-name="Ecircumflex" unicode="&#xca;" horiz-adv-x="444" 
d="M437 0v58h-301v234h218v58h-218v230h266v58h-333v-638h368zM402 734c-23.333 18 -47.1719 39.333 -71.5049 64s-44.833 49 -61.5 73c-3.33301 4.66699 -7.16602 8.33398 -11.499 11.001s-8.16602 4 -11.499 4s-7.16602 -1.33301 -11.499 -4
s-8.16602 -6.33398 -11.499 -11.001c-16.667 -24 -37.167 -48.5 -61.5 -73.5s-48.166 -46.5 -71.499 -64.5l41 -18c40.667 26.667 78 56.334 112 89.001c16.667 -16.667 35 -32.334 55 -47.001l60 -42z" />
    <glyph glyph-name="Edieresis" unicode="&#xcb;" horiz-adv-x="444" 
d="M437 0v58h-301v234h218v58h-218v230h266v58h-333v-638h368zM360 763c0 3.33301 -1.5 7.5 -4.5 12.5s-6.66699 9.66699 -11 14s-9 8 -14 11s-9.16699 4.5 -12.5 4.5s-7.5 -1.5 -12.5 -4.5s-9.66699 -6.66699 -14 -11s-8 -9 -11 -14s-4.5 -9.16699 -4.5 -12.5
s1.5 -7.33301 4.5 -12s6.66699 -9.33398 11 -14.001s9 -8.5 14 -11.5s9.16699 -4.5 12.5 -4.5s7.5 1.5 12.5 4.5s9.66699 6.83301 14 11.5s8 9.33398 11 14.001s4.5 8.66699 4.5 12zM212 763c0 3.33301 -1.5 7.5 -4.5 12.5s-6.66699 9.66699 -11 14s-9 8 -14 11
s-9.16699 4.5 -12.5 4.5s-7.33301 -1.5 -12 -4.5s-9.33398 -6.66699 -14.001 -11s-8.5 -9 -11.5 -14s-4.5 -9.16699 -4.5 -12.5s1.5 -7.33301 4.5 -12s6.83301 -9.33398 11.5 -14.001s9.33398 -8.5 14.001 -11.5s8.66699 -4.5 12 -4.5s7.5 1.5 12.5 4.5
s9.66699 6.83301 14 11.5s8 9.33398 11 14.001s4.5 8.66699 4.5 12z" />
    <glyph glyph-name="Igrave" unicode="&#xcc;" horiz-adv-x="225" 
d="M146 0v638h-67v-638h67zM191 734c-22.667 18 -46.1699 39.332 -70.5029 63.999s-45.166 49 -62.499 73c-3.33301 4.66699 -7.16602 8.33398 -11.499 11.001s-8.16602 4 -11.499 4s-7 -1.33301 -11 -4s-8 -6 -12 -10s-7.33301 -8 -10 -12s-4 -7.33301 -4 -10
c0 -3.33301 1 -6.66602 3 -9.99902s4.33301 -6.66602 7 -9.99902c20 -22.667 41.667 -43.334 65 -62.001s48 -36.334 74 -53.001z" />
    <glyph glyph-name="Iacute" unicode="&#xcd;" horiz-adv-x="225" 
d="M146 0v638h-67v-638h67zM229 851c0 2.66699 -1.33594 6 -4.00293 10s-5.83398 7.83301 -9.50098 11.5s-7.66699 6.83398 -12 9.50098s-7.83301 4 -10.5 4c-3.33301 0 -7.16602 -1.33301 -11.499 -4s-7.83301 -6 -10.5 -10c-17.333 -24 -38.166 -48.5 -62.499 -73.5
s-48.166 -46.833 -71.499 -65.5l41 -18c26.667 16.667 51.834 34.667 75.501 54s45.167 40.333 64.5 63c3.33301 3.33301 6 6.66602 8 9.99902s3 6.33301 3 9z" />
    <glyph glyph-name="Icircumflex" unicode="&#xce;" horiz-adv-x="225" 
d="M146 0v638h-67v-638h67zM271 734c-23.333 18 -47.1719 39.333 -71.5049 64s-44.833 49 -61.5 73c-3.33301 4.66699 -7.16602 8.33398 -11.499 11.001s-8.16602 4 -11.499 4s-7.16602 -1.33301 -11.499 -4s-8.16602 -6.33398 -11.499 -11.001
c-16.667 -24 -37.167 -48.5 -61.5 -73.5s-48.166 -46.5 -71.499 -64.5l41 -18c40.667 26.667 78 56.334 112 89.001c16.667 -16.667 35 -32.334 55 -47.001l60 -42z" />
    <glyph glyph-name="Idieresis" unicode="&#xcf;" horiz-adv-x="225" 
d="M146 0v638h-67v-638h67zM229 763c0 3.33301 -1.5 7.5 -4.5 12.5s-6.66699 9.66699 -11 14s-9 8 -14 11s-9.16699 4.5 -12.5 4.5s-7.5 -1.5 -12.5 -4.5s-9.66699 -6.66699 -14 -11s-8 -9 -11 -14s-4.5 -9.16699 -4.5 -12.5s1.5 -7.33301 4.5 -12
s6.66699 -9.33398 11 -14.001s9 -8.5 14 -11.5s9.16699 -4.5 12.5 -4.5s7.5 1.5 12.5 4.5s9.66699 6.83301 14 11.5s8 9.33398 11 14.001s4.5 8.66699 4.5 12zM81 763c0 3.33301 -1.5 7.5 -4.5 12.5s-6.66699 9.66699 -11 14s-9 8 -14 11s-9.16699 4.5 -12.5 4.5
s-7.33301 -1.5 -12 -4.5s-9.33398 -6.66699 -14.001 -11s-8.5 -9 -11.5 -14s-4.5 -9.16699 -4.5 -12.5s1.5 -7.33301 4.5 -12s6.83301 -9.33398 11.5 -14.001s9.33398 -8.5 14.001 -11.5s8.66699 -4.5 12 -4.5s7.5 1.5 12.5 4.5s9.66699 6.83301 14 11.5
s8 9.33398 11 14.001s4.5 8.66699 4.5 12z" />
    <glyph glyph-name="Eth" unicode="&#xd0;" horiz-adv-x="663" 
d="M621 319c0 50.667 -9.33301 95.832 -28 135.499s-44.167 73 -76.5 100s-70 47.667 -113 62s-88.5 21.5 -136.5 21.5h-167v-291h-83v-52h83v-295h167c48 0 93.5 7.16699 136.5 21.5s80.667 35 113 62s57.833 60.333 76.5 100s28 84.834 28 135.501zM552 317.998
c0 -42.667 -7.5 -80.166 -22.5 -112.499s-35.667 -59.5 -62 -81.5s-57.5 -38.667 -93.5 -50s-75 -17 -117 -17h-89v238h127l12 52h-139v233h89c42 0 81 -5.66699 117 -17s67.167 -28 93.5 -50s47 -49.333 62 -82s22.5 -70.334 22.5 -113.001z" />
    <glyph glyph-name="Ntilde" unicode="&#xd1;" horiz-adv-x="692" 
d="M623 -10v648h-67v-340v-83c0 -28 0.666992 -56.333 2 -85l-2 -1l-34.5 42l-37.5 44.5l-37.5 44.5l-34.5 40l-296 338h-47v-638h67v352v87c0 29.333 -0.666992 59 -2 89l2 1l74.5 -90l80.5 -94l312 -355h20zM508 841l-44.001 19
c-3.33301 -4.66699 -7.83301 -10.5 -13.5 -17.5s-11.667 -13.833 -18 -20.5s-12.666 -12.334 -18.999 -17.001s-11.833 -7 -16.5 -7c-4 0 -10.167 2.5 -18.5 7.5l-27.5 16.5c-10 6 -20 11.5 -30 16.5s-18.667 7.5 -26 7.5c-6.66699 0 -14.667 -3.5 -24 -10.5
s-18.666 -15.833 -27.999 -26.5s-18.666 -22.5 -27.999 -35.5s-17.333 -25.167 -24 -36.5l44 -20c3.33301 4.66699 7.83301 10.5 13.5 17.5s11.667 13.833 18 20.5s12.5 12.334 18.5 17.001s11.667 7 17 7c4.66699 0 11.167 -2.5 19.5 -7.5l27 -16
c9.66699 -5.66699 19.5 -11 29.5 -16s18.667 -7.5 26 -7.5c6.66699 0 14.667 3.5 24 10.5s18.666 15.833 27.999 26.5s18.666 22.5 27.999 35.5s17.333 25.167 24 36.5z" />
    <glyph glyph-name="Ograve" unicode="&#xd2;" horiz-adv-x="752" 
d="M710 320c0 49.333 -9.16699 94.166 -27.5 134.499s-42.833 75 -73.5 104s-66.167 51.333 -106.5 67s-82.5 23.5 -126.5 23.5s-86.167 -7.83301 -126.5 -23.5s-75.833 -38 -106.5 -67s-55.167 -63.667 -73.5 -104s-27.5 -85.166 -27.5 -134.499s9.16699 -94.333 27.5 -135
s42.833 -75.5 73.5 -104.5s66.167 -51.5 106.5 -67.5s82.5 -24 126.5 -24s86.167 8 126.5 24s75.833 38.5 106.5 67.5s55.167 63.833 73.5 104.5s27.5 85.667 27.5 135zM642 318c0 -41.333 -7.33301 -78.666 -22 -111.999s-34.334 -61.666 -59.001 -84.999
s-53 -41.5 -85 -54.5s-65.333 -19.5 -100 -19.5c-35.333 0 -69 6.5 -101 19.5s-60.167 31.167 -84.5 54.5s-43.833 51.666 -58.5 84.999s-22 70.666 -22 111.999c0 40.667 7.33301 77.834 22 111.501s34.167 62.167 58.5 85.5s52.5 41.5 84.5 54.5s65.667 19.5 101 19.5
c34.667 0 68 -6.5 100 -19.5s60.333 -31.167 85 -54.5s44.334 -51.833 59.001 -85.5s22 -70.834 22 -111.501zM447 734c-22.667 18 -46.1699 39.332 -70.5029 63.999s-45.166 49 -62.499 73c-3.33301 4.66699 -7.16602 8.33398 -11.499 11.001s-8.16602 4 -11.499 4
s-7 -1.33301 -11 -4s-8 -6 -12 -10s-7.33301 -8 -10 -12s-4 -7.33301 -4 -10c0 -3.33301 1 -6.66602 3 -9.99902s4.33301 -6.66602 7 -9.99902c20 -22.667 41.667 -43.334 65 -62.001s48 -36.334 74 -53.001z" />
    <glyph glyph-name="Oacute" unicode="&#xd3;" horiz-adv-x="752" 
d="M710 320c0 49.333 -9.16699 94.166 -27.5 134.499s-42.833 75 -73.5 104s-66.167 51.333 -106.5 67s-82.5 23.5 -126.5 23.5s-86.167 -7.83301 -126.5 -23.5s-75.833 -38 -106.5 -67s-55.167 -63.667 -73.5 -104s-27.5 -85.166 -27.5 -134.499s9.16699 -94.333 27.5 -135
s42.833 -75.5 73.5 -104.5s66.167 -51.5 106.5 -67.5s82.5 -24 126.5 -24s86.167 8 126.5 24s75.833 38.5 106.5 67.5s55.167 63.833 73.5 104.5s27.5 85.667 27.5 135zM642 318c0 -41.333 -7.33301 -78.666 -22 -111.999s-34.334 -61.666 -59.001 -84.999
s-53 -41.5 -85 -54.5s-65.333 -19.5 -100 -19.5c-35.333 0 -69 6.5 -101 19.5s-60.167 31.167 -84.5 54.5s-43.833 51.666 -58.5 84.999s-22 70.666 -22 111.999c0 40.667 7.33301 77.834 22 111.501s34.167 62.167 58.5 85.5s52.5 41.5 84.5 54.5s65.667 19.5 101 19.5
c34.667 0 68 -6.5 100 -19.5s60.333 -31.167 85 -54.5s44.334 -51.833 59.001 -85.5s22 -70.834 22 -111.501zM490 851c0 2.66699 -1.33594 6 -4.00293 10s-5.83398 7.83301 -9.50098 11.5s-7.66699 6.83398 -12 9.50098s-7.83301 4 -10.5 4
c-3.33301 0 -7.16602 -1.33301 -11.499 -4s-7.83301 -6 -10.5 -10c-17.333 -24 -38.166 -48.5 -62.499 -73.5s-48.166 -46.833 -71.499 -65.5l41 -18c26.667 16.667 51.834 34.667 75.501 54s45.167 40.333 64.5 63c3.33301 3.33301 6 6.66602 8 9.99902s3 6.33301 3 9z" />
    <glyph glyph-name="Ocircumflex" unicode="&#xd4;" horiz-adv-x="752" 
d="M710 320c0 49.333 -9.16699 94.166 -27.5 134.499s-42.833 75 -73.5 104s-66.167 51.333 -106.5 67s-82.5 23.5 -126.5 23.5s-86.167 -7.83301 -126.5 -23.5s-75.833 -38 -106.5 -67s-55.167 -63.667 -73.5 -104s-27.5 -85.166 -27.5 -134.499s9.16699 -94.333 27.5 -135
s42.833 -75.5 73.5 -104.5s66.167 -51.5 106.5 -67.5s82.5 -24 126.5 -24s86.167 8 126.5 24s75.833 38.5 106.5 67.5s55.167 63.833 73.5 104.5s27.5 85.667 27.5 135zM642 318c0 -41.333 -7.33301 -78.666 -22 -111.999s-34.334 -61.666 -59.001 -84.999
s-53 -41.5 -85 -54.5s-65.333 -19.5 -100 -19.5c-35.333 0 -69 6.5 -101 19.5s-60.167 31.167 -84.5 54.5s-43.833 51.666 -58.5 84.999s-22 70.666 -22 111.999c0 40.667 7.33301 77.834 22 111.501s34.167 62.167 58.5 85.5s52.5 41.5 84.5 54.5s65.667 19.5 101 19.5
c34.667 0 68 -6.5 100 -19.5s60.333 -31.167 85 -54.5s44.334 -51.833 59.001 -85.5s22 -70.834 22 -111.501zM531 734c-23.333 18 -47.1719 39.333 -71.5049 64s-44.833 49 -61.5 73c-3.33301 4.66699 -7.16602 8.33398 -11.499 11.001s-8.16602 4 -11.499 4
s-7.16602 -1.33301 -11.499 -4s-8.16602 -6.33398 -11.499 -11.001c-16.667 -24 -37.167 -48.5 -61.5 -73.5s-48.166 -46.5 -71.499 -64.5l41 -18c40.667 26.667 78 56.334 112 89.001c16.667 -16.667 35 -32.334 55 -47.001l60 -42z" />
    <glyph glyph-name="Otilde" unicode="&#xd5;" horiz-adv-x="752" 
d="M710 320c0 49.333 -9.16699 94.166 -27.5 134.499s-42.833 75 -73.5 104s-66.167 51.333 -106.5 67s-82.5 23.5 -126.5 23.5s-86.167 -7.83301 -126.5 -23.5s-75.833 -38 -106.5 -67s-55.167 -63.667 -73.5 -104s-27.5 -85.166 -27.5 -134.499s9.16699 -94.333 27.5 -135
s42.833 -75.5 73.5 -104.5s66.167 -51.5 106.5 -67.5s82.5 -24 126.5 -24s86.167 8 126.5 24s75.833 38.5 106.5 67.5s55.167 63.833 73.5 104.5s27.5 85.667 27.5 135zM642 318c0 -41.333 -7.33301 -78.666 -22 -111.999s-34.334 -61.666 -59.001 -84.999
s-53 -41.5 -85 -54.5s-65.333 -19.5 -100 -19.5c-35.333 0 -69 6.5 -101 19.5s-60.167 31.167 -84.5 54.5s-43.833 51.666 -58.5 84.999s-22 70.666 -22 111.999c0 40.667 7.33301 77.834 22 111.501s34.167 62.167 58.5 85.5s52.5 41.5 84.5 54.5s65.667 19.5 101 19.5
c34.667 0 68 -6.5 100 -19.5s60.333 -31.167 85 -54.5s44.334 -51.833 59.001 -85.5s22 -70.834 22 -111.501zM542 841l-44.001 19c-3.33301 -4.66699 -7.83301 -10.5 -13.5 -17.5s-11.667 -13.833 -18 -20.5s-12.666 -12.334 -18.999 -17.001s-11.833 -7 -16.5 -7
c-4 0 -10.167 2.5 -18.5 7.5l-27.5 16.5c-10 6 -20 11.5 -30 16.5s-18.667 7.5 -26 7.5c-6.66699 0 -14.667 -3.5 -24 -10.5s-18.666 -15.833 -27.999 -26.5s-18.666 -22.5 -27.999 -35.5s-17.333 -25.167 -24 -36.5l44 -20c3.33301 4.66699 7.83301 10.5 13.5 17.5
s11.667 13.833 18 20.5s12.5 12.334 18.5 17.001s11.667 7 17 7c4.66699 0 11.167 -2.5 19.5 -7.5l27 -16c9.66699 -5.66699 19.5 -11 29.5 -16s18.667 -7.5 26 -7.5c6.66699 0 14.667 3.5 24 10.5s18.666 15.833 27.999 26.5s18.666 22.5 27.999 35.5
s17.333 25.167 24 36.5z" />
    <glyph glyph-name="Odieresis" unicode="&#xd6;" horiz-adv-x="752" 
d="M710 320c0 49.333 -9.16699 94.166 -27.5 134.499s-42.833 75 -73.5 104s-66.167 51.333 -106.5 67s-82.5 23.5 -126.5 23.5s-86.167 -7.83301 -126.5 -23.5s-75.833 -38 -106.5 -67s-55.167 -63.667 -73.5 -104s-27.5 -85.166 -27.5 -134.499s9.16699 -94.333 27.5 -135
s42.833 -75.5 73.5 -104.5s66.167 -51.5 106.5 -67.5s82.5 -24 126.5 -24s86.167 8 126.5 24s75.833 38.5 106.5 67.5s55.167 63.833 73.5 104.5s27.5 85.667 27.5 135zM642 318c0 -41.333 -7.33301 -78.666 -22 -111.999s-34.334 -61.666 -59.001 -84.999
s-53 -41.5 -85 -54.5s-65.333 -19.5 -100 -19.5c-35.333 0 -69 6.5 -101 19.5s-60.167 31.167 -84.5 54.5s-43.833 51.666 -58.5 84.999s-22 70.666 -22 111.999c0 40.667 7.33301 77.834 22 111.501s34.167 62.167 58.5 85.5s52.5 41.5 84.5 54.5s65.667 19.5 101 19.5
c34.667 0 68 -6.5 100 -19.5s60.333 -31.167 85 -54.5s44.334 -51.833 59.001 -85.5s22 -70.834 22 -111.501zM492 763c0 3.33301 -1.5 7.5 -4.5 12.5s-6.66699 9.66699 -11 14s-9 8 -14 11s-9.16699 4.5 -12.5 4.5s-7.5 -1.5 -12.5 -4.5s-9.66699 -6.66699 -14 -11
s-8 -9 -11 -14s-4.5 -9.16699 -4.5 -12.5s1.5 -7.33301 4.5 -12s6.66699 -9.33398 11 -14.001s9 -8.5 14 -11.5s9.16699 -4.5 12.5 -4.5s7.5 1.5 12.5 4.5s9.66699 6.83301 14 11.5s8 9.33398 11 14.001s4.5 8.66699 4.5 12zM344 763c0 3.33301 -1.5 7.5 -4.5 12.5
s-6.66699 9.66699 -11 14s-9 8 -14 11s-9.16699 4.5 -12.5 4.5s-7.33301 -1.5 -12 -4.5s-9.33398 -6.66699 -14.001 -11s-8.5 -9 -11.5 -14s-4.5 -9.16699 -4.5 -12.5s1.5 -7.33301 4.5 -12s6.83301 -9.33398 11.5 -14.001s9.33398 -8.5 14.001 -11.5s8.66699 -4.5 12 -4.5
s7.5 1.5 12.5 4.5s9.66699 6.83301 14 11.5s8 9.33398 11 14.001s4.5 8.66699 4.5 12z" />
    <glyph glyph-name="multiply" unicode="&#xd7;" horiz-adv-x="476" 
d="M397 146l-125 126l124 125l-31 31l-125 -124l-126 126l-31 -32l125 -126l-126 -126l32 -32l126 127l126 -126z" />
    <glyph glyph-name="Oslash" unicode="&#xd8;" horiz-adv-x="752" 
d="M710 320c0 51.333 -9.66699 97.667 -29 139s-45.666 76.666 -78.999 105.999l58 72l-32 27l-59 -73c-28 19.333 -58.333 33.833 -91 43.5s-66.667 14.5 -102 14.5c-44 0 -86.167 -7.83301 -126.5 -23.5s-75.833 -38 -106.5 -67s-55.167 -63.667 -73.5 -104
s-27.5 -85.166 -27.5 -134.499c0 -52 9.83301 -98.833 29.5 -140.5s46.167 -77.167 79.5 -106.5l-59 -73l32 -28l60 75c28 -18.667 58.167 -33 90.5 -43s66.166 -15 101.499 -15c44 0 86.167 8 126.5 24s75.833 38.5 106.5 67.5s55.167 63.833 73.5 104.5
s27.5 85.667 27.5 135zM642 318.001c0 -41.333 -7.33203 -78.6699 -21.999 -112.003s-34.334 -61.666 -59.001 -84.999s-53 -41.5 -85 -54.5s-65.333 -19.5 -100 -19.5c-56.667 0 -107.667 16 -153 48l339 420c24.667 -23.333 44.167 -51.666 58.5 -84.999
s21.5 -70.666 21.5 -111.999zM529.001 541.997l-339 -420.001c-24.667 23.333 -44.167 51.5 -58.5 84.5s-21.5 70.167 -21.5 111.5c0 40.667 7.33301 77.834 22 111.501s34.167 62.167 58.5 85.5s52.5 41.5 84.5 54.5s65.667 19.5 101 19.5c28 0 55 -4 81 -12
s50 -19.667 72 -35z" />
    <glyph glyph-name="Ugrave" unicode="&#xd9;" horiz-adv-x="636" 
d="M567 221v417h-65v-411c0 -56 -16 -99.667 -48 -131s-77 -47 -135 -47s-103 15.667 -135 47s-48 75 -48 131v411h-67v-417c0 -36 6 -68.333 18 -97s29 -53 51 -73s48.167 -35.333 78.5 -46s64.166 -16 101.499 -16c36.667 0 70.334 5.33301 101.001 16s57 26 79 46
s39 44.333 51 73s18 61 18 97zM395 734c-22.667 18 -46.1699 39.332 -70.5029 63.999s-45.166 49 -62.499 73c-3.33301 4.66699 -7.16602 8.33398 -11.499 11.001s-8.16602 4 -11.499 4s-7 -1.33301 -11 -4s-8 -6 -12 -10s-7.33301 -8 -10 -12s-4 -7.33301 -4 -10
c0 -3.33301 1 -6.66602 3 -9.99902s4.33301 -6.66602 7 -9.99902c20 -22.667 41.667 -43.334 65 -62.001s48 -36.334 74 -53.001z" />
    <glyph glyph-name="Uacute" unicode="&#xda;" horiz-adv-x="636" 
d="M567 221v417h-65v-411c0 -56 -16 -99.667 -48 -131s-77 -47 -135 -47s-103 15.667 -135 47s-48 75 -48 131v411h-67v-417c0 -36 6 -68.333 18 -97s29 -53 51 -73s48.167 -35.333 78.5 -46s64.166 -16 101.499 -16c36.667 0 70.334 5.33301 101.001 16s57 26 79 46
s39 44.333 51 73s18 61 18 97zM437 851c0 2.66699 -1.33594 6 -4.00293 10s-5.83398 7.83301 -9.50098 11.5s-7.66699 6.83398 -12 9.50098s-7.83301 4 -10.5 4c-3.33301 0 -7.16602 -1.33301 -11.499 -4s-7.83301 -6 -10.5 -10c-17.333 -24 -38.166 -48.5 -62.499 -73.5
s-48.166 -46.833 -71.499 -65.5l41 -18c26.667 16.667 51.834 34.667 75.501 54s45.167 40.333 64.5 63c3.33301 3.33301 6 6.66602 8 9.99902s3 6.33301 3 9z" />
    <glyph glyph-name="Ucircumflex" unicode="&#xdb;" horiz-adv-x="636" 
d="M567 221v417h-65v-411c0 -56 -16 -99.667 -48 -131s-77 -47 -135 -47s-103 15.667 -135 47s-48 75 -48 131v411h-67v-417c0 -36 6 -68.333 18 -97s29 -53 51 -73s48.167 -35.333 78.5 -46s64.166 -16 101.499 -16c36.667 0 70.334 5.33301 101.001 16s57 26 79 46
s39 44.333 51 73s18 61 18 97zM477 734c-23.333 18 -47.1719 39.333 -71.5049 64s-44.833 49 -61.5 73c-3.33301 4.66699 -7.16602 8.33398 -11.499 11.001s-8.16602 4 -11.499 4s-7.16602 -1.33301 -11.499 -4s-8.16602 -6.33398 -11.499 -11.001
c-16.667 -24 -37.167 -48.5 -61.5 -73.5s-48.166 -46.5 -71.499 -64.5l41 -18c40.667 26.667 78 56.334 112 89.001c16.667 -16.667 35 -32.334 55 -47.001l60 -42z" />
    <glyph glyph-name="Udieresis" unicode="&#xdc;" horiz-adv-x="636" 
d="M567 221v417h-65v-411c0 -56 -16 -99.667 -48 -131s-77 -47 -135 -47s-103 15.667 -135 47s-48 75 -48 131v411h-67v-417c0 -36 6 -68.333 18 -97s29 -53 51 -73s48.167 -35.333 78.5 -46s64.166 -16 101.499 -16c36.667 0 70.334 5.33301 101.001 16s57 26 79 46
s39 44.333 51 73s18 61 18 97zM439 763c0 3.33301 -1.5 7.5 -4.5 12.5s-6.66699 9.66699 -11 14s-9 8 -14 11s-9.16699 4.5 -12.5 4.5s-7.5 -1.5 -12.5 -4.5s-9.66699 -6.66699 -14 -11s-8 -9 -11 -14s-4.5 -9.16699 -4.5 -12.5s1.5 -7.33301 4.5 -12
s6.66699 -9.33398 11 -14.001s9 -8.5 14 -11.5s9.16699 -4.5 12.5 -4.5s7.5 1.5 12.5 4.5s9.66699 6.83301 14 11.5s8 9.33398 11 14.001s4.5 8.66699 4.5 12zM291 763c0 3.33301 -1.5 7.5 -4.5 12.5s-6.66699 9.66699 -11 14s-9 8 -14 11s-9.16699 4.5 -12.5 4.5
s-7.33301 -1.5 -12 -4.5s-9.33398 -6.66699 -14.001 -11s-8.5 -9 -11.5 -14s-4.5 -9.16699 -4.5 -12.5s1.5 -7.33301 4.5 -12s6.83301 -9.33398 11.5 -14.001s9.33398 -8.5 14.001 -11.5s8.66699 -4.5 12 -4.5s7.5 1.5 12.5 4.5s9.66699 6.83301 14 11.5
s8 9.33398 11 14.001s4.5 8.66699 4.5 12z" />
    <glyph glyph-name="Yacute" unicode="&#xdd;" horiz-adv-x="606" 
d="M580 638h-70l-138 -194l-33.5 -48.5l-32.5 -48.5h-2c-10 16 -20.833 32.333 -32.5 49l-33.5 48l-137 194h-75l243 -343v-295h66v295zM432 851c0 2.66699 -1.33594 6 -4.00293 10s-5.83398 7.83301 -9.50098 11.5s-7.66699 6.83398 -12 9.50098s-7.83301 4 -10.5 4
c-3.33301 0 -7.16602 -1.33301 -11.499 -4s-7.83301 -6 -10.5 -10c-17.333 -24 -38.166 -48.5 -62.499 -73.5s-48.166 -46.833 -71.499 -65.5l41 -18c26.667 16.667 51.834 34.667 75.501 54s45.167 40.333 64.5 63c3.33301 3.33301 6 6.66602 8 9.99902s3 6.33301 3 9z" />
    <glyph glyph-name="Thorn" unicode="&#xde;" horiz-adv-x="471" 
d="M434 391c0 27.333 -5.16797 51.668 -15.501 73.001s-24.166 39.5 -41.499 54.5s-37.333 26.333 -60 34s-46 11.5 -70 11.5h-111v76h-67v-640h67v218h115c23.333 0 46 3.83301 68 11.5s41.5 19 58.5 34s30.667 33.167 41 54.5s15.5 45.666 15.5 72.999zM365.999 391.002
c0 -18 -3.5 -34.167 -10.5 -48.5s-16.333 -26.5 -28 -36.5s-25 -17.5 -40 -22.5s-30.833 -7.5 -47.5 -7.5h-104v230h100c17.333 0 33.833 -2.66699 49.5 -8s29.5 -12.833 41.5 -22.5s21.5 -21.667 28.5 -36s10.5 -30.5 10.5 -48.5z" />
    <glyph glyph-name="germandbls" unicode="&#xdf;" horiz-adv-x="586" 
d="M549 118c0 37.333 -12.166 67.3281 -36.499 89.9951s-58.166 41.667 -101.499 57c-25.333 9.33301 -45 19.833 -59 31.5s-21 27.834 -21 48.501c0 24.667 12.333 42.834 37 54.501s59.667 17.5 105 17.5c4 12.667 7 26.834 9 42.501s3 30.5 3 44.5
c0 30.667 -4.66699 58.834 -14 84.501s-22.666 47.667 -39.999 66s-38.5 32.5 -63.5 42.5s-53.5 15 -85.5 15c-54.667 0 -99.167 -15.667 -133.5 -47s-51.5 -78.666 -51.5 -141.999v-70h-80v-52h80v-401h64v520c0 47.333 11.333 82.166 34 104.499s52 33.5 88 33.5
c22.667 0 42.667 -4.16699 60 -12.5s32 -19.5 44 -33.5s21 -29.667 27 -47s9 -35 9 -53c0 -16 -2 -31.333 -6 -46c-42.667 -1.33301 -77.834 -13 -105.501 -35s-41.5 -51.333 -41.5 -88c0 -36 11.333 -64.667 34 -86s55 -39.666 97 -54.999
c25.333 -9.33301 45.666 -20.833 60.999 -34.5s23 -31.167 23 -52.5c0 -22 -8.83301 -39.333 -26.5 -52s-39.167 -19 -64.5 -19c-28 0 -52.333 4.33301 -73 13s-39.334 19.667 -56.001 33v-63c13.333 -10 31 -18.667 53 -26s47 -11 75 -11c48 0 86 11.833 114 35.5
s42 54.5 42 92.5z" />
    <glyph glyph-name="agrave" unicode="&#xe0;" horiz-adv-x="437" 
d="M423 31c-14.667 2.66699 -27.667 9.99902 -39 21.999s-17 29.333 -17 52v207c0 24 -4.16699 45.5 -12.5 64.5s-20 34.833 -35 47.5s-32.833 22.334 -53.5 29.001s-43 10 -67 10c-27.333 0 -52.5 -3 -75.5 -9s-43.167 -15 -60.5 -27l13 -53
c14.667 10 32.667 18.167 54 24.5s43.333 9.5 66 9.5c34 0 60.333 -8 79 -24s28 -38 28 -66v-43l-119 -11c-19.333 -2 -37.833 -6.33301 -55.5 -13s-33.334 -15.834 -47.001 -27.501s-24.5 -25.834 -32.5 -42.501s-12 -36 -12 -58c0 -18.667 3.5 -36 10.5 -52
s16.833 -30 29.5 -42s27.834 -21.5 45.501 -28.5s37.5 -10.5 59.5 -10.5c29.333 0 56 6.83301 80 20.5s40.333 33.5 49 59.5c2 -23.333 10.5 -41.666 25.5 -54.999s30.167 -21.666 45.5 -24.999zM303 160.999c0 -18 -3.33203 -34.334 -9.99902 -49.001s-15.5 -27 -26.5 -37
s-23.333 -17.667 -37 -23s-27.834 -8 -42.501 -8c-26 0 -47.333 7.5 -64 22.5s-25 33.833 -25 56.5c0 24.667 8.33301 44.834 25 60.501s41 25.167 73 28.5l107 10v-61zM263.001 545.998c-19.333 15.333 -39.5 33.501 -60.5 54.501s-38.5 41.833 -52.5 62.5
c-2.66699 3.33301 -6 6.16602 -10 8.49902s-7.33301 3.5 -10 3.5c-5.33301 0 -12 -3.83301 -20 -11.5s-12 -14.167 -12 -19.5c0 -2.66699 1 -5.33398 3 -8.00098l6 -8c17.333 -19.333 35.833 -37.166 55.5 -53.499s40.5 -31.5 62.5 -45.5z" />
    <glyph glyph-name="aacute" unicode="&#xe1;" horiz-adv-x="437" 
d="M423 31c-14.667 2.66699 -27.667 9.99902 -39 21.999s-17 29.333 -17 52v207c0 24 -4.16699 45.5 -12.5 64.5s-20 34.833 -35 47.5s-32.833 22.334 -53.5 29.001s-43 10 -67 10c-27.333 0 -52.5 -3 -75.5 -9s-43.167 -15 -60.5 -27l13 -53
c14.667 10 32.667 18.167 54 24.5s43.333 9.5 66 9.5c34 0 60.333 -8 79 -24s28 -38 28 -66v-43l-119 -11c-19.333 -2 -37.833 -6.33301 -55.5 -13s-33.334 -15.834 -47.001 -27.501s-24.5 -25.834 -32.5 -42.501s-12 -36 -12 -58c0 -18.667 3.5 -36 10.5 -52
s16.833 -30 29.5 -42s27.834 -21.5 45.501 -28.5s37.5 -10.5 59.5 -10.5c29.333 0 56 6.83301 80 20.5s40.333 33.5 49 59.5c2 -23.333 10.5 -41.666 25.5 -54.999s30.167 -21.666 45.5 -24.999zM303 160.999c0 -18 -3.33203 -34.334 -9.99902 -49.001s-15.5 -27 -26.5 -37
s-23.333 -17.667 -37 -23s-27.834 -8 -42.501 -8c-26 0 -47.333 7.5 -64 22.5s-25 33.833 -25 56.5c0 24.667 8.33301 44.834 25 60.501s41 25.167 73 28.5l107 10v-61zM309.001 644.998c0 4.66699 -3.83203 10.834 -11.499 18.501s-14.167 11.5 -19.5 11.5
c-6.66699 0 -13 -4 -19 -12c-14.667 -20.667 -32.334 -41.667 -53.001 -63s-40.667 -39.666 -60 -54.999l35 -16c22 14.667 43 30.167 63 46.5s38.667 34.166 56 53.499c6 7.33301 9 12.666 9 15.999z" />
    <glyph glyph-name="acircumflex" unicode="&#xe2;" horiz-adv-x="437" 
d="M423 31c-14.667 2.66699 -27.667 9.99902 -39 21.999s-17 29.333 -17 52v207c0 24 -4.16699 45.5 -12.5 64.5s-20 34.833 -35 47.5s-32.833 22.334 -53.5 29.001s-43 10 -67 10c-27.333 0 -52.5 -3 -75.5 -9s-43.167 -15 -60.5 -27l13 -53
c14.667 10 32.667 18.167 54 24.5s43.333 9.5 66 9.5c34 0 60.333 -8 79 -24s28 -38 28 -66v-43l-119 -11c-19.333 -2 -37.833 -6.33301 -55.5 -13s-33.334 -15.834 -47.001 -27.501s-24.5 -25.834 -32.5 -42.501s-12 -36 -12 -58c0 -18.667 3.5 -36 10.5 -52
s16.833 -30 29.5 -42s27.834 -21.5 45.501 -28.5s37.5 -10.5 59.5 -10.5c29.333 0 56 6.83301 80 20.5s40.333 33.5 49 59.5c2 -23.333 10.5 -41.666 25.5 -54.999s30.167 -21.666 45.5 -24.999zM303 160.999c0 -18 -3.33203 -34.334 -9.99902 -49.001s-15.5 -27 -26.5 -37
s-23.333 -17.667 -37 -23s-27.834 -8 -42.501 -8c-26 0 -47.333 7.5 -64 22.5s-25 33.833 -25 56.5c0 24.667 8.33301 44.834 25 60.501s41 25.167 73 28.5l107 10v-61zM341.001 545.998c-19.333 15.333 -39.5 33.5 -60.5 54.5s-38.5 41.833 -52.5 62.5
c-2.66699 3.33301 -6 6.16602 -10 8.49902s-7.33301 3.5 -10 3.5c-6.66699 0 -13 -4 -19 -12c-14.667 -20.667 -32.334 -41.667 -53.001 -63s-40.667 -39.666 -60 -54.999l34 -15c17.333 10.667 34 22.334 50 35.001s31 26 45 40c14.667 -14 30.334 -27.333 47.001 -40
s33.667 -24.334 51 -35.001z" />
    <glyph glyph-name="atilde" unicode="&#xe3;" horiz-adv-x="437" 
d="M423 31c-14.667 2.66699 -27.667 9.99902 -39 21.999s-17 29.333 -17 52v207c0 24 -4.16699 45.5 -12.5 64.5s-20 34.833 -35 47.5s-32.833 22.334 -53.5 29.001s-43 10 -67 10c-27.333 0 -52.5 -3 -75.5 -9s-43.167 -15 -60.5 -27l13 -53
c14.667 10 32.667 18.167 54 24.5s43.333 9.5 66 9.5c34 0 60.333 -8 79 -24s28 -38 28 -66v-43l-119 -11c-19.333 -2 -37.833 -6.33301 -55.5 -13s-33.334 -15.834 -47.001 -27.501s-24.5 -25.834 -32.5 -42.501s-12 -36 -12 -58c0 -18.667 3.5 -36 10.5 -52
s16.833 -30 29.5 -42s27.834 -21.5 45.501 -28.5s37.5 -10.5 59.5 -10.5c29.333 0 56 6.83301 80 20.5s40.333 33.5 49 59.5c2 -23.333 10.5 -41.666 25.5 -54.999s30.167 -21.666 45.5 -24.999zM303 160.999c0 -18 -3.33203 -34.334 -9.99902 -49.001s-15.5 -27 -26.5 -37
s-23.333 -17.667 -37 -23s-27.834 -8 -42.501 -8c-26 0 -47.333 7.5 -64 22.5s-25 33.833 -25 56.5c0 24.667 8.33301 44.834 25 60.501s41 25.167 73 28.5l107 10v-61zM349.001 635.998l-37 17.001l-12 -15c-4.66699 -6 -9.66699 -11.833 -15 -17.5
s-10.666 -10.5 -15.999 -14.5s-10 -6 -14 -6s-9.5 2.16699 -16.5 6.5l-23 14c-8.33301 5 -16.833 9.66699 -25.5 14s-16 6.5 -22 6.5s-12.833 -3 -20.5 -9s-15.667 -13.667 -24 -23s-16.333 -19.333 -24 -30s-14.5 -21 -20.5 -31l38 -17c2.66699 4 6.5 9.16699 11.5 15.5
s10 12.166 15 17.499s10.167 10 15.5 14s10 6 14 6s9.66699 -2.16699 17 -6.5l23.5 -14c8.33301 -5 16.666 -9.5 24.999 -13.5s15.5 -6 21.5 -6s12.833 3 20.5 9s15.667 13.5 24 22.5s16.333 18.833 24 29.5s14.5 21 20.5 31z" />
    <glyph glyph-name="adieresis" unicode="&#xe4;" horiz-adv-x="437" 
d="M423 31c-14.667 2.66699 -27.667 9.99902 -39 21.999s-17 29.333 -17 52v207c0 24 -4.16699 45.5 -12.5 64.5s-20 34.833 -35 47.5s-32.833 22.334 -53.5 29.001s-43 10 -67 10c-27.333 0 -52.5 -3 -75.5 -9s-43.167 -15 -60.5 -27l13 -53
c14.667 10 32.667 18.167 54 24.5s43.333 9.5 66 9.5c34 0 60.333 -8 79 -24s28 -38 28 -66v-43l-119 -11c-19.333 -2 -37.833 -6.33301 -55.5 -13s-33.334 -15.834 -47.001 -27.501s-24.5 -25.834 -32.5 -42.501s-12 -36 -12 -58c0 -18.667 3.5 -36 10.5 -52
s16.833 -30 29.5 -42s27.834 -21.5 45.501 -28.5s37.5 -10.5 59.5 -10.5c29.333 0 56 6.83301 80 20.5s40.333 33.5 49 59.5c2 -23.333 10.5 -41.666 25.5 -54.999s30.167 -21.666 45.5 -24.999zM303 160.999c0 -18 -3.33203 -34.334 -9.99902 -49.001s-15.5 -27 -26.5 -37
s-23.333 -17.667 -37 -23s-27.834 -8 -42.501 -8c-26 0 -47.333 7.5 -64 22.5s-25 33.833 -25 56.5c0 24.667 8.33301 44.834 25 60.501s41 25.167 73 28.5l107 10v-61zM303.001 570.998c0 2.66699 -1.33301 6 -4 10s-5.83398 7.83301 -9.50098 11.5
s-7.5 6.83398 -11.5 9.50098s-7.33301 4 -10 4c-3.33301 0 -7 -1.33301 -11 -4s-7.83301 -5.83398 -11.5 -9.50098s-6.83398 -7.5 -9.50098 -11.5s-4 -7.33301 -4 -10s1.33301 -6 4 -10s5.83398 -8 9.50098 -12s7.5 -7.33301 11.5 -10s7.66699 -4 11 -4
c2.66699 0 6 1.33301 10 4s7.83301 6 11.5 10s6.83398 8 9.50098 12s4 7.33301 4 10zM177.001 570.998c0 2.66699 -1.33301 6 -4 10s-5.66699 7.83301 -9 11.5s-7.16602 6.83398 -11.499 9.50098s-7.83301 4 -10.5 4s-6 -1.33301 -10 -4s-8 -5.83398 -12 -9.50098
s-7.33301 -7.5 -10 -11.5s-4 -7.33301 -4 -10s1.33301 -6 4 -10s6 -8 10 -12s8 -7.33301 12 -10s7.33301 -4 10 -4s6.16699 1.33301 10.5 4s8.16602 6 11.499 10s6.33301 8 9 12s4 7.33301 4 10z" />
    <glyph glyph-name="aring" unicode="&#xe5;" horiz-adv-x="437" 
d="M423 31c-14.667 2.66699 -27.667 9.99902 -39 21.999s-17 29.333 -17 52v207c0 24 -4.16699 45.5 -12.5 64.5s-20 34.833 -35 47.5s-32.833 22.334 -53.5 29.001s-43 10 -67 10c-27.333 0 -52.5 -3 -75.5 -9s-43.167 -15 -60.5 -27l13 -53
c14.667 10 32.667 18.167 54 24.5s43.333 9.5 66 9.5c34 0 60.333 -8 79 -24s28 -38 28 -66v-43l-119 -11c-19.333 -2 -37.833 -6.33301 -55.5 -13s-33.334 -15.834 -47.001 -27.501s-24.5 -25.834 -32.5 -42.501s-12 -36 -12 -58c0 -18.667 3.5 -36 10.5 -52
s16.833 -30 29.5 -42s27.834 -21.5 45.501 -28.5s37.5 -10.5 59.5 -10.5c29.333 0 56 6.83301 80 20.5s40.333 33.5 49 59.5c2 -23.333 10.5 -41.666 25.5 -54.999s30.167 -21.666 45.5 -24.999zM303 160.999c0 -18 -3.33203 -34.334 -9.99902 -49.001s-15.5 -27 -26.5 -37
s-23.333 -17.667 -37 -23s-27.834 -8 -42.501 -8c-26 0 -47.333 7.5 -64 22.5s-25 33.833 -25 56.5c0 24.667 8.33301 44.834 25 60.501s41 25.167 73 28.5l107 10v-61zM288.001 608.998c0 12 -2.33105 23.1689 -6.99805 33.502s-10.834 19.333 -18.501 27
s-16.834 13.834 -27.501 18.501s-22 7 -34 7s-23.167 -2.33301 -33.5 -7s-19.5 -10.834 -27.5 -18.501s-14.333 -16.667 -19 -27s-7 -21.5 -7 -33.5s2.33301 -23.333 7 -34s11 -19.834 19 -27.501s17.167 -13.834 27.5 -18.501s21.5 -7 33.5 -7c24 0 44.5 8.5 61.5 25.5
s25.5 37.5 25.5 61.5zM248.003 609c0 -14.667 -4.33301 -26.667 -13 -36s-20 -14 -34 -14c-13.333 0 -24.5 4.66699 -33.5 14s-13.5 21.333 -13.5 36c0 14 4.5 25.667 13.5 35s20.167 14 33.5 14c14 0 25.333 -4.66699 34 -14s13 -21 13 -35z" />
    <glyph glyph-name="ae" unicode="&#xe6;" horiz-adv-x="733" 
d="M696 288c0 22 -4.16211 43.5039 -12.4951 64.5039s-20.833 39.667 -37.5 56s-37 29.5 -61 39.5s-51.333 15 -82 15c-30 0 -59 -6.83301 -87 -20.5s-51.667 -33.167 -71 -58.5c-11.333 28 -30.333 48.167 -57 60.5s-56.334 18.5 -89.001 18.5
c-27.333 0 -52.5 -3.16699 -75.5 -9.5s-43.167 -15.166 -60.5 -26.499l13 -53c14.667 10 32.667 18.167 54 24.5s43.333 9.5 66 9.5c32.667 0 58.334 -7.33301 77.001 -22s28.667 -35 30 -61c-7.33301 -16 -12.333 -33 -15 -51l-104 -10
c-19.333 -2 -37.833 -6.16699 -55.5 -12.5s-33.334 -15.333 -47.001 -27s-24.5 -26 -32.5 -43s-12 -36.5 -12 -58.5c0 -18.667 3.5 -36 10.5 -52s16.833 -30 29.5 -42s27.834 -21.5 45.501 -28.5s37.5 -10.5 59.5 -10.5c14.667 0 29.5 1.66699 44.5 5
s29.333 8.66602 43 15.999s26.167 17.166 37.5 29.499s20.666 27.166 27.999 44.499c8.66699 -14.667 19.667 -27.834 33 -39.501s28.166 -21.667 44.499 -30s33.833 -14.666 52.5 -18.999s37.667 -6.5 57 -6.5c30 0 55.5 2.83301 76.5 8.5s39.5 13.167 55.5 22.5l8 63
c-16.667 -11.333 -35.834 -20.5 -57.501 -27.5s-46.5 -10.5 -74.5 -10.5c-28.667 0 -54.334 5.16699 -77.001 15.5s-41.834 23.666 -57.501 39.999s-27.5 34.833 -35.5 55.5s-11.667 41.667 -11 63h307l38 37c0.666992 4.66699 1.16699 9.66699 1.5 15
s0.5 10.666 0.5 15.999zM632.005 287.004v-8.00098c0 -2.66699 -0.333008 -5 -1 -7h-277c2.66699 18 8.66699 35.167 18 51.5s20.666 30.666 33.999 42.999s28.666 22.333 45.999 30s35.333 11.5 54 11.5c20 0 37.833 -3.66699 53.5 -11s28.834 -16.666 39.501 -27.999
s18.834 -24.166 24.501 -38.499s8.5 -28.833 8.5 -43.5zM300.005 136.003c-2.66699 -14.667 -7.66797 -27.668 -15.001 -39.001s-16.166 -21 -26.499 -29s-21.666 -14 -33.999 -18s-24.833 -6 -37.5 -6c-26 0 -47.333 7.33301 -64 22s-25 33.667 -25 57
c0 24.667 8.5 44.834 25.5 60.501s41.167 25.167 72.5 28.5l88 8c0.666992 -14.667 2.16699 -29 4.5 -43s6.16602 -27.667 11.499 -41z" />
    <glyph glyph-name="ccedilla" unicode="&#xe7;" horiz-adv-x="453" 
d="M416 424c-17.333 10 -37.833 18.3281 -61.5 24.9951s-49.834 10 -78.501 10c-32.667 0 -63.5 -5.5 -92.5 -16.5s-54.333 -26.667 -76 -47s-38.834 -44.833 -51.501 -73.5s-19 -60.667 -19 -96c0 -34 5.83301 -64.833 17.5 -92.5s27.667 -51.5 48 -71.5s44 -35.667 71 -47
s55.5 -18 85.5 -20l-9 -33c-1.33301 -6.66699 -0.666016 -12.667 2.00098 -18s9.33398 -8 20.001 -8c8.66699 0 18.167 -3.83301 28.5 -11.5s15.5 -19.5 15.5 -35.5c0 -15.333 -5 -26.833 -15 -34.5s-21 -11.5 -33 -11.5c-10 0 -20 1.5 -30 4.5s-19 7.5 -27 13.5l-8 -32
c19.333 -13.333 40.666 -20 63.999 -20c10.667 0 21.334 1.66699 32.001 5s20.167 8.5 28.5 15.5s15.166 15.5 20.499 25.5s8 22 8 36c0 12 -2.33301 23 -7 33s-10.667 18.5 -18 25.5s-15.666 12.333 -24.999 16s-18.333 5.83398 -27 6.50098l6 23
c44.667 0 81.667 7.66699 111 23l8 61c-19.333 -11.333 -38.833 -19.166 -58.5 -23.499s-41.167 -6.5 -64.5 -6.5c-25.333 0 -49 4.33301 -71 13s-41 20.834 -57 36.501s-28.667 34.167 -38 55.5s-14 45 -14 71s4.5 49.833 13.5 71.5s21.5 40.334 37.5 56.001
s34.833 27.834 56.5 36.501s45.167 13 70.5 13c46.667 0 88 -12.333 124 -37z" />
    <glyph glyph-name="egrave" unicode="&#xe8;" horiz-adv-x="486" 
d="M449 288c0 22 -4.16309 43.502 -12.4961 64.502s-20.833 39.667 -37.5 56s-37 29.5 -61 39.5s-51.333 15 -82 15c-27.333 0 -54 -5.5 -80 -16.5s-49.333 -26.833 -70 -47.5s-37.334 -45.5 -50.001 -74.5s-19 -61.833 -19 -98.5c0 -34.667 6.33301 -66.5 19 -95.5
s29.834 -53.833 51.501 -74.5s47 -36.834 76 -48.501s59.833 -17.5 92.5 -17.5c30 0 55.5 2.83301 76.5 8.5s39.167 13.167 54.5 22.5l8 63c-16.667 -11.333 -35.834 -20.5 -57.501 -27.5s-46.5 -10.5 -74.5 -10.5c-28.667 0 -54.334 5.16699 -77.001 15.5
s-41.834 23.666 -57.501 39.999s-27.334 34.833 -35.001 55.5s-11.167 41.667 -10.5 63h306l38 37c1.33301 4.66699 2 9.66699 2 15v16zM385.004 287.002v-8.00098c0 -2.66699 -0.333008 -5 -1 -7h-277c2.66699 18 8.66699 35.167 18 51.5s20.666 30.666 33.999 42.999
s28.666 22.333 45.999 30s35.333 11.5 54 11.5c20.667 0 38.834 -3.66699 54.501 -11s28.834 -16.666 39.501 -27.999s18.667 -24.166 24 -38.499s8 -28.833 8 -43.5zM319.004 546.001c-19.333 15.333 -39.498 33.498 -60.498 54.498s-38.833 41.5 -53.5 61.5
c-2.66699 4 -5.83398 7.16699 -9.50098 9.5s-6.83398 3.5 -9.50098 3.5s-5.83398 -1.16699 -9.50098 -3.5s-7.16699 -5.16602 -10.5 -8.49902s-6.16602 -6.66602 -8.49902 -9.99902s-3.5 -6.33301 -3.5 -9c0 -4 3 -9.66699 9 -17c16.667 -19.333 35 -37 55 -53
s41 -31 63 -45z" />
    <glyph glyph-name="eacute" unicode="&#xe9;" horiz-adv-x="486" 
d="M449 288c0 22 -4.16309 43.502 -12.4961 64.502s-20.833 39.667 -37.5 56s-37 29.5 -61 39.5s-51.333 15 -82 15c-27.333 0 -54 -5.5 -80 -16.5s-49.333 -26.833 -70 -47.5s-37.334 -45.5 -50.001 -74.5s-19 -61.833 -19 -98.5c0 -34.667 6.33301 -66.5 19 -95.5
s29.834 -53.833 51.501 -74.5s47 -36.834 76 -48.501s59.833 -17.5 92.5 -17.5c30 0 55.5 2.83301 76.5 8.5s39.167 13.167 54.5 22.5l8 63c-16.667 -11.333 -35.834 -20.5 -57.501 -27.5s-46.5 -10.5 -74.5 -10.5c-28.667 0 -54.334 5.16699 -77.001 15.5
s-41.834 23.666 -57.501 39.999s-27.334 34.833 -35.001 55.5s-11.167 41.667 -10.5 63h306l38 37c1.33301 4.66699 2 9.66699 2 15v16zM385.004 287.002v-8.00098c0 -2.66699 -0.333008 -5 -1 -7h-277c2.66699 18 8.66699 35.167 18 51.5s20.666 30.666 33.999 42.999
s28.666 22.333 45.999 30s35.333 11.5 54 11.5c20.667 0 38.834 -3.66699 54.501 -11s28.834 -16.666 39.501 -27.999s18.667 -24.166 24 -38.499s8 -28.833 8 -43.5zM363.004 645.001c0 4.66699 -3.83203 10.833 -11.499 18.5s-13.834 11.5 -18.501 11.5
c-2.66699 0 -6 -1.16699 -10 -3.5s-7 -5.16602 -9 -8.49902c-14.667 -20.667 -32.334 -41.667 -53.001 -63s-41 -39.666 -61 -54.999l35 -16c22.667 14.667 43.834 30.167 63.501 46.5s38.167 34.166 55.5 53.499c6 7.33301 9 12.666 9 15.999z" />
    <glyph glyph-name="ecircumflex" unicode="&#xea;" horiz-adv-x="486" 
d="M449 288c0 22 -4.16309 43.502 -12.4961 64.502s-20.833 39.667 -37.5 56s-37 29.5 -61 39.5s-51.333 15 -82 15c-27.333 0 -54 -5.5 -80 -16.5s-49.333 -26.833 -70 -47.5s-37.334 -45.5 -50.001 -74.5s-19 -61.833 -19 -98.5c0 -34.667 6.33301 -66.5 19 -95.5
s29.834 -53.833 51.501 -74.5s47 -36.834 76 -48.501s59.833 -17.5 92.5 -17.5c30 0 55.5 2.83301 76.5 8.5s39.167 13.167 54.5 22.5l8 63c-16.667 -11.333 -35.834 -20.5 -57.501 -27.5s-46.5 -10.5 -74.5 -10.5c-28.667 0 -54.334 5.16699 -77.001 15.5
s-41.834 23.666 -57.501 39.999s-27.334 34.833 -35.001 55.5s-11.167 41.667 -10.5 63h306l38 37c1.33301 4.66699 2 9.66699 2 15v16zM385.004 287.002v-8.00098c0 -2.66699 -0.333008 -5 -1 -7h-277c2.66699 18 8.66699 35.167 18 51.5s20.666 30.666 33.999 42.999
s28.666 22.333 45.999 30s35.333 11.5 54 11.5c20.667 0 38.834 -3.66699 54.501 -11s28.834 -16.666 39.501 -27.999s18.667 -24.166 24 -38.499s8 -28.833 8 -43.5zM392.004 546.001c-19.333 15.333 -39.501 33.499 -60.501 54.499s-38.833 41.833 -53.5 62.5
c-6 8 -12.333 12 -19 12c-2.66699 0 -6 -1.16699 -10 -3.5s-7.33301 -5.16602 -10 -8.49902c-14 -20.667 -31.5 -41.667 -52.5 -63s-41.167 -39.666 -60.5 -54.999l35 -15c34.667 21.333 66.334 46.333 95.001 75c14 -14 29.5 -27.333 46.5 -40s34.167 -24.334 51.5 -35.001
z" />
    <glyph glyph-name="edieresis" unicode="&#xeb;" horiz-adv-x="486" 
d="M449 288c0 22 -4.16309 43.502 -12.4961 64.502s-20.833 39.667 -37.5 56s-37 29.5 -61 39.5s-51.333 15 -82 15c-27.333 0 -54 -5.5 -80 -16.5s-49.333 -26.833 -70 -47.5s-37.334 -45.5 -50.001 -74.5s-19 -61.833 -19 -98.5c0 -34.667 6.33301 -66.5 19 -95.5
s29.834 -53.833 51.501 -74.5s47 -36.834 76 -48.501s59.833 -17.5 92.5 -17.5c30 0 55.5 2.83301 76.5 8.5s39.167 13.167 54.5 22.5l8 63c-16.667 -11.333 -35.834 -20.5 -57.501 -27.5s-46.5 -10.5 -74.5 -10.5c-28.667 0 -54.334 5.16699 -77.001 15.5
s-41.834 23.666 -57.501 39.999s-27.334 34.833 -35.001 55.5s-11.167 41.667 -10.5 63h306l38 37c1.33301 4.66699 2 9.66699 2 15v16zM385.004 287.002v-8.00098c0 -2.66699 -0.333008 -5 -1 -7h-277c2.66699 18 8.66699 35.167 18 51.5s20.666 30.666 33.999 42.999
s28.666 22.333 45.999 30s35.333 11.5 54 11.5c20.667 0 38.834 -3.66699 54.501 -11s28.834 -16.666 39.501 -27.999s18.667 -24.166 24 -38.499s8 -28.833 8 -43.5zM354.004 571.001c0 2.66699 -1.33301 6 -4 10s-5.83398 7.83301 -9.50098 11.5
s-7.66699 6.83398 -12 9.50098s-7.83301 4 -10.5 4c-3.33301 0 -7 -1.33301 -11 -4s-7.83301 -5.83398 -11.5 -9.50098s-6.83398 -7.5 -9.50098 -11.5s-4 -7.33301 -4 -10s1.33301 -6 4 -10s5.83398 -8 9.50098 -12s7.5 -7.33301 11.5 -10s7.66699 -4 11 -4
c2.66699 0 6.16699 1.33301 10.5 4s8.33301 6 12 10s6.83398 8 9.50098 12s4 7.33301 4 10zM228.004 571.001c0 2.66699 -1.33301 6 -4 10s-5.83398 7.83301 -9.50098 11.5s-7.66699 6.83398 -12 9.50098s-7.83301 4 -10.5 4s-6 -1.33301 -10 -4s-8 -5.83398 -12 -9.50098
s-7.33301 -7.5 -10 -11.5s-4 -7.33301 -4 -10s1.33301 -6 4 -10s6 -8 10 -12s8 -7.33301 12 -10s7.33301 -4 10 -4s6.16699 1.33301 10.5 4s8.33301 6 12 10s6.83398 8 9.50098 12s4 7.33301 4 10z" />
    <glyph glyph-name="igrave" unicode="&#xec;" horiz-adv-x="206" 
d="M135 0v453h-64v-453h64zM164 546c-19.333 15.333 -39.5 33.501 -60.5 54.501s-38.5 41.5 -52.5 61.5c-2.66699 4 -6 7.16699 -10 9.5s-7.33301 3.5 -10 3.5c-5.33301 0 -11.833 -3.83301 -19.5 -11.5s-11.5 -14.167 -11.5 -19.5
c-0 -2.66699 0.833008 -5.33398 2.5 -8.00098l5.5 -9c17.333 -19.333 35.833 -37 55.5 -53s40.5 -31 62.5 -45z" />
    <glyph glyph-name="iacute" unicode="&#xed;" horiz-adv-x="206" 
d="M135 0v453h-64v-453h64zM208 645c0 4.66699 -3.83301 10.834 -11.5 18.501s-14.167 11.5 -19.5 11.5c-6.66699 0 -13 -4 -19 -12c-14 -20.667 -31.333 -41.667 -52 -63s-41 -39.666 -61 -54.999l35 -16c22 14.667 43 30.167 63 46.5s38.667 34.166 56 53.499
c6 7.33301 9 12.666 9 15.999z" />
    <glyph glyph-name="icircumflex" unicode="&#xee;" horiz-adv-x="206" 
d="M135 0v453h-64v-453h64zM238 546c-19.333 15.333 -39.502 33.501 -60.502 54.501s-38.5 41.833 -52.5 62.5c-2.66699 3.33301 -6 6.16602 -10 8.49902s-7.33301 3.5 -10 3.5c-6.66699 0 -13 -4 -19 -12c-14.667 -20.667 -32.5 -41.667 -53.5 -63
s-41.167 -39.666 -60.5 -54.999l35 -15c34.667 21.333 66.334 46.333 95.001 75c14.667 -14 30.334 -27.333 47.001 -40s33.667 -24.334 51 -35.001z" />
    <glyph glyph-name="idieresis" unicode="&#xef;" horiz-adv-x="206" 
d="M135 0v453h-64v-453h64zM203 571c0 2.66699 -1.33301 6 -4 10s-5.83398 7.83301 -9.50098 11.5s-7.66699 6.83398 -12 9.50098s-7.83301 4 -10.5 4c-3.33301 0 -7 -1.33301 -11 -4s-7.83301 -5.83398 -11.5 -9.50098s-6.83398 -7.5 -9.50098 -11.5s-4 -7.33301 -4 -10
s1.33301 -6 4 -10s5.83398 -8 9.50098 -12s7.5 -7.33301 11.5 -10s7.66699 -4 11 -4c2.66699 0 6.16699 1.33301 10.5 4s8.33301 6 12 10s6.83398 8 9.50098 12s4 7.33301 4 10zM77 571c0 2.66699 -1.33301 6 -4 10s-5.83398 7.83301 -9.50098 11.5
s-7.66699 6.83398 -12 9.50098s-7.83301 4 -10.5 4s-6 -1.33301 -10 -4s-7.83301 -5.83398 -11.5 -9.50098s-6.83398 -7.5 -9.50098 -11.5s-4 -7.33301 -4 -10s1.33301 -6 4 -10s5.83398 -8 9.50098 -12s7.5 -7.33301 11.5 -10s7.33301 -4 10 -4s6.16699 1.33301 10.5 4
s8.33301 6 12 10s6.83398 8 9.50098 12s4 7.33301 4 10z" />
    <glyph glyph-name="eth" unicode="&#xf0;" horiz-adv-x="495" 
d="M453 209c0 15.333 -2.99902 33.8301 -8.99902 55.4971s-12.667 40.5 -20 56.5l-115 261l78 32l-19 48l-79 -33l-37 83h-67l47 -105l-87 -36l19 -48l89 36l60 -135c-18 -2 -38.833 -5.66699 -62.5 -11s-44.5 -11 -62.5 -17c-22 -7.33301 -42.167 -17.5 -60.5 -30.5
s-34.166 -28 -47.499 -45s-23.833 -36.167 -31.5 -57.5s-11.5 -44 -11.5 -68c0 -29.333 5.16699 -56.666 15.5 -81.999s24.666 -47.166 42.999 -65.499s40 -32.666 65 -42.999s52.167 -15.5 81.5 -15.5c28 0 54.833 4.66699 80.5 14s48.167 23.333 67.5 42
s34.666 41.667 45.999 69s17 59 17 95zM389.001 207.997c0 -26 -4 -49.166 -12 -69.499s-18.833 -37.5 -32.5 -51.5s-29.5 -24.5 -47.5 -31.5s-36.667 -10.5 -56 -10.5c-20 0 -38.5 3.66699 -55.5 11s-31.833 17.666 -44.5 30.999s-22.667 29.166 -30 47.499
s-11 38.5 -11 60.5c0 72.667 39.333 123.334 118 152.001c16 6 35.167 11.333 57.5 16s41.833 7.66699 58.5 9c6 -12 12.167 -25.5 18.5 -40.5s12.333 -30 18 -45s10.167 -29.333 13.5 -43s5 -25.5 5 -35.5z" />
    <glyph glyph-name="ntilde" unicode="&#xf1;" horiz-adv-x="498" 
d="M439 0l0.000976562 304.999c0 24.667 -4.33301 46.834 -13 66.501s-20.834 36.167 -36.501 49.5s-34 23.666 -55 30.999s-43.833 11 -68.5 11c-43.333 0 -76.833 -7.66699 -100.5 -23s-39.167 -33.666 -46.5 -54.999h-1v68h-59v-453h63v299c0 32 11.5 58.167 34.5 78.5
s54.5 30.5 94.5 30.5s70.833 -10.167 92.5 -30.5s32.5 -46.5 32.5 -78.5v-299h63zM389.001 635.999l-37 17.001l-12 -15c-4.66699 -6 -9.66699 -11.833 -15 -17.5s-10.666 -10.5 -15.999 -14.5s-10 -6 -14 -6s-9.5 2.16699 -16.5 6.5l-23 14
c-8.33301 5 -16.666 9.66699 -24.999 14s-15.833 6.5 -22.5 6.5c-6 0 -12.833 -3 -20.5 -9s-15.667 -13.667 -24 -23s-16.333 -19.333 -24 -30s-14.167 -21 -19.5 -31l37 -17c2.66699 4 6.5 9.16699 11.5 15.5s10.167 12.166 15.5 17.499s10.666 10 15.999 14s10 6 14 6
s9.5 -2.16699 16.5 -6.5l23 -14c8.33301 -5 16.666 -9.5 24.999 -13.5s15.833 -6 22.5 -6c6 0 12.833 3 20.5 9s15.667 13.5 24 22.5s16.333 18.833 24 29.5s14.167 21 19.5 31z" />
    <glyph glyph-name="ograve" unicode="&#xf2;" horiz-adv-x="551" 
d="M514 226c0 34.667 -6 66.5 -18 95.5s-28.667 54 -50 75s-46.5 37.333 -75.5 49s-60.5 17.5 -94.5 17.5s-65.5 -5.83301 -94.5 -17.5s-54.167 -28 -75.5 -49s-38.166 -46 -50.499 -75s-18.5 -60.833 -18.5 -95.5s6.16699 -66.334 18.5 -95.001s29.166 -53.5 50.499 -74.5
s46.5 -37.333 75.5 -49s60.5 -17.5 94.5 -17.5s65.5 5.83301 94.5 17.5s54.167 28 75.5 49s38 45.833 50 74.5s18 60.334 18 95.001zM450 225c0 -26.667 -4.5 -51 -13.5 -73s-21.333 -41 -37 -57s-34.167 -28.333 -55.5 -37s-44 -13 -68 -13s-46.667 4.33301 -68 13
s-40 21 -56 37s-28.5 35 -37.5 57s-13.5 46.333 -13.5 73s4.5 51 13.5 73s21.5 41 37.5 57s34.667 28.5 56 37.5s44 13.5 68 13.5s46.667 -4.5 68 -13.5s39.833 -21.5 55.5 -37.5s28 -35 37 -57s13.5 -46.333 13.5 -73zM338 546c-19.333 15.333 -39.5 33.5 -60.5 54.5
s-38.5 41.5 -52.5 61.5c-2.66699 4 -6 7.16699 -10 9.5s-7.33301 3.5 -10 3.5c-5.33301 0 -12 -3.83301 -20 -11.5s-12 -14.167 -12 -19.5c0 -4 3 -9.66699 9 -17c17.333 -19.333 35.833 -37 55.5 -53s40.5 -31 62.5 -45z" />
    <glyph glyph-name="oacute" unicode="&#xf3;" horiz-adv-x="551" 
d="M514 226c0 34.667 -6 66.5 -18 95.5s-28.667 54 -50 75s-46.5 37.333 -75.5 49s-60.5 17.5 -94.5 17.5s-65.5 -5.83301 -94.5 -17.5s-54.167 -28 -75.5 -49s-38.166 -46 -50.499 -75s-18.5 -60.833 -18.5 -95.5s6.16699 -66.334 18.5 -95.001s29.166 -53.5 50.499 -74.5
s46.5 -37.333 75.5 -49s60.5 -17.5 94.5 -17.5s65.5 5.83301 94.5 17.5s54.167 28 75.5 49s38 45.833 50 74.5s18 60.334 18 95.001zM450 225c0 -26.667 -4.5 -51 -13.5 -73s-21.333 -41 -37 -57s-34.167 -28.333 -55.5 -37s-44 -13 -68 -13s-46.667 4.33301 -68 13
s-40 21 -56 37s-28.5 35 -37.5 57s-13.5 46.333 -13.5 73s4.5 51 13.5 73s21.5 41 37.5 57s34.667 28.5 56 37.5s44 13.5 68 13.5s46.667 -4.5 68 -13.5s39.833 -21.5 55.5 -37.5s28 -35 37 -57s13.5 -46.333 13.5 -73zM375 645c0 4.66699 -3.66699 10.833 -11 18.5
s-13.666 11.5 -18.999 11.5c-6.66699 0 -13 -4 -19 -12c-14.667 -20.667 -32.334 -41.667 -53.001 -63s-40.667 -39.666 -60 -54.999l35 -16c22 14.667 43 30.167 63 46.5s38.667 34.166 56 53.499c5.33301 6.66699 8 12 8 16z" />
    <glyph glyph-name="ocircumflex" unicode="&#xf4;" horiz-adv-x="551" 
d="M514 226c0 34.667 -6 66.5 -18 95.5s-28.667 54 -50 75s-46.5 37.333 -75.5 49s-60.5 17.5 -94.5 17.5s-65.5 -5.83301 -94.5 -17.5s-54.167 -28 -75.5 -49s-38.166 -46 -50.499 -75s-18.5 -60.833 -18.5 -95.5s6.16699 -66.334 18.5 -95.001s29.166 -53.5 50.499 -74.5
s46.5 -37.333 75.5 -49s60.5 -17.5 94.5 -17.5s65.5 5.83301 94.5 17.5s54.167 28 75.5 49s38 45.833 50 74.5s18 60.334 18 95.001zM450 225c0 -26.667 -4.5 -51 -13.5 -73s-21.333 -41 -37 -57s-34.167 -28.333 -55.5 -37s-44 -13 -68 -13s-46.667 4.33301 -68 13
s-40 21 -56 37s-28.5 35 -37.5 57s-13.5 46.333 -13.5 73s4.5 51 13.5 73s21.5 41 37.5 57s34.667 28.5 56 37.5s44 13.5 68 13.5s46.667 -4.5 68 -13.5s39.833 -21.5 55.5 -37.5s28 -35 37 -57s13.5 -46.333 13.5 -73zM410 546c-19.333 15.333 -39.501 33.5 -60.501 54.5
s-38.833 41.833 -53.5 62.5c-2 3.33301 -5 6.16602 -9 8.49902s-7.33301 3.5 -10 3.5s-6 -1.16699 -10 -3.5s-7.33301 -5.16602 -10 -8.49902c-14 -20.667 -31.5 -41.667 -52.5 -63s-41.167 -39.666 -60.5 -54.999l35 -15c34.667 21.333 66.334 46.333 95.001 75
c14 -14 29.5 -27.333 46.5 -40s34.167 -24.334 51.5 -35.001z" />
    <glyph glyph-name="otilde" unicode="&#xf5;" horiz-adv-x="551" 
d="M514 226c0 34.667 -6 66.5 -18 95.5s-28.667 54 -50 75s-46.5 37.333 -75.5 49s-60.5 17.5 -94.5 17.5s-65.5 -5.83301 -94.5 -17.5s-54.167 -28 -75.5 -49s-38.166 -46 -50.499 -75s-18.5 -60.833 -18.5 -95.5s6.16699 -66.334 18.5 -95.001s29.166 -53.5 50.499 -74.5
s46.5 -37.333 75.5 -49s60.5 -17.5 94.5 -17.5s65.5 5.83301 94.5 17.5s54.167 28 75.5 49s38 45.833 50 74.5s18 60.334 18 95.001zM450 225c0 -26.667 -4.5 -51 -13.5 -73s-21.333 -41 -37 -57s-34.167 -28.333 -55.5 -37s-44 -13 -68 -13s-46.667 4.33301 -68 13
s-40 21 -56 37s-28.5 35 -37.5 57s-13.5 46.333 -13.5 73s4.5 51 13.5 73s21.5 41 37.5 57s34.667 28.5 56 37.5s44 13.5 68 13.5s46.667 -4.5 68 -13.5s39.833 -21.5 55.5 -37.5s28 -35 37 -57s13.5 -46.333 13.5 -73zM416 636l-37 17.001l-12 -15
c-4.66699 -6 -9.66699 -11.833 -15 -17.5s-10.666 -10.5 -15.999 -14.5s-10 -6 -14 -6s-9.5 2.16699 -16.5 6.5l-23 14c-8.33301 5 -16.666 9.66699 -24.999 14s-15.833 6.5 -22.5 6.5c-6 0 -12.833 -3 -20.5 -9s-15.667 -13.667 -24 -23s-16.333 -19.333 -24 -30
s-14.167 -21 -19.5 -31l37 -17c2.66699 4 6.5 9.16699 11.5 15.5s10.167 12.166 15.5 17.499s10.666 10 15.999 14s10 6 14 6s9.5 -2.16699 16.5 -6.5l23 -14c8.33301 -5 16.666 -9.5 24.999 -13.5s15.833 -6 22.5 -6c5.33301 0 11.833 3 19.5 9s15.667 13.5 24 22.5
s16.333 18.833 24 29.5s14.5 21 20.5 31z" />
    <glyph glyph-name="odieresis" unicode="&#xf6;" horiz-adv-x="551" 
d="M514 226c0 34.667 -6 66.5 -18 95.5s-28.667 54 -50 75s-46.5 37.333 -75.5 49s-60.5 17.5 -94.5 17.5s-65.5 -5.83301 -94.5 -17.5s-54.167 -28 -75.5 -49s-38.166 -46 -50.499 -75s-18.5 -60.833 -18.5 -95.5s6.16699 -66.334 18.5 -95.001s29.166 -53.5 50.499 -74.5
s46.5 -37.333 75.5 -49s60.5 -17.5 94.5 -17.5s65.5 5.83301 94.5 17.5s54.167 28 75.5 49s38 45.833 50 74.5s18 60.334 18 95.001zM450 225c0 -26.667 -4.5 -51 -13.5 -73s-21.333 -41 -37 -57s-34.167 -28.333 -55.5 -37s-44 -13 -68 -13s-46.667 4.33301 -68 13
s-40 21 -56 37s-28.5 35 -37.5 57s-13.5 46.333 -13.5 73s4.5 51 13.5 73s21.5 41 37.5 57s34.667 28.5 56 37.5s44 13.5 68 13.5s46.667 -4.5 68 -13.5s39.833 -21.5 55.5 -37.5s28 -35 37 -57s13.5 -46.333 13.5 -73zM376 571c0 2.66699 -1.33301 6 -4 10
s-5.83398 7.83301 -9.50098 11.5s-7.66699 6.83398 -12 9.50098s-7.83301 4 -10.5 4c-3.33301 0 -7 -1.33301 -11 -4s-7.83301 -5.83398 -11.5 -9.50098s-6.83398 -7.5 -9.50098 -11.5s-4 -7.33301 -4 -10s1.33301 -6 4 -10s5.83398 -8 9.50098 -12s7.5 -7.33301 11.5 -10
s7.66699 -4 11 -4c2.66699 0 6.16699 1.33301 10.5 4s8.33301 6 12 10s6.83398 8 9.50098 12s4 7.33301 4 10zM250 571c0 2.66699 -1.33301 6 -4 10s-5.83398 7.83301 -9.50098 11.5s-7.66699 6.83398 -12 9.50098s-7.83301 4 -10.5 4s-6 -1.33301 -10 -4
s-8 -5.83398 -12 -9.50098s-7.33301 -7.5 -10 -11.5s-4 -7.33301 -4 -10s1.33301 -6 4 -10s6 -8 10 -12s8 -7.33301 12 -10s7.33301 -4 10 -4s6.16699 1.33301 10.5 4s8.33301 6 12 10s6.83398 8 9.50098 12s4 7.33301 4 10z" />
    <glyph glyph-name="divide" unicode="&#xf7;" horiz-adv-x="463" 
d="M274 399c0 3.33301 -1.66699 7.33301 -5 12s-7.16602 9.33398 -11.499 14.001s-9 8.5 -14 11.5s-9.16699 4.5 -12.5 4.5s-7.5 -1.5 -12.5 -4.5s-9.83301 -6.83301 -14.5 -11.5s-8.5 -9.33398 -11.5 -14.001s-4.5 -8.66699 -4.5 -12s1.5 -7.5 4.5 -12.5
s6.83301 -9.83301 11.5 -14.5s9.5 -8.5 14.5 -11.5s9.16699 -4.5 12.5 -4.5s7.5 1.5 12.5 4.5s9.66699 6.83301 14 11.5s8.16602 9.5 11.499 14.5s5 9.16699 5 12.5zM418 250v54h-374v-54h374zM274 156c0 3.33301 -1.66699 7.33301 -5 12s-7.16602 9.33398 -11.499 14.001
s-9 8.5 -14 11.5s-9.16699 4.5 -12.5 4.5s-7.5 -1.5 -12.5 -4.5s-9.83301 -6.83301 -14.5 -11.5s-8.5 -9.33398 -11.5 -14.001s-4.5 -8.66699 -4.5 -12s1.5 -7.5 4.5 -12.5s6.83301 -9.83301 11.5 -14.5s9.5 -8.5 14.5 -11.5s9.16699 -4.5 12.5 -4.5s7.5 1.5 12.5 4.5
s9.66699 6.83301 14 11.5s8.16602 9.5 11.499 14.5s5 9.16699 5 12.5z" />
    <glyph glyph-name="oslash" unicode="&#xf8;" horiz-adv-x="551" 
d="M514 226c0 36 -6.33594 68.832 -19.0029 98.499s-30.667 55.167 -54 76.5l42 53l-31 25l-43 -53c-39.333 24.667 -83.666 37 -132.999 37c-34 0 -65.5 -5.83301 -94.5 -17.5s-54.167 -28 -75.5 -49s-38.166 -46 -50.499 -75s-18.5 -60.833 -18.5 -95.5
c0 -36 6.33301 -68.5 19 -97.5s30.334 -54.167 53.001 -75.5l-43 -54l31 -26l44 55c19.333 -12 40.333 -21.333 63 -28s46.667 -10 72 -10c34 0 65.5 5.83301 94.5 17.5s54.167 28 75.5 49s38 45.833 50 74.5s18 60.334 18 95.001zM449.997 224.999
c0 -26.667 -4.49805 -51 -13.498 -73s-21.333 -41 -37 -57s-34.167 -28.333 -55.5 -37s-44 -13 -68 -13c-36.667 0 -69.334 9.66699 -98.001 29l224 279c15.333 -16 27.166 -34.833 35.499 -56.5s12.5 -45.5 12.5 -71.5zM370.999 377.999l-224 -277.998
c-14.667 15.333 -26 33.666 -34 54.999s-12 44.666 -12 69.999c0 26.667 4.5 51 13.5 73s21.5 41 37.5 57s34.667 28.5 56 37.5s44 13.5 68 13.5c35.333 0 67 -9.33301 95 -28z" />
    <glyph glyph-name="ugrave" unicode="&#xf9;" horiz-adv-x="498" 
d="M439 0l-0.000976562 453.001h-63v-299c0 -32 -11.5 -58.167 -34.5 -78.5s-54.5 -30.5 -94.5 -30.5s-70.833 10.167 -92.5 30.5s-32.5 46.5 -32.5 78.5v299h-63v-305c0 -24.667 4.33301 -46.834 13 -66.501s20.834 -36.167 36.501 -49.5s34 -23.666 55 -30.999
s43.833 -11 68.5 -11c43.333 0 76.833 7.66699 100.5 23s39.167 33.666 46.5 54.999h1v-68h59zM306.999 546.001c-19.333 15.333 -39.5 33.5 -60.5 54.5s-38.5 41.5 -52.5 61.5c-2.66699 4 -6 7.16699 -10 9.5s-7.33301 3.5 -10 3.5c-5.33301 0 -12 -3.83301 -20 -11.5
s-12 -14.167 -12 -19.5c0 -4 3 -9.66699 9 -17c17.333 -19.333 35.833 -37 55.5 -53s40.5 -31 62.5 -45z" />
    <glyph glyph-name="uacute" unicode="&#xfa;" horiz-adv-x="498" 
d="M439 0l-0.000976562 453.001h-63v-299c0 -32 -11.5 -58.167 -34.5 -78.5s-54.5 -30.5 -94.5 -30.5s-70.833 10.167 -92.5 30.5s-32.5 46.5 -32.5 78.5v299h-63v-305c0 -24.667 4.33301 -46.834 13 -66.501s20.834 -36.167 36.501 -49.5s34 -23.666 55 -30.999
s43.833 -11 68.5 -11c43.333 0 76.833 7.66699 100.5 23s39.167 33.666 46.5 54.999h1v-68h59zM356.999 645.001c0 4.66699 -3.83203 10.834 -11.499 18.501s-14.167 11.5 -19.5 11.5c-6.66699 0 -13 -4 -19 -12c-14.667 -20.667 -32.334 -41.667 -53.001 -63
s-40.667 -39.666 -60 -54.999l35 -16c22 14.667 43 30.167 63 46.5s38.667 34.166 56 53.499c6 7.33301 9 12.666 9 15.999z" />
    <glyph glyph-name="ucircumflex" unicode="&#xfb;" horiz-adv-x="498" 
d="M439 0l-0.000976562 453.001h-63v-299c0 -32 -11.5 -58.167 -34.5 -78.5s-54.5 -30.5 -94.5 -30.5s-70.833 10.167 -92.5 30.5s-32.5 46.5 -32.5 78.5v299h-63v-305c0 -24.667 4.33301 -46.834 13 -66.501s20.834 -36.167 36.501 -49.5s34 -23.666 55 -30.999
s43.833 -11 68.5 -11c43.333 0 76.833 7.66699 100.5 23s39.167 33.666 46.5 54.999h1v-68h59zM382.999 546.001c-19.333 15.333 -39.501 33.5 -60.501 54.5s-38.5 41.833 -52.5 62.5c-2.66699 3.33301 -6 6.16602 -10 8.49902s-7.33301 3.5 -10 3.5
c-6.66699 0 -13 -4 -19 -12c-14.667 -20.667 -32.5 -41.667 -53.5 -63s-41.167 -39.666 -60.5 -54.999l35 -15c17.333 10.667 34 22.334 50 35.001s31 26 45 40c14.667 -14 30.334 -27.333 47.001 -40s33.667 -24.334 51 -35.001z" />
    <glyph glyph-name="udieresis" unicode="&#xfc;" horiz-adv-x="498" 
d="M439 0l-0.000976562 453.001h-63v-299c0 -32 -11.5 -58.167 -34.5 -78.5s-54.5 -30.5 -94.5 -30.5s-70.833 10.167 -92.5 30.5s-32.5 46.5 -32.5 78.5v299h-63v-305c0 -24.667 4.33301 -46.834 13 -66.501s20.834 -36.167 36.501 -49.5s34 -23.666 55 -30.999
s43.833 -11 68.5 -11c43.333 0 76.833 7.66699 100.5 23s39.167 33.666 46.5 54.999h1v-68h59zM349.999 571.001c0 2.66699 -1.33301 6 -4 10s-5.83398 7.83301 -9.50098 11.5s-7.66699 6.83398 -12 9.50098s-7.83301 4 -10.5 4c-3.33301 0 -7 -1.33301 -11 -4
s-7.83301 -5.83398 -11.5 -9.50098s-6.83398 -7.5 -9.50098 -11.5s-4 -7.33301 -4 -10s1.33301 -6 4 -10s5.83398 -8 9.50098 -12s7.5 -7.33301 11.5 -10s7.66699 -4 11 -4c2.66699 0 6.16699 1.33301 10.5 4s8.33301 6 12 10s6.83398 8 9.50098 12s4 7.33301 4 10z
M223.999 571.001c0 2.66699 -1.33301 6 -4 10s-5.83398 7.83301 -9.50098 11.5s-7.66699 6.83398 -12 9.50098s-7.83301 4 -10.5 4s-6 -1.33301 -10 -4s-7.83301 -5.83398 -11.5 -9.50098s-6.83398 -7.5 -9.50098 -11.5s-4 -7.33301 -4 -10s1.33301 -6 4 -10
s5.83398 -8 9.50098 -12s7.5 -7.33301 11.5 -10s7.33301 -4 10 -4s6.16699 1.33301 10.5 4s8.33301 6 12 10s6.83398 8 9.50098 12s4 7.33301 4 10z" />
    <glyph glyph-name="yacute" unicode="&#xfd;" horiz-adv-x="468" 
d="M442 453l-60.999 -0.00195312l-97 -236l-23.5 -57l-24.5 -62h-2c-6.66699 20 -14 40.5 -22 61.5s-15.667 40.167 -23 57.5l-97 236h-66l176 -427c-13.333 -30 -27 -56.5 -41 -79.5s-29.167 -43.333 -45.5 -61s-33.833 -32.667 -52.5 -45s-39.334 -23.166 -62.001 -32.499
l41 -41c23.333 10 45.5 22.333 66.5 37s40.833 32.834 59.5 54.501s36.667 47.167 54 76.5s34 64 50 104zM349.001 644.998c0 4.66699 -3.66699 10.834 -11 18.501s-13.666 11.5 -18.999 11.5c-6.66699 0 -13 -4 -19 -12c-14.667 -20.667 -32.334 -41.667 -53.001 -63
s-40.667 -39.666 -60 -54.999l34 -16c22.667 14.667 44 30.167 64 46.5s38.333 34.166 55 53.499c6 7.33301 9 12.666 9 15.999z" />
    <glyph glyph-name="thorn" unicode="&#xfe;" horiz-adv-x="527" 
d="M490 227c0 36.667 -6.49902 69.668 -19.499 99.001s-30 54.166 -51 74.499s-45 35.833 -72 46.5s-54.833 16 -83.5 16c-32 0 -59.333 -5 -82 -15s-41 -22.333 -55 -37v301h-63v-943h63v263c6 -5.33301 13.667 -10.5 23 -15.5s19.833 -9.5 31.5 -13.5s24 -7.16699 37 -9.5
s25.833 -3.5 38.5 -3.5c33.333 0 64.166 5.83301 92.499 17.5s53 28 74 49s37.333 46 49 75s17.5 60.833 17.5 95.5zM426.001 225.001c0 -26.667 -4.5 -50.999 -13.5 -72.999s-21.333 -41 -37 -57s-34 -28.333 -55 -37s-43.833 -13 -68.5 -13c-30 0 -55.667 5.5 -77 16.5
s-37.333 22.167 -48 33.5v254c12.667 15.333 29.5 28.666 50.5 39.999s45.833 17 74.5 17c24.667 0 47.5 -4.5 68.5 -13.5s39.333 -21.5 55 -37.5s28 -35 37 -57s13.5 -46.333 13.5 -73z" />
    <glyph glyph-name="ydieresis" unicode="&#xff;" horiz-adv-x="468" 
d="M442 453l-60.999 -0.00195312l-97 -236l-23.5 -57l-24.5 -62h-2c-6.66699 20 -14 40.5 -22 61.5s-15.667 40.167 -23 57.5l-97 236h-66l176 -427c-13.333 -30 -27 -56.5 -41 -79.5s-29.167 -43.333 -45.5 -61s-33.833 -32.667 -52.5 -45s-39.334 -23.166 -62.001 -32.499
l41 -41c23.333 10 45.5 22.333 66.5 37s40.833 32.834 59.5 54.501s36.667 47.167 54 76.5s34 64 50 104zM341.001 566.998c0 2.66699 -1.33301 6.16699 -4 10.5s-5.83398 8.33301 -9.50098 12s-7.66699 6.83398 -12 9.50098s-7.83301 4 -10.5 4
c-3.33301 0 -7 -1.33301 -11 -4s-7.66699 -5.83398 -11 -9.50098s-6.33301 -7.66699 -9 -12s-4 -7.83301 -4 -10.5s1.33301 -6 4 -10s5.66699 -8 9 -12s7 -7.33301 11 -10s7.66699 -4 11 -4c2.66699 0 6.16699 1.33301 10.5 4s8.33301 6 12 10s6.83398 8 9.50098 12
s4 7.33301 4 10zM215.001 566.998c0 2.66699 -1.33301 6.16699 -4 10.5s-5.83398 8.33301 -9.50098 12s-7.5 6.83398 -11.5 9.50098s-7.33301 4 -10 4s-6 -1.33301 -10 -4s-8 -5.83398 -12 -9.50098s-7.33301 -7.66699 -10 -12s-4 -7.83301 -4 -10.5s1.33301 -6 4 -10
s6 -8 10 -12s8 -7.33301 12 -10s7.33301 -4 10 -4s6 1.33301 10 4s7.83301 6 11.5 10s6.83398 8 9.50098 12s4 7.33301 4 10z" />
    <glyph glyph-name="dotlessi" unicode="&#x131;" horiz-adv-x="206" 
d="M135 0v453h-64v-453h64z" />
    <glyph glyph-name="Lslash" unicode="&#x141;" horiz-adv-x="437" 
d="M430 0v58h-296v234l167 96v60l-167 -96v286h-67v-325l-53 -31v-59l53 31v-254h363z" />
    <glyph glyph-name="lslash" unicode="&#x142;" horiz-adv-x="213" 
d="M200 388l0.000976562 60l-72 -42v306h-63v-343l-53 -31v-59l53 30v-210c0 -18 2.5 -33.667 7.5 -47s11.167 -24.5 18.5 -33.5s15.666 -16.167 24.999 -21.5s18.333 -9.33301 27 -12l43 43c-15.333 3.33301 -28.833 11.833 -40.5 25.5s-17.5 31.167 -17.5 52.5v240z" />
    <glyph glyph-name="OE" unicode="&#x152;" horiz-adv-x="826" 
d="M819 0v58h-301v234h218v58h-218v230h265v58h-329c-24 4 -50 6 -78 6c-42 0 -83.167 -7.33301 -123.5 -22s-76 -36 -107 -64s-56 -62.167 -75 -102.5s-28.5 -85.833 -28.5 -136.5s9.5 -96 28.5 -136s44 -74 75 -102s66.5 -49.5 106.5 -64.5s81.333 -22.5 124 -22.5
c30.667 0 58 2 82 6h361zM451 57c-11.333 -1.33301 -22.667 -2.5 -34 -3.5s-23 -1.5 -35 -1.5c-36 0 -70.5 6.16699 -103.5 18.5s-62 30 -87 53s-44.833 50.833 -59.5 83.5s-22 69.667 -22 111s7.5 78.5 22.5 111.5s35 61 60 84s54 40.5 87 52.5s67.167 18 102.5 18
c24 0 47 -2 69 -6v-521z" />
    <glyph glyph-name="oe" unicode="&#x153;" horiz-adv-x="899" 
d="M862 288c0 22 -4.16211 43.5029 -12.4951 64.5029s-20.833 39.667 -37.5 56s-37 29.5 -61 39.5s-51.333 15 -82 15c-19.333 0 -38.833 -3 -58.5 -9s-38 -14.667 -55 -26s-32.167 -24.833 -45.5 -40.5s-23 -33.5 -29 -53.5c-6.66699 20 -16.834 38 -30.501 54
s-29.667 29.5 -48 40.5s-38.333 19.5 -60 25.5s-43.834 9 -66.501 9c-34 0 -65.5 -5.83301 -94.5 -17.5s-54.167 -28 -75.5 -49s-38.166 -46 -50.499 -75s-18.5 -60.833 -18.5 -95.5s6.16699 -66.334 18.5 -95.001s29.166 -53.5 50.499 -74.5s46.5 -37.333 75.5 -49
s60.5 -17.5 94.5 -17.5c46 0 87.667 11.167 125 33.5s64.666 54.5 81.999 96.5c6.66699 -20 17 -38.167 31 -54.5s30.167 -30 48.5 -41s38.333 -19.5 60 -25.5s43.5 -9 65.5 -9c30 0 55.5 2.83301 76.5 8.5s39.167 13.167 54.5 22.5l8 63
c-16.667 -11.333 -35.667 -20.5 -57 -27.5s-46 -10.5 -74 -10.5c-28.667 0 -54.334 5.16699 -77.001 15.5s-41.834 23.666 -57.501 39.999s-27.5 34.833 -35.5 55.5s-11.667 41.667 -11 63h307l38 37c0.666992 4.66699 1.16699 9.66699 1.5 15s0.5 10.666 0.5 15.999z
M798.005 287.003v-8.00098c0 -2.66699 -0.333008 -5 -1 -7h-277c2.66699 18 8.66699 35.167 18 51.5s20.666 30.666 33.999 42.999s28.666 22.333 45.999 30s35.333 11.5 54 11.5c20 0 37.833 -3.66699 53.5 -11s28.834 -16.666 39.501 -27.999
s18.834 -24.166 24.501 -38.499s8.5 -28.833 8.5 -43.5zM450.005 225.002c0 -26.667 -4.5 -51 -13.5 -73s-21.5 -41 -37.5 -57s-34.5 -28.333 -55.5 -37s-43.5 -13 -67.5 -13c-24.667 0 -47.667 4.33301 -69 13s-39.833 21 -55.5 37s-28 35 -37 57s-13.5 46.333 -13.5 73
s4.5 51 13.5 73s21.333 41 37 57s34.167 28.5 55.5 37.5s44.333 13.5 69 13.5c24 0 46.5 -4.5 67.5 -13.5s39.5 -21.5 55.5 -37.5s28.5 -35 37.5 -57s13.5 -46.333 13.5 -73z" />
    <glyph glyph-name="Scaron" unicode="&#x160;" horiz-adv-x="468" 
d="M426 173c0 26.667 -4.1748 49.998 -12.5078 69.998s-20.166 37.833 -35.499 53.5s-34.166 29.5 -56.499 41.5s-47.5 23 -75.5 33c-40 14.667 -69.167 31.167 -87.5 49.5s-27.5 41.166 -27.5 68.499c0 12.667 2.66699 24.834 8 36.501s13 22.167 23 31.5
s22.5 16.833 37.5 22.5s32.167 8.5 51.5 8.5c24 0 47.167 -3.83301 69.5 -11.5s39.5 -16.167 51.5 -25.5l15 57c-13.333 8.66699 -31.666 16.834 -54.999 24.501s-49.666 11.5 -78.999 11.5c-32 0 -59.667 -4.5 -83 -13.5s-42.666 -21 -57.999 -36s-26.666 -32 -33.999 -51
s-11 -38.5 -11 -58.5c0 -44 13.333 -80.167 40 -108.5s68.334 -52.5 125.001 -72.5c44 -16 76.167 -34.167 96.5 -54.5s30.5 -47.5 30.5 -81.5c0 -34.667 -12.5 -62.5 -37.5 -83.5s-57.167 -31.5 -96.5 -31.5c-36.667 0 -69.834 5.83301 -99.501 17.5
s-56.167 26.834 -79.5 45.501l9 -73c17.333 -12.667 40.333 -23.834 69 -33.501s61.334 -14.5 98.001 -14.5c31.333 0 59.5 4.16699 84.5 12.5s46.333 20.333 64 36s31.334 34.334 41.001 56.001s14.5 46.167 14.5 73.5zM378.992 859.998l-46 20
c-18 -13.333 -35.167 -26.833 -51.5 -40.5s-31.5 -28.5 -45.5 -44.5c-13.333 16 -28.166 30.833 -44.499 44.5s-33.833 27.167 -52.5 40.5l-45 -20c23.333 -18.667 46.666 -40.334 69.999 -65.001s43.333 -50 60 -76c2 -5.33301 6.33301 -8 13 -8c4 0 8 2.66699 12 8
c16 26 35.667 51.333 59 76s47 46.334 71 65.001z" />
    <glyph glyph-name="scaron" unicode="&#x161;" horiz-adv-x="365" 
d="M328 120c0 38 -11.9961 67.832 -35.9961 89.499s-57.333 40.167 -100 55.5c-25.333 9.33301 -44.5 19.333 -57.5 30s-19.5 26 -19.5 46c0 19.333 7 34.833 21 46.5s32 17.5 54 17.5s41.167 -3.16699 57.5 -9.5s29.5 -13.166 39.5 -20.499l14 54
c-9.33301 6.66699 -24 13.167 -44 19.5s-42 9.5 -66 9.5c-40 0 -73 -10.833 -99 -32.5s-39 -50.5 -39 -86.5c0 -35.333 11.167 -63.333 33.5 -84s54.166 -38.334 95.499 -53.001c25.333 -9.33301 45.5 -20.333 60.5 -33s22.5 -29.334 22.5 -50.001
c0 -22 -8.5 -39.167 -25.5 -51.5s-38.167 -18.5 -63.5 -18.5c-27.333 0 -52.333 4.83301 -75 14.5s-42.667 21.834 -60 36.501l9 -69c15.333 -11.333 33.166 -20.166 53.499 -26.499s44.166 -9.5 71.499 -9.5c47.333 0 84.666 11.5 111.999 34.5s41 53.167 41 90.5z
M301.004 653.999l-39.002 17c-15.333 -11.333 -30 -22.833 -44 -34.5s-26.667 -24.167 -38 -37.5c-11.333 13.333 -24 25.833 -38 37.5s-29 23.167 -45 34.5l-39 -17c20.667 -15.333 40.834 -33.5 60.501 -54.5s36.5 -42.5 50.5 -64.5c2 -4.66699 5.66699 -7 11 -7
c4 0 7.33301 2.33301 10 7c14 22 30.833 43.5 50.5 64.5s39.834 39.167 60.501 54.5z" />
    <glyph glyph-name="Ydieresis" unicode="&#x178;" horiz-adv-x="606" 
d="M580 638h-70l-138 -194l-33.5 -48.5l-32.5 -48.5h-2c-10 16 -20.833 32.333 -32.5 49l-33.5 48l-137 194h-75l243 -343v-295h66v295zM413 763c0 3.33301 -1.5 7.5 -4.5 12.5s-6.66699 9.66699 -11 14s-9 8 -14 11s-9.16699 4.5 -12.5 4.5s-7.5 -1.5 -12.5 -4.5
s-9.66699 -6.66699 -14 -11s-8 -9 -11 -14s-4.5 -9.16699 -4.5 -12.5s1.5 -7.33301 4.5 -12s6.66699 -9.33398 11 -14.001s9 -8.5 14 -11.5s9.16699 -4.5 12.5 -4.5s7.5 1.5 12.5 4.5s9.66699 6.83301 14 11.5s8 9.33398 11 14.001s4.5 8.66699 4.5 12zM265 763
c0 3.33301 -1.5 7.5 -4.5 12.5s-6.66699 9.66699 -11 14s-9 8 -14 11s-9.16699 4.5 -12.5 4.5s-7.33301 -1.5 -12 -4.5s-9.33398 -6.66699 -14.001 -11s-8.5 -9 -11.5 -14s-4.5 -9.16699 -4.5 -12.5s1.5 -7.33301 4.5 -12s6.83301 -9.33398 11.5 -14.001
s9.33398 -8.5 14.001 -11.5s8.66699 -4.5 12 -4.5s7.5 1.5 12.5 4.5s9.66699 6.83301 14 11.5s8 9.33398 11 14.001s4.5 8.66699 4.5 12z" />
    <glyph glyph-name="Zcaron" unicode="&#x17d;" horiz-adv-x="521" 
d="M479 0v58h-344l-1 2l55.5 90l56.5 95l221 376v17h-400v-58h306l1 -2l-55.5 -89.5l-57.5 -97.5l-219 -374v-17h437zM405 862l-46 20c-18 -13.333 -35.167 -26.833 -51.5 -40.5s-31.5 -28.5 -45.5 -44.5c-13.333 16 -28.166 30.833 -44.499 44.5s-33.833 27.167 -52.5 40.5
l-45 -20c23.333 -18.667 46.666 -40.334 69.999 -65.001s43.333 -50 60 -76c2 -5.33301 6.33301 -8 13 -8c4 0 8 2.66699 12 8c16 26 35.667 51.333 59 76s47 46.334 71 65.001z" />
    <glyph glyph-name="zcaron" unicode="&#x17e;" horiz-adv-x="423" 
d="M386 0v51.999h-258l-1 1l40.5 64.5l40.5 64.5l161 257v14h-315v-52h223l1 -1c-13.333 -19.333 -26.833 -40.666 -40.5 -63.999l-40.5 -66l-160 -256v-14h349zM333 653.999l-39 17c-15.333 -11.333 -30 -22.833 -44 -34.5s-26.667 -24.167 -38 -37.5
c-11.333 13.333 -24 25.833 -38 37.5s-29 23.167 -45 34.5l-38 -17c20 -15.333 40 -33.5 60 -54.5s36.667 -42.5 50 -64.5c3.33301 -4.66699 7 -7 11 -7s7.33301 2.33301 10 7c14 22 31 43.5 51 64.5s40 39.167 60 54.5z" />
    <glyph glyph-name="florin" unicode="&#x192;" horiz-adv-x="420" 
d="M430 646c-12 2 -24.999 2.99805 -38.999 2.99805c-55.333 0 -103 -15.667 -143 -47s-65.667 -78.666 -77 -141.999l-28 -162h-88v-40h81l-54 -305c-7.33301 -40.667 -23 -72.667 -47 -96s-52.333 -39 -85 -47l41 -40c17.333 4 34.166 11 50.499 21s31.333 22.5 45 37.5
s25.5 32.5 35.5 52.5s17.333 42.333 22 67l56 310h113l10 40h-117l28 159c8 46.667 25.667 81.334 53 104.001s60 34 98 34h16c6 0 11.667 -0.666992 17 -2z" />
    <glyph glyph-name="circumflex" unicode="&#x2c6;" 
d="M406 534c-23.333 18 -47.1719 39.333 -71.5049 64s-44.833 49 -61.5 73c-3.33301 4.66699 -7.16602 8.33398 -11.499 11.001s-8.16602 4 -11.499 4s-7.16602 -1.33301 -11.499 -4s-8.16602 -6.33398 -11.499 -11.001c-16.667 -24 -37.167 -48.5 -61.5 -73.5
s-48.166 -46.5 -71.499 -64.5l41 -18c40.667 26.667 78 56.334 112 89.001c16.667 -16.667 35 -32.334 55 -47.001l60 -42z" />
    <glyph glyph-name="caron" unicode="&#x2c7;" 
d="M393 662l-46 20c-18 -13.333 -35.167 -26.833 -51.5 -40.5s-31.5 -28.5 -45.5 -44.5c-13.333 16 -28.166 30.833 -44.499 44.5s-33.833 27.167 -52.5 40.5l-45 -20c23.333 -18.667 46.666 -40.334 69.999 -65.001s43.333 -50 60 -76c2 -5.33301 6.33301 -8 13 -8
c4 0 8 2.66699 12 8c16 26 35.667 51.333 59 76s47 46.334 71 65.001z" />
    <glyph glyph-name="breve" unicode="&#x2d8;" 
d="M357 554l-36.999 38c-3.33301 -2 -11.5 -5.83301 -24.5 -11.5s-27.833 -8.5 -44.5 -8.5c-16 0 -31 2.83301 -45 8.5s-22.667 9.5 -26 11.5l-37 -38l12.5 -8.5c6.33301 -4.33301 14.333 -8.66602 24 -12.999s20.5 -8.16602 32.5 -11.499s25 -5 39 -5
c13.333 0 26 1.66699 38 5s22.667 7.16602 32 11.499s17.166 8.66602 23.499 12.999z" />
    <glyph glyph-name="dotaccent" unicode="&#x2d9;" 
d="M292 563c0 3.33301 -1.5 7.5 -4.5 12.5s-6.66699 9.66699 -11 14s-9 8 -14 11s-9.16699 4.5 -12.5 4.5s-7.33301 -1.5 -12 -4.5s-9.33398 -6.66699 -14.001 -11s-8.5 -9 -11.5 -14s-4.5 -9.16699 -4.5 -12.5s1.5 -7.33301 4.5 -12s6.83301 -9.33398 11.5 -14.001
s9.33398 -8.5 14.001 -11.5s8.66699 -4.5 12 -4.5s7.5 1.5 12.5 4.5s9.66699 6.83301 14 11.5s8 9.33398 11 14.001s4.5 8.66699 4.5 12z" />
    <glyph glyph-name="ring" unicode="&#x2da;" 
d="M352 608c0 14 -2.66699 27 -8 39s-12.666 22.667 -21.999 32s-20.166 16.666 -32.499 21.999s-25.5 8 -39.5 8s-27.167 -2.66699 -39.5 -8s-23.166 -12.666 -32.499 -21.999s-16.666 -20 -21.999 -32s-8 -25 -8 -39s2.66699 -27.167 8 -39.5
s12.666 -23.166 21.999 -32.499s20.166 -16.666 32.499 -21.999s25.5 -8 39.5 -8s27.167 2.66699 39.5 8s23.166 12.666 32.499 21.999s16.666 20.166 21.999 32.499s8 25.5 8 39.5zM305 608c0 -16.667 -5.16699 -30.5 -15.5 -41.5s-23.5 -16.5 -39.5 -16.5
s-29.333 5.5 -40 16.5s-16 24.833 -16 41.5s5.33301 30.5 16 41.5s24 16.5 40 16.5s29.167 -5.5 39.5 -16.5s15.5 -24.833 15.5 -41.5z" />
    <glyph glyph-name="ogonek" unicode="&#x2db;" 
d="M335 -167c-9.33301 -6 -19.001 -10.502 -29.001 -13.502s-21.667 -4.5 -35 -4.5c-17.333 0 -31.5 4.33301 -42.5 13s-16.5 21.334 -16.5 38.001c0 14 3.33301 27.5 10 40.5s15.5 25.167 26.5 36.5s24 21.833 39 31.5s30.5 18.167 46.5 25.5h-59
c-14 -6 -27.5 -13.833 -40.5 -23.5s-24.667 -20.5 -35 -32.5s-18.666 -25 -24.999 -39s-9.5 -29 -9.5 -45c0 -14 2.66699 -26.167 8 -36.5s12.333 -19.166 21 -26.499s18.667 -12.833 30 -16.5s23.333 -5.5 36 -5.5c15.333 0 28 1.33301 38 4s18.667 6 26 10z" />
    <glyph glyph-name="tilde" unicode="&#x2dc;" 
d="M413 641l-44.001 19c-3.33301 -4.66699 -7.83301 -10.5 -13.5 -17.5s-11.667 -13.833 -18 -20.5s-12.666 -12.334 -18.999 -17.001s-11.833 -7 -16.5 -7c-4 0 -10.167 2.5 -18.5 7.5l-27.5 16.5c-10 6 -20 11.5 -30 16.5s-18.667 7.5 -26 7.5
c-6.66699 0 -14.667 -3.5 -24 -10.5s-18.666 -15.833 -27.999 -26.5s-18.666 -22.5 -27.999 -35.5s-17.333 -25.167 -24 -36.5l44 -20c3.33301 4.66699 7.83301 10.5 13.5 17.5s11.667 13.833 18 20.5s12.5 12.334 18.5 17.001s11.667 7 17 7
c4.66699 0 11.167 -2.5 19.5 -7.5l27 -16c9.66699 -5.66699 19.5 -11 29.5 -16s18.667 -7.5 26 -7.5c6.66699 0 14.667 3.5 24 10.5s18.666 15.833 27.999 26.5s18.666 22.5 27.999 35.5s17.333 25.167 24 36.5z" />
    <glyph glyph-name="hungarumlaut" unicode="&#x2dd;" 
d="M427 651c0 2.66699 -1.33691 6.16797 -4.00391 10.501s-6 8.5 -10 12.5s-8.16699 7.33301 -12.5 10s-8.16602 4 -11.499 4s-7.16602 -1.5 -11.499 -4.5s-8.16602 -6.5 -11.499 -10.5c-16.667 -24.667 -37.167 -49.334 -61.5 -74.001s-48.166 -46 -71.499 -64l45 -19
c25.333 16.667 49.833 34.334 73.5 53.001s45.167 39.334 64.5 62.001c3.33301 3.33301 6 6.66602 8 9.99902s3 6.66602 3 9.99902zM283.996 651.001c0 2.66699 -1.33496 6.16797 -4.00195 10.501s-6 8.5 -10 12.5s-8.16699 7.33301 -12.5 10s-7.83301 4 -10.5 4
c-3.33301 0 -7.16602 -1.5 -11.499 -4.5s-8.16602 -6.5 -11.499 -10.5c-17.333 -24.667 -38.166 -49.334 -62.499 -74.001s-47.833 -46 -70.5 -64l44 -19c26 16.667 50.667 34.334 74 53.001s44.666 39.334 63.999 62.001c3.33301 3.33301 6 6.66602 8 9.99902
s3 6.66602 3 9.99902z" />
    <glyph glyph-name="pi" unicode="&#x3c0;" horiz-adv-x="600" 
d="M565 151l-54.001 53.001v249h-472v-453h472v97c12.667 0 24.834 4.66699 36.501 14s17.5 22.666 17.5 39.999zM484.999 229.001l-159 159h159v-159zM230.999 388.001c0 -23.333 -8 -43 -24 -59s-35.667 -24 -59 -24s-43 8 -59 24s-24 35.667 -24 59h166zM484.999 25.001
h-420.001v290c10.667 -12.667 22.334 -21.667 35.001 -27l385 -182v-81z" />
    <glyph glyph-name="endash" unicode="&#x2013;" 
d="M502 203v46h-502v-46h502z" />
    <glyph glyph-name="emdash" unicode="&#x2014;" horiz-adv-x="1000" 
d="M1002 203v46h-1002v-46h1002z" />
    <glyph glyph-name="quoteleft" unicode="&#x2018;" horiz-adv-x="187" 
d="M142 494c0 3.33301 -1.33301 7.16992 -4 11.5029s-6.16699 8.66602 -10.5 12.999s-9 8.16602 -14 11.499s-9.83301 5.33301 -14.5 6c0 15.333 3.83301 33.166 11.5 53.499s18.167 38.5 31.5 54.5l-26 4c-8.66699 -9.33301 -17.167 -20.333 -25.5 -33s-16 -26 -23 -40
s-12.667 -28 -17 -42s-6.5 -27 -6.5 -39c0 -4.66699 1.83301 -9.66699 5.5 -15s8.16699 -10.5 13.5 -15.5s10.833 -9.16699 16.5 -12.5s10.167 -5 13.5 -5c4 0 8.83301 1.66699 14.5 5s11 7.5 16 12.5s9.33301 10.333 13 16s5.5 10.5 5.5 14.5z" />
    <glyph glyph-name="quoteright" unicode="&#x2019;" horiz-adv-x="187" 
d="M142 601c0 4.66699 -1.83691 9.66406 -5.50391 14.9971s-8.16699 10.5 -13.5 15.5s-10.666 9.16699 -15.999 12.5s-10 5 -14 5s-8.66699 -1.66699 -14 -5s-10.666 -7.5 -15.999 -12.5s-9.83301 -10.333 -13.5 -16s-5.5 -10.5 -5.5 -14.5
c0 -3.33301 1.5 -7.16602 4.5 -11.499s6.66699 -8.66602 11 -12.999s9 -8.16602 14 -11.499s9.83301 -5.33301 14.5 -6c0 -15.333 -4 -33.166 -12 -53.499s-18.333 -38.5 -31 -54.5l25 -4c8.66699 8.66699 17.334 19.5 26.001 32.5s16.334 26.5 23.001 40.5
s12.167 28.167 16.5 42.5s6.5 27.166 6.5 38.499z" />
    <glyph glyph-name="quotesinglbase" unicode="&#x201a;" horiz-adv-x="186" 
d="M142 39c0 4.66699 -1.83398 9.83301 -5.50098 15.5s-8.16699 11 -13.5 16s-10.833 9.16699 -16.5 12.5s-10.167 5 -13.5 5c-4 0 -8.66699 -1.83301 -14 -5.5s-10.666 -8 -15.999 -13s-9.83301 -10.333 -13.5 -16s-5.5 -10.5 -5.5 -14.5
c0 -3.33301 1.5 -7.16602 4.5 -11.499s6.66699 -8.5 11 -12.5s9 -7.66699 14 -11s9.83301 -5.33301 14.5 -6c0 -15.333 -4 -33.333 -12 -54s-18.333 -39 -31 -55l25 -4c8.66699 8.66699 17.167 19.5 25.5 32.5s16 26.5 23 40.5s12.667 28.167 17 42.5s6.5 27.166 6.5 38.499
z" />
    <glyph glyph-name="quotedblleft" unicode="&#x201c;" horiz-adv-x="346" 
d="M302 494c0 3.33301 -1.49609 7.16992 -4.49609 11.5029s-6.66699 8.66602 -11 12.999s-9 8.16602 -14 11.499s-9.83301 5.33301 -14.5 6c0 15.333 4 33.166 12 53.499s18.333 38.5 31 54.5l-25 4c-8.66699 -9.33301 -17.334 -20.333 -26.001 -33s-16.334 -26 -23.001 -40
s-12.167 -28 -16.5 -42s-6.5 -27 -6.5 -39c0 -4.66699 1.83301 -9.66699 5.5 -15s8.16699 -10.5 13.5 -15.5s10.666 -9.16699 15.999 -12.5s10 -5 14 -5s8.66699 1.66699 14 5s10.666 7.5 15.999 12.5s9.83301 10.333 13.5 16s5.5 10.5 5.5 14.5zM142.004 494.004
c0 3.33301 -1.33301 7.16992 -4 11.5029s-6.16699 8.66602 -10.5 12.999s-9 8.16602 -14 11.499s-9.83301 5.33301 -14.5 6c0 15.333 3.83301 33.166 11.5 53.499s18.167 38.5 31.5 54.5l-26 4c-8.66699 -9.33301 -17.167 -20.333 -25.5 -33s-16 -26 -23 -40
s-12.667 -28 -17 -42s-6.5 -27 -6.5 -39c0 -4.66699 1.83301 -9.66699 5.5 -15s8.16699 -10.5 13.5 -15.5s10.833 -9.16699 16.5 -12.5s10.167 -5 13.5 -5c4 0 8.83301 1.66699 14.5 5s11 7.5 16 12.5s9.33301 10.333 13 16s5.5 10.5 5.5 14.5z" />
    <glyph glyph-name="quotedblright" unicode="&#x201d;" horiz-adv-x="346" 
d="M302 601c0 4.66699 -1.83301 9.66406 -5.5 14.9971s-8.16699 10.5 -13.5 15.5s-10.833 9.16699 -16.5 12.5s-10.167 5 -13.5 5c-4 0 -8.83301 -1.66699 -14.5 -5s-11 -7.5 -16 -12.5s-9.33301 -10.333 -13 -16s-5.5 -10.5 -5.5 -14.5
c0 -3.33301 1.33301 -7.16602 4 -11.499s6.16699 -8.66602 10.5 -12.999s9 -8.16602 14 -11.499s9.83301 -5.33301 14.5 -6c0 -15.333 -3.83301 -33.166 -11.5 -53.499s-18.167 -38.5 -31.5 -54.5l26 -4c8.66699 8.66699 17.167 19.5 25.5 32.5s16 26.5 23 40.5
s12.667 28.167 17 42.5s6.5 27.166 6.5 38.499zM142 600.997c0 4.66699 -1.83691 9.66406 -5.50391 14.9971s-8.16699 10.5 -13.5 15.5s-10.666 9.16699 -15.999 12.5s-10 5 -14 5s-8.66699 -1.66699 -14 -5s-10.666 -7.5 -15.999 -12.5s-9.83301 -10.333 -13.5 -16
s-5.5 -10.5 -5.5 -14.5c0 -3.33301 1.5 -7.16602 4.5 -11.499s6.66699 -8.66602 11 -12.999s9 -8.16602 14 -11.499s9.83301 -5.33301 14.5 -6c0 -15.333 -4 -33.166 -12 -53.499s-18.333 -38.5 -31 -54.5l25 -4c8.66699 8.66699 17.334 19.5 26.001 32.5
s16.334 26.5 23.001 40.5s12.167 28.167 16.5 42.5s6.5 27.166 6.5 38.499z" />
    <glyph glyph-name="quotedblbase" unicode="&#x201e;" horiz-adv-x="346" 
d="M302 39c0 4.66699 -1.83398 9.83301 -5.50098 15.5s-8.16699 11 -13.5 16s-10.833 9.16699 -16.5 12.5s-10.167 5 -13.5 5c-4 0 -8.66699 -1.83301 -14 -5.5s-10.666 -8 -15.999 -13s-9.83301 -10.333 -13.5 -16s-5.5 -10.5 -5.5 -14.5
c0 -3.33301 1.33301 -7.16602 4 -11.499s6.16699 -8.5 10.5 -12.5s9 -7.66699 14 -11s9.83301 -5.33301 14.5 -6c0 -15.333 -4 -33.333 -12 -54s-18.333 -39 -31 -55l26 -4c8.66699 8.66699 17.167 19.5 25.5 32.5s16 26.5 23 40.5s12.667 28.167 17 42.5
s6.5 27.166 6.5 38.499zM141.999 38.999c0 4.66699 -1.83398 9.83301 -5.50098 15.5s-8.16699 11 -13.5 16s-10.833 9.16699 -16.5 12.5s-10.167 5 -13.5 5c-4 0 -8.66699 -1.83301 -14 -5.5s-10.666 -8 -15.999 -13s-9.83301 -10.333 -13.5 -16s-5.5 -10.5 -5.5 -14.5
c0 -3.33301 1.5 -7.16602 4.5 -11.499s6.66699 -8.5 11 -12.5s9 -7.66699 14 -11s9.83301 -5.33301 14.5 -6c0 -15.333 -4 -33.333 -12 -54s-18.333 -39 -31 -55l25 -4c8.66699 8.66699 17.167 19.5 25.5 32.5s16 26.5 23 40.5s12.667 28.167 17 42.5s6.5 27.166 6.5 38.499
z" />
    <glyph glyph-name="dagger" unicode="&#x2020;" horiz-adv-x="403" 
d="M359 395v64l-126 -13l1 111h-65l1 -111l-126 13v-64l128 13l10 -634h39l11 634z" />
    <glyph glyph-name="daggerdbl" unicode="&#x2021;" horiz-adv-x="403" 
d="M359 -128v64l-127 -13l-4 243l4 242l127 -13v64l-126 -13l1 111h-65l1 -111l-126 13v-64l128 13l3 -242l-3 -243l-128 13v-64l126 13l-1 -111h65l-1 111z" />
    <glyph glyph-name="bullet" unicode="&#x2022;" horiz-adv-x="354" 
d="M310 277c0 19.333 -3.33301 37 -10 53s-16 29.833 -28 41.5s-26.167 20.834 -42.5 27.501s-33.833 10 -52.5 10s-36.167 -3.33301 -52.5 -10s-30.5 -15.834 -42.5 -27.501s-21.333 -25.5 -28 -41.5s-10 -33.667 -10 -53s3.33301 -37 10 -53s16 -29.833 28 -41.5
s26.167 -20.667 42.5 -27s33.833 -9.5 52.5 -9.5s36.167 3.16699 52.5 9.5s30.5 15.333 42.5 27s21.333 25.5 28 41.5s10 33.667 10 53z" />
    <glyph glyph-name="ellipsis" unicode="&#x2026;" horiz-adv-x="561" 
d="M517 39c0 4 -1.83301 8.66699 -5.5 14s-8 10.666 -13 15.999s-10.5 9.83301 -16.5 13.5s-11 5.5 -15 5.5s-8.83301 -1.83301 -14.5 -5.5s-11 -8.16699 -16 -13.5s-9.33301 -10.666 -13 -15.999s-5.5 -10 -5.5 -14s1.83301 -8.83301 5.5 -14.5s8 -11 13 -16
s10.333 -9.33301 16 -13s10.5 -5.5 14.5 -5.5s9 1.83301 15 5.5s11.5 8 16.5 13s9.33301 10.333 13 16s5.5 10.5 5.5 14.5zM329 39c0 4 -1.83301 8.66699 -5.5 14s-8 10.666 -13 15.999s-10.333 9.83301 -16 13.5s-10.5 5.5 -14.5 5.5s-8.83301 -1.83301 -14.5 -5.5
s-11 -8.16699 -16 -13.5s-9.33301 -10.666 -13 -15.999s-5.5 -10 -5.5 -14s1.83301 -8.83301 5.5 -14.5s8 -11 13 -16s10.333 -9.33301 16 -13s10.5 -5.5 14.5 -5.5s8.83301 1.83301 14.5 5.5s11 8 16 13s9.33301 10.333 13 16s5.5 10.5 5.5 14.5zM142 39
c0 4 -1.83301 8.66699 -5.5 14s-8 10.666 -13 15.999s-10.333 9.83301 -16 13.5s-10.5 5.5 -14.5 5.5s-8.83301 -1.83301 -14.5 -5.5s-11 -8.16699 -16 -13.5s-9.33301 -10.666 -13 -15.999s-5.5 -10 -5.5 -14s1.83301 -8.83301 5.5 -14.5s8 -11 13 -16
s10.333 -9.33301 16 -13s10.5 -5.5 14.5 -5.5s8.83301 1.83301 14.5 5.5s11 8 16 13s9.33301 10.333 13 16s5.5 10.5 5.5 14.5z" />
    <glyph glyph-name="perthousand" unicode="&#x2030;" horiz-adv-x="1043" 
d="M1000 125c0 20 -3.5 38.167 -10.5 54.5s-16.5 30.5 -28.5 42.5s-26.167 21.333 -42.5 28s-34.166 10 -53.499 10s-37.166 -3.33301 -53.499 -10s-30.5 -16 -42.5 -28s-21.333 -26.167 -28 -42.5s-10 -34.5 -10 -54.5s3.33301 -38.333 10 -55s16 -31 28 -43
s26.167 -21.333 42.5 -28s34.166 -10 53.499 -10s37.166 3.33301 53.499 10s30.5 16 42.5 28s21.5 26.333 28.5 43s10.5 35 10.5 55zM947 125c0 -26.667 -8.16699 -47.834 -24.5 -63.501s-35.5 -23.5 -57.5 -23.5s-41 7.83301 -57 23.5s-24 36.834 -24 63.501
s8 47.334 24 62.001s35 22 57 22s41.167 -7.33301 57.5 -22s24.5 -35.334 24.5 -62.001zM658 125c0 20 -3.5 38.167 -10.5 54.5s-16.5 30.5 -28.5 42.5s-26.167 21.333 -42.5 28s-34.166 10 -53.499 10s-37.166 -3.33301 -53.499 -10s-30.5 -16 -42.5 -28
s-21.333 -26.167 -28 -42.5s-10 -34.5 -10 -54.5s3.33301 -38.333 10 -55s16 -31 28 -43s26.167 -21.333 42.5 -28s34.166 -10 53.499 -10s37.166 3.33301 53.499 10s30.5 16 42.5 28s21.5 26.333 28.5 43s10.5 35 10.5 55zM605 125
c0 -26.667 -8.16699 -47.834 -24.5 -63.501s-35.5 -23.5 -57.5 -23.5s-41 7.83301 -57 23.5s-24 36.834 -24 63.501s8 47.334 24 62.001s35 22 57 22s41.167 -7.33301 57.5 -22s24.5 -35.334 24.5 -62.001zM625 630l-32 27l-525 -648l33 -28zM306 514
c0 20 -3.5 38.167 -10.5 54.5s-16.5 30.5 -28.5 42.5s-26.167 21.333 -42.5 28s-34.166 10 -53.499 10s-37.166 -3.33301 -53.499 -10s-30.5 -16 -42.5 -28s-21.333 -26.167 -28 -42.5s-10 -34.5 -10 -54.5s3.33301 -38.333 10 -55s16 -30.834 28 -42.501
s26.167 -20.834 42.5 -27.501s34.166 -10 53.499 -10s37.166 3.33301 53.499 10s30.5 15.834 42.5 27.501s21.5 25.834 28.5 42.501s10.5 35 10.5 55zM253 514c0 -26.667 -8.16699 -47.667 -24.5 -63s-35.5 -23 -57.5 -23s-41 7.66699 -57 23s-24 36.333 -24 63
s8 47.5 24 62.5s35 22.5 57 22.5s41.167 -7.5 57.5 -22.5s24.5 -35.833 24.5 -62.5z" />
    <glyph glyph-name="guilsinglleft" unicode="&#x2039;" horiz-adv-x="205" 
d="M161 116c-17.333 40 -37.333 76.665 -60 109.998c22.667 33.333 42.667 70 60 110l-10 25c-14.667 -19.333 -32.167 -39.666 -52.5 -60.999s-40.166 -39.333 -59.499 -54c-3.33301 -2.66699 -6.33301 -6 -9 -10s-4 -7.33301 -4 -10s1.33301 -6 4 -10
s5.66699 -7.33301 9 -10c19.333 -14.667 39.166 -32.667 59.499 -54s37.833 -41.666 52.5 -60.999z" />
    <glyph glyph-name="guilsinglright" unicode="&#x203a;" horiz-adv-x="205" 
d="M179 226c0 2.66699 -1.33301 5.99805 -4 9.99805s-5.66699 7.33301 -9 10c-19.333 14.667 -39 32.667 -59 54s-37.333 41.666 -52 60.999l-11 -25c8.66699 -19.333 17.834 -38.166 27.501 -56.499s20.5 -36.166 32.5 -53.499c-12 -17.333 -22.833 -35.166 -32.5 -53.499
s-18.834 -37.166 -27.501 -56.499l11 -25c14.667 19.333 32 39.666 52 60.999s39.667 39.333 59 54c3.33301 2.66699 6.33301 6 9 10s4 7.33301 4 10z" />
    <glyph glyph-name="fraction" unicode="&#x2044;" horiz-adv-x="648" 
d="M602 630l-32 27l-524 -648l32 -28z" />
    <glyph glyph-name="Euro" unicode="&#x20ac;" horiz-adv-x="493" 
d="M344 286l-183.003 -0.00292969c-0.666992 5.33301 -1 10.666 -1 15.999v16v19c0 6.66699 0.333008 13 1 19h185l9 41h-189c10 62.667 30.667 110.334 62 143.001s68 49 110 49c20 0 38.667 -2.5 56 -7.5s32.333 -11.833 45 -20.5l12 55c-13.333 8 -29.166 15 -47.499 21
s-41.5 9 -69.5 9s-54.833 -5.5 -80.5 -16.5s-48.834 -27.167 -69.501 -48.5s-38.167 -47.5 -52.5 -78.5s-24.5 -66.167 -30.5 -105.5h-84v-41h80c-0.666992 -6 -1 -12 -1 -18v-19v-17c0 -5.33301 0.333008 -10.666 1 -15.999h-80v-40h83
c6 -40.667 16.167 -76.834 30.5 -108.501s31.666 -58.167 51.999 -79.5s43.5 -37.666 69.5 -48.999s53.333 -17 82 -17c20.667 0 39.834 2 57.501 6s31.834 9.66699 42.501 17l8 60c-27.333 -18 -61.666 -27 -102.999 -27c-20 0 -39.5 4.33301 -58.5 13
s-36.167 21.334 -51.5 38.001s-28.666 37.334 -39.999 62.001s-19.333 53 -24 85h170z" />
    <glyph glyph-name="trademark" unicode="&#x2122;" horiz-adv-x="416" 
d="M378 453l-14 185h-20l-67 -139l-68 139h-19l-14 -185h27l9 117l58 -118h11l60 119l9 -118h28zM163 612v26h-141v-26h56v-159h29v159h56z" />
    <glyph glyph-name="Omega" unicode="&#x2126;" horiz-adv-x="600" 
d="M565 151l-54.001 53.001v249h-472v-453h472v97c12.667 0 24.834 4.66699 36.501 14s17.5 22.666 17.5 39.999zM484.999 229.001l-159 159h159v-159zM230.999 388.001c0 -23.333 -8 -43 -24 -59s-35.667 -24 -59 -24s-43 8 -59 24s-24 35.667 -24 59h166zM484.999 25.001
h-420.001v290c10.667 -12.667 22.334 -21.667 35.001 -27l385 -182v-81z" />
    <glyph glyph-name="partialdiff" unicode="&#x2202;" horiz-adv-x="600" 
d="M565 151l-54.001 53.001v249h-472v-453h472v97c12.667 0 24.834 4.66699 36.501 14s17.5 22.666 17.5 39.999zM484.999 229.001l-159 159h159v-159zM230.999 388.001c0 -23.333 -8 -43 -24 -59s-35.667 -24 -59 -24s-43 8 -59 24s-24 35.667 -24 59h166zM484.999 25.001
h-420.001v290c10.667 -12.667 22.334 -21.667 35.001 -27l385 -182v-81z" />
    <glyph glyph-name="Delta" unicode="&#x2206;" horiz-adv-x="600" 
d="M565 151l-54.001 53.001v249h-472v-453h472v97c12.667 0 24.834 4.66699 36.501 14s17.5 22.666 17.5 39.999zM484.999 229.001l-159 159h159v-159zM230.999 388.001c0 -23.333 -8 -43 -24 -59s-35.667 -24 -59 -24s-43 8 -59 24s-24 35.667 -24 59h166zM484.999 25.001
h-420.001v290c10.667 -12.667 22.334 -21.667 35.001 -27l385 -182v-81z" />
    <glyph glyph-name="product" unicode="&#x220f;" horiz-adv-x="452" 
d="M415 462c0 27.333 -4.83301 52.5 -14.5 75.5s-23 42.667 -40 59s-37 29.166 -60 38.499s-47.833 14 -74.5 14s-51.5 -4.66699 -74.5 -14s-43 -22.166 -60 -38.499s-30.333 -36 -40 -59s-14.5 -48.167 -14.5 -75.5s4.83301 -52.5 14.5 -75.5s23 -42.833 40 -59.5
s37 -29.667 60 -39s47.833 -14 74.5 -14s51.5 4.66699 74.5 14s43 22.333 60 39s30.333 36.5 40 59.5s14.5 48.167 14.5 75.5zM381 462c0 -23.333 -4 -44.5 -12 -63.5s-18.833 -35.333 -32.5 -49s-30 -24.334 -49 -32.001s-39.5 -11.5 -61.5 -11.5s-42.5 3.83301 -61.5 11.5
s-35.5 18.334 -49.5 32.001s-24.833 30 -32.5 49s-11.5 40.167 -11.5 63.5c0 22.667 3.83301 43.667 11.5 63s18.5 35.833 32.5 49.5s30.5 24.334 49.5 32.001s39.5 11.5 61.5 11.5s42.5 -3.83301 61.5 -11.5s35.333 -18.334 49 -32.001s24.5 -30.167 32.5 -49.5
s12 -40.333 12 -63zM311 509c0 19.333 -7.33301 35.167 -22 47.5s-31.667 18.5 -51 18.5h-67v-228h36v94h31c19.333 0 36.333 6.5 51 19.5s22 29.167 22 48.5zM275 509.001c0 -10.667 -3.66699 -19.167 -11 -25.5s-17 -9.5 -29 -9.5h-28v69h28c12 0 21.667 -3 29 -9
s11 -14.333 11 -25z" />
    <glyph glyph-name="summation" unicode="&#x2211;" horiz-adv-x="600" 
d="M565 151l-54.001 53.001v249h-472v-453h472v97c12.667 0 24.834 4.66699 36.501 14s17.5 22.666 17.5 39.999zM484.999 229.001l-159 159h159v-159zM230.999 388.001c0 -23.333 -8 -43 -24 -59s-35.667 -24 -59 -24s-43 8 -59 24s-24 35.667 -24 59h166zM484.999 25.001
h-420.001v290c10.667 -12.667 22.334 -21.667 35.001 -27l385 -182v-81z" />
    <glyph glyph-name="minus" unicode="&#x2212;" horiz-adv-x="431" 
d="M376 251v47h-321v-47h321z" />
    <glyph glyph-name="radical" unicode="&#x221a;" horiz-adv-x="574" 
d="M561 658v54h-117l-170 -403l-43 -103.5l-39 -96.5h-2l-11.5 31.5l-12.5 31.5l-55 126h-82l-9 -60h51l105 -244h25l281 664h79z" />
    <glyph glyph-name="infinity" unicode="&#x221e;" horiz-adv-x="803" 
d="M744 0v453.003h-291v67c0 47.333 11.333 82.166 34 104.499s53 33.5 91 33.5c10.667 0 22 -1.16699 34 -3.5s22.667 -5.5 32 -9.5l13 54c-20 8.66699 -47.333 13 -82 13c-28.667 0 -54.667 -4 -78 -12s-43.333 -20.667 -60 -38c-19.333 14 -41.5 25.833 -66.5 35.5
s-54.167 14.5 -87.5 14.5c-27.333 0 -52.5 -3.83301 -75.5 -11.5s-42.667 -19.334 -59 -35.001s-29 -35.334 -38 -59.001s-13.5 -51.5 -13.5 -83.5v-70h-80v-52h80v-401h64v401h228v-401h64v401h228v-401h63zM407 613.003c-5.33301 -12.667 -9.66699 -26.5 -13 -41.5
s-5 -31.167 -5 -48.5v-70h-228v67c0 47.333 11.333 82.166 34 104.499s53 33.5 91 33.5c23.333 0 45.5 -4.16699 66.5 -12.5s39.167 -19.166 54.5 -32.499z" />
    <glyph glyph-name="integral" unicode="&#x222b;" horiz-adv-x="600" 
d="M565 151l-54.001 53.001v249h-472v-453h472v97c12.667 0 24.834 4.66699 36.501 14s17.5 22.666 17.5 39.999zM484.999 229.001l-159 159h159v-159zM230.999 388.001c0 -23.333 -8 -43 -24 -59s-35.667 -24 -59 -24s-43 8 -59 24s-24 35.667 -24 59h166zM484.999 25.001
h-420.001v290c10.667 -12.667 22.334 -21.667 35.001 -27l385 -182v-81z" />
    <glyph glyph-name="approxequal" unicode="&#x2248;" horiz-adv-x="463" 
d="M415 363l-11.998 52c-12.667 -14 -27.167 -25 -43.5 -33s-34.833 -12 -55.5 -12c-13.333 0 -25.333 2.33301 -36 7l-33 15c-10.667 5.33301 -21.5 10 -32.5 14s-23.833 6 -38.5 6c-48.667 0 -87.334 -16.333 -116.001 -49l13 -51c12.667 14 27.167 25 43.5 33
s34.5 12 54.5 12c12.667 0 24.5 -2.5 35.5 -7.5l34.5 -15.5c10.667 -5.33301 21.5 -9.83301 32.5 -13.5s23.833 -5.5 38.5 -5.5c49.333 0 87.666 16 114.999 48zM415.002 191l-11.998 52c-12.667 -14 -27.167 -25 -43.5 -33s-34.833 -12 -55.5 -12
c-13.333 0 -25.333 2.33301 -36 7l-33 15c-10.667 5.33301 -21.5 10 -32.5 14s-23.833 6 -38.5 6c-48.667 0 -87.334 -16.333 -116.001 -49l13 -51c12.667 14 27.167 25 43.5 33s34.5 12 54.5 12c12.667 0 24.5 -2.5 35.5 -7.5l34.5 -15.5
c10.667 -5.33301 21.5 -9.83301 32.5 -13.5s23.833 -5.5 38.5 -5.5c49.333 0 87.666 16 114.999 48z" />
    <glyph glyph-name="notequal" unicode="&#x2260;" horiz-adv-x="625" 
d="M657 699c-20 8.66699 -47.333 13.0029 -82 13.0029c-28.667 0 -54.667 -4 -78 -12s-43.333 -20.667 -60 -38c-19.333 14 -41.5 25.833 -66.5 35.5s-54.167 14.5 -87.5 14.5c-27.333 0 -52.5 -3.83301 -75.5 -11.5s-42.667 -19.334 -59 -35.001s-29 -35.334 -38 -59.001
s-13.5 -51.5 -13.5 -83.5v-70h-80v-52h80v-401h64v401h228v-401h64v401h132l11 52h-143v67c0 47.333 11.333 82.166 34 104.499s53 33.5 91 33.5c10.667 0 22 -1.16699 34 -3.5s22.667 -5.5 32 -9.5zM407 613.003c-5.33301 -12.667 -9.66699 -26.5 -13 -41.5
s-5 -31.167 -5 -48.5v-70h-228v67c0 47.333 11.333 82.166 34 104.499s53 33.5 91 33.5c23.333 0 45.5 -4.16699 66.5 -12.5s39.167 -19.166 54.5 -32.499z" />
    <glyph glyph-name="lessequal" unicode="&#x2264;" horiz-adv-x="462" 
d="M418 118v57l-322 102l322 102v58l-374 -122v-75zM418 0v55h-374v-55h374z" />
    <glyph glyph-name="greaterequal" unicode="&#x2265;" horiz-adv-x="462" 
d="M418 240v75l-374 122v-58l322 -102l-322 -102v-57zM418 0v55h-374v-55h374z" />
    <glyph glyph-name="lozenge" unicode="&#x25ca;" horiz-adv-x="591" 
d="M502 277l-212 212l-211 -212l211 -212zM440 277l-150 -149l-149 149l149 149z" />
    <glyph glyph-name="apple" unicode="&#xf8ff;" horiz-adv-x="600" 
d="M565 151l-54.001 53.001v249h-472v-453h472v97c12.667 0 24.834 4.66699 36.501 14s17.5 22.666 17.5 39.999zM484.999 229.001l-159 159h159v-159zM230.999 388.001c0 -23.333 -8 -43 -24 -59s-35.667 -24 -59 -24s-43 8 -59 24s-24 35.667 -24 59h166zM484.999 25.001
h-420.001v290c10.667 -12.667 22.334 -21.667 35.001 -27l385 -182v-81z" />
    <glyph glyph-name="fi" unicode="&#xfb01;" horiz-adv-x="512" 
d="M453 0v453.003h-292v67c0 47.333 11.333 82.166 34 104.499s53 33.5 91 33.5c10.667 0 22 -1.16699 34 -3.5s22.667 -5.5 32 -9.5l14 54c-10.667 4.66699 -23 8 -37 10s-29.333 3 -46 3c-27.333 0 -52.5 -3.83301 -75.5 -11.5s-42.667 -19.334 -59 -35.001
s-29 -35.334 -38 -59.001s-13.5 -51.5 -13.5 -83.5v-70h-80v-52h80v-401h64v401h228v-401h64z" />
    <glyph glyph-name="fl" unicode="&#xfb02;" horiz-adv-x="535" 
d="M510 28c-15.333 3.33301 -28.665 11.835 -39.998 25.502s-17 31.167 -17 52.5v543c-18 16 -41.333 30.5 -70 43.5s-62 19.5 -100 19.5c-27.333 0 -52.5 -3.83301 -75.5 -11.5s-42.667 -19.334 -59 -35.001s-29 -35.334 -38 -59.001s-13.5 -51.5 -13.5 -83.5v-70h-80v-52
h80v-401h64v401h114v52h-114v67c0 47.333 11.333 82.166 34 104.499s53 33.5 91 33.5c20.667 0 40.167 -3.16699 58.5 -9.5s33.166 -14.166 44.499 -23.499v-526c0 -18 2.5 -33.667 7.5 -47s11.167 -24.5 18.5 -33.5s15.666 -16.167 24.999 -21.5s18.333 -9.33301 27 -12z
" />
    <glyph glyph-name=".null" horiz-adv-x="0" 
 />
    <glyph glyph-name="nonmarkingreturn" 
 />
    </font>
</defs>
</svg>
