<?xml version="1.0" standalone="no"?>
<!DOCTYPE svg PUBLIC "-//W3C//DTD SVG 1.1//EN" "http://www.w3.org/Graphics/SVG/1.1/DTD/svg11.dtd" >
<svg>
<metadata>
Created by FontForge 20090914 at Wed Dec  2 21:25:59 2015
 By www-data
Copyright (c) The Font Bureau, Inc, 2001. All rights reserved.
</metadata>
<defs>
<font id="Agenda-RegularItalic" horiz-adv-x="500" >
  <font-face 
    font-family="Agenda-RegularItalic"
    font-weight="400"
    font-style="italic"
    font-stretch="normal"
    units-per-em="1000"
    panose-1="2 0 6 3 4 0 0 9 0 4"
    ascent="766"
    descent="-234"
    x-height="453"
    cap-height="638"
    bbox="-152.998 -234.001 996 916.999"
    underline-thickness="20"
    underline-position="-70"
    unicode-range="U+0020-U+FB02"
  />
<missing-glyph 
 />
    <glyph glyph-name=".notdef" 
 />
    <glyph glyph-name="space" unicode=" " horiz-adv-x="235" 
 />
    <glyph glyph-name="exclam" unicode="!" horiz-adv-x="252" 
d="M234 638h-87l-66 -452l58 -15zM140 41c0 4 -1.66699 9.16602 -5 15.499s-7.5 12.5 -12.5 18.5s-10.167 11 -15.5 15s-10.333 6 -15 6c-4 0 -9.33301 -1.83301 -16 -5.5s-13.167 -8.16699 -19.5 -13.5s-11.833 -11 -16.5 -17s-7 -11.333 -7 -16
c0 -4 1.66699 -9.16699 5 -15.5s7.5 -12.333 12.5 -18s10.167 -10.5 15.5 -14.5s10.333 -6 15 -6c4 0 9.33301 1.83301 16 5.5s13.167 8.16699 19.5 13.5s11.833 10.833 16.5 16.5s7 10.834 7 15.501z" />
    <glyph glyph-name="quotedbl" unicode="&#x22;" horiz-adv-x="290" 
d="M315 638h-70l-23 -214h41zM169 638h-70l-24 -214h41z" />
    <glyph glyph-name="numbersign" unicode="#" horiz-adv-x="365" 
d="M397 638h-55l-65 -207h-103l66 207h-55l-66 -207h-81v-48h66l-41 -127h-69v-49h53l-66 -207h54l66 207h103l-66 -207h54l66 207h81v49h-65l41 127h68v48h-52zM261 383l-41 -127h-103l41 127h103z" />
    <glyph glyph-name="dollar" unicode="$" horiz-adv-x="456" 
d="M194 -4c28 2.66699 54.168 9.16895 78.501 19.502s45.5 24.166 63.5 41.499s32.333 37.833 43 61.5s16 50.167 16 79.5c0 39.333 -13.167 73.166 -39.5 101.499s-62.5 51.833 -108.5 70.5c-33.333 13.333 -57.5 27.833 -72.5 43.5s-22.5 34.167 -22.5 55.5
c0 18 4 33.833 12 47.5s18.5 25.167 31.5 34.5s27.667 16.5 44 21.5s32.5 7.5 48.5 7.5c24.667 0 46.334 -3 65.001 -9s35.667 -14 51 -24l27 61c-17.333 11.333 -36.333 19.833 -57 25.5s-42.667 9.16699 -66 10.5l16 93h-47l-17 -95
c-25.333 -3.33301 -48.833 -9.83301 -70.5 -19.5s-40.834 -22.5 -57.501 -38.5s-29.667 -34.667 -39 -56s-14 -45 -14 -71c0 -68.667 46.667 -120.667 140 -156c34 -13.333 59.5 -29.666 76.5 -48.999s25.5 -41 25.5 -65c0 -20 -4.66699 -38 -14 -54
s-21.333 -29.333 -36 -40s-31.167 -18.834 -49.5 -24.501s-36.833 -8.5 -55.5 -8.5c-32 0 -59 4.83301 -81 14.5s-40.667 21.167 -56 34.5l-28 -64c19.333 -16 41.166 -28 65.499 -36s50.833 -12.667 79.5 -14l-16 -92h48z" />
    <glyph glyph-name="percent" unicode="%" horiz-adv-x="699" 
d="M355 536c0 34.667 -11.167 62.333 -33.5 83s-50.5 31 -84.5 31c-22 0 -42.833 -4.33301 -62.5 -13s-37.167 -20.167 -52.5 -34.5s-27.5 -31.333 -36.5 -51s-13.5 -40.5 -13.5 -62.5c0 -34.667 11.167 -62.667 33.5 -84s50.5 -32 84.5 -32c22 0 42.833 4.33301 62.5 13
s37.167 20.5 52.5 35.5s27.5 32.333 36.5 52s13.5 40.5 13.5 62.5zM690 626.999l-35 34l-638 -649l35 -34zM635 150.999c0 34.667 -11.167 62.5 -33.5 83.5s-50.5 31.5 -84.5 31.5c-22 0 -42.833 -4.33301 -62.5 -13s-37.167 -20.334 -52.5 -35.001
s-27.5 -31.834 -36.5 -51.501s-13.5 -40.5 -13.5 -62.5c0 -34.667 11.167 -62.5 33.5 -83.5s50.5 -31.5 84.5 -31.5c22 0 42.833 4.33301 62.5 13s37.167 20.334 52.5 35.001s27.5 31.834 36.5 51.501s13.5 40.5 13.5 62.5zM294 534.999
c0 -13.333 -2.66699 -26.334 -8 -39.001s-12.666 -24 -21.999 -34s-20 -18 -32 -24s-25 -9 -39 -9c-18 0 -32.5 5.66699 -43.5 17s-16.5 26 -16.5 44c0 13.333 2.66699 26.333 8 39s12.666 23.834 21.999 33.501s20 17.5 32 23.5s25 9 39 9c18 0 32.5 -5.5 43.5 -16.5
s16.5 -25.5 16.5 -43.5zM574 149.998c0 -13.333 -2.66699 -26.334 -8 -39.001s-12.666 -24 -21.999 -34s-20 -18 -32 -24s-25 -9 -39 -9c-18 0 -32.5 5.66699 -43.5 17s-16.5 26 -16.5 44c0 13.333 2.66699 26.333 8 39s12.666 23.834 21.999 33.501s20 17.5 32 23.5
s25 9 39 9c18 0 32.5 -5.5 43.5 -16.5s16.5 -25.5 16.5 -43.5z" />
    <glyph glyph-name="ampersand" unicode="&#x26;" horiz-adv-x="639" 
d="M664 355l-300.001 -0.00585938l-12 -66h105l-34 -193c-17.333 -10.667 -40 -20.334 -68 -29.001s-58.667 -13 -92 -13c-26 0 -48.667 3.33301 -68 10s-35.5 15.667 -48.5 27s-22.667 24.5 -29 39.5s-9.5 30.833 -9.5 47.5c0 4 0.166992 7.83301 0.5 11.5
s0.833008 7.5 1.5 11.5c3.33301 19.333 10.166 35.833 20.499 49.5s22.333 25 36 34s28.334 15.5 44.001 19.5s30.167 6 43.5 6l23 60c-31.333 4.66699 -55 16.334 -71 35.001s-24 39.667 -24 63v8c0 2.66699 0.333008 5.33398 1 8.00098c2 12 6.66699 23.833 14 35.5
s16.833 21.834 28.5 30.501s25.167 15.667 40.5 21s32.333 8 51 8c24 0 46.167 -3.5 66.5 -10.5s36.166 -14.167 47.499 -21.5l24 62c-11.333 8.66699 -29 16.667 -53 24s-50.667 11 -80 11c-32 0 -60.5 -3.83301 -85.5 -11.5s-46.333 -18.334 -64 -32.001
s-31.667 -29.667 -42 -48s-17.5 -38.166 -21.5 -59.499c-0.666992 -4 -1.16699 -8 -1.5 -12s-0.5 -8 -0.5 -12c0 -24.667 6 -48.167 18 -70.5s28.333 -39.166 49 -50.499c-10.667 -2 -23 -6.16699 -37 -12.5s-27.5 -15 -40.5 -26s-24.667 -25 -35 -42
s-17.5 -37.167 -21.5 -60.5c-2 -12 -3 -24 -3 -36c0 -25.333 4.83301 -49.166 14.5 -71.499s23.834 -41.666 42.501 -57.999s41.834 -29.166 69.501 -38.499s59.167 -14 94.5 -14c48 0 92 6.16699 132 18.5s73.667 28.5 101 48.5l41 233h105z" />
    <glyph glyph-name="quotesingle" unicode="'" horiz-adv-x="144" 
d="M169 638h-70l-24 -214h41z" />
    <glyph glyph-name="parenleft" unicode="(" horiz-adv-x="235" 
d="M299 693l-75.001 17c-66 -94 -117 -196.5 -153 -307.5s-54 -224.167 -54 -339.5c0 -48 4 -93.833 12 -137.5s19.667 -88.167 35 -133.5l71 -18c-14.667 46 -26 92.667 -34 140s-12 95.333 -12 144c0 114 18.333 225.333 55 334s88.334 209 155.001 301z" />
    <glyph glyph-name="parenright" unicode=")" horiz-adv-x="235" 
d="M202 422c0 48 -4.00098 93.833 -12.001 137.5s-19.667 88.167 -35 133.5l-71 18c14.667 -46 25.834 -92.333 33.501 -139s11.5 -94 11.5 -142c0 -114 -18.167 -225.833 -54.5 -335.5s-87.833 -210.5 -154.5 -302.5l74 -17c66 95.333 117.167 198 153.5 308
s54.5 223 54.5 339z" />
    <glyph glyph-name="asterisk" unicode="*" horiz-adv-x="411" 
d="M439 523l-25 60l-139 -51l35 155l-71 -16l-18 -139l-133 54l-16 -65l128 -36l-117 -121l58 -30l96 118l63 -129l52 49l-69 111z" />
    <glyph glyph-name="plus" unicode="+" horiz-adv-x="459" 
d="M421 309h-152l25 144h-69l-25 -144h-153l-11 -64h153l-26 -144h70l25 144h152z" />
    <glyph glyph-name="comma" unicode="," horiz-adv-x="191" 
d="M107 43c0 4.66699 -1.66797 10 -5.00098 16s-7.5 11.667 -12.5 17s-10.167 10 -15.5 14s-10.333 6 -15 6s-10.334 -1.83301 -17.001 -5.5s-13.167 -8.16699 -19.5 -13.5s-11.666 -11 -15.999 -17s-6.5 -11.333 -6.5 -16c0 -8.66699 4.83301 -17.834 14.5 -27.501
s18.5 -15.5 26.5 -17.5c-3.33301 -20 -11.666 -40.667 -24.999 -62s-27 -39 -41 -53l31 -5c10 8.66699 21 19.5 33 32.5s23 26.833 33 41.5s18.333 29.834 25 45.501s10 30.5 10 44.5z" />
    <glyph glyph-name="hyphen" unicode="-" horiz-adv-x="335" 
d="M297 309h-250l-11 -64h250z" />
    <glyph glyph-name="hyphen" unicode="&#xad;" horiz-adv-x="335" 
d="M297 309h-250l-11 -64h250z" />
    <glyph glyph-name="period" unicode="." horiz-adv-x="191" 
d="M107 41c0 4 -1.66699 9.16602 -5 15.499s-7.5 12.5 -12.5 18.5s-10.167 11 -15.5 15s-10.333 6 -15 6c-4 0 -9.33301 -1.83301 -16 -5.5s-13.167 -8.16699 -19.5 -13.5s-11.833 -11 -16.5 -17s-7 -11.333 -7 -16c0 -4 1.66699 -9.16699 5 -15.5s7.33301 -12.333 12 -18
s9.66699 -10.5 15 -14.5s10.333 -6 15 -6c4 0 9.5 1.83301 16.5 5.5s13.667 8.16699 20 13.5s11.833 10.833 16.5 16.5s7 10.834 7 15.501z" />
    <glyph glyph-name="slash" unicode="/" horiz-adv-x="466" 
d="M489 639l-55 30l-544 -800l54 -29z" />
    <glyph glyph-name="zero" unicode="0" horiz-adv-x="509" 
d="M404 321c-8 -46 -19 -85.668 -33 -119.001s-29.5 -61 -46.5 -83s-35 -38.167 -54 -48.5s-37.5 -15.5 -55.5 -15.5c-28.667 0 -52.167 12.667 -70.5 38s-27.5 65.333 -27.5 120c0 15.333 0.833008 31.833 2.5 49.5s4.16699 36.5 7.5 56.5c8 46 19 85.667 33 119
s29.667 60.833 47 82.5s35.5 37.667 54.5 48s37.5 15.5 55.5 15.5c28 0 51.167 -12.667 69.5 -38s27.5 -65.333 27.5 -120c0 -15.333 -0.833008 -31.666 -2.5 -48.999s-4.16699 -36 -7.5 -56zM478 311.999c3.33301 19.333 5.83203 37.5 7.49902 54.5s2.5 33.5 2.5 49.5
c0 38 -4.16699 71.5 -12.5 100.5s-19.833 53.5 -34.5 73.5s-32 35 -52 45s-41.667 15 -65 15c-28.667 0 -57.167 -6.66699 -85.5 -20s-54.666 -33.333 -78.999 -60s-45.833 -60.167 -64.5 -100.5s-32.667 -87.833 -42 -142.5c-6.66699 -37.333 -10 -72.666 -10 -105.999
c0 -38 4.16699 -71.5 12.5 -100.5s19.833 -53.167 34.5 -72.5s32 -34 52 -44s42 -15 66 -15c28 0 56 6.5 84 19.5s54.167 32.833 78.5 59.5s45.833 60.167 64.5 100.5s33 88.166 43 143.499z" />
    <glyph glyph-name="one" unicode="1" horiz-adv-x="261" 
d="M257 645l-175 -16l-26 -62l116 11l-102 -578h74z" />
    <glyph glyph-name="two" unicode="2" horiz-adv-x="454" 
d="M412 490c0 49.333 -14.6631 87.333 -43.9961 114s-68 40 -116 40c-25.333 0 -50.5 -3 -75.5 -9s-48.833 -15.667 -71.5 -29l10 -65c19.333 11.333 40.166 20.5 62.499 27.5s44.833 10.5 67.5 10.5c29.333 0 52 -7.66699 68 -23s24 -38 24 -68c0 -12 -1 -23.333 -3 -34
c-4.66699 -22.667 -13.834 -47 -27.501 -73s-30.334 -52.5 -50.001 -79.5s-41.5 -54 -65.5 -81l-72 -78l-69.5 -69.5l-59.5 -56l-3 -17h375l11 64h-249l91 86.5c33.333 32.333 64.666 67 93.999 104s53.833 75.5 73.5 115.5s29.5 80 29.5 120z" />
    <glyph glyph-name="three" unicode="3" horiz-adv-x="434" 
d="M379 520c0 20 -3.82715 37.833 -11.4941 53.5s-18 28.667 -31 39s-28.167 18.166 -45.5 23.499s-35.333 8 -54 8c-43.333 0 -85 -10.333 -125 -31l10 -63c17.333 9.33301 34.666 16.666 51.999 21.999s36 8 56 8c21.333 0 39.166 -5.16699 53.499 -15.5
s21.5 -26.833 21.5 -49.5c0 -18.667 -4.66699 -35.167 -14 -49.5s-21.333 -26.833 -36 -37.5s-30.5 -19.167 -47.5 -25.5s-33.5 -10.833 -49.5 -13.5l11 -61c4.66699 0.666992 9 1.16699 13 1.5s8.33301 0.5 13 0.5c31.333 0 57 -9.66699 77 -29s30 -45 30 -77
c0 -24 -5 -46.167 -15 -66.5s-23.333 -37.666 -40 -51.999s-35.834 -25.5 -57.501 -33.5s-43.834 -12 -66.501 -12c-18.667 0 -37.167 2.33301 -55.5 7s-35.5 11.667 -51.5 21l-4 -69c16.667 -8 34.667 -14 54 -18s38 -6 56 -6c30.667 0 60 3.83301 88 11.5
s53.167 19.334 75.5 35.001s41.166 35.5 56.499 59.5s25.666 52 30.999 84c2 12.667 3 25.334 3 38.001c0 36 -10 67.667 -30 95s-48.333 44.333 -85 51c16.667 4.66699 32.167 11.834 46.5 21.501s26.833 21.167 37.5 34.5s19 28.166 25 44.499s9 33.166 9 50.499z" />
    <glyph glyph-name="four" unicode="4" horiz-adv-x="480" 
d="M428 638h-56l-374 -400l10 -59h266l-31 -179h74l31 179h73l10 60h-72zM333 509c-3.33301 -16 -6.16699 -31.167 -8.5 -45.5l-7.5 -44.5l-32 -180h-203l167 179l41 44.5c14 15 27.667 30.833 41 47.5z" />
    <glyph glyph-name="five" unicode="5" horiz-adv-x="455" 
d="M425 638h-272.003l-66 -321c18.667 7.33301 37.834 12.333 57.501 15s39.167 4 58.5 4c16.667 0 32.334 -2.5 47.001 -7.5s27.5 -12.167 38.5 -21.5s19.667 -20.833 26 -34.5s9.5 -29.5 9.5 -47.5c0 -23.333 -4.66699 -45 -14 -65s-22 -37.333 -38 -52
s-34.333 -26.167 -55 -34.5s-42.334 -12.5 -65.001 -12.5c-21.333 0 -42.166 2.66699 -62.499 8s-39.5 13.666 -57.5 24.999l-4 -70c17.333 -10.667 37 -18 59 -22s42.667 -6 62 -6c34.667 0 67.167 5.5 97.5 16.5s56.833 26.833 79.5 47.5s40.667 45.334 54 74.001
s20 61 20 97c0 26 -4.5 49.667 -13.5 71s-21.5 39.333 -37.5 54s-35 26 -57 34s-45.667 12 -71 12c-13.333 0 -27.666 -1.66699 -42.999 -5l36 177h186z" />
    <glyph glyph-name="six" unicode="6" horiz-adv-x="496" 
d="M374 192c-3.33301 -20.667 -10 -39.4971 -20 -56.4971s-22.167 -31.667 -36.5 -44s-30.333 -21.833 -48 -28.5s-35.834 -10 -54.501 -10c-32.667 0 -59.334 10.667 -80.001 32s-31 49 -31 83c0 9.33301 1 19 3 29c1.33301 5.33301 2.33301 10.666 3 15.999
s1.66699 10.666 3 15.999c8 18 17.833 33.333 29.5 46s24.334 23.167 38.001 31.5s27.834 14.333 42.501 18s28.667 5.5 42 5.5c36 0 63.667 -9.83301 83 -29.5s29 -45.834 29 -78.501c0 -9.33301 -1 -19.333 -3 -30zM473 620.003l-68 36.001
c-46 -22.667 -89.667 -50 -131 -82s-78.5 -67 -111.5 -105s-60.667 -78 -83 -120s-37.166 -84.333 -44.499 -127c-1.33301 -9.33301 -2.5 -18.166 -3.5 -26.499s-1.5 -16.5 -1.5 -24.5c0 -28.667 4.5 -54.167 13.5 -76.5s21.333 -41.333 37 -57s34.167 -27.5 55.5 -35.5
s44.666 -12 69.999 -12c30 0 58.5 4.83301 85.5 14.5s51.167 23.167 72.5 40.5s39.333 38 54 62s24.667 50.667 30 80c1.33301 7.33301 2.33301 14.166 3 20.499s1 12.833 1 19.5c0 24 -4 46.5 -12 67.5s-19.167 39 -33.5 54s-31.833 26.833 -52.5 35.5s-44 13 -70 13
s-49.333 -4.83301 -70 -14.5s-38.667 -21.834 -54 -36.501c32.667 58.667 76 111 130 157s115 85 183 117z" />
    <glyph glyph-name="seven" unicode="7" horiz-adv-x="449" 
d="M487 638h-419l-10 -63h309l-349 -575h84z" />
    <glyph glyph-name="eight" unicode="8" horiz-adv-x="502" 
d="M372 177c-3.33301 -18.667 -10.167 -35.501 -20.5 -50.501s-22.833 -27.833 -37.5 -38.5s-31.167 -19 -49.5 -25s-36.833 -9 -55.5 -9c-32.667 0 -59.667 8.5 -81 25.5s-32 40.5 -32 70.5c0 3.33301 0.166992 6.83301 0.5 10.5s0.833008 7.5 1.5 11.5
c2.66699 18 9.5 34.667 20.5 50s24 29 39 41s31.333 22.333 49 31s35.167 15.334 52.5 20.001c14.667 -4 29 -9.66699 43 -17s26.333 -16 37 -26s19.167 -21.333 25.5 -34s9.5 -26.667 9.5 -42c0 -3.33301 -0.166992 -6.33301 -0.5 -9s-0.833008 -5.66699 -1.5 -9z
M401.999 494.999c-4.66699 -25.333 -18.501 -48.6699 -41.501 -70.0029s-52.167 -36.666 -87.5 -45.999c-29.333 8.66699 -51.833 20.834 -67.5 36.501s-23.5 34.167 -23.5 55.5c0 6.66699 0.333008 11.667 1 15c2.66699 14 7.83398 27.167 15.501 39.5s17.334 23 29.001 32
s24.667 16.167 39 21.5s29.166 8 44.499 8c28 0 50.333 -6.66699 67 -20s25 -31.666 25 -54.999v-9c0 -2 -0.333008 -4.66699 -1 -8zM472.998 488.995c1.33301 4.66699 2.00098 9.33203 2.00098 13.999v13c0 40 -14.333 72.333 -43 97s-66 37 -112 37
c-25.333 0 -49.833 -3.66699 -73.5 -11s-44.834 -17.666 -63.501 -30.999s-34.334 -29.5 -47.001 -48.5s-21 -40.167 -25 -63.5c-0.666992 -4 -1.16699 -8 -1.5 -12s-0.5 -8 -0.5 -12c0 -30 8.66699 -55.167 26 -75.5s37 -34.833 59 -43.5
c-15.333 -4.66699 -31.833 -12 -49.5 -22s-34.5 -22.333 -50.5 -37s-30.167 -31.667 -42.5 -51s-20.5 -41 -24.5 -65c-2 -12 -3 -23.333 -3 -34c0 -24 4.66699 -45.5 14 -64.5s22 -35.333 38 -49s35 -24 57 -31s45.667 -10.5 71 -10.5c28.667 0 56.334 4 83.001 12
s51 19.833 73 35.5s40.5 34.667 55.5 57s25.167 48.166 30.5 77.499c2 10 3 19.667 3 29c0 20 -3.33301 38.167 -10 54.5s-15.167 30.833 -25.5 43.5s-22 23 -35 31s-25.5 14 -37.5 18c14 4.66699 28.333 11.334 43 20.001s28 19.167 40 31.5s22.333 26 31 41
s14.667 31.5 18 49.5z" />
    <glyph glyph-name="nine" unicode="9" horiz-adv-x="496" 
d="M413 440c-0.666992 -6 -2.33398 -13.334 -5.00098 -22.001c-7.33301 -19.333 -16.833 -36.166 -28.5 -50.499s-24.5 -26 -38.5 -35s-28.5 -15.667 -43.5 -20s-29.5 -6.5 -43.5 -6.5c-36 0 -63.667 10 -83 30s-29 46.333 -29 79c0 8.66699 1 18.667 3 30
c3.33301 20.667 10 39.5 20 56.5s22.167 31.667 36.5 44s30.333 21.833 48 28.5s35.834 10 54.501 10c32.667 0 59.5 -10.833 80.5 -32.5s31.5 -49.5 31.5 -83.5c0 -8.66699 -1 -18 -3 -28zM483 416.999c1.33301 9.33301 2.50098 18.165 3.50098 26.498s1.5 16.5 1.5 24.5
c0 28.667 -4.5 54.167 -13.5 76.5s-21.333 41.333 -37 57s-34.334 27.667 -56.001 36s-44.834 12.5 -69.501 12.5c-30 0 -58.5 -4.83301 -85.5 -14.5s-51.167 -23.167 -72.5 -40.5s-39.166 -38 -53.499 -62s-24.166 -50.667 -29.499 -80
c-1.33301 -7.33301 -2.33301 -14.166 -3 -20.499s-1 -12.833 -1 -19.5c0 -24 4 -46.5 12 -67.5s19.333 -39 34 -54s32.334 -26.833 53.001 -35.5s43.667 -13 69 -13c28 0 52.333 5.16699 73 15.5s39 23.5 55 39.5c-32.667 -60 -76.334 -113 -131.001 -159
s-116.667 -85.667 -186 -119l68 -36c46 22.667 89.667 49.834 131 81.501s78.333 66.5 111 104.5s60.167 78 82.5 120s37.166 84.333 44.499 127z" />
    <glyph glyph-name="colon" unicode=":" horiz-adv-x="191" 
d="M171 409c0 4 -1.66699 9.16699 -5 15.5s-7.33301 12.5 -12 18.5s-9.66699 11 -15 15s-10.333 6 -15 6c-4 0 -9.5 -2 -16.5 -6s-13.667 -8.66699 -20 -14s-11.833 -11 -16.5 -17s-7 -11.333 -7 -16c0 -4 1.66699 -9.16699 5 -15.5s7.33301 -12.333 12 -18
s9.66699 -10.5 15 -14.5s10.333 -6 15 -6c4 0 9.5 1.83301 16.5 5.5s13.667 8.16699 20 13.5s11.833 11 16.5 17s7 11.333 7 16zM107 41c0 4 -1.66699 9.16602 -5 15.499s-7.5 12.5 -12.5 18.5s-10.167 11 -15.5 15s-10.333 6 -15 6c-4 0 -9.33301 -1.83301 -16 -5.5
s-13.167 -8.16699 -19.5 -13.5s-11.833 -11 -16.5 -17s-7 -11.333 -7 -16c0 -4 1.66699 -9.16699 5 -15.5s7.33301 -12.333 12 -18s9.66699 -10.5 15 -14.5s10.333 -6 15 -6c4 0 9.5 1.83301 16.5 5.5s13.667 8.16699 20 13.5s11.833 10.833 16.5 16.5s7 10.834 7 15.501z
" />
    <glyph glyph-name="semicolon" unicode=";" horiz-adv-x="191" 
d="M171 409c0 4 -1.66699 9.16699 -5 15.5s-7.33301 12.5 -12 18.5s-9.66699 11 -15 15s-10.333 6 -15 6c-4 0 -9.5 -2 -16.5 -6s-13.667 -8.66699 -20 -14s-11.833 -11 -16.5 -17s-7 -11.333 -7 -16c0 -4 1.66699 -9.16699 5 -15.5s7.33301 -12.333 12 -18
s9.66699 -10.5 15 -14.5s10.333 -6 15 -6c4 0 9.5 1.83301 16.5 5.5s13.667 8.16699 20 13.5s11.833 11 16.5 17s7 11.333 7 16zM107 43c0 4.66699 -1.66797 10 -5.00098 16s-7.5 11.667 -12.5 17s-10.167 10 -15.5 14s-10.333 6 -15 6c-4 0 -9.33301 -1.83301 -16 -5.5
s-13.167 -8.16699 -19.5 -13.5s-11.833 -10.833 -16.5 -16.5s-7 -10.834 -7 -15.501c0 -4 1.33301 -8.5 4 -13.5s6.16699 -9.83301 10.5 -14.5s8.83301 -8.66699 13.5 -12s9 -5.33301 13 -6c-3.33301 -20 -11.666 -40.667 -24.999 -62s-27 -39 -41 -53l31 -5
c10 8.66699 21 19.5 33 32.5s23 26.833 33 41.5s18.333 29.834 25 45.501s10 30.5 10 44.5z" />
    <glyph glyph-name="semicolon" unicode="&#x37e;" horiz-adv-x="191" 
d="M171 409c0 4 -1.66699 9.16699 -5 15.5s-7.33301 12.5 -12 18.5s-9.66699 11 -15 15s-10.333 6 -15 6c-4 0 -9.5 -2 -16.5 -6s-13.667 -8.66699 -20 -14s-11.833 -11 -16.5 -17s-7 -11.333 -7 -16c0 -4 1.66699 -9.16699 5 -15.5s7.33301 -12.333 12 -18
s9.66699 -10.5 15 -14.5s10.333 -6 15 -6c4 0 9.5 1.83301 16.5 5.5s13.667 8.16699 20 13.5s11.833 11 16.5 17s7 11.333 7 16zM107 43c0 4.66699 -1.66797 10 -5.00098 16s-7.5 11.667 -12.5 17s-10.167 10 -15.5 14s-10.333 6 -15 6c-4 0 -9.33301 -1.83301 -16 -5.5
s-13.167 -8.16699 -19.5 -13.5s-11.833 -10.833 -16.5 -16.5s-7 -10.834 -7 -15.501c0 -4 1.33301 -8.5 4 -13.5s6.16699 -9.83301 10.5 -14.5s8.83301 -8.66699 13.5 -12s9 -5.33301 13 -6c-3.33301 -20 -11.666 -40.667 -24.999 -62s-27 -39 -41 -53l31 -5
c10 8.66699 21 19.5 33 32.5s23 26.833 33 41.5s18.333 29.834 25 45.501s10 30.5 10 44.5z" />
    <glyph glyph-name="less" unicode="&#x3c;" horiz-adv-x="459" 
d="M445 444l-396 -123l-16 -87l354 -123l10 64l-296 100l331 100z" />
    <glyph glyph-name="equal" unicode="=" horiz-adv-x="459" 
d="M436 395h-374l-11 -64h374zM406 223h-374l-11 -64h374z" />
    <glyph glyph-name="greater" unicode="&#x3e;" horiz-adv-x="459" 
d="M423 321l-352 123l-11 -64l297 -100l-332 -100l-12 -69l394 123z" />
    <glyph glyph-name="question" unicode="?" horiz-adv-x="374" 
d="M261 335c14.667 12 28.834 24.834 42.501 38.501s25.834 28.167 36.501 43.5s19.334 31.666 26.001 48.999s10 36 10 56s-4 38 -12 54s-19 29.5 -33 40.5s-30.5 19.333 -49.5 25s-39.5 8.5 -61.5 8.5c-26 0 -49.833 -3.33301 -71.5 -10s-41.167 -15 -58.5 -25l10 -66
c17.333 10 35.666 18.333 54.999 25s40.333 10 63 10c25.333 0 44.666 -7 57.999 -21s20 -30.333 20 -49c0 -13.333 -2.66699 -25.833 -8 -37.5s-12 -22.667 -20 -33s-17 -20 -27 -29l-29 -25.5c-30 -25.333 -52 -52.833 -66 -82.5s-21 -63.834 -21 -102.501v-9
c0 -2.66699 0.333008 -5.33398 1 -8.00098l64 -16c0 2.66699 -0.166992 5.33398 -0.5 8.00098s-0.5 5.66699 -0.5 9c0 32.667 5.66699 59.834 17 81.501s29.666 43.5 54.999 65.5zM128 -9.99902c4 0 9.5 1.83301 16.5 5.5s13.667 8.16699 20 13.5s11.833 11 16.5 17
s7 11 7 15c0 4.66699 -1.66699 10.167 -5 16.5s-7.5 12.333 -12.5 18s-10.167 10.5 -15.5 14.5s-10.333 6 -15 6c-4 0 -9.33301 -1.83301 -16 -5.5s-13.167 -8.16699 -19.5 -13.5s-11.833 -11 -16.5 -17s-7 -11.333 -7 -16c0 -4 1.66699 -9.16699 5 -15.5
s7.33301 -12.333 12 -18s9.66699 -10.5 15 -14.5s10.333 -6 15 -6z" />
    <glyph glyph-name="at" unicode="@" horiz-adv-x="768" 
d="M497 431l-15.001 -84.001c-9.33301 -51.333 -25.5 -90 -48.5 -116s-47.5 -39 -73.5 -39c-24 0 -40.833 8.16699 -50.5 24.5s-14.5 34.5 -14.5 54.5c0 4.66699 0.166992 9 0.5 13s0.833008 8.33301 1.5 13c4 22 11 41.833 21 59.5s22 32.834 36 45.501
s29.5 22.5 46.5 29.5s34.5 10.5 52.5 10.5c9.33301 0 17.833 -1.16699 25.5 -3.5s13.834 -4.83301 18.501 -7.5zM732.999 336.999c1.33301 9.33301 2.5 18.334 3.5 27.001s1.5 17.667 1.5 27c0 38 -7 72.833 -21 104.5s-33.667 59 -59 82s-55.333 41 -90 54
s-72.334 19.5 -113.001 19.5c-49.333 0 -96.166 -8.16699 -140.499 -24.5s-84.333 -39 -120 -68s-65.5 -63.167 -89.5 -102.5s-40 -82.333 -48 -129c-4 -22 -6 -43.667 -6 -65c0 -36.667 5.66699 -71.334 17 -104.001s28.166 -61.167 50.499 -85.5
s49.666 -43.666 81.999 -57.999s69.5 -21.5 111.5 -21.5c26 0 50 2.5 72 7.5s39 10.833 51 17.5l12 65c-16 -10 -35.167 -18 -57.5 -24s-44.5 -9 -66.5 -9c-35.333 0 -66.166 5.5 -92.499 16.5s-48.166 26 -65.499 45s-30.5 41.5 -39.5 67.5s-13.5 53.667 -13.5 83
c0 9.33301 0.5 18.666 1.5 27.999s2.16699 18.666 3.5 27.999c7.33301 41.333 21.166 79 41.499 113s45.333 63.333 75 88s63 43.667 100 57s75.5 20 115.5 20c33.333 0 64 -5 92 -15s52.167 -24.167 72.5 -42.5s36.166 -40.166 47.499 -65.499s17 -53.333 17 -84
c0 -15.333 -1.33301 -29.666 -4 -42.999c-4 -22 -10.5 -42.333 -19.5 -61s-19.167 -34.834 -30.5 -48.501s-23.166 -24.167 -35.499 -31.5s-23.833 -11 -34.5 -11c-9.33301 0 -15.833 3.16699 -19.5 9.5s-5.5 14.166 -5.5 23.499v8c0 2.66699 0.333008 5.33398 1 8.00098
l38 218c-9.33301 9.33301 -23.333 18 -42 26s-41 12 -67 12c-24.667 0 -49.334 -4.5 -74.001 -13.5s-47.5 -21.833 -68.5 -38.5s-39.167 -37.167 -54.5 -61.5s-25.666 -51.5 -30.999 -81.5c-2 -11.333 -3 -22.666 -3 -33.999c0 -17.333 2.33301 -34 7 -50
s11.667 -30.333 21 -43s21.333 -22.834 36 -30.501s32 -11.5 52 -11.5c30 0 56.5 7.16699 79.5 21.5s40.167 36.5 51.5 66.5h2c-0.666992 -2.66699 -1 -5.33398 -1 -8.00098v-8c0 -19.333 5.5 -36.166 16.5 -50.499s28.167 -21.5 51.5 -21.5c25.333 0 48.5 5.66699 69.5 17
s39.667 26.5 56 45.5s29.833 40.5 40.5 64.5s18.334 49 23.001 75z" />
    <glyph glyph-name="A" unicode="A" horiz-adv-x="608" 
d="M534 0l-152 647h-28l-380 -647h78l101 174h262l40 -174h79zM399 237h-207.999l103 181l24 44c8.66699 16 16.667 31.667 24 47h2c2 -15.333 4.16699 -31 6.5 -47s5.16602 -30.667 8.49902 -44z" />
    <glyph glyph-name="B" unicode="B" horiz-adv-x="511" 
d="M457 217c0 16 -2.33301 31.332 -7 45.999s-11.5 28.334 -20.5 41.001s-19.833 23.5 -32.5 32.5s-27 15.5 -43 19.5c14 5.33301 26.5 13.5 37.5 24.5s20.333 23.167 28 36.5s13.5 27.666 17.5 42.999s6 30 6 44c0 20.667 -4 39.334 -12 56.001
s-18.833 30.834 -32.5 42.501s-29.5 20.5 -47.5 26.5s-37 9 -57 9h-165l-111 -638h198c30 0 59.5 5.33301 88.5 16s54.667 25.667 77 45s40.5 42.166 54.5 68.499s21 55.5 21 87.5zM365 498.999c0 -18 -3.66602 -34.1699 -10.999 -48.5029s-17 -26.666 -29 -36.999
s-25.833 -18.166 -41.5 -23.499s-31.834 -8 -48.501 -8h-75l33 191h82c12 0 23.333 -1.33301 34 -4s20.167 -7 28.5 -13s15 -13.667 20 -23s7.5 -20.666 7.5 -33.999zM377.001 218.996c0 -22.667 -4.66699 -43.5 -14 -62.5s-21.833 -35.167 -37.5 -48.5
s-33.667 -23.833 -54 -31.5s-41.5 -11.5 -63.5 -11.5h-104l44 253h109c16 0 31.167 -1.83301 45.5 -5.5s27 -9.5 38 -17.5s19.833 -18.333 26.5 -31s10 -27.667 10 -45z" />
    <glyph glyph-name="C" unicode="C" horiz-adv-x="604" 
d="M618 602c-26 16 -54.6641 26.998 -85.9971 32.998s-62 9 -92 9c-52.667 0 -103 -9.5 -151 -28.5s-90.333 -45.333 -127 -79s-65.834 -73.5 -87.501 -119.5s-32.5 -96 -32.5 -150c0 -40 7.33301 -76.833 22 -110.5s34.667 -62.5 60 -86.5s55.166 -42.667 89.499 -56
s71.166 -20 110.499 -20c32 0 63.5 2.33301 94.5 7s60.833 14.667 89.5 30l13 72c-28 -14 -57.333 -24.5 -88 -31.5s-61.667 -10.5 -93 -10.5s-60.166 4.66699 -86.499 14s-49.333 23 -69 41s-35 39.667 -46 65s-16.5 54 -16.5 86c0 43.333 8.5 83.833 25.5 121.5
s40 70.334 69 98.001s62.833 49.334 101.5 65.001s79.334 23.5 122.001 23.5c25.333 0 51.666 -3.33301 78.999 -10s51.666 -16.667 72.999 -30z" />
    <glyph glyph-name="D" unicode="D" horiz-adv-x="637" 
d="M607 375c0 43.333 -8.1709 81.332 -24.5039 113.999s-38.166 60 -65.499 82s-59.166 38.667 -95.499 50s-74.5 17 -114.5 17h-178l-111 -638h178c54 0 105.833 8.83301 155.5 26.5s93.334 42.834 131.001 75.501s67.834 72.167 90.501 118.5s34 97.833 34 154.5z
M526.996 373.999c0 -47.333 -9 -90 -27 -128s-42.167 -70.333 -72.5 -97s-65.833 -47.167 -106.5 -61.5s-83.667 -21.5 -129 -21.5h-83l88 505h89c32 0 62.5 -3.66699 91.5 -11s54.5 -18.833 76.5 -34.5s39.667 -36 53 -61s20 -55.167 20 -90.5z" />
    <glyph glyph-name="E" unicode="E" horiz-adv-x="446" 
d="M466 638h-337l-111 -638h372l12 68h-293l38 219h213l12 68h-213l38 216h258z" />
    <glyph glyph-name="F" unicode="F" horiz-adv-x="418" 
d="M479 638h-345l-111 -638h78l51 287h225l12 68h-226l38 216h266z" />
    <glyph glyph-name="G" unicode="G" horiz-adv-x="677" 
d="M645 598c-21.333 14.667 -49.332 27.002 -83.999 37.002s-73.334 15 -116.001 15c-41.333 0 -83.166 -6.66699 -125.499 -20s-81.5 -33.5 -117.5 -60.5s-67.167 -60.5 -93.5 -100.5s-44.166 -86.333 -53.499 -139c-4 -22 -6 -43 -6 -63
c0 -43.333 7.66699 -82.166 23 -116.499s36.333 -63.5 63 -87.5s57.667 -42.333 93 -55s72.666 -19 111.999 -19c48 0 92 5.66699 132 17s77.333 28.666 112 51.999l46 257h-235l-12 -64h161l-27 -151c-19.333 -12 -43.833 -22.333 -73.5 -31s-61.5 -13 -95.5 -13
c-29.333 0 -57.333 4.66699 -84 14s-50 23 -70 41s-36 40 -48 66s-18 56 -18 90c0 8.66699 0.5 17.167 1.5 25.5s2.16699 17.166 3.5 26.499c7.33301 42 21.333 79.333 42 112s45 60.167 73 82.5s58.667 39.166 92 50.499s66.666 17 99.999 17
c34 0 67.167 -4.83301 99.5 -14.5s58.833 -21.5 79.5 -35.5z" />
    <glyph glyph-name="H" unicode="H" horiz-adv-x="644" 
d="M638 638h-78l-50 -283h-351l49 283h-79l-111 -638h78l51 287h351l-50 -287h79z" />
    <glyph glyph-name="I" unicode="I" horiz-adv-x="234" 
d="M218 638h-79l-111 -638h78z" />
    <glyph glyph-name="J" unicode="J" horiz-adv-x="234" 
d="M218 638l-78.998 0.000976562l-87 -502c-10.667 -62 -34.5 -110 -71.5 -144s-81.5 -56 -133.5 -66l52 -52c23.333 4.66699 47.166 13.167 71.499 25.5s47.166 29 68.499 50s40 46.167 56 75.5s27.333 63.666 34 102.999z" />
    <glyph glyph-name="K" unicode="K" horiz-adv-x="522" 
d="M575 638h-99l-320 -304h-1l53 304h-79l-111 -638h78l54 304h1l213 -304h94l-225 315z" />
    <glyph glyph-name="L" unicode="L" horiz-adv-x="443" 
d="M399 68h-290l99 570h-79l-111 -638h369z" />
    <glyph glyph-name="M" unicode="M" horiz-adv-x="830" 
d="M793 638l-60 -0.00195312l-232 -346l-58 -88c-19.333 -29.333 -37 -58 -53 -86h-2c-7.33301 28 -15.5 57.333 -24.5 88s-18.167 59 -27.5 85l-113 347h-56l-164 -638h77l81 315c6 22 12.333 47.167 19 75.5s12.667 55.5 18 81.5h2
c7.33301 -26.667 15.333 -54.167 24 -82.5l24 -77.5l102 -316h36l211 316l53 79l52 82h2c-3.33301 -25.333 -6.5 -51.666 -9.5 -78.999s-5.5 -53.666 -7.5 -78.999l-29 -315h78z" />
    <glyph glyph-name="N" unicode="N" horiz-adv-x="696" 
d="M690 638h-78l-57 -330c-9.33301 -52.667 -18 -106.667 -26 -162l-2 -1l-26.5 41l-29.5 43.5l-29.5 42l-26.5 38.5l-231 328h-55l-111 -638h78l60 344c5.33301 28 10.333 56.167 15 84.5s9 57.5 13 87.5l2 1l58 -89l63 -91l247 -348h23z" />
    <glyph glyph-name="O" unicode="O" horiz-adv-x="754" 
d="M724 369c0 42 -7.33398 80.334 -22.001 115.001s-35 64.334 -61 89.001s-56.667 43.667 -92 57s-73.666 20 -114.999 20c-52 0 -101.5 -10 -148.5 -30s-88.5 -47.167 -124.5 -81.5s-64.5 -74.5 -85.5 -120.5s-31.5 -95.333 -31.5 -148c0 -42 7.33301 -80.333 22 -115
s34.834 -64.334 60.501 -89.001s56.167 -43.667 91.5 -57s73.666 -20 114.999 -20c52 0 101.5 9.83301 148.5 29.5s88.5 46.667 124.5 81s64.667 74.666 86 120.999s32 95.833 32 148.5zM642.999 368.001c0 -40 -8.16699 -78.833 -24.5 -116.5s-38.166 -71 -65.499 -100
s-59.333 -52.167 -96 -69.5s-75.334 -26 -116.001 -26c-32 0 -61.333 5.16699 -88 15.5s-49.5 24.833 -68.5 43.5s-33.833 41.167 -44.5 67.5s-16 55.5 -16 87.5c0 40 8.16699 78.667 24.5 116s38.166 70.5 65.499 99.5s59.333 52.333 96 70s75.334 26.5 116.001 26.5
c32 0 61.333 -5.16699 88 -15.5s49.5 -24.833 68.5 -43.5s33.833 -41.167 44.5 -67.5s16 -55.5 16 -87.5z" />
    <glyph glyph-name="P" unicode="P" horiz-adv-x="484" 
d="M482 491c0 22.667 -4.50195 43.166 -13.502 61.499s-21 33.833 -36 46.5s-32.333 22.334 -52 29.001s-40.5 10 -62.5 10h-189l-111 -638h78l50 288h114c28.667 0 56.334 5 83.001 15s50.334 23.833 71.001 41.5s37.167 39 49.5 64s18.5 52.5 18.5 82.5zM401.998 484.999
c0 -19.333 -4 -37.167 -12 -53.5s-18.833 -30.333 -32.5 -42s-29.167 -20.667 -46.5 -27s-35.333 -9.5 -54 -9.5h-100l39 217h103c13.333 0 26.166 -1.66699 38.499 -5s23.333 -8.33301 33 -15s17.334 -15.5 23.001 -26.5s8.5 -23.833 8.5 -38.5z" />
    <glyph glyph-name="Q" unicode="Q" horiz-adv-x="754" 
d="M644 318c-6.66699 -38.667 -19.8311 -74 -39.498 -106s-43.167 -59.5 -70.5 -82.5s-57.333 -41 -90 -54s-65.334 -19.5 -98.001 -19.5c-34 0 -64.5 5.5 -91.5 16.5s-49.833 26.167 -68.5 45.5s-32.834 42 -42.501 68s-14.5 54 -14.5 84c0 8 0.333008 16.167 1 24.5
s1.66699 16.833 3 25.5c6.66699 38.667 19.834 74 39.501 106s43.167 59.5 70.5 82.5s57.166 41 89.499 54s65.166 19.5 98.499 19.5c34 0 64.5 -5.5 91.5 -16.5s49.833 -26.167 68.5 -45.5s32.834 -42 42.501 -68s14.5 -54 14.5 -84c0 -8 -0.333008 -16.167 -1 -24.5
s-1.66699 -16.833 -3 -25.5zM723.003 306c4 20.667 6.00195 41.6631 6.00195 62.9961c0 40 -6.83301 77.167 -20.5 111.5s-33.167 64 -58.5 89s-55.833 44.667 -91.5 59s-75.5 21.5 -119.5 21.5s-87.167 -7.66699 -129.5 -23s-81 -36.833 -116 -64.5s-64.667 -61 -89 -100
s-40.833 -82.167 -49.5 -129.5c-4 -22 -6 -43.333 -6 -64c0 -36 5.5 -69.333 16.5 -100s26.167 -57.667 45.5 -81s42.666 -43 69.999 -59s57 -27 89 -33c23.333 -4.66699 47 -13.167 71 -25.5s51.333 -27.5 82 -45.5c30 -18 57.667 -31 83 -39s54.666 -12 87.999 -12
c16 0 29.667 1.66699 41 5l57 71c-13.333 -5.33301 -26.5 -9 -39.5 -11s-26.167 -3 -39.5 -3c-20.667 0 -41.5 3 -62.5 9s-44.833 16 -71.5 30c-13.333 7.33301 -25.833 13 -37.5 17s-22.834 7.33301 -33.501 10l1 2c36.667 4.66699 72.334 15.334 107.001 32.001
s66.167 38.334 94.5 65.001s52.333 57.334 72 92.001s33.167 72.334 40.5 113.001z" />
    <glyph glyph-name="R" unicode="R" horiz-adv-x="512" 
d="M490 0l-168.999 300.002c22 6 42.167 15.167 60.5 27.5s34.166 26.666 47.499 42.999s23.833 34.666 31.5 54.999s11.5 42.166 11.5 65.499c0 22.667 -4.33301 43.167 -13 61.5s-20.5 33.833 -35.5 46.5s-32.167 22.334 -51.5 29.001s-40 10 -62 10h-181l-111 -638h78
l50 288h95l158 -288h91zM393.001 485.002c0 -19.333 -4 -37.167 -12 -53.5s-18.833 -30.333 -32.5 -42s-29.167 -20.667 -46.5 -27s-35.333 -9.5 -54 -9.5h-91l39 217h94c13.333 0 26.166 -1.66699 38.499 -5s23.333 -8.33301 33 -15s17.334 -15.5 23.001 -26.5
s8.5 -23.833 8.5 -38.5z" />
    <glyph glyph-name="S" unicode="S" horiz-adv-x="471" 
d="M446 607c-11.333 9.33301 -28.501 17.8301 -51.501 25.4971s-49.5 11.5 -79.5 11.5c-28.667 0 -56.167 -4 -82.5 -12s-49.666 -20 -69.999 -36s-36.5 -35.667 -48.5 -59s-18 -50.333 -18 -81c0 -36 11.5 -66.333 34.5 -91s57.5 -45.667 103.5 -63
c34 -12.667 59.167 -27.334 75.5 -44.001s24.5 -37.667 24.5 -63c0 -20.667 -4.33301 -39.167 -13 -55.5s-20 -30.166 -34 -41.499s-30.167 -20 -48.5 -26s-37.166 -9 -56.499 -9c-34.667 0 -64.834 5.33301 -90.501 16s-50.834 25.667 -75.501 45l-5 -78
c16 -13.333 38.167 -25.166 66.5 -35.499s60.5 -15.5 96.5 -15.5c32.667 0 63.667 4.5 93 13.5s54.833 22.5 76.5 40.5s38.834 40.333 51.501 67s19 57.334 19 92.001c0 42 -13.333 75.5 -40 100.5s-63 46.167 -109 63.5c-61.333 23.333 -92 55.333 -92 96
c0 17.333 4 32.833 12 46.5s18.5 25.334 31.5 35.001s27.5 17 43.5 22s32 7.5 48 7.5c24.667 0 47.167 -3.83301 67.5 -11.5s35.833 -15.5 46.5 -23.5z" />
    <glyph glyph-name="T" unicode="T" horiz-adv-x="519" 
d="M574 638h-506l-11 -67h214l-101 -571h79l100 571h214z" />
    <glyph glyph-name="U" unicode="U" horiz-adv-x="642" 
d="M636 638l-75.999 0.00195312l-47 -269l-11.5 -67c-3.66699 -22 -7.83398 -44.333 -12.501 -67c-11.333 -54.667 -35.166 -97.667 -71.499 -129s-82.833 -47 -139.5 -47c-20.667 0 -40 2.33301 -58 7s-33.5 12.167 -46.5 22.5s-23.167 23.5 -30.5 39.5s-11 35.333 -11 58
c0 6.66699 0.333008 13 1 19s1.66699 12.333 3 19l72 414h-79l-71 -411c-1.33301 -7.33301 -2.33301 -15 -3 -23s-1 -16 -1 -24c0 -32 5.83301 -60 17.5 -84s27.5 -44 47.5 -60s43.167 -27.833 69.5 -35.5s54.5 -11.5 84.5 -11.5c36.667 0 71.167 5 103.5 15
s61.166 24.667 86.499 44s46.5 43.166 63.5 71.499s29.167 61.166 36.5 98.499c13.333 70 25.833 139.833 37.5 209.5z" />
    <glyph glyph-name="V" unicode="V" horiz-adv-x="582" 
d="M620 638l-79.002 -0.000976562l-186 -329l-45 -80.5c-15.333 -28.333 -29.666 -56.5 -42.999 -84.5h-2c-4 28 -8.66699 56.333 -14 85s-10.666 55.334 -15.999 80.001l-72 329h-77l141 -648h25z" />
    <glyph glyph-name="W" unicode="W" horiz-adv-x="918" 
d="M956 638l-73.998 0.000976562l-167 -321l-40.5 -78c-14.333 -28 -27.5 -55.333 -39.5 -82h-2c-2.66699 27.333 -5.66699 54.666 -9 81.999s-7.33301 53.333 -12 78l-56 321h-68l-165 -321l-39.5 -77.5c-13.667 -27 -26.834 -54.5 -39.501 -82.5h-2
c-2.66699 28 -6.33398 55.667 -11.001 83l-13 77l-56 321h-76l111 -648h27l188 358l43 84.5l47 96.5h2c4 -35.333 8.16699 -67.5 12.5 -96.5s8.83301 -57.167 13.5 -84.5l60 -358h27z" />
    <glyph glyph-name="X" unicode="X" horiz-adv-x="587" 
d="M598 638h-85.999l-136 -169l-32 -41c-11.333 -14.667 -21.333 -28.667 -30 -42h-2c-5.33301 13.333 -11.333 27.5 -18 42.5l-18 41.5l-77 168h-86l143 -312l-264 -326h86l144 178l33 42.5l34 45.5h2c5.33301 -14 11.666 -29.167 18.999 -45.5l20 -44.5l80 -176h86
l-149 327z" />
    <glyph glyph-name="Y" unicode="Y" horiz-adv-x="613" 
d="M651 638l-85 0.000976562l-166 -189l-40 -46l-40 -48h-2c-7.33301 15.333 -15.333 31.166 -24 47.499l-24 46.5l-101 189h-83l183 -343l-51 -295h77l51 295z" />
    <glyph glyph-name="Z" unicode="Z" horiz-adv-x="525" 
d="M534 638h-409l-12 -67h295l1 -2l-68.5 -88l-71.5 -95l-274 -367l-3 -19h442l13 68h-329l-1 1l68.5 89l70.5 93l275 368z" />
    <glyph glyph-name="bracketleft" unicode="[" horiz-adv-x="276" 
d="M343 700h-203l-160 -918h202l11 62h-130l139 794h130z" />
    <glyph glyph-name="backslash" unicode="\" horiz-adv-x="466" 
d="M431 -131l-272 799l-56 -28l271 -800z" />
    <glyph glyph-name="bracketright" unicode="]" horiz-adv-x="276" 
d="M282 700h-203l-11 -62h130l-139 -794h-130l-10 -62h202z" />
    <glyph glyph-name="asciicircum" unicode="^" 
d="M455 536c-17.333 15.333 -33.835 31.834 -49.502 49.501s-29.834 36.167 -42.501 55.5c-3.33301 5.33301 -6.5 10.666 -9.5 15.999s-6.16699 10.666 -9.5 15.999l-9 11c-3.33301 4 -7.66602 6 -12.999 6s-10.833 -2 -16.5 -6s-10.167 -7.66699 -13.5 -11
c-5.33301 -5.33301 -10.5 -10.833 -15.5 -16.5s-10.167 -11.167 -15.5 -16.5c-19.333 -19.333 -39.666 -37.833 -60.999 -55.5s-43.333 -34.167 -66 -49.5l47 -21c44 24.667 85.667 53.334 125 86.001c14.667 -16.667 30.334 -32 47.001 -46s34 -27.333 52 -40z" />
    <glyph glyph-name="underscore" unicode="_" 
d="M423 -167h-503l-11 -64h503z" />
    <glyph glyph-name="grave" unicode="`" 
d="M372 536c-24.667 20 -46.667 41.501 -66 64.501s-38.333 47.167 -57 72.5c-2.66699 3.33301 -6 7 -10 11s-8.66699 6 -14 6c-3.33301 0 -7.33301 -1.5 -12 -4.5s-9.16699 -6.83301 -13.5 -11.5s-8 -9.33398 -11 -14.001s-4.5 -8.66699 -4.5 -12
c0 -4 1.16699 -7.66699 3.5 -11s4.5 -6.66602 6.5 -9.99902c17.333 -22.667 37.333 -43.334 60 -62.001s45.667 -35.667 69 -51z" />
    <glyph glyph-name="a" unicode="a" horiz-adv-x="528" 
d="M420 390l-20 -107.999c-6.66699 -36.667 -17.167 -69.167 -31.5 -97.5s-30.833 -52.333 -49.5 -72s-38.334 -34.667 -59.001 -45s-40.667 -15.5 -60 -15.5s-35.5 3 -48.5 9s-23.5 14.167 -31.5 24.5s-13.833 22 -17.5 35s-5.5 26.5 -5.5 40.5c0 11.333 1 22.666 3 33.999
c4.66699 28.667 14.334 55.5 29.001 80.5s32.667 47 54 66s45.333 34 72 45s54.667 16.5 84 16.5c15.333 0 30.5 -1.33301 45.5 -4s26.833 -5.66699 35.5 -9zM501 429.001c-20.667 11.333 -44.5 19.8311 -71.5 25.498s-54.833 8.5 -83.5 8.5
c-36.667 0 -72.5 -5.83301 -107.5 -17.5s-67 -28.667 -96 -51s-53.667 -49.666 -74 -81.999s-34.5 -68.833 -42.5 -109.5c-2.66699 -12.667 -4 -27 -4 -43c0 -21.333 3 -42.166 9 -62.499s15.5 -38.5 28.5 -54.5s29.667 -28.833 50 -38.5s44.5 -14.5 72.5 -14.5
c36 0 71.333 10 106 30s62 51.667 82 95l2 -1l-20 -114h74z" />
    <glyph glyph-name="b" unicode="b" horiz-adv-x="532" 
d="M423 267c-5.33301 -28.667 -15.002 -56.165 -29.002 -82.498s-32 -49.5 -54 -69.5s-47.167 -36 -75.5 -48s-58.833 -18 -91.5 -18c-13.333 0 -26.5 1.16699 -39.5 3.5s-23.5 5.16602 -31.5 8.49902l20 112c6.66699 36 17 68.167 31 96.5s30.333 52.166 49 71.499
s38.5 34 59.5 44s41.5 15 61.5 15c16.667 0 31.334 -2.83301 44.001 -8.5s23.334 -13.5 32.001 -23.5s15.167 -21.5 19.5 -34.5s6.5 -26.5 6.5 -40.5v-13c0 -4 -0.666992 -8.33301 -2 -13zM496.998 260.002c1.33301 6.66699 2.33496 13.1689 3.00195 19.502s1 12.833 1 19.5
c0 21.333 -3.33301 41.833 -10 61.5s-16.667 37.167 -30 52.5s-29.833 27.5 -49.5 36.5s-42.834 13.5 -69.501 13.5c-38 0 -74 -10 -108 -30s-61.333 -52 -82 -96l-3 1l66 374h-73l-122 -692c18.667 -9.33301 41.667 -16.833 69 -22.5s52.666 -8.5 75.999 -8.5
c43.333 0 83.5 6.5 120.5 19.5s69.833 31.167 98.5 54.5s52.667 51.666 72 84.999s33 70.666 41 111.999z" />
    <glyph glyph-name="c" unicode="c" horiz-adv-x="454" 
d="M443 425c-20.667 13.333 -42.835 22.333 -66.502 27s-47.167 7 -70.5 7c-38.667 0 -75 -7 -109 -21s-63.833 -33.333 -89.5 -58s-46 -53.834 -61 -87.501s-22.5 -69.834 -22.5 -108.501c0 -28.667 5 -54.667 15 -78s23.667 -43.333 41 -60s38.166 -29.5 62.499 -38.5
s50.5 -13.5 78.5 -13.5c25.333 0 49.5 2.66699 72.5 8s45.167 14.333 66.5 27l13 71c-21.333 -13.333 -43.666 -23.666 -66.999 -30.999s-47.666 -11 -72.999 -11c-40 0 -72.333 11.667 -97 35s-37 55 -37 95c0 27.333 5.5 53.333 16.5 78s25.667 46.334 44 65.001
s39.833 33.5 64.5 44.5s50.667 16.5 78 16.5c42.667 0 81.334 -10.333 116.001 -31z" />
    <glyph glyph-name="d" unicode="d" horiz-adv-x="534" 
d="M419 385l-19 -103.001c-6.66699 -36.667 -17.167 -69.167 -31.5 -97.5s-30.833 -52.333 -49.5 -72s-39 -34.667 -61 -45s-44 -15.5 -66 -15.5c-17.333 0 -32 2.83301 -44 8.5s-21.667 13.334 -29 23.001s-12.833 20.667 -16.5 33s-5.5 25.5 -5.5 39.5c0 10 1 20.667 3 32
c4.66699 26.667 14.167 52.5 28.5 77.5s32.5 47.167 54.5 66.5s47 34.833 75 46.5s58.667 17.5 92 17.5c14 0 27 -1 39 -3s22 -4.66699 30 -8zM551 711.999l-73.999 -0.000976562l-47 -265c-12 3.33301 -24.167 5.83301 -36.5 7.5s-24.5 2.5 -36.5 2.5
c-43.333 0 -83.5 -6.33301 -120.5 -19s-69.833 -30.5 -98.5 -53.5s-52.667 -50.667 -72 -83s-32.666 -67.833 -39.999 -106.5c-2.66699 -13.333 -4 -28.666 -4 -45.999c0 -20.667 2.83301 -40.5 8.5 -59.5s14.667 -35.833 27 -50.5s28 -26.5 47 -35.5
s41.833 -13.5 68.5 -13.5c41.333 0 79.166 10 113.499 30s62.166 51.667 83.499 95l2 -1l-20 -114h74z" />
    <glyph glyph-name="e" unicode="e" horiz-adv-x="470" 
d="M440 349c0 20 -3.83105 37.166 -11.498 51.499s-18 26.166 -31 35.499s-27.833 16.333 -44.5 21s-34 7 -52 7c-38 0 -73.833 -7.83301 -107.5 -23.5s-63.334 -36.667 -89.001 -63s-46 -56.666 -61 -90.999s-22.5 -70.166 -22.5 -107.499
c0 -29.333 4.83301 -55.5 14.5 -78.5s23 -42.333 40 -58s37.333 -27.667 61 -36s49.834 -12.5 78.501 -12.5c23.333 0 46.166 2.66699 68.499 8s43.5 13.666 63.5 24.999l14 76c-20.667 -13.333 -43 -24 -67 -32s-48.333 -12 -73 -12c-34 0 -62.167 8.33301 -84.5 25
s-35.166 43 -38.499 79c29.333 -1.33301 62.166 -0.333008 98.499 3s71 10.5 104 21.5s62.167 27 87.5 48s41.666 49.167 48.999 84.5c2 8.66699 3 18.334 3 29.001zM366.002 340.999c0 -25.333 -9.00098 -45.668 -27.001 -61.001s-39.5 -27.166 -64.5 -35.499
s-51.167 -14 -78.5 -17s-50 -4.5 -68 -4.5c-4.66699 0 -9.16699 0.166992 -13.5 0.5s-8.83301 0.5 -13.5 0.5c4.66699 22.667 12.834 44.5 24.501 65.5s26 39.667 43 56s36.333 29.333 58 39s44.5 14.5 68.5 14.5c18 0 34.333 -4.5 49 -13.5s22 -23.833 22 -44.5z" />
    <glyph glyph-name="f" unicode="f" horiz-adv-x="334" 
d="M444 697c-10 4.66699 -22.501 8.33398 -37.501 11.001s-31.167 4 -48.5 4c-57.333 0 -105.166 -15.833 -143.499 -47.5s-63.166 -79.834 -74.499 -144.501l-12 -67h-79l-11 -60h80l-69 -393h74l69 393h136l25 60h-151l11 64c7.33301 44.667 23.666 78 48.999 100
s57 33 95 33c10 0 20.667 -1.16699 32 -3.5s21.333 -5.5 30 -9.5z" />
    <glyph glyph-name="g" unicode="g" horiz-adv-x="445" 
d="M291 -83c-2 -10 -6.66699 -20.167 -14 -30.5s-17.333 -19.666 -30 -27.999s-27.5 -15 -44.5 -20s-36.167 -7.5 -57.5 -7.5c-39.333 0 -68.833 8.33301 -88.5 25s-29.5 36.334 -29.5 59.001c0 5.33301 0.333008 9.66602 1 12.999c2.66699 14 7.66699 27.167 15 39.5
s16.333 23.166 27 32.499s22.667 16.666 36 21.999s27 8 41 8l85 -28c40 -13.333 60 -36.666 60 -69.999c0 -6.66699 -0.333008 -11.667 -1 -15zM327 312c-2 -12.667 -6.66406 -24.5 -13.9971 -35.5s-16.333 -20.667 -27 -29s-22.334 -14.833 -35.001 -19.5
s-25.667 -7 -39 -7c-25.333 0 -45.833 7.16699 -61.5 21.5s-23.5 32.166 -23.5 53.499c0 6.66699 0.333008 11.667 1 15c2 12 6.66699 23.5 14 34.5s16.166 20.667 26.499 29s22.166 15 35.499 20s27 7.5 41 7.5c25.333 0 45.5 -7.16699 60.5 -21.5
s22.5 -32.166 22.5 -53.499c0 -6.66699 -0.333008 -11.667 -1 -15zM446.003 404l-11.0039 61.001c-8.66699 -5.33301 -19.834 -9.5 -33.501 -12.5s-26.167 -4.5 -37.5 -4.5c-22 0 -40 2.33301 -54 7c-7.33301 2 -15.833 4 -25.5 6s-19.5 3 -29.5 3
c-24.667 0 -47.834 -3.5 -69.501 -10.5s-41.167 -16.667 -58.5 -29s-31.666 -27.5 -42.999 -45.5s-19 -38 -23 -60c-1.33301 -4.66699 -2 -9.33398 -2 -14.001v-12c0 -26 6 -48.5 18 -67.5s27 -32.833 45 -41.5c-21.333 -4 -38.5 -12.833 -51.5 -26.5
s-21.167 -29.167 -24.5 -46.5l40 -41c-12.667 -2.66699 -25.667 -7.33398 -39 -14.001s-25.666 -15.667 -36.999 -27s-21.5 -24.833 -30.5 -40.5s-15.167 -33.5 -18.5 -53.5c-1.33301 -4.66699 -2 -9 -2 -13v-13c0 -20 4 -38.5 12 -55.5s19.5 -31.667 34.5 -44
s33.5 -22.166 55.5 -29.499s46.667 -11 74 -11c30 0 57.833 3.33301 83.5 10s48.334 16.167 68.001 28.5s35.834 27 48.501 44s21 35.833 25 56.5c2 10.667 3 20.667 3 30c0 30.667 -8.66699 56.167 -26 76.5s-42 36.166 -74 47.499l-114 42
c-7.33301 2.66699 -12.666 6 -15.999 10s-5 8 -5 12c0 8 2.83301 14.333 8.5 19s12.5 8 20.5 10s16.167 3.33301 24.5 4s15.166 1 20.499 1c26 0 50 3.83301 72 11.5s41.333 18 58 31s30.334 28.333 41.001 46s17.667 36.5 21 56.5
c0.666992 3.33301 1.16699 6.83301 1.5 10.5s0.5 7.16699 0.5 10.5c0 13.333 -2 25.833 -6 37.5s-9 20.834 -15 27.501h8c10 0 21.333 1.16699 34 3.5s22.334 5.5 29.001 9.5z" />
    <glyph glyph-name="h" unicode="h" horiz-adv-x="528" 
d="M478 339c0 20 -3.49902 37.6641 -10.499 52.9971s-16.5 28.333 -28.5 39s-26.333 18.834 -43 24.501s-34.334 8.5 -53.001 8.5c-44.667 0 -84.167 -12.333 -118.5 -37s-60.5 -57 -78.5 -97h-2l68 382h-74l-125 -712h74l24 139c4.66699 28.667 12.667 58.5 24 89.5
s26 59.333 44 85s39.833 46.834 65.5 63.501s55.5 25 89.5 25c21.333 0 38.5 -5.83301 51.5 -17.5s19.5 -28.167 19.5 -49.5c0 -3.33301 -0.166992 -6.5 -0.5 -9.5s-0.833008 -6.16699 -1.5 -9.5l-56 -316h74l54 310c2 8.66699 3 18.334 3 29.001z" />
    <glyph glyph-name="i" unicode="i" horiz-adv-x="211" 
d="M208 589c0 4 -1.5 8.83301 -4.5 14.5s-6.66699 11.167 -11 16.5s-9 9.83301 -14 13.5s-9.5 5.5 -13.5 5.5s-9 -1.83301 -15 -5.5s-11.833 -8 -17.5 -13s-10.667 -10.167 -15 -15.5s-6.5 -10 -6.5 -14s1.5 -8.66699 4.5 -14s6.66699 -10.5 11 -15.5s9 -9.33301 14 -13
s9.5 -5.5 13.5 -5.5s9 1.66699 15 5s11.833 7.33301 17.5 12s10.667 9.66699 15 15s6.5 10 6.5 14zM173 453h-75l-79 -453h74z" />
    <glyph glyph-name="j" unicode="j" horiz-adv-x="211" 
d="M208 589c0 4 -1.5 8.83301 -4.5 14.5s-6.66699 11.167 -11 16.5s-9 9.83301 -14 13.5s-9.5 5.5 -13.5 5.5s-9 -1.83301 -15 -5.5s-11.833 -8 -17.5 -13s-10.667 -10.167 -15 -15.5s-6.5 -10 -6.5 -14s1.5 -8.66699 4.5 -14s6.66699 -10.5 11 -15.5s9 -9.33301 14 -13
s9.5 -5.5 13.5 -5.5s9 1.66699 15 5s11.833 7.33301 17.5 12s10.667 9.66699 15 15s6.5 10 6.5 14zM173 453l-75.002 -0.000976562l-87 -498c-6.66699 -36 -21 -66.167 -43 -90.5s-51 -40.5 -87 -48.5l46 -46c20.667 4.66699 39.834 12.834 57.501 24.501
s33.334 25.5 47.001 41.5s25 33.667 34 53s15.167 39.333 18.5 60z" />
    <glyph glyph-name="k" unicode="k" horiz-adv-x="441" 
d="M460 453h-96l-234 -210h-1l83 469h-74l-125 -712h74l39 224h1l169 -224h91l-175 229z" />
    <glyph glyph-name="l" unicode="l" horiz-adv-x="218" 
d="M212 712l-73.998 -0.00195312l-108 -612c-1.33301 -4.66699 -2 -9 -2 -13v-11c0 -15.333 2.5 -28.333 7.5 -39s11.167 -19.667 18.5 -27s15.166 -13 23.499 -17s16.166 -7 23.499 -9l49 49c-12.667 2.66699 -23.5 8.33398 -32.5 17.001s-13.5 21.334 -13.5 38.001v7
c0 2.66699 0.333008 5.66699 1 9z" />
    <glyph glyph-name="m" unicode="m" horiz-adv-x="797" 
d="M749 350c0 36 -11.668 63.8301 -35.001 83.4971s-52.333 29.5 -87 29.5c-42.667 0 -79.667 -12 -111 -36s-55.333 -55 -72 -93l-3 1v1c0 3.33301 0.166992 7 0.5 11s0.5 7.66699 0.5 11c0 17.333 -3.16699 32.5 -9.5 45.5s-15 24 -26 33s-23.667 15.667 -38 20
s-29.5 6.5 -45.5 6.5c-40.667 0 -76.5 -11.333 -107.5 -34s-55.167 -52 -72.5 -88l-2 1l20 111h-74l-79 -453h74l28 164c4 24.667 11 51 21 79s23.167 53.833 39.5 77.5s35.833 43.167 58.5 58.5s49 23 79 23c18.667 0 33.834 -5.16699 45.501 -15.5
s17.5 -25.166 17.5 -44.499c0 -4.66699 -0.666992 -10.334 -2 -17.001l-58 -325h75l29 164c4.66699 24.667 12 51 22 79s23 53.833 39 77.5s35.333 43.167 58 58.5s49 23 79 23c18.667 0 33.667 -5.16699 45 -15.5s17 -25.166 17 -44.499
c0 -3.33301 -0.166992 -6.16602 -0.5 -8.49902s-0.833008 -5.16602 -1.5 -8.49902l-57 -325h74l57 323c1.33301 4.66699 2 9 2 13v14z" />
    <glyph glyph-name="n" unicode="n" horiz-adv-x="523" 
d="M473 339c0 20 -3.49902 37.665 -10.499 52.998s-16.5 28.333 -28.5 39s-26.333 18.834 -43 24.501s-34.334 8.5 -53.001 8.5c-44.667 0 -84.167 -12.333 -118.5 -37s-60.5 -57 -78.5 -97h-2l22 123h-74l-79 -453h74l24 139c4.66699 28.667 12.667 58.5 24 89.5
s26 59.333 44 85s39.833 46.834 65.5 63.501s55.5 25 89.5 25c21.333 0 38.5 -5.83301 51.5 -17.5s19.5 -28.167 19.5 -49.5c0 -3.33301 -0.166992 -6.5 -0.5 -9.5s-0.833008 -6.16699 -1.5 -9.5l-56 -316h74l54 310c2 10 3 19.667 3 29z" />
    <glyph glyph-name="o" unicode="o" horiz-adv-x="551" 
d="M507 267c0 30 -5 57.002 -15 81.002s-24 44.667 -42 62s-39.333 30.666 -64 39.999s-51.667 14 -81 14c-37.333 0 -73 -7.33301 -107 -22s-64 -34.667 -90 -60s-46.667 -54.833 -62 -88.5s-23 -69.5 -23 -107.5c0 -30 5 -57 15 -81s24 -44.5 42 -61.5
s39.333 -30.167 64 -39.5s51.667 -14 81 -14c37.333 0 73 7.33301 107 22s64 34.667 90 60s46.667 54.666 62 87.999s23 69 23 107zM433 265.002c0 -27.333 -5.33105 -53.501 -15.998 -78.501s-25.334 -47.333 -44.001 -67s-40.167 -35.334 -64.5 -47.001
s-50.5 -17.5 -78.5 -17.5c-40 0 -72 12 -96 36s-36 56 -36 96c0 26.667 5.33301 52.834 16 78.501s25.167 48.334 43.5 68.001s39.666 35.5 63.999 47.5s50.5 18 78.5 18c40.667 0 73 -12.333 97 -37s36 -57 36 -97z" />
    <glyph glyph-name="p" unicode="p" horiz-adv-x="523" 
d="M415 272c-5.33301 -30 -15.6641 -58 -30.9971 -84s-34.333 -48.667 -57 -68s-47.834 -34.5 -75.501 -45.5s-56.834 -16.5 -87.501 -16.5c-26 0 -49 3.66699 -69 11l18 103c4.66699 28.667 13.167 56.667 25.5 84s27.333 51.833 45 73.5s38 39 61 52s47.5 19.5 73.5 19.5
c17.333 0 32.166 -2.83301 44.499 -8.5s22.5 -13.334 30.5 -23.001s14 -20.667 18 -33s6 -25.166 6 -38.499v-13c0 -4 -0.666992 -8.33301 -2 -13zM489.002 264c1.33301 6.66699 2.33105 13.167 2.99805 19.5s1 12.5 1 18.5c0 20.667 -3.33301 40.834 -10 60.501
s-16.5 37 -29.5 52s-29.167 27 -48.5 36s-42 13.5 -68 13.5c-42.667 0 -80.667 -10.833 -114 -32.5s-59.666 -52.834 -78.999 -93.501l-3 1l20 114h-74l-120 -684h74l42 238c22.667 -6 47.334 -9 74.001 -9c41.333 0 80.5 6.16699 117.5 18.5s70 30 99 53s53.5 51 73.5 84
s34 69.833 42 110.5z" />
    <glyph glyph-name="q" unicode="q" horiz-adv-x="528" 
d="M420 390l-20 -111.003c-6.66699 -36.667 -17.167 -69 -31.5 -97s-30.5 -51.667 -48.5 -71s-37.167 -34 -57.5 -44s-39.5 -15 -57.5 -15c-20 0 -36.833 3.33301 -50.5 10s-24.667 15.334 -33 26.001s-14.333 22.834 -18 36.501s-5.5 27.834 -5.5 42.501
c0 12 1 23.667 3 35c4.66699 28.667 14.167 55.167 28.5 79.5s32 45.5 53 63.5s44.667 32.167 71 42.5s54.166 15.5 83.499 15.5c15.333 0 30.833 -1.33301 46.5 -4s27.834 -5.66699 36.501 -9zM507 461.997l-28.0029 0.000976562l-13 -16c-19.333 6 -39.5 10.333 -60.5 13
s-41.5 4 -61.5 4c-36.667 0 -72.334 -5.5 -107.001 -16.5s-66.167 -27.333 -94.5 -49s-52.666 -48.334 -72.999 -80.001s-34.5 -67.834 -42.5 -108.501c-2.66699 -12.667 -4 -27 -4 -43c0 -22 3.16699 -43.5 9.5 -64.5s16.333 -39.667 30 -56s30.834 -29.666 51.501 -39.999
s45.334 -15.5 74.001 -15.5c34.667 0 68.834 9.83301 102.501 29.5s60.167 51.5 79.5 95.5l3 -1l-61 -345h74z" />
    <glyph glyph-name="r" unicode="r" horiz-adv-x="350" 
d="M353 453c-4.66699 1.33301 -10.501 2.66797 -17.501 4.00098s-14.5 2 -22.5 2c-43.333 0 -80.166 -13.833 -110.499 -41.5s-52.166 -62.834 -65.499 -105.501h-2l26 141h-74l-79 -453h74l22 129c7.33301 42 18.166 78.833 32.499 110.5s30.5 58 48.5 79
s36.5 36.667 55.5 47s36.833 15.5 53.5 15.5c5.33301 0 10.5 -0.333008 15.5 -1s9.16699 -1.66699 12.5 -3z" />
    <glyph glyph-name="s" unicode="s" horiz-adv-x="368" 
d="M329 427c-8 6 -22.6699 12.833 -44.0029 20.5s-44.333 11.5 -69 11.5c-21.333 0 -41.666 -3.16699 -60.999 -9.5s-36.166 -15.5 -50.499 -27.5s-25.666 -26.667 -33.999 -44s-12.5 -37.333 -12.5 -60c0 -28.667 9.33301 -52 28 -70s45.667 -33.667 81 -47
c20 -7.33301 35.667 -16.333 47 -27s17 -24 17 -40c0 -13.333 -3 -24.666 -9 -33.999s-13.667 -17.333 -23 -24s-19.833 -11.5 -31.5 -14.5s-23.167 -4.5 -34.5 -4.5c-26 0 -49.5 4.5 -70.5 13.5s-39.167 20.5 -54.5 34.5l-5 -71c12.667 -11.333 30.667 -20.666 54 -27.999
s48.333 -11 75 -11c23.333 0 45.5 3 66.5 9s39.333 15.333 55 28s28.167 28.167 37.5 46.5s14 40.166 14 65.499c0 30 -9.83301 54.5 -29.5 73.5s-47.5 35.167 -83.5 48.5c-20 7.33301 -35 15.666 -45 24.999s-15 21 -15 35c0 22.667 8.5 40.167 25.5 52.5
s36.167 18.5 57.5 18.5c18.667 0 36.5 -3 53.5 -9s29.833 -12.333 38.5 -19z" />
    <glyph glyph-name="t" unicode="t" horiz-adv-x="352" 
d="M370 453l-163.002 0.00195312l23 134l-80 -38l-16 -96h-90l-10 -60h89l-46 -266c-1.33301 -4.66699 -2 -9.33398 -2 -14.001v-13c0 -34 11 -59.833 33 -77.5s49 -26.5 81 -26.5c8 0 18 0.666992 30 2s21.667 3.66602 29 6.99902l11 61
c-7.33301 -3.33301 -16.166 -5.83301 -26.499 -7.5s-19.5 -2.5 -27.5 -2.5c-17.333 0 -31.166 3.66699 -41.499 11s-15.5 20.333 -15.5 39c0 4 0.166992 7.83301 0.5 11.5s0.833008 7.16699 1.5 10.5l46 265h150z" />
    <glyph glyph-name="u" unicode="u" horiz-adv-x="523" 
d="M495 453h-74l-17 -103.5c-6 -37 -14.667 -73.167 -26 -108.5s-26.666 -68 -45.999 -98s-45.333 -54 -78 -72c-23.333 -13.333 -48.333 -20 -75 -20c-21.333 0 -39.333 5.66699 -54 17s-22 28.666 -22 51.999c0 3.33301 0.166992 6.33301 0.5 9s0.833008 5.66699 1.5 9
l56 315h-74l-54 -310c-2 -10 -3 -19.667 -3 -29c0 -20 3.5 -37.667 10.5 -53s16.667 -28.166 29 -38.499s26.666 -18.333 42.999 -24s33.833 -8.5 52.5 -8.5c44.667 0 84.167 12.333 118.5 37s60.5 57 78.5 97l2 -1l-22 -123h74z" />
    <glyph glyph-name="v" unicode="v" horiz-adv-x="459" 
d="M465 453l-72.999 -0.00195312l-131 -224l-30.5 -55l-29.5 -57h-2c-2.66699 18.667 -5.83398 37.834 -9.50098 57.501s-7.5 37.834 -11.5 54.501l-53 224h-71l109 -462h30z" />
    <glyph glyph-name="w" unicode="w" horiz-adv-x="700" 
d="M706 453l-69.001 0.00195312l-117 -217c-9.33301 -16.667 -18.5 -34.334 -27.5 -53.001l-27.5 -56h-2l-6 55.5c-2 18.333 -4.66699 36.166 -8 53.499l-43 217h-54l-117 -217l-29 -55c-10 -19.333 -18.667 -37.333 -26 -54h-2
c-1.33301 17.333 -3.16602 35.5 -5.49902 54.5s-5.16602 37.167 -8.49902 54.5l-42 217h-68l89 -462h27l130 239l30 58c10.667 21.333 20.667 42.666 30 63.999h2c2.66699 -21.333 5.66699 -42.666 9 -63.999s6.66602 -41.333 9.99902 -60l47 -237h27z" />
    <glyph glyph-name="x" unicode="x" horiz-adv-x="443" 
d="M429 453l-82.001 -0.000976562l-85 -108l-21 -27.5l-20 -26.5h-2c-3.33301 9.33301 -6.83301 18.333 -10.5 27l-11.5 27l-47 108h-77l99 -220l-185 -233h81l91 114l21.5 28l22.5 30h2c6.66699 -19.333 14.334 -38.666 23.001 -57.999l51 -114h78l-106 231z" />
    <glyph glyph-name="y" unicode="y" horiz-adv-x="468" 
d="M474 453h-74.001l-130 -225l-31 -54.5l-33 -58.5h-2c-3.33301 19.333 -7.16602 39.166 -11.499 59.499s-8.5 38.5 -12.5 54.5l-53 224h-73l98 -419c-37.333 -62 -75.833 -109.833 -115.5 -143.5s-82.834 -59.5 -129.501 -77.5l47 -47c24.667 10 48.667 22.333 72 37
s46.333 32.834 69 54.501s45.334 47.5 68.001 77.5s46 65.333 70 106z" />
    <glyph glyph-name="z" unicode="z" horiz-adv-x="427" 
d="M402 453h-320l-10 -60h209l1 -1l-50 -62l-50 -64l-193 -251l-2 -15h354l10 60h-246v1l99 126l196 251z" />
    <glyph glyph-name="braceleft" unicode="{" horiz-adv-x="303" 
d="M360 641l-5.00195 58.0049c-36 0 -67 -7 -93 -21s-48 -32.5 -66 -55.5s-32.5 -49.333 -43.5 -79s-19.5 -59.834 -25.5 -90.501c-4 -22 -9.16699 -43.333 -15.5 -64s-14.5 -40 -24.5 -58s-22.167 -34.667 -36.5 -50s-31.833 -29 -52.5 -41
c23.333 -16.667 39.5 -37.167 48.5 -61.5s13.5 -50.5 13.5 -78.5c0 -25.333 -2.5 -50.666 -7.5 -75.999s-7.5 -50.666 -7.5 -75.999c0 -24.667 2.83301 -47.334 8.5 -68.001s14.5 -38.334 26.5 -53.001s27.333 -26 46 -34s41.334 -12 68.001 -12l25 58
c-37.333 -0.666992 -63.666 9 -78.999 29s-23 47.667 -23 83c0 24 2.33301 48 7 72s7 48 7 72c0 25.333 -3.66699 49.666 -11 72.999s-19.666 44.666 -36.999 63.999c35.333 28 61.166 59.167 77.499 93.5s28.833 73.166 37.5 116.499c4.66699 22 10.5 44.833 17.5 68.5
s16.667 45.167 29 64.5s27.833 35.166 46.5 47.499s41.667 18.5 69 18.5z" />
    <glyph glyph-name="bar" unicode="|" horiz-adv-x="199" 
d="M207 712h-64l-166 -943h64z" />
    <glyph glyph-name="braceright" unicode="}" horiz-adv-x="303" 
d="M289 240c-23.333 16 -39.335 36.167 -48.002 60.5s-13 50.166 -13 77.499c0 25.333 2.33301 50.833 7 76.5s7 51.167 7 76.5c0 24.667 -2.66699 47.334 -8 68.001s-14 38.334 -26 53.001s-27.5 26.167 -46.5 34.5s-41.833 12.5 -68.5 12.5l-24 -58
c37.333 0.666992 63.5 -9 78.5 -29s22.5 -47.333 22.5 -82c0 -24 -2.33301 -48 -7 -72s-7 -48 -7 -72c0 -25.333 3.66699 -49.833 11 -73.5s20 -45.167 38 -64.5c-35.333 -28 -61.166 -59 -77.499 -93s-28.833 -72.667 -37.5 -116c-4 -22 -9.66699 -44.833 -17 -68.5
s-17.166 -45.167 -29.499 -64.5s-27.833 -35.333 -46.5 -48s-41.667 -19 -69 -19l4 -58c36 0 67 7 93 21s48 32.5 66 55.5s32.667 49.167 44 78.5s20 59.666 26 90.999c4 22 9.16699 43.333 15.5 64s14.333 40 24 58s21.667 34.667 36 50s31.833 29 52.5 41z" />
    <glyph glyph-name="asciitilde" unicode="~" horiz-adv-x="365" 
d="M331 316l-44.002 19l-13.5 -14c-5.66699 -6 -11.667 -11.833 -18 -17.5s-12.666 -10.667 -18.999 -15s-11.833 -6.5 -16.5 -6.5c-4 0 -9.16699 2.16699 -15.5 6.5s-13.166 9.33301 -20.499 15s-14.833 10.667 -22.5 15s-14.834 6.5 -21.501 6.5
c-7.33301 0 -16.333 -4 -27 -12s-21.334 -17.333 -32.001 -28s-20.5 -21.334 -29.5 -32.001s-15.833 -19 -20.5 -25l43 -19c2.66699 3.33301 6.83398 8 12.501 14s11.667 11.833 18 17.5s12.666 10.667 18.999 15s11.833 6.5 16.5 6.5c4 0 9.33301 -2.16699 16 -6.5
s13.667 -9.33301 21 -15s14.833 -10.667 22.5 -15s14.834 -6.5 21.501 -6.5c7.33301 0 16.333 4 27 12s21.334 17.333 32.001 28s20.667 21.334 30 32.001s16.333 19 21 25z" />
    <glyph glyph-name="nonbreakingspace" unicode="&#xa0;" horiz-adv-x="118" 
 />
    <glyph glyph-name="exclamdown" unicode="&#xa1;" horiz-adv-x="252" 
d="M232 594c0 4 -1.66699 9.16699 -5 15.5s-7.5 12.333 -12.5 18s-10.167 10.5 -15.5 14.5s-10.333 6 -15 6c-4 0 -9.33301 -1.83301 -16 -5.5s-13.167 -8.16699 -19.5 -13.5s-11.833 -11 -16.5 -17s-7 -11.333 -7 -16c0 -4 1.66699 -9.16699 5 -15.5
s7.33301 -12.333 12 -18s9.66699 -10.5 15 -14.5s10.333 -6 15 -6c4 0 9.5 1.83301 16.5 5.5s13.667 8.16699 20 13.5s11.833 11 16.5 17s7 11.333 7 16zM184 452l-59 15l-94 -467h86z" />
    <glyph glyph-name="cent" unicode="&#xa2;" horiz-adv-x="457" 
d="M458 515c-16.667 10.667 -34.3359 18.3291 -53.0029 22.9961s-37.667 7.66699 -57 9l17 91h-49l-15 -90c-36 -2.66699 -70 -11.5 -102 -26.5s-59.833 -34.667 -83.5 -59s-42.334 -52.666 -56.001 -84.999s-20.5 -66.833 -20.5 -103.5
c0 -27.333 4.33301 -52.166 13 -74.499s21 -41.666 37 -57.999s35.167 -29.333 57.5 -39s46.833 -15.5 73.5 -17.5l-15 -85h48l15 85c38.667 3.33301 74.334 14.333 107.001 33l13 72c-21.333 -13.333 -43.666 -23.666 -66.999 -30.999s-47.666 -11 -72.999 -11
c-40 0 -72.333 11.5 -97 34.5s-37 54.5 -37 94.5c0 27.333 5.5 53.333 16.5 78s25.667 46.5 44 65.5s39.833 34 64.5 45s50.667 16.5 78 16.5c42.667 0 81.334 -10.333 116.001 -31z" />
    <glyph glyph-name="sterling" unicode="&#xa3;" horiz-adv-x="434" 
d="M433 632c-10.667 4.66699 -23.499 8.16699 -38.499 10.5s-30.833 3.5 -47.5 3.5c-57.333 0 -105.333 -15.833 -144 -47.5s-63.667 -79.5 -75 -143.5l-19 -111h-80l-7 -46h79l-9 -51c-9.33301 -48 -21 -89.5 -35 -124.5s-31.333 -65.5 -52 -91.5l29 -42
c19.333 7.33301 42.666 13.333 69.999 18s55.333 7 84 7s55.334 -2.33301 80.001 -7s46 -10.667 64 -18l26 64c-22.667 8 -47.5 13.833 -74.5 17.5s-52.5 5.5 -76.5 5.5c-18.667 0 -38.834 -1.5 -60.501 -4.5s-39.167 -6.83301 -52.5 -11.5c14 16.667 27.5 40.5 40.5 71.5
s23.167 67.833 30.5 110.5l10 57h112l19 45h-124l19 107c8 44.667 24.667 78 50 100s57 33 95 33c10 0 20.5 -1.16699 31.5 -3.5s21.167 -5.5 30.5 -9.5z" />
    <glyph glyph-name="currency" unicode="&#xa4;" horiz-adv-x="492" 
d="M509 618c-16.667 11.333 -34.666 18.8369 -53.999 22.5039s-38.666 5.5 -57.999 5.5c-36 0 -68.833 -6.83301 -98.5 -20.5s-56.334 -32 -80.001 -55s-44 -49.333 -61 -79s-30.5 -60.167 -40.5 -91.5h-83l-7 -46h78c-2.66699 -11.333 -4.83398 -22.333 -6.50098 -33
s-3.16699 -21.667 -4.5 -33h-79l-8 -45h84c-0.666992 -30.667 2.5 -61 9.5 -91s18.167 -56.833 33.5 -80.5s35.333 -42.834 60 -57.501s54.667 -22 90 -22c19.333 0 37.666 1.5 54.999 4.5s34.666 9.16699 51.999 18.5l11 69
c-15.333 -8.66699 -31.666 -15.334 -48.999 -20.001s-35 -7 -53 -7c-24.667 0 -45.667 5 -63 15s-31.333 23.167 -42 39.5s-18.5 35 -23.5 56s-7.5 42.167 -7.5 63.5v12h166l17 45h-180c1.33301 11.333 3 22.333 5 33s4.66699 21.667 8 33h179l17 46h-182
c8 21.333 18.167 42.666 30.5 63.999s26.833 40.666 43.5 57.999s35.334 31.5 56.001 42.5s43.667 16.5 69 16.5c16 0 31.833 -1.83301 47.5 -5.5s30.5 -9.5 44.5 -17.5z" />
    <glyph glyph-name="yen" unicode="&#xa5;" horiz-adv-x="506" 
d="M435 300h-125l234 338h-77l-137 -200l-33 -49.5l-33 -50.5h-2c-4 16 -8.83301 32.833 -14.5 50.5l-16.5 49.5l-68 200h-77l115 -338h-125l-7 -46h141l-45 -254h77l44 254h142z" />
    <glyph glyph-name="brokenbar" unicode="&#xa6;" horiz-adv-x="224" 
d="M219 712h-64l-72 -412h64zM126 181h-64l-73 -412h64z" />
    <glyph glyph-name="section" unicode="&#xa7;" horiz-adv-x="483" 
d="M355 -62c2 10 3.00195 20.333 3.00195 31c0 27.333 -6.33301 51.666 -19 72.999l54 124l-203 257c-4.66699 6 -8 12.833 -10 20.5s-3 15.5 -3 23.5c0 3.33301 0.166992 6.5 0.5 9.5s0.833008 6.16699 1.5 9.5c2 11.333 6.5 22.833 13.5 34.5s16.167 22.167 27.5 31.5
s24.666 16.833 39.999 22.5s32 8.5 50 8.5c24.667 0 47.5 -3.83301 68.5 -11.5s36.833 -15.5 47.5 -23.5l24 63c-11.333 9.33301 -28.833 18 -52.5 26s-50.5 12 -80.5 12c-32.667 0 -61.5 -4.5 -86.5 -13.5s-46.333 -21 -64 -36s-31.834 -32.167 -42.501 -51.5
s-17.667 -39 -21 -59c-1.33301 -4.66699 -2 -9.33398 -2 -14.001v-15c0 -13.333 1.5 -26.166 4.5 -38.499s7.83301 -24.166 14.5 -35.499l-54 -125l202 -257c4.66699 -6 8 -13 10 -21s3 -15.667 3 -23c0 -3.33301 -0.166992 -6.5 -0.5 -9.5s-0.833008 -6.16699 -1.5 -9.5
c-2 -11.333 -6.5 -22.833 -13.5 -34.5s-16.167 -22.167 -27.5 -31.5s-24.666 -16.833 -39.999 -22.5s-32 -8.5 -50 -8.5c-24.667 0 -47.334 3.83301 -68.001 11.5s-36.334 15.5 -47.001 23.5l-25 -63c11.333 -9.33301 28.833 -18 52.5 -26s50.5 -12 80.5 -12
c32.667 0 61.5 4.5 86.5 13.5s46.333 21 64 36s31.834 32.167 42.501 51.5s17.667 39 21 59zM158.002 367l179 -224l-37 -84l-178 225z" />
    <glyph glyph-name="dieresis" unicode="&#xa8;" 
d="M428 563c0 4 -1.33301 8.66699 -4 14s-6.16699 10.5 -10.5 15.5s-8.83301 9.33301 -13.5 13s-9 5.5 -13 5.5s-8.83301 -1.66699 -14.5 -5s-11.334 -7.5 -17.001 -12.5s-10.5 -10 -14.5 -15s-6 -9.5 -6 -13.5s1.5 -8.66699 4.5 -14s6.5 -10.5 10.5 -15.5
s8.33301 -9.16699 13 -12.5s9 -5 13 -5s8.83301 1.66699 14.5 5s11.334 7.33301 17.001 12s10.5 9.5 14.5 14.5s6 9.5 6 13.5zM274 563c0 4 -1.33301 8.66699 -4 14s-6.16699 10.5 -10.5 15.5s-8.83301 9.33301 -13.5 13s-9 5.5 -13 5.5s-8.83301 -1.66699 -14.5 -5
s-11.334 -7.5 -17.001 -12.5s-10.5 -10 -14.5 -15s-6 -9.5 -6 -13.5s1.5 -8.66699 4.5 -14s6.5 -10.5 10.5 -15.5s8.33301 -9.16699 13 -12.5s9 -5 13 -5s8.83301 1.66699 14.5 5s11.334 7.33301 17.001 12s10.5 9.5 14.5 14.5s6 9.5 6 13.5z" />
    <glyph glyph-name="copyright" unicode="&#xa9;" horiz-adv-x="612" 
d="M566 279c0 34.667 -5.83496 66.334 -17.502 95.001s-27.834 53.334 -48.501 74.001s-45.5 36.667 -74.5 48s-60.5 17 -94.5 17c-41.333 0 -80 -7.33301 -116 -22s-67.5 -35 -94.5 -61s-48.167 -56.667 -63.5 -92s-23 -74 -23 -116
c0 -34.667 5.83301 -66.334 17.5 -95.001s27.834 -53.334 48.501 -74.001s45.334 -36.667 74.001 -48s60.334 -17 95.001 -17c41.333 0 80 7.33301 116 22s67.5 35 94.5 61s48.167 56.667 63.5 92s23 74 23 116zM518.998 280c0 -34.667 -6.16699 -67 -18.5 -97
s-29.5 -56.167 -51.5 -78.5s-48 -40 -78 -53s-62.333 -19.5 -97 -19.5c-28 0 -53.833 4.33301 -77.5 13s-44 21.167 -61 37.5s-30.333 36.166 -40 59.499s-14.5 49.333 -14.5 78c0 34.667 6.16699 67 18.5 97s29.5 56.167 51.5 78.5s48 40 78 53s62.333 19.5 97 19.5
c28 0 53.833 -4.33301 77.5 -13s44 -21.167 61 -37.5s30.333 -36.166 40 -59.499s14.5 -49.333 14.5 -78zM425.998 368c-13.333 8.66699 -27.5 14.833 -42.5 18.5s-30.167 5.5 -45.5 5.5c-23.333 0 -45.5 -4.16699 -66.5 -12.5s-39.333 -20 -55 -35
s-28.167 -32.667 -37.5 -53s-14 -42.5 -14 -66.5c0 -36 11.667 -64.667 35 -86s52.666 -32 87.999 -32c16 0 31.333 1.66699 46 5s28.667 9.33301 42 18l11 61c-13.333 -9.33301 -27.5 -17.166 -42.5 -23.499s-30.833 -9.5 -47.5 -9.5c-21.333 0 -39 6.16699 -53 18.5
s-21 29.5 -21 51.5c0 14.667 3 28.667 9 42s14.167 25.166 24.5 35.499s22.333 18.5 36 24.5s27.834 9 42.501 9c25.333 0 49 -6.66699 71 -20z" />
    <glyph glyph-name="ordfeminine" unicode="&#xaa;" horiz-adv-x="450" 
d="M452 622c-19.333 10.667 -40.168 17.998 -62.501 21.998s-44.166 6 -65.499 6c-31.333 0 -61.166 -4.66699 -89.499 -14s-53.833 -22.833 -76.5 -40.5s-41.834 -39 -57.501 -64s-26.5 -52.833 -32.5 -83.5c-2 -11.333 -3 -22.666 -3 -33.999
c0 -41.333 12 -75.166 36 -101.499s57 -39.5 99 -39.5c30 0 57.167 7.83301 81.5 23.5s43.5 36.5 57.5 62.5h2l-15 -78h66zM264.998 152.998c0 4 -1.5 8.66699 -4.5 14s-6.5 10.5 -10.5 15.5s-8.33301 9.16699 -13 12.5s-9 5 -13 5s-8.83301 -1.66699 -14.5 -5
s-11.334 -7.5 -17.001 -12.5s-10.5 -10 -14.5 -15s-6 -9.5 -6 -13.5s1.5 -8.66699 4.5 -14s6.5 -10.5 10.5 -15.5s8.33301 -9.16699 13 -12.5s9 -5 13 -5s8.83301 1.66699 14.5 5s11.334 7.5 17.001 12.5s10.5 10 14.5 15s6 9.5 6 13.5zM380.998 586.998l-16.002 -84.0029
c-3.33301 -18 -9.16602 -37.167 -17.499 -57.5s-19 -39.166 -32 -56.499s-28 -31.666 -45 -42.999s-35.833 -17 -56.5 -17c-26 0 -46.333 7.66699 -61 23s-22 35.666 -22 60.999c0 24.667 5.16699 48.167 15.5 70.5s24.333 41.833 42 58.5s37.834 29.834 60.501 39.501
s46 14.5 70 14.5c10 0 20.5 -0.666992 31.5 -2s21.167 -3.66602 30.5 -6.99902z" />
    <glyph glyph-name="guillemotleft" unicode="&#xab;" horiz-adv-x="392" 
d="M360 336l-7.00098 30.999c-16 -17.333 -32.5 -33.833 -49.5 -49.5s-34.833 -30.5 -53.5 -44.5l-33 -24c-3.33301 -2.66699 -7.16602 -6.16699 -11.499 -10.5s-6.5 -9.16602 -6.5 -14.499c0 -4 1 -7.66699 3 -11s4.33301 -6.66602 7 -9.99902
c4 -4 8.16699 -7.83301 12.5 -11.5s8.5 -7.5 12.5 -11.5c13.333 -14 25.833 -29 37.5 -45s22.5 -32.667 32.5 -50l16 22c-5.33301 19.333 -11 38.666 -17 57.999s-13.667 38.333 -23 57c15.333 18 29.5 36.5 42.5 55.5s25.5 38.5 37.5 58.5zM174.999 335.999l-6 31.002
c-20.667 -22.667 -42.5 -43.334 -65.5 -62.001l-70.5 -56c-3.33301 -2.66699 -7.33301 -6.33398 -12 -11.001s-7 -9.33398 -7 -14.001c0 -4 1 -7.66699 3 -11s4.33301 -6.66602 7 -9.99902c4 -4 8.16699 -7.83301 12.5 -11.5s8.5 -7.5 12.5 -11.5
c13.333 -14 25.833 -29 37.5 -45s22.5 -32.667 32.5 -50l16 22l-16.5 58c-5.66699 19.333 -13.167 38.333 -22.5 57c15.333 18 29.333 36.5 42 55.5s25 38.5 37 58.5z" />
    <glyph glyph-name="logicalnot" unicode="&#xac;" horiz-adv-x="505" 
d="M447 309h-400l-11 -64h334l-18 -105h66z" />
    <glyph glyph-name="registered" unicode="&#xae;" horiz-adv-x="463" 
d="M457 478c0 25.333 -4.16602 48.5 -12.499 69.5s-20.166 39.167 -35.499 54.5s-33.5 27.166 -54.5 35.499s-44.167 12.5 -69.5 12.5c-30.667 0 -59.334 -5.33301 -86.001 -16s-49.834 -25.5 -69.501 -44.5s-35.167 -41.667 -46.5 -68s-17 -54.833 -17 -85.5
c0 -25.333 4.33301 -48.5 13 -69.5s20.667 -39.167 36 -54.5s33.5 -27.166 54.5 -35.499s44.167 -12.5 69.5 -12.5c30.667 0 59.167 5.33301 85.5 16s49.333 25.5 69 44.5s35.167 41.667 46.5 68s17 54.833 17 85.5zM421.001 479c0 -25.333 -4.5 -48.834 -13.5 -70.501
s-21.5 -40.667 -37.5 -57s-34.833 -29.166 -56.5 -38.499s-45.167 -14 -70.5 -14c-41.333 0 -75 12.333 -101 37s-39 58 -39 100c0 25.333 4.5 48.833 13.5 70.5s21.5 40.5 37.5 56.5s34.833 28.667 56.5 38s45.167 14 70.5 14c40.667 0 74.167 -12.167 100.5 -36.5
s39.5 -57.5 39.5 -99.5zM351.001 512.999c0 19.333 -7 34.5 -21 45.5s-30 16.5 -48 16.5h-67l-42 -237h41l18 98h26l47 -97l36 22l-43 81c15.333 5.33301 28 14.5 38 27.5s15 27.5 15 43.5zM310.001 511.999c0 -12.667 -4.66699 -22.834 -14 -30.501s-20 -11.5 -32 -11.5
h-27l12 69h29c8.66699 0 16.167 -2.16699 22.5 -6.5s9.5 -11.166 9.5 -20.499z" />
    <glyph glyph-name="macron" unicode="&#xaf;" 
d="M392 590h-176l-11 -63h176z" />
    <glyph glyph-name="macron" unicode="&#x2c9;" 
d="M392 590h-176l-11 -63h176z" />
    <glyph glyph-name="degree" unicode="&#xb0;" horiz-adv-x="298" 
d="M303 557c0 12.667 -2.33398 24.668 -7.00098 36.001s-11.167 21.166 -19.5 29.499s-18.166 15 -29.499 20s-23.333 7.5 -36 7.5c-16 0 -31.5 -3.16699 -46.5 -9.5s-28.167 -14.833 -39.5 -25.5s-20.5 -23.334 -27.5 -38.001s-10.5 -30 -10.5 -46
c0 -12.667 2.33301 -24.667 7 -36s11.167 -21.166 19.5 -29.499s18 -14.833 29 -19.5s22.833 -7 35.5 -7c16 0 31.5 3.16699 46.5 9.5s28.333 14.833 40 25.5s21 23.167 28 37.5s10.5 29.5 10.5 45.5zM248.999 557.001c0 -17.333 -6.16602 -33.166 -18.499 -47.499
s-27.5 -21.5 -45.5 -21.5c-13.333 0 -24.333 4.16699 -33 12.5s-13 19.166 -13 32.499c0 17.333 6.66699 32.833 20 46.5s28.666 20.5 45.999 20.5c13.333 0 24 -3.83301 32 -11.5s12 -18.167 12 -31.5z" />
    <glyph glyph-name="plusminus" unicode="&#xb1;" horiz-adv-x="832" 
d="M819 644c-16 17.333 -37.6641 33.002 -64.9971 47.002s-61 21 -101 21c-28.667 0 -55.5 -4 -80.5 -12s-47.167 -20.333 -66.5 -37c-16.667 13.333 -36.834 24.833 -60.501 34.5s-51.834 14.5 -84.501 14.5c-56.667 0 -104.834 -15.833 -144.501 -47.5
s-65.167 -79.834 -76.5 -144.501l-12 -67h-79l-11 -60h80l-69 -393h74l69 393h217l-69 -393h74l69 393h109l11 60h-110l12 64c7.33301 44.667 23.333 78 48 100s55.667 33 93 33c19.333 0 37.333 -3.16699 54 -9.5s30 -14.166 40 -23.499l-90 -515c-2 -10 -3 -19.667 -3 -29
c0 -14.667 2.16699 -27.167 6.5 -37.5s9.66602 -19 15.999 -26s13.333 -12.5 21 -16.5s14.834 -7 21.501 -9l58 50c-12.667 3.33301 -23.667 10.166 -33 20.499s-14 23.833 -14 40.5c0 2.66699 0.166992 5.16699 0.5 7.5s0.833008 5.16602 1.5 8.49902zM462.003 607.002
c-14.667 -25.333 -25.001 -54.333 -31.001 -87l-11 -67h-218l11 64c7.33301 44.667 23.333 78 48 100s56 33 94 33c20.667 0 40.334 -3.83301 59.001 -11.5s34.667 -18.167 48 -31.5z" />
    <glyph glyph-name="twosuperior" unicode="&#xb2;" horiz-adv-x="362" 
d="M320 550c0 33.333 -10.8301 58.167 -32.4971 74.5s-48.167 24.5 -79.5 24.5c-36.667 0 -70.334 -8 -101.001 -24l8 -46c13.333 7.33301 27.666 13.166 42.999 17.499s30.666 6.5 45.999 6.5c17.333 0 31.666 -4.16699 42.999 -12.5s17 -22.166 17 -41.499
c0 -15.333 -4.16699 -31.666 -12.5 -48.999s-19.166 -35 -32.499 -53s-28.5 -36 -45.5 -54s-34.167 -35 -51.5 -51l-49.5 -44.5l-40.5 -34.5l-3 -15h257l8 45h-161l58.5 51.5c21.667 19.667 42 40.667 61 63s35 45.666 48 69.999s19.5 48.5 19.5 72.5z" />
    <glyph glyph-name="threesuperior" unicode="&#xb3;" horiz-adv-x="315" 
d="M290 570c0 13.333 -2.83594 25.0029 -8.50293 35.0029s-13.167 18.167 -22.5 24.5s-19.833 11.166 -31.5 14.499s-23.5 5 -35.5 5c-15.333 0 -30.166 -1.83301 -44.499 -5.5s-28.166 -8.83398 -41.499 -15.501l8 -45c12 6 23.833 10.833 35.5 14.5s24.167 5.5 37.5 5.5
c12 0 22.833 -2.83301 32.5 -8.5s14.5 -15.167 14.5 -28.5c0 -11.333 -3.33301 -21.333 -10 -30s-15 -16.167 -25 -22.5s-20.667 -11.333 -32 -15s-21.666 -6.16699 -30.999 -7.5l10 -44c3.33301 0.666992 8 1 14 1c19.333 0 36.166 -5 50.499 -15s21.5 -25.667 21.5 -47
c0 -15.333 -3.33301 -28.833 -10 -40.5s-15.5 -21.834 -26.5 -30.501s-23.167 -15.167 -36.5 -19.5s-27 -6.5 -41 -6.5c-26 0 -49.667 6.33301 -71 19l-4 -49c11.333 -6 23.333 -10.333 36 -13s25.334 -4 38.001 -4c22 0 43.167 3 63.5 9s38.5 15 54.5 27s28.667 27 38 45
s14 39 14 63c0 21.333 -5.66699 40.333 -17 57s-27.666 28 -48.999 34c19.333 7.33301 35.666 19.333 48.999 36s20 35.667 20 57z" />
    <glyph glyph-name="acute" unicode="&#xb4;" 
d="M426 651c0 2.66699 -1.49805 6.33398 -4.49805 11.001s-6.83301 9 -11.5 13s-9.33398 7.5 -14.001 10.5s-8.33398 4.5 -11.001 4.5c-5.33301 0 -10.333 -1.83301 -15 -5.5s-8.66699 -7.16699 -12 -10.5l-69.5 -73c-23 -23.333 -48.5 -45.333 -76.5 -66l49 -21
c54 31.333 104 70 150 116c2 2 5 5.16699 9 9.5s6 8.16602 6 11.499z" />
    <glyph glyph-name="mu" unicode="&#xb5;" horiz-adv-x="611" 
d="M472 107l-14 -80h-418l51 288c8 -12 18 -21 30 -27zM265 386c-4 -22.667 -15.167 -41.667 -33.5 -57s-38.833 -23 -61.5 -23c-20 0 -36.167 6.16699 -48.5 18.5s-18.5 28.166 -18.5 47.499v6c0 2.66699 0.333008 5.33398 1 8.00098h161zM521 386l-27 -154l-127 154h154z
M561 152l-43.999 54l43 247h-472l-80 -453h472l17 97c12.667 0 25.667 4.66699 39 14s21.666 23 24.999 41z" />
    <glyph glyph-name="mu" unicode="&#x3bc;" horiz-adv-x="611" 
d="M472 107l-14 -80h-418l51 288c8 -12 18 -21 30 -27zM265 386c-4 -22.667 -15.167 -41.667 -33.5 -57s-38.833 -23 -61.5 -23c-20 0 -36.167 6.16699 -48.5 18.5s-18.5 28.166 -18.5 47.499v6c0 2.66699 0.333008 5.33398 1 8.00098h161zM521 386l-27 -154l-127 154h154z
M561 152l-43.999 54l43 247h-472l-80 -453h472l17 97c12.667 0 25.667 4.66699 39 14s21.666 23 24.999 41z" />
    <glyph glyph-name="paragraph" unicode="&#xb6;" horiz-adv-x="386" 
d="M443 643l-153.003 -0.000976562c-29.333 0 -57.5 -4.66699 -84.5 -14s-50.833 -22.833 -71.5 -40.5s-37 -39 -49 -64s-18 -52.833 -18 -83.5c0 -25.333 4.83301 -46.833 14.5 -64.5s22.5 -32.167 38.5 -43.5s34.333 -19.5 55 -24.5s42.334 -7.5 65.001 -7.5l-59 -346
c-6 -36 -20.333 -66.167 -43 -90.5s-52 -40.5 -88 -48.5l46 -46c20.667 4.66699 39.834 12.834 57.501 24.501s33.334 25.5 47.001 41.5s25 33.667 34 53s15.167 39.333 18.5 60l111 633h68z" />
    <glyph glyph-name="periodcentered" unicode="&#xb7;" horiz-adv-x="191" 
d="M145 269c0 4 -1.66699 9.16699 -5 15.5s-7.5 12.5 -12.5 18.5s-10.167 11 -15.5 15s-10.333 6 -15 6c-4 0 -9.33301 -2 -16 -6s-13.167 -8.66699 -19.5 -14s-11.833 -11 -16.5 -17s-7 -11.333 -7 -16c0 -4 1.66699 -9.16699 5 -15.5s7.33301 -12.333 12 -18
s9.66699 -10.5 15 -14.5s10.333 -6 15 -6c4 0 9.5 1.83301 16.5 5.5s13.667 8.16699 20 13.5s11.833 11 16.5 17s7 11.333 7 16z" />
    <glyph glyph-name="periodcentered" unicode="&#x22c5;" horiz-adv-x="191" 
d="M145 269c0 4 -1.66699 9.16699 -5 15.5s-7.5 12.5 -12.5 18.5s-10.167 11 -15.5 15s-10.333 6 -15 6c-4 0 -9.33301 -2 -16 -6s-13.167 -8.66699 -19.5 -14s-11.833 -11 -16.5 -17s-7 -11.333 -7 -16c0 -4 1.66699 -9.16699 5 -15.5s7.33301 -12.333 12 -18
s9.66699 -10.5 15 -14.5s10.333 -6 15 -6c4 0 9.5 1.83301 16.5 5.5s13.667 8.16699 20 13.5s11.833 11 16.5 17s7 11.333 7 16z" />
    <glyph glyph-name="cedilla" unicode="&#xb8;" 
d="M270 -113c0 21.333 -7.33203 39.999 -21.999 55.999s-33 24.667 -55 26l14 32h-33c-1.33301 -3.33301 -3.33301 -7.66602 -6 -12.999s-5.33398 -11 -8.00098 -17s-5 -11.833 -7 -17.5s-3 -9.83398 -3 -12.501c0 -7.33301 3 -12.166 9 -14.499s12 -3.5 18 -3.5
c11.333 0 20.833 -4.16699 28.5 -12.5s11.5 -18.166 11.5 -29.499c0 -17.333 -6.66699 -32.166 -20 -44.499s-28.333 -18.5 -45 -18.5c-11.333 0 -22.333 1.66699 -33 5s-20.334 8.66602 -29.001 15.999l-17 -42c10.667 -8.66699 22.834 -14.834 36.501 -18.501
s27.167 -5.5 40.5 -5.5c16 0 31.333 2.83301 46 8.5s27.5 13.5 38.5 23.5s19.667 22 26 36s9.5 29.333 9.5 46z" />
    <glyph glyph-name="onesuperior" unicode="&#xb9;" horiz-adv-x="261" 
d="M238 650l-124 -11l-21 -50l82 7l-60 -347h53z" />
    <glyph glyph-name="ordmasculine" unicode="&#xba;" horiz-adv-x="452" 
d="M450 495c0 23.333 -4.00098 44.501 -12.001 63.501s-19 35.333 -33 49s-30.667 24.167 -50 31.5s-40.666 11 -63.999 11c-30 0 -58.833 -6 -86.5 -18s-52 -28.333 -73 -49s-37.667 -44.667 -50 -72s-18.5 -56 -18.5 -86c0 -24 4 -45.5 12 -64.5s19 -35.167 33 -48.5
s30.833 -23.5 50.5 -30.5s41.167 -10.5 64.5 -10.5c30 0 58.667 6 86 18s51.5 28.167 72.5 48.5s37.667 44.166 50 71.499s18.5 56 18.5 86zM247.999 152.001c0 4 -1.49902 8.66699 -4.49902 14s-6.5 10.5 -10.5 15.5s-8.33301 9.16699 -13 12.5s-9 5 -13 5
s-8.83301 -1.66699 -14.5 -5s-11.334 -7.5 -17.001 -12.5s-10.5 -10 -14.5 -15s-6 -9.5 -6 -13.5s1.5 -8.5 4.5 -13.5s6.66699 -10 11 -15s8.83301 -9.16699 13.5 -12.5s9 -5 13 -5s8.83301 1.66699 14.5 5s11.167 7.33301 16.5 12s10 9.5 14 14.5s6 9.5 6 13.5z
M384 495.001c0 -20.667 -4.16699 -40.998 -12.5 -60.998s-19.666 -37.833 -33.999 -53.5s-31 -28.334 -50 -38.001s-39.167 -14.5 -60.5 -14.5c-30 0 -53.667 9 -71 27s-26 42 -26 72c0 20.667 4.16699 41 12.5 61s19.666 37.667 33.999 53s31 27.666 50 36.999
s39.167 14 60.5 14c30 0 53.667 -8.66699 71 -26s26 -41 26 -71z" />
    <glyph glyph-name="guillemotright" unicode="&#xbb;" horiz-adv-x="392" 
d="M359 228c0 6.66699 -3.66699 13.6641 -11 20.9971c-4 4 -8.16699 7.83301 -12.5 11.5s-8.5 7.5 -12.5 11.5c-14 14 -26.833 29 -38.5 45s-22.5 32.667 -32.5 50l-15 -22l16.5 -58c5.66699 -19.333 13.167 -38 22.5 -56c-15.333 -18 -29.333 -36.667 -42 -56l-37 -59
l6 -31c21.333 22.667 43.333 43.334 66 62.001l71 56c3.33301 2.66699 7.33301 6.33398 12 11.001s7 9.33398 7 14.001zM174 227.997c0 4 -1.00098 7.66504 -3.00098 10.998s-4.33301 6.66602 -7 9.99902c-4 4 -8.16699 7.83301 -12.5 11.5s-8.5 7.5 -12.5 11.5
c-14 14 -26.833 29 -38.5 45s-22.5 32.667 -32.5 50l-15 -22l16.5 -58c5.66699 -19.333 12.834 -38 21.501 -56c-15.333 -18 -29.333 -36.667 -42 -56l-37 -59l6 -31c21.333 22.667 43.333 43.334 66 62.001l71 56c3.33301 2.66699 7.33301 6.33398 12 11.001
s7 9.33398 7 14.001z" />
    <glyph glyph-name="onequarter" unicode="&#xbc;" horiz-adv-x="729" 
d="M648 150h-50l45 244h-42l-245 -247l7 -41h171l-19 -106h54l20 106h51zM572 302c-2 -7.33301 -3.83301 -14.999 -5.5 -22.999s-3.16699 -15.667 -4.5 -23l-20 -106h-120l102 103l24 24c8 8 15.667 16.333 23 25c0 -0.666992 0.166992 -0.833984 0.5 -0.500977z
M684 627.001l-34 34l-638 -649l34 -34zM238 650.001l-124 -11l-21 -50l82 7l-60 -347h53z" />
    <glyph glyph-name="onehalf" unicode="&#xbd;" horiz-adv-x="789" 
d="M724 302c0 33.333 -10.8301 58.167 -32.4971 74.5s-48.167 24.5 -79.5 24.5c-36.667 0 -70.334 -8 -101.001 -24l8 -46c13.333 7.33301 27.666 13.166 42.999 17.499s30.666 6.5 45.999 6.5c17.333 0 31.666 -4.16699 42.999 -12.5s17 -22.166 17 -41.499
c0 -15.333 -4.16699 -31.666 -12.5 -48.999s-19.166 -35 -32.499 -53s-28.5 -36 -45.5 -54s-34.167 -35 -51.5 -51l-49.5 -44.5l-40.5 -34.5l-3 -15h257l8 45h-161l58.5 51.5c21.667 19.667 42 40.667 61 63s35 45.666 48 69.999s19.5 48.5 19.5 72.5zM684.003 627.001
l-34 34l-638 -649l34 -34zM238.003 650.001l-124 -11l-21 -50l82 7l-60 -347h53z" />
    <glyph glyph-name="threequarters" unicode="&#xbe;" horiz-adv-x="766" 
d="M696 150h-50l45 244h-42l-245 -247l7 -41h171l-19 -106h54l20 106h51zM732 627l-34 34l-638 -649l34 -35zM290 570c0 13.333 -2.83594 25.0029 -8.50293 35.0029s-13.167 18.167 -22.5 24.5s-19.833 11.166 -31.5 14.499s-23.5 5 -35.5 5
c-15.333 0 -30.166 -1.83301 -44.499 -5.5s-28.166 -8.83398 -41.499 -15.501l8 -45c12 6 23.833 10.833 35.5 14.5s24.167 5.5 37.5 5.5c12 0 22.833 -2.83301 32.5 -8.5s14.5 -15.167 14.5 -28.5c0 -11.333 -3.33301 -21.333 -10 -30s-15 -16.167 -25 -22.5
s-20.667 -11.333 -32 -15s-21.666 -6.16699 -30.999 -7.5l10 -44c3.33301 0.666992 8 1 14 1c19.333 0 36.166 -5 50.499 -15s21.5 -25.667 21.5 -47c0 -15.333 -3.33301 -28.833 -10 -40.5s-15.5 -21.834 -26.5 -30.501s-23.167 -15.167 -36.5 -19.5s-27 -6.5 -41 -6.5
c-26 0 -49.667 6.33301 -71 19l-4 -49c11.333 -6 23.333 -10.333 36 -13s25.334 -4 38.001 -4c22 0 43.167 3 63.5 9s38.5 15 54.5 27s28.667 27 38 45s14 39 14 63c0 21.333 -5.66699 40.333 -17 57s-27.666 28 -48.999 34c19.333 7.33301 35.666 19.333 48.999 36
s20 35.667 20 57zM619.997 302.003c-6 -25.333 -11.168 -50.668 -15.501 -76.001s-9.16602 -50.666 -14.499 -75.999h-120l102 103l24 24c8 8 15.667 16.333 23 25h1z" />
    <glyph glyph-name="questiondown" unicode="&#xbf;" horiz-adv-x="374" 
d="M297 25l-8.99707 65.999c-17.333 -10 -35.833 -18.333 -55.5 -25s-40.834 -10 -63.501 -10c-25.333 0 -44.666 7 -57.999 21s-20 30.333 -20 49c0 13.333 2.66699 25.833 8 37.5s12.166 22.667 20.499 33s17.5 20 27.5 29l29 25.5c30 25.333 52 52.833 66 82.5
s21 63.834 21 102.501v9c0 2.66699 -0.333008 5.33398 -1 8.00098l-64 16c0 -2.66699 0.166992 -5.33398 0.5 -8.00098s0.5 -5.66699 0.5 -9c0 -16.667 -1.33301 -31.667 -4 -45s-7 -25.666 -13 -36.999s-13.667 -22.333 -23 -33s-20.333 -21.334 -33 -32.001
c-14.667 -12 -28.834 -24.833 -42.501 -38.5s-25.834 -28.167 -36.501 -43.5s-19.167 -31.833 -25.5 -49.5s-9.5 -36.5 -9.5 -56.5s4 -37.833 12 -53.5s18.833 -29 32.5 -40s30 -19.333 49 -25s39.5 -8.5 61.5 -8.5c26 0 49.833 3.33301 71.5 10s41.167 15 58.5 25z
M247.003 543.999c4 0 9.5 1.83301 16.5 5.5s13.667 8.16699 20 13.5s11.833 11 16.5 17s7 11.333 7 16c0 4 -1.66699 9.16699 -5 15.5s-7.5 12.333 -12.5 18s-10.333 10.5 -16 14.5s-10.5 6 -14.5 6s-9.33301 -1.83301 -16 -5.5s-13.167 -8.16699 -19.5 -13.5
s-11.833 -11 -16.5 -17s-7 -11 -7 -15c0 -4.66699 1.66699 -10.167 5 -16.5s7.33301 -12.333 12 -18s9.66699 -10.5 15 -14.5s10.333 -6 15 -6z" />
    <glyph glyph-name="Agrave" unicode="&#xc0;" horiz-adv-x="608" 
d="M534 0l-152 647h-28l-380 -647h78l101 174h262l40 -174h79zM399 237h-207.999l103 181l24 44c8.66699 16 16.667 31.667 24 47h2c2 -15.333 4.16699 -31 6.5 -47s5.16602 -30.667 8.49902 -44zM465.001 736c-24.667 20 -46.667 41.501 -66 64.501
s-38.333 47.167 -57 72.5c-2.66699 3.33301 -6 7 -10 11s-8.66699 6 -14 6c-3.33301 0 -7.33301 -1.5 -12 -4.5s-9.16699 -6.83301 -13.5 -11.5s-8 -9.33398 -11 -14.001s-4.5 -8.66699 -4.5 -12c0 -4 1.16699 -7.66699 3.5 -11s4.5 -6.66602 6.5 -9.99902
c17.333 -22.667 37.333 -43.334 60 -62.001s45.667 -35.667 69 -51z" />
    <glyph glyph-name="Aacute" unicode="&#xc1;" horiz-adv-x="608" 
d="M534 0l-152 647h-28l-380 -647h78l101 174h262l40 -174h79zM399 237h-207.999l103 181l24 44c8.66699 16 16.667 31.667 24 47h2c2 -15.333 4.16699 -31 6.5 -47s5.16602 -30.667 8.49902 -44zM512.001 851c0 2.66699 -1.49805 6.33398 -4.49805 11.001
s-6.83301 9 -11.5 13s-9.33398 7.5 -14.001 10.5s-8.33398 4.5 -11.001 4.5c-5.33301 0 -10.333 -1.83301 -15 -5.5s-8.66699 -7.16699 -12 -10.5l-69.5 -73c-23 -23.333 -48.5 -45.333 -76.5 -66l49 -21c54 31.333 104 70 150 116c2 2 5 5.16699 9 9.5s6 8.16602 6 11.499z
" />
    <glyph glyph-name="Acircumflex" unicode="&#xc2;" horiz-adv-x="608" 
d="M534 0l-152 647h-28l-380 -647h78l101 174h262l40 -174h79zM399 237h-207.999l103 181l24 44c8.66699 16 16.667 31.667 24 47h2c2 -15.333 4.16699 -31 6.5 -47s5.16602 -30.667 8.49902 -44zM545.001 736c-17.333 15.333 -33.832 31.834 -49.499 49.501
s-29.834 36.167 -42.501 55.5c-3.33301 5.33301 -6.5 10.666 -9.5 15.999s-6.16699 10.666 -9.5 15.999c-2.66699 3.33301 -5.83398 7 -9.50098 11s-7.83398 6 -12.501 6c-5.33301 0 -10.833 -2 -16.5 -6s-10.167 -7.66699 -13.5 -11
c-5.33301 -5.33301 -10.5 -10.833 -15.5 -16.5s-10.167 -11.167 -15.5 -16.5c-19.333 -19.333 -39.666 -37.833 -60.999 -55.5s-43.333 -34.167 -66 -49.5l47 -21c44 24.667 85.667 53.334 125 86.001c14.667 -16.667 30.334 -32 47.001 -46s34 -27.333 52 -40z" />
    <glyph glyph-name="Atilde" unicode="&#xc3;" horiz-adv-x="608" 
d="M534 0l-152 647h-28l-380 -647h78l101 174h262l40 -174h79zM399 237h-207.999l103 181l24 44c8.66699 16 16.667 31.667 24 47h2c2 -15.333 4.16699 -31 6.5 -47s5.16602 -30.667 8.49902 -44zM580.001 844l-50.9971 22.0029c-3.33301 -4 -8.33301 -9.5 -15 -16.5
s-13.834 -13.833 -21.501 -20.5s-15.334 -12.5 -23.001 -17.5s-14.167 -7.5 -19.5 -7.5c-4.66699 0 -10.667 2.66699 -18 8l-24 17.5c-8.66699 6.33301 -17.334 12.166 -26.001 17.499s-17 8 -25 8s-18.333 -4.66699 -31 -14s-25.167 -20.333 -37.5 -33
s-24 -25.334 -35 -38.001s-19.167 -22.334 -24.5 -29.001l51 -22c3.33301 4 8.33301 9.33301 15 16l21.5 20.5c7.66699 7 15.167 13 22.5 18s13.666 7.5 18.999 7.5c4.66699 0 10.834 -2.66699 18.501 -8l24 -17c8.33301 -6 16.833 -11.667 25.5 -17s17 -8 25 -8
c8.66699 0 19.167 4.66699 31.5 14s24.833 20.166 37.5 32.499s24.5 24.833 35.5 37.5s19.167 22.334 24.5 29.001z" />
    <glyph glyph-name="Adieresis" unicode="&#xc4;" horiz-adv-x="608" 
d="M534 0l-152 647h-28l-380 -647h78l101 174h262l40 -174h79zM399 237h-207.999l103 181l24 44c8.66699 16 16.667 31.667 24 47h2c2 -15.333 4.16699 -31 6.5 -47s5.16602 -30.667 8.49902 -44zM516.001 763c0 4 -1.33301 8.66699 -4 14s-6.16699 10.5 -10.5 15.5
s-8.83301 9.33301 -13.5 13s-9 5.5 -13 5.5s-8.83301 -1.66699 -14.5 -5s-11.334 -7.5 -17.001 -12.5s-10.5 -10 -14.5 -15s-6 -9.5 -6 -13.5s1.5 -8.66699 4.5 -14s6.5 -10.5 10.5 -15.5s8.33301 -9.16699 13 -12.5s9 -5 13 -5s8.83301 1.66699 14.5 5
s11.334 7.33301 17.001 12s10.5 9.5 14.5 14.5s6 9.5 6 13.5zM362.001 763c0 4 -1.33301 8.66699 -4 14s-6.16699 10.5 -10.5 15.5s-8.83301 9.33301 -13.5 13s-9 5.5 -13 5.5s-8.83301 -1.66699 -14.5 -5s-11.334 -7.5 -17.001 -12.5s-10.5 -10 -14.5 -15s-6 -9.5 -6 -13.5
s1.5 -8.66699 4.5 -14s6.5 -10.5 10.5 -15.5s8.33301 -9.16699 13 -12.5s9 -5 13 -5s8.83301 1.66699 14.5 5s11.334 7.33301 17.001 12s10.5 9.5 14.5 14.5s6 9.5 6 13.5z" />
    <glyph glyph-name="Aring" unicode="&#xc5;" horiz-adv-x="608" 
d="M508 824c0 12.667 -2.33496 24.667 -7.00195 36s-11.167 21.166 -19.5 29.499s-18.166 15 -29.499 20s-23.333 7.5 -36 7.5c-16 0 -31.5 -3.16699 -46.5 -9.5s-28.167 -14.833 -39.5 -25.5s-20.5 -23.167 -27.5 -37.5s-10.5 -29.5 -10.5 -45.5
c0 -12.667 2.33301 -24.667 7 -36s11.167 -21.166 19.5 -29.499s18 -15 29 -20s23.167 -7.5 36.5 -7.5c16 0 31.333 3.16699 46 9.5s27.834 14.833 39.501 25.5s21 23.167 28 37.5s10.5 29.5 10.5 45.5zM454.998 823c0 -17.333 -6.50195 -32.999 -19.502 -46.999
s-28.167 -21 -45.5 -21c-13.333 0 -24.166 4.16699 -32.499 12.5s-12.5 19.166 -12.5 32.499c0 17.333 6.33301 32.833 19 46.5s28 20.5 46 20.5c12.667 0 23.334 -4 32.001 -12s13 -18.667 13 -32zM533.996 0.000976562l-152 647h-28l-380 -647h78l101 174h262l40 -174h79z
M398.996 237.001h-207.999l103 181l24 44c8.66699 16 16.667 31.667 24 47h2c2 -15.333 4.16699 -31 6.5 -47s5.16602 -30.667 8.49902 -44z" />
    <glyph glyph-name="AE" unicode="&#xc6;" horiz-adv-x="812" 
d="M832 638h-372l-481 -638h87l131 174h218l-31 -174h372l12 68h-294l39 219h213l12 68h-214l39 216h258zM485 570c-3.33301 -20.667 -6.5 -38.833 -9.5 -54.5l-10.5 -56.5l-39 -222h-185l165 220l40 56z" />
    <glyph glyph-name="Ccedilla" unicode="&#xc7;" horiz-adv-x="604" 
d="M618 602c-25.333 16 -53.8281 26.999 -85.4951 32.999s-62.5 9 -92.5 9c-52.667 0 -103 -9.5 -151 -28.5s-90.333 -45.333 -127 -79s-65.834 -73.5 -87.501 -119.5s-32.5 -96 -32.5 -150c0 -39.333 6.83301 -75.333 20.5 -108s32.667 -61 57 -85s53 -43 86 -57
s68.833 -21.667 107.5 -23l-5.5 -11.5l-7 -15c-2.33301 -5 -4.33301 -10 -6 -15s-2.5 -8.83301 -2.5 -11.5c0 -8 3.5 -12.833 10.5 -14.5l23 -5.5c8.33301 -2 16 -5.5 23 -10.5s10.5 -14.833 10.5 -29.5c0 -17.333 -6.66699 -32.166 -20 -44.499s-28.333 -18.5 -45 -18.5
c-11.333 0 -22.333 1.66699 -33 5s-20.334 8.66602 -29.001 15.999l-17 -42c11.333 -8.66699 23.666 -14.834 36.999 -18.501s26.666 -5.5 39.999 -5.5c16 0 31.333 2.83301 46 8.5s27.5 13.5 38.5 23.5s19.667 22 26 36s9.5 29.333 9.5 46c0 21.333 -7.33301 40 -22 56
s-33 24.667 -55 26l11 25c28 1.33301 55.667 4.5 83 9.5s53.666 14.167 78.999 27.5l13 72c-28 -14 -57.5 -24.5 -88.5 -31.5s-61.833 -10.5 -92.5 -10.5c-31.333 0 -60.166 4.66699 -86.499 14s-49.333 23 -69 41s-35 39.667 -46 65s-16.5 54 -16.5 86
c0 43.333 8.5 83.833 25.5 121.5s40 70.334 69 98.001s62.833 49.334 101.5 65.001s79.334 23.5 122.001 23.5c25.333 0 51.666 -3.33301 78.999 -10s51.666 -16.667 72.999 -30z" />
    <glyph glyph-name="Egrave" unicode="&#xc8;" horiz-adv-x="446" 
d="M466 638h-337l-111 -638h372l12 68h-293l38 219h213l12 68h-213l38 216h258zM401 736c-24 20 -45.667 41.501 -65 64.501l-58 72.5c-2.66699 3.33301 -6 7 -10 11s-8.66699 6 -14 6c-3.33301 0 -7.33301 -1.5 -12 -4.5s-9.16699 -6.83301 -13.5 -11.5
s-8 -9.33398 -11 -14.001s-4.5 -8.66699 -4.5 -12c0 -4 1.16699 -7.66699 3.5 -11s4.5 -6.66602 6.5 -9.99902c17.333 -22.667 37.333 -43.334 60 -62.001s45.667 -35.667 69 -51z" />
    <glyph glyph-name="Eacute" unicode="&#xc9;" horiz-adv-x="446" 
d="M466 638h-337l-111 -638h372l12 68h-293l38 219h213l12 68h-213l38 216h258zM442 851c0 2.66699 -1.49805 6.33398 -4.49805 11.001s-6.83301 9 -11.5 13s-9.33398 7.5 -14.001 10.5s-8.33398 4.5 -11.001 4.5c-5.33301 0 -10.333 -1.83301 -15 -5.5
s-8.66699 -7.16699 -12 -10.5l-69.5 -73c-23 -23.333 -48.5 -45.333 -76.5 -66l49 -21c54 31.333 104 70 150 116c2 2 5 5.16699 9 9.5s6 8.16602 6 11.499z" />
    <glyph glyph-name="Ecircumflex" unicode="&#xca;" horiz-adv-x="446" 
d="M466 638h-337l-111 -638h372l12 68h-293l38 219h213l12 68h-213l38 216h258zM485 736c-17.333 15.333 -33.6709 31.834 -49.0039 49.501s-29.666 36.167 -42.999 55.5c-3.33301 5.33301 -6.5 10.666 -9.5 15.999s-6.16699 10.666 -9.5 15.999l-9 11
c-3.33301 4 -7.66602 6 -12.999 6s-10.833 -2 -16.5 -6s-10.167 -7.66699 -13.5 -11c-5.33301 -5.33301 -10.5 -10.833 -15.5 -16.5s-10.167 -11.167 -15.5 -16.5c-19.333 -19.333 -39.666 -37.833 -60.999 -55.5s-43.333 -34.167 -66 -49.5l47 -21
c44 24.667 85.667 53.334 125 86.001c14.667 -16.667 30.334 -32 47.001 -46s34 -27.333 52 -40z" />
    <glyph glyph-name="Edieresis" unicode="&#xcb;" horiz-adv-x="446" 
d="M466 638h-337l-111 -638h372l12 68h-293l38 219h213l12 68h-213l38 216h258zM458 763c0 4 -1.49902 8.66699 -4.49902 14s-6.5 10.5 -10.5 15.5s-8.33301 9.33301 -13 13s-9 5.5 -13 5.5s-8.83301 -1.66699 -14.5 -5s-11.334 -7.5 -17.001 -12.5s-10.5 -10 -14.5 -15
s-6 -9.5 -6 -13.5s1.33301 -8.66699 4 -14s6.16699 -10.5 10.5 -15.5s8.83301 -9.16699 13.5 -12.5s9 -5 13 -5c3.33301 0 8 1.66699 14 5s11.833 7.33301 17.5 12s10.5 9.5 14.5 14.5s6 9.5 6 13.5zM304.001 763c0 4 -1.49902 8.66699 -4.49902 14s-6.5 10.5 -10.5 15.5
s-8.33301 9.33301 -13 13s-9 5.5 -13 5.5s-8.83301 -1.66699 -14.5 -5s-11.334 -7.5 -17.001 -12.5s-10.5 -10 -14.5 -15s-6 -9.5 -6 -13.5s1.33301 -8.66699 4 -14s6.16699 -10.5 10.5 -15.5s8.83301 -9.16699 13.5 -12.5s9 -5 13 -5c3.33301 0 8 1.66699 14 5
s11.833 7.33301 17.5 12s10.5 9.5 14.5 14.5s6 9.5 6 13.5z" />
    <glyph glyph-name="Igrave" unicode="&#xcc;" horiz-adv-x="234" 
d="M218 638h-79l-111 -638h78zM277 736c-24.667 20 -46.667 41.501 -66 64.501s-38.333 47.167 -57 72.5l-11 11c-4 4 -8.33301 6 -13 6c-3.33301 0 -7.33301 -1.5 -12 -4.5s-9.16699 -6.83301 -13.5 -11.5s-8 -9.33398 -11 -14.001s-4.5 -8.66699 -4.5 -12
c0 -4 1 -7.66699 3 -11s4.33301 -6.66602 7 -9.99902c17.333 -22.667 37.333 -43.334 60 -62.001s45.667 -35.667 69 -51z" />
    <glyph glyph-name="Iacute" unicode="&#xcd;" horiz-adv-x="234" 
d="M218 638h-79l-111 -638h78zM325 851c0 2.66699 -1.49805 6.33398 -4.49805 11.001s-6.83301 9 -11.5 13s-9.33398 7.5 -14.001 10.5s-8.33398 4.5 -11.001 4.5c-5.33301 0 -10.333 -1.83301 -15 -5.5s-8.66699 -7.16699 -12 -10.5l-69.5 -73
c-23 -23.333 -48.5 -45.333 -76.5 -66l49 -21c54 31.333 104 70 150 116c2 2 5 5.16699 9 9.5s6 8.16602 6 11.499z" />
    <glyph glyph-name="Icircumflex" unicode="&#xce;" horiz-adv-x="234" 
d="M218 638h-79l-111 -638h78zM358 736c-17.333 15.333 -33.832 31.834 -49.499 49.501s-29.834 36.167 -42.501 55.5c-3.33301 5.33301 -6.5 10.666 -9.5 15.999s-6.16699 10.666 -9.5 15.999c-2.66699 3.33301 -5.83398 7 -9.50098 11s-7.83398 6 -12.501 6
c-5.33301 0 -10.833 -2 -16.5 -6s-10.167 -7.66699 -13.5 -11c-5.33301 -5.33301 -10.5 -10.833 -15.5 -16.5s-10.167 -11.167 -15.5 -16.5c-19.333 -19.333 -39.666 -37.833 -60.999 -55.5s-43.333 -34.167 -66 -49.5l47 -21c44 24.667 85.667 53.334 125 86.001
c14.667 -16.667 30.334 -32 47.001 -46s34 -27.333 52 -40z" />
    <glyph glyph-name="Idieresis" unicode="&#xcf;" horiz-adv-x="234" 
d="M218 638h-79l-111 -638h78zM330 763c0 4 -1.49902 8.66699 -4.49902 14s-6.5 10.5 -10.5 15.5s-8.33301 9.33301 -13 13s-9 5.5 -13 5.5s-8.83301 -1.66699 -14.5 -5s-11.334 -7.5 -17.001 -12.5s-10.5 -10 -14.5 -15s-6 -9.5 -6 -13.5s1.33301 -8.66699 4 -14
s6.16699 -10.5 10.5 -15.5s8.83301 -9.16699 13.5 -12.5s9 -5 13 -5c3.33301 0 8 1.66699 14 5s11.833 7.33301 17.5 12s10.5 9.5 14.5 14.5s6 9.5 6 13.5zM176.001 763c0 4 -1.49902 8.66699 -4.49902 14s-6.5 10.5 -10.5 15.5s-8.33301 9.33301 -13 13s-9 5.5 -13 5.5
s-8.83301 -1.66699 -14.5 -5s-11.334 -7.5 -17.001 -12.5s-10.5 -10 -14.5 -15s-6 -9.5 -6 -13.5s1.33301 -8.66699 4 -14s6.16699 -10.5 10.5 -15.5s8.83301 -9.16699 13.5 -12.5s9 -5 13 -5c3.33301 0 8 1.66699 14 5s11.833 7.33301 17.5 12s10.5 9.5 14.5 14.5
s6 9.5 6 13.5z" />
    <glyph glyph-name="Eth" unicode="&#xd0;" horiz-adv-x="665" 
d="M635 375c0 43.333 -8.1709 81.332 -24.5039 113.999s-38.166 60 -65.499 82s-59.166 38.667 -95.499 50s-74.5 17 -114.5 17h-178l-50 -287h-80l-11 -60h81l-51 -291h178c54 0 105.833 8.83301 155.5 26.5s93.334 42.834 131.001 75.501s67.834 72.167 90.501 118.5
s34 97.833 34 154.5zM554.996 373.999c0 -47.333 -9 -90 -27 -128s-42.167 -70.333 -72.5 -97s-65.833 -47.167 -106.5 -61.5s-83.667 -21.5 -129 -21.5h-83l39 225h121l23 60h-133l38 220h89c32 0 62.5 -3.66699 91.5 -11s54.5 -18.833 76.5 -34.5s39.667 -36 53 -61
s20 -55.167 20 -90.5z" />
    <glyph glyph-name="Ntilde" unicode="&#xd1;" horiz-adv-x="696" 
d="M690 638h-78l-57 -330c-9.33301 -52.667 -18 -106.667 -26 -162l-2 -1l-26.5 41l-29.5 43.5l-29.5 42l-26.5 38.5l-231 328h-55l-111 -638h78l60 344c5.33301 28 10.333 56.167 15 84.5s9 57.5 13 87.5l2 1l58 -89l63 -91l247 -348h23zM621 844l-50.999 22.0029
l-16 -16.5c-6.66699 -7 -13.834 -13.833 -21.501 -20.5s-15.334 -12.5 -23.001 -17.5s-13.834 -7.5 -18.501 -7.5c-5.33301 0 -11.666 2.66699 -18.999 8l-23.5 17.5c-8.33301 6.33301 -16.833 12.166 -25.5 17.499s-17 8 -25 8c-8.66699 0 -19.167 -4.66699 -31.5 -14
s-24.833 -20.333 -37.5 -33s-24.5 -25.334 -35.5 -38.001s-18.833 -22.334 -23.5 -29.001l51 -22c3.33301 4 8.33301 9.33301 15 16l21.5 20.5c7.66699 7 15.167 13 22.5 18s13.666 7.5 18.999 7.5c4.66699 0 10.834 -2.66699 18.501 -8l24 -17
c8.33301 -6 16.833 -11.667 25.5 -17s17 -8 25 -8s18.333 4.66699 31 14s25.334 20.166 38.001 32.499s24.5 24.833 35.5 37.5s19.167 22.334 24.5 29.001z" />
    <glyph glyph-name="Ograve" unicode="&#xd2;" horiz-adv-x="754" 
d="M724 369c0 42 -7.33398 80.334 -22.001 115.001s-35 64.334 -61 89.001s-56.667 43.667 -92 57s-73.666 20 -114.999 20c-52 0 -101.5 -10 -148.5 -30s-88.5 -47.167 -124.5 -81.5s-64.5 -74.5 -85.5 -120.5s-31.5 -95.333 -31.5 -148c0 -42 7.33301 -80.333 22 -115
s34.834 -64.334 60.501 -89.001s56.167 -43.667 91.5 -57s73.666 -20 114.999 -20c52 0 101.5 9.83301 148.5 29.5s88.5 46.667 124.5 81s64.667 74.666 86 120.999s32 95.833 32 148.5zM642.999 368.001c0 -40 -8.16699 -78.833 -24.5 -116.5s-38.166 -71 -65.499 -100
s-59.333 -52.167 -96 -69.5s-75.334 -26 -116.001 -26c-32 0 -61.333 5.16699 -88 15.5s-49.5 24.833 -68.5 43.5s-33.833 41.167 -44.5 67.5s-16 55.5 -16 87.5c0 40 8.16699 78.667 24.5 116s38.166 70.5 65.499 99.5s59.333 52.333 96 70s75.334 26.5 116.001 26.5
c32 0 61.333 -5.16699 88 -15.5s49.5 -24.833 68.5 -43.5s33.833 -41.167 44.5 -67.5s16 -55.5 16 -87.5zM530.999 736.001c-24 20 -45.667 41.501 -65 64.501l-58 72.5c-2.66699 3.33301 -6 7 -10 11s-8.66699 6 -14 6c-3.33301 0 -7.33301 -1.5 -12 -4.5
s-9.16699 -6.83301 -13.5 -11.5s-8 -9.33398 -11 -14.001s-4.5 -8.66699 -4.5 -12c0 -4 1.16699 -7.66699 3.5 -11s4.5 -6.66602 6.5 -9.99902c17.333 -22.667 37.333 -43.334 60 -62.001s45.667 -35.667 69 -51z" />
    <glyph glyph-name="Oacute" unicode="&#xd3;" horiz-adv-x="754" 
d="M724 369c0 42 -7.33398 80.334 -22.001 115.001s-35 64.334 -61 89.001s-56.667 43.667 -92 57s-73.666 20 -114.999 20c-52 0 -101.5 -10 -148.5 -30s-88.5 -47.167 -124.5 -81.5s-64.5 -74.5 -85.5 -120.5s-31.5 -95.333 -31.5 -148c0 -42 7.33301 -80.333 22 -115
s34.834 -64.334 60.501 -89.001s56.167 -43.667 91.5 -57s73.666 -20 114.999 -20c52 0 101.5 9.83301 148.5 29.5s88.5 46.667 124.5 81s64.667 74.666 86 120.999s32 95.833 32 148.5zM642.999 368.001c0 -40 -8.16699 -78.833 -24.5 -116.5s-38.166 -71 -65.499 -100
s-59.333 -52.167 -96 -69.5s-75.334 -26 -116.001 -26c-32 0 -61.333 5.16699 -88 15.5s-49.5 24.833 -68.5 43.5s-33.833 41.167 -44.5 67.5s-16 55.5 -16 87.5c0 40 8.16699 78.667 24.5 116s38.166 70.5 65.499 99.5s59.333 52.333 96 70s75.334 26.5 116.001 26.5
c32 0 61.333 -5.16699 88 -15.5s49.5 -24.833 68.5 -43.5s33.833 -41.167 44.5 -67.5s16 -55.5 16 -87.5zM583.999 851.001c0 2.66699 -1.49805 6.33398 -4.49805 11.001s-6.83301 9 -11.5 13s-9.33398 7.5 -14.001 10.5s-8.33398 4.5 -11.001 4.5
c-5.33301 0 -10.333 -1.83301 -15 -5.5s-8.66699 -7.16699 -12 -10.5l-69.5 -73c-23 -23.333 -48.5 -45.333 -76.5 -66l49 -21c54 31.333 104 70 150 116c2 2 5 5.16699 9 9.5s6 8.16602 6 11.499z" />
    <glyph glyph-name="Ocircumflex" unicode="&#xd4;" horiz-adv-x="754" 
d="M724 369c0 42 -7.33398 80.334 -22.001 115.001s-35 64.334 -61 89.001s-56.667 43.667 -92 57s-73.666 20 -114.999 20c-52 0 -101.5 -10 -148.5 -30s-88.5 -47.167 -124.5 -81.5s-64.5 -74.5 -85.5 -120.5s-31.5 -95.333 -31.5 -148c0 -42 7.33301 -80.333 22 -115
s34.834 -64.334 60.501 -89.001s56.167 -43.667 91.5 -57s73.666 -20 114.999 -20c52 0 101.5 9.83301 148.5 29.5s88.5 46.667 124.5 81s64.667 74.666 86 120.999s32 95.833 32 148.5zM642.999 368.001c0 -40 -8.16699 -78.833 -24.5 -116.5s-38.166 -71 -65.499 -100
s-59.333 -52.167 -96 -69.5s-75.334 -26 -116.001 -26c-32 0 -61.333 5.16699 -88 15.5s-49.5 24.833 -68.5 43.5s-33.833 41.167 -44.5 67.5s-16 55.5 -16 87.5c0 40 8.16699 78.667 24.5 116s38.166 70.5 65.499 99.5s59.333 52.333 96 70s75.334 26.5 116.001 26.5
c32 0 61.333 -5.16699 88 -15.5s49.5 -24.833 68.5 -43.5s33.833 -41.167 44.5 -67.5s16 -55.5 16 -87.5zM615.999 736.001c-17.333 15.333 -33.6699 31.834 -49.0029 49.501s-29.666 36.167 -42.999 55.5c-3.33301 5.33301 -6.5 10.666 -9.5 15.999
s-6.16699 10.666 -9.5 15.999l-9 11c-3.33301 4 -7.66602 6 -12.999 6s-10.833 -2 -16.5 -6s-10.167 -7.66699 -13.5 -11c-5.33301 -5.33301 -10.5 -10.833 -15.5 -16.5s-10.167 -11.167 -15.5 -16.5c-19.333 -19.333 -39.5 -37.833 -60.5 -55.5
s-43.167 -34.167 -66.5 -49.5l47 -21c44 24.667 85.667 53.334 125 86.001c14.667 -16.667 30.334 -32 47.001 -46s34 -27.333 52 -40z" />
    <glyph glyph-name="Otilde" unicode="&#xd5;" horiz-adv-x="754" 
d="M724 369c0 42 -7.33398 80.334 -22.001 115.001s-35 64.334 -61 89.001s-56.667 43.667 -92 57s-73.666 20 -114.999 20c-52 0 -101.5 -10 -148.5 -30s-88.5 -47.167 -124.5 -81.5s-64.5 -74.5 -85.5 -120.5s-31.5 -95.333 -31.5 -148c0 -42 7.33301 -80.333 22 -115
s34.834 -64.334 60.501 -89.001s56.167 -43.667 91.5 -57s73.666 -20 114.999 -20c52 0 101.5 9.83301 148.5 29.5s88.5 46.667 124.5 81s64.667 74.666 86 120.999s32 95.833 32 148.5zM642.999 368.001c0 -40 -8.16699 -78.833 -24.5 -116.5s-38.166 -71 -65.499 -100
s-59.333 -52.167 -96 -69.5s-75.334 -26 -116.001 -26c-32 0 -61.333 5.16699 -88 15.5s-49.5 24.833 -68.5 43.5s-33.833 41.167 -44.5 67.5s-16 55.5 -16 87.5c0 40 8.16699 78.667 24.5 116s38.166 70.5 65.499 99.5s59.333 52.333 96 70s75.334 26.5 116.001 26.5
c32 0 61.333 -5.16699 88 -15.5s49.5 -24.833 68.5 -43.5s33.833 -41.167 44.5 -67.5s16 -55.5 16 -87.5zM636.999 844.001l-50.9961 22.0029c-3.33301 -4 -8.33301 -9.5 -15 -16.5s-13.834 -13.833 -21.501 -20.5s-15.334 -12.5 -23.001 -17.5s-14.167 -7.5 -19.5 -7.5
c-4.66699 0 -10.667 2.66699 -18 8l-24 17.5c-8.66699 6.33301 -17.334 12.166 -26.001 17.499s-17 8 -25 8s-18.333 -4.66699 -31 -14s-25.167 -20.333 -37.5 -33s-24 -25.334 -35 -38.001s-19.167 -22.334 -24.5 -29.001l51 -22l16 16l21 20.5
c7.33301 7 14.666 13 21.999 18s13.666 7.5 18.999 7.5c4.66699 0 10.834 -2.66699 18.501 -8l24 -17c8.33301 -6 16.833 -11.667 25.5 -17s17 -8 25 -8c8.66699 0 19.167 4.66699 31.5 14s24.833 20.166 37.5 32.499s24.5 24.833 35.5 37.5s19.167 22.334 24.5 29.001z" />
    <glyph glyph-name="Odieresis" unicode="&#xd6;" horiz-adv-x="754" 
d="M724 369c0 42 -7.33398 80.334 -22.001 115.001s-35 64.334 -61 89.001s-56.667 43.667 -92 57s-73.666 20 -114.999 20c-52 0 -101.5 -10 -148.5 -30s-88.5 -47.167 -124.5 -81.5s-64.5 -74.5 -85.5 -120.5s-31.5 -95.333 -31.5 -148c0 -42 7.33301 -80.333 22 -115
s34.834 -64.334 60.501 -89.001s56.167 -43.667 91.5 -57s73.666 -20 114.999 -20c52 0 101.5 9.83301 148.5 29.5s88.5 46.667 124.5 81s64.667 74.666 86 120.999s32 95.833 32 148.5zM642.999 368.001c0 -40 -8.16699 -78.833 -24.5 -116.5s-38.166 -71 -65.499 -100
s-59.333 -52.167 -96 -69.5s-75.334 -26 -116.001 -26c-32 0 -61.333 5.16699 -88 15.5s-49.5 24.833 -68.5 43.5s-33.833 41.167 -44.5 67.5s-16 55.5 -16 87.5c0 40 8.16699 78.667 24.5 116s38.166 70.5 65.499 99.5s59.333 52.333 96 70s75.334 26.5 116.001 26.5
c32 0 61.333 -5.16699 88 -15.5s49.5 -24.833 68.5 -43.5s33.833 -41.167 44.5 -67.5s16 -55.5 16 -87.5zM588.999 763.001c0 4 -1.33398 8.66699 -4.00098 14s-6.16699 10.5 -10.5 15.5s-8.83301 9.33301 -13.5 13s-9 5.5 -13 5.5c-3.33301 0 -8 -1.66699 -14 -5
s-11.833 -7.5 -17.5 -12.5s-10.5 -10 -14.5 -15s-6 -9.5 -6 -13.5s1.5 -8.66699 4.5 -14s6.5 -10.5 10.5 -15.5s8.33301 -9.16699 13 -12.5s9 -5 13 -5s8.83301 1.66699 14.5 5s11.334 7.33301 17.001 12s10.5 9.5 14.5 14.5s6 9.5 6 13.5zM434.998 763.001
c0 4 -1.33398 8.66699 -4.00098 14s-6.16699 10.5 -10.5 15.5s-8.83301 9.33301 -13.5 13s-9 5.5 -13 5.5c-3.33301 0 -8 -1.66699 -14 -5s-11.833 -7.5 -17.5 -12.5s-10.5 -10 -14.5 -15s-6 -9.5 -6 -13.5s1.5 -8.66699 4.5 -14s6.5 -10.5 10.5 -15.5
s8.33301 -9.16699 13 -12.5s9 -5 13 -5s8.83301 1.66699 14.5 5s11.334 7.33301 17.001 12s10.5 9.5 14.5 14.5s6 9.5 6 13.5z" />
    <glyph glyph-name="multiply" unicode="&#xd7;" horiz-adv-x="473" 
d="M418 393l-33 39l-146 -124l-99 121l-39 -33l100 -121l-147 -125l33 -39l147 125l100 -121l38 32l-100 122z" />
    <glyph glyph-name="Oslash" unicode="&#xd8;" horiz-adv-x="754" 
d="M727 634l-34.001 33.002l-72 -73c-26 19.333 -54.5 33.5 -85.5 42.5s-62.5 13.5 -94.5 13.5c-52.667 0 -103 -10.5 -151 -31.5s-90.5 -49.167 -127.5 -84.5s-66.5 -76.833 -88.5 -124.5s-33 -97.834 -33 -150.501c0 -34 5.83301 -66.833 17.5 -98.5
s29.167 -60.167 52.5 -85.5l-71 -72l34 -34l73 75c25.333 -18.667 53.333 -32.5 84 -41.5s62 -13.5 94 -13.5c52.667 0 103 10.5 151 31.5s90.333 49.333 127 85s65.834 77.167 87.501 124.5s32.5 97.666 32.5 150.999c0 34 -5.33301 66.333 -16 97s-27.667 58.667 -51 84z
M643.999 369.002c0 -41.333 -8.33398 -80.834 -25.001 -118.501s-39 -70.834 -67 -99.501s-60.667 -51.667 -98 -69s-76.666 -26 -117.999 -26c-24 0 -47.667 3.33301 -71 10s-44.666 17.334 -63.999 32.001l398 406c15.333 -19.333 26.666 -40.666 33.999 -63.999
s11 -47 11 -71zM564.998 537.001l-398.999 -406c-15.333 19.333 -26.5 40.5 -33.5 63.5s-10.5 46.5 -10.5 70.5c0 41.333 8.16699 81 24.5 119s38.5 71.5 66.5 100.5s60.667 52.167 98 69.5s77 26 119 26c24 0 47.667 -3.5 71 -10.5s44.666 -17.833 63.999 -32.5z" />
    <glyph glyph-name="Ugrave" unicode="&#xd9;" horiz-adv-x="642" 
d="M636 638l-75.999 0.00195312l-47 -269l-11.5 -67c-3.66699 -22 -7.83398 -44.333 -12.501 -67c-11.333 -54.667 -35.166 -97.667 -71.499 -129s-82.833 -47 -139.5 -47c-20.667 0 -40 2.33301 -58 7s-33.5 12.167 -46.5 22.5s-23.167 23.5 -30.5 39.5s-11 35.333 -11 58
c0 6.66699 0.333008 13 1 19s1.66699 12.333 3 19l72 414h-79l-71 -411c-1.33301 -7.33301 -2.33301 -15 -3 -23s-1 -16 -1 -24c0 -32 5.83301 -60 17.5 -84s27.5 -44 47.5 -60s43.167 -27.833 69.5 -35.5s54.5 -11.5 84.5 -11.5c36.667 0 71.167 5 103.5 15
s61.166 24.667 86.499 44s46.5 43.166 63.5 71.499s29.167 61.166 36.5 98.499c13.333 70 25.833 139.833 37.5 209.5zM481.001 736.002c-24.667 20 -46.667 41.501 -66 64.501s-38.333 47.167 -57 72.5c-2.66699 3.33301 -6 7 -10 11s-8.66699 6 -14 6
c-3.33301 0 -7.33301 -1.5 -12 -4.5s-9.16699 -6.83301 -13.5 -11.5s-8 -9.33398 -11 -14.001s-4.5 -8.66699 -4.5 -12c0 -4 1.16699 -7.66699 3.5 -11s4.5 -6.66602 6.5 -9.99902c17.333 -22.667 37.333 -43.334 60 -62.001s45.667 -35.667 69 -51z" />
    <glyph glyph-name="Uacute" unicode="&#xda;" horiz-adv-x="642" 
d="M636 638l-75.999 0.00195312l-47 -269l-11.5 -67c-3.66699 -22 -7.83398 -44.333 -12.501 -67c-11.333 -54.667 -35.166 -97.667 -71.499 -129s-82.833 -47 -139.5 -47c-20.667 0 -40 2.33301 -58 7s-33.5 12.167 -46.5 22.5s-23.167 23.5 -30.5 39.5s-11 35.333 -11 58
c0 6.66699 0.333008 13 1 19s1.66699 12.333 3 19l72 414h-79l-71 -411c-1.33301 -7.33301 -2.33301 -15 -3 -23s-1 -16 -1 -24c0 -32 5.83301 -60 17.5 -84s27.5 -44 47.5 -60s43.167 -27.833 69.5 -35.5s54.5 -11.5 84.5 -11.5c36.667 0 71.167 5 103.5 15
s61.166 24.667 86.499 44s46.5 43.166 63.5 71.499s29.167 61.166 36.5 98.499c13.333 70 25.833 139.833 37.5 209.5zM532.001 851.002c0 2.66699 -1.49805 6.33398 -4.49805 11.001s-6.83301 9 -11.5 13s-9.33398 7.5 -14.001 10.5s-8.33398 4.5 -11.001 4.5
c-5.33301 0 -10.333 -1.83301 -15 -5.5s-8.66699 -7.16699 -12 -10.5l-69.5 -73c-23 -23.333 -48.5 -45.333 -76.5 -66l49 -21c54 31.333 104 70 150 116c2 2 5 5.16699 9 9.5s6 8.16602 6 11.499z" />
    <glyph glyph-name="Ucircumflex" unicode="&#xdb;" horiz-adv-x="642" 
d="M636 638l-75.999 0.00195312l-47 -269l-11.5 -67c-3.66699 -22 -7.83398 -44.333 -12.501 -67c-11.333 -54.667 -35.166 -97.667 -71.499 -129s-82.833 -47 -139.5 -47c-20.667 0 -40 2.33301 -58 7s-33.5 12.167 -46.5 22.5s-23.167 23.5 -30.5 39.5s-11 35.333 -11 58
c0 6.66699 0.333008 13 1 19s1.66699 12.333 3 19l72 414h-79l-71 -411c-1.33301 -7.33301 -2.33301 -15 -3 -23s-1 -16 -1 -24c0 -32 5.83301 -60 17.5 -84s27.5 -44 47.5 -60s43.167 -27.833 69.5 -35.5s54.5 -11.5 84.5 -11.5c36.667 0 71.167 5 103.5 15
s61.166 24.667 86.499 44s46.5 43.166 63.5 71.499s29.167 61.166 36.5 98.499c13.333 70 25.833 139.833 37.5 209.5zM564.001 736.002c-17.333 15.333 -33.835 31.834 -49.502 49.501s-29.834 36.167 -42.501 55.5c-3.33301 5.33301 -6.5 10.666 -9.5 15.999
s-6.16699 10.666 -9.5 15.999l-9 11c-3.33301 4 -7.66602 6 -12.999 6s-10.833 -2 -16.5 -6s-10.167 -7.66699 -13.5 -11c-5.33301 -5.33301 -10.5 -10.833 -15.5 -16.5s-10.167 -11.167 -15.5 -16.5c-19.333 -19.333 -39.666 -37.833 -60.999 -55.5
s-43.333 -34.167 -66 -49.5l47 -21c44 24.667 85.667 53.334 125 86.001c14.667 -16.667 30.334 -32 47.001 -46s34 -27.333 52 -40z" />
    <glyph glyph-name="Udieresis" unicode="&#xdc;" horiz-adv-x="642" 
d="M636 638l-75.999 0.00195312l-47 -269l-11.5 -67c-3.66699 -22 -7.83398 -44.333 -12.501 -67c-11.333 -54.667 -35.166 -97.667 -71.499 -129s-82.833 -47 -139.5 -47c-20.667 0 -40 2.33301 -58 7s-33.5 12.167 -46.5 22.5s-23.167 23.5 -30.5 39.5s-11 35.333 -11 58
c0 6.66699 0.333008 13 1 19s1.66699 12.333 3 19l72 414h-79l-71 -411c-1.33301 -7.33301 -2.33301 -15 -3 -23s-1 -16 -1 -24c0 -32 5.83301 -60 17.5 -84s27.5 -44 47.5 -60s43.167 -27.833 69.5 -35.5s54.5 -11.5 84.5 -11.5c36.667 0 71.167 5 103.5 15
s61.166 24.667 86.499 44s46.5 43.166 63.5 71.499s29.167 61.166 36.5 98.499c13.333 70 25.833 139.833 37.5 209.5zM530.001 763.002c0 4 -1.33398 8.66699 -4.00098 14s-6.16699 10.5 -10.5 15.5s-8.83301 9.33301 -13.5 13s-9 5.5 -13 5.5
c-3.33301 0 -8 -1.66699 -14 -5s-11.833 -7.5 -17.5 -12.5s-10.5 -10 -14.5 -15s-6 -9.5 -6 -13.5s1.5 -8.66699 4.5 -14s6.5 -10.5 10.5 -15.5s8.33301 -9.16699 13 -12.5s9 -5 13 -5s8.83301 1.66699 14.5 5s11.334 7.33301 17.001 12s10.5 9.5 14.5 14.5s6 9.5 6 13.5z
M376 763.002c0 4 -1.33398 8.66699 -4.00098 14s-6.16699 10.5 -10.5 15.5s-8.83301 9.33301 -13.5 13s-9 5.5 -13 5.5c-3.33301 0 -8 -1.66699 -14 -5s-11.833 -7.5 -17.5 -12.5s-10.5 -10 -14.5 -15s-6 -9.5 -6 -13.5s1.5 -8.66699 4.5 -14s6.5 -10.5 10.5 -15.5
s8.33301 -9.16699 13 -12.5s9 -5 13 -5s8.83301 1.66699 14.5 5s11.334 7.33301 17.001 12s10.5 9.5 14.5 14.5s6 9.5 6 13.5z" />
    <glyph glyph-name="Yacute" unicode="&#xdd;" horiz-adv-x="613" 
d="M651 638l-85 0.000976562l-166 -189l-40 -46l-40 -48h-2c-7.33301 15.333 -15.333 31.166 -24 47.499l-24 46.5l-101 189h-83l183 -343l-51 -295h77l51 295zM512 851.001c0 2.66699 -1.49805 6.33398 -4.49805 11.001s-6.83301 9 -11.5 13s-9.33398 7.5 -14.001 10.5
s-8.33398 4.5 -11.001 4.5c-5.33301 0 -10.333 -1.83301 -15 -5.5s-8.66699 -7.16699 -12 -10.5l-69.5 -73c-23 -23.333 -48.5 -45.333 -76.5 -66l49 -21c54 31.333 104 70 150 116c2 2 5 5.16699 9 9.5s6 8.16602 6 11.499z" />
    <glyph glyph-name="Thorn" unicode="&#xde;" horiz-adv-x="484" 
d="M469 417c0 22.667 -4.50195 43.166 -13.502 61.499s-21 33.833 -36 46.5s-32.333 22.334 -52 29.001s-40.5 10 -62.5 10h-111l13 74h-78l-111 -638h78l37 214h114c28.667 0 56.334 5 83.001 15s50.334 23.833 71.001 41.5s37.167 39 49.5 64s18.5 52.5 18.5 82.5z
M388.998 410.999c0 -19.333 -4 -37.167 -12 -53.5s-18.833 -30.333 -32.5 -42s-29.167 -20.667 -46.5 -27s-35.333 -9.5 -54 -9.5h-100l39 217h103c13.333 0 26.166 -1.66699 38.499 -5s23.333 -8.33301 33 -15s17.334 -15.5 23.001 -26.5s8.5 -23.833 8.5 -38.5z" />
    <glyph glyph-name="germandbls" unicode="&#xdf;" horiz-adv-x="583" 
d="M501 410c10 21.333 18.001 42.8301 24.001 64.4971s9 44.5 9 68.5c0 52 -15.5 93.167 -46.5 123.5s-73.833 45.5 -128.5 45.5c-57.333 0 -105.333 -15.833 -144 -47.5s-63.667 -79.5 -75 -143.5l-12 -68h-79l-10 -60h79l-69 -393h74l90 517c8 44.667 24.5 78 49.5 100
s56.167 33 93.5 33c36.667 0 63.667 -10.333 81 -31s26 -45.334 26 -74.001c0 -13.333 -1.5 -26.666 -4.5 -39.999s-7.16699 -26 -12.5 -38c-20.667 -0.666992 -40.334 -4 -59.001 -10s-35.5 -14.5 -50.5 -25.5s-27.5 -24 -37.5 -39s-16.667 -31.833 -20 -50.5
c-1.33301 -4.66699 -2 -9 -2 -13v-12c0 -28.667 9.5 -52 28.5 -70s46.167 -33.667 81.5 -47c19.333 -7.33301 34.5 -16.166 45.5 -26.499s16.5 -23.166 16.5 -38.499c0 -5.33301 -0.333008 -9.33301 -1 -12c-3.33301 -19.333 -13.833 -35.333 -31.5 -48
s-38.167 -19 -61.5 -19c-24 0 -46.333 3.83301 -67 11.5s-39 18.167 -55 31.5l-12 -66c12 -11.333 30 -20.833 54 -28.5s49.333 -11.5 76 -11.5c50 0 89.5 11.333 118.5 34s46.833 52.334 53.5 89.001c1.33301 4.66699 2 9 2 13v13c0 30 -10 54.667 -30 74
s-48 35.666 -84 48.999c-19.333 7.33301 -34.333 15.333 -45 24s-16 20 -16 34c0 5.33301 0.333008 9.33301 1 12c4 22.667 18.5 40.834 43.5 54.501s58.833 20.5 101.5 20.5h5z" />
    <glyph glyph-name="agrave" unicode="&#xe0;" horiz-adv-x="528" 
d="M420 390l-20 -107.999c-6.66699 -36.667 -17.167 -69.167 -31.5 -97.5s-30.833 -52.333 -49.5 -72s-38.334 -34.667 -59.001 -45s-40.667 -15.5 -60 -15.5s-35.5 3 -48.5 9s-23.5 14.167 -31.5 24.5s-13.833 22 -17.5 35s-5.5 26.5 -5.5 40.5c0 11.333 1 22.666 3 33.999
c4.66699 28.667 14.334 55.5 29.001 80.5s32.667 47 54 66s45.333 34 72 45s54.667 16.5 84 16.5c15.333 0 30.5 -1.33301 45.5 -4s26.833 -5.66699 35.5 -9zM501 429.001c-20.667 11.333 -44.5 19.8311 -71.5 25.498s-54.833 8.5 -83.5 8.5
c-36.667 0 -72.5 -5.83301 -107.5 -17.5s-67 -28.667 -96 -51s-53.667 -49.666 -74 -81.999s-34.5 -68.833 -42.5 -109.5c-2.66699 -12.667 -4 -27 -4 -43c0 -21.333 3 -42.166 9 -62.499s15.5 -38.5 28.5 -54.5s29.667 -28.833 50 -38.5s44.5 -14.5 72.5 -14.5
c36 0 71.333 10 106 30s62 51.667 82 95l2 -1l-20 -114h74zM392 546.999c-21.333 17.333 -40.166 35.834 -56.499 55.501s-32.5 40.167 -48.5 61.5c-2 3.33301 -4.83301 6.5 -8.5 9.5s-7.5 4.5 -11.5 4.5c-2.66699 0 -6 -1.33301 -10 -4s-7.83301 -5.83398 -11.5 -9.50098
s-6.83398 -7.5 -9.50098 -11.5s-4 -7.33301 -4 -10c0 -3.33301 1 -6.5 3 -9.5s4 -5.83301 6 -8.5c14.667 -19.333 31.5 -36.833 50.5 -52.5s38.5 -30.167 58.5 -43.5z" />
    <glyph glyph-name="aacute" unicode="&#xe1;" horiz-adv-x="528" 
d="M420 390l-20 -107.999c-6.66699 -36.667 -17.167 -69.167 -31.5 -97.5s-30.833 -52.333 -49.5 -72s-38.334 -34.667 -59.001 -45s-40.667 -15.5 -60 -15.5s-35.5 3 -48.5 9s-23.5 14.167 -31.5 24.5s-13.833 22 -17.5 35s-5.5 26.5 -5.5 40.5c0 11.333 1 22.666 3 33.999
c4.66699 28.667 14.334 55.5 29.001 80.5s32.667 47 54 66s45.333 34 72 45s54.667 16.5 84 16.5c15.333 0 30.5 -1.33301 45.5 -4s26.833 -5.66699 35.5 -9zM501 429.001c-20.667 11.333 -44.5 19.8311 -71.5 25.498s-54.833 8.5 -83.5 8.5
c-36.667 0 -72.5 -5.83301 -107.5 -17.5s-67 -28.667 -96 -51s-53.667 -49.666 -74 -81.999s-34.5 -68.833 -42.5 -109.5c-2.66699 -12.667 -4 -27 -4 -43c0 -21.333 3 -42.166 9 -62.499s15.5 -38.5 28.5 -54.5s29.667 -28.833 50 -38.5s44.5 -14.5 72.5 -14.5
c36 0 71.333 10 106 30s62 51.667 82 95l2 -1l-20 -114h74zM456 644.999c0 2.66699 -1.33203 5.83105 -3.99902 9.49805s-5.83398 7.33398 -9.50098 11.001s-7.5 6.66699 -11.5 9s-7.33301 3.5 -10 3.5c-4.66699 0 -9 -1.33301 -13 -4s-7.33301 -5.66699 -10 -9l-59.5 -62
c-19.667 -20 -41.167 -38.667 -64.5 -56l42 -18c46.667 27.333 89 60 127 98c2 2 4.66699 4.83301 8 8.5s5 6.83398 5 9.50098z" />
    <glyph glyph-name="acircumflex" unicode="&#xe2;" horiz-adv-x="528" 
d="M420 390l-20 -107.999c-6.66699 -36.667 -17.167 -69.167 -31.5 -97.5s-30.833 -52.333 -49.5 -72s-38.334 -34.667 -59.001 -45s-40.667 -15.5 -60 -15.5s-35.5 3 -48.5 9s-23.5 14.167 -31.5 24.5s-13.833 22 -17.5 35s-5.5 26.5 -5.5 40.5c0 11.333 1 22.666 3 33.999
c4.66699 28.667 14.334 55.5 29.001 80.5s32.667 47 54 66s45.333 34 72 45s54.667 16.5 84 16.5c15.333 0 30.5 -1.33301 45.5 -4s26.833 -5.66699 35.5 -9zM501 429.001c-20.667 11.333 -44.5 19.8311 -71.5 25.498s-54.833 8.5 -83.5 8.5
c-36.667 0 -72.5 -5.83301 -107.5 -17.5s-67 -28.667 -96 -51s-53.667 -49.666 -74 -81.999s-34.5 -68.833 -42.5 -109.5c-2.66699 -12.667 -4 -27 -4 -43c0 -21.333 3 -42.166 9 -62.499s15.5 -38.5 28.5 -54.5s29.667 -28.833 50 -38.5s44.5 -14.5 72.5 -14.5
c36 0 71.333 10 106 30s62 51.667 82 95l2 -1l-20 -114h74zM473 547.999c-14.667 13.333 -28.666 27.335 -41.999 42.002s-25.333 30.334 -36 47.001c-3.33301 4.66699 -6 9.16699 -8 13.5s-4.66699 8.83301 -8 13.5c-2 3.33301 -4.66699 6.5 -8 9.5s-7 4.5 -11 4.5
c-4.66699 0 -9.16699 -1.5 -13.5 -4.5s-8.16602 -6.16699 -11.499 -9.5c-5.33301 -4.66699 -10 -9.33398 -14 -14.001s-8.33301 -9.33398 -13 -14.001c-34 -34 -70 -63.667 -108 -89l40 -18c19.333 10.667 37.666 22.167 54.999 34.5s34.333 25.166 51 38.499
c12.667 -14 26.167 -27 40.5 -39s29.166 -23.333 44.499 -34z" />
    <glyph glyph-name="atilde" unicode="&#xe3;" horiz-adv-x="528" 
d="M420 390l-20 -107.999c-6.66699 -36.667 -17.167 -69.167 -31.5 -97.5s-30.833 -52.333 -49.5 -72s-38.334 -34.667 -59.001 -45s-40.667 -15.5 -60 -15.5s-35.5 3 -48.5 9s-23.5 14.167 -31.5 24.5s-13.833 22 -17.5 35s-5.5 26.5 -5.5 40.5c0 11.333 1 22.666 3 33.999
c4.66699 28.667 14.334 55.5 29.001 80.5s32.667 47 54 66s45.333 34 72 45s54.667 16.5 84 16.5c15.333 0 30.5 -1.33301 45.5 -4s26.833 -5.66699 35.5 -9zM501 429.001c-20.667 11.333 -44.5 19.8311 -71.5 25.498s-54.833 8.5 -83.5 8.5
c-36.667 0 -72.5 -5.83301 -107.5 -17.5s-67 -28.667 -96 -51s-53.667 -49.666 -74 -81.999s-34.5 -68.833 -42.5 -109.5c-2.66699 -12.667 -4 -27 -4 -43c0 -21.333 3 -42.166 9 -62.499s15.5 -38.5 28.5 -54.5s29.667 -28.833 50 -38.5s44.5 -14.5 72.5 -14.5
c36 0 71.333 10 106 30s62 51.667 82 95l2 -1l-20 -114h74zM485 638.999l-43.002 19.001l-13.5 -14c-5.66699 -6 -11.667 -11.833 -18 -17.5s-12.666 -10.667 -18.999 -15s-11.833 -6.5 -16.5 -6.5c-4 0 -9.16699 2.33301 -15.5 7l-20.5 15
c-7.33301 5.33301 -14.666 10.333 -21.999 15s-14.333 7 -21 7c-7.33301 0 -16.333 -4 -27 -12s-21.334 -17.333 -32.001 -28s-20.5 -21.334 -29.5 -32.001s-15.833 -19 -20.5 -25l43 -19l13.5 14c5.66699 6 11.667 11.833 18 17.5s12.666 10.667 18.999 15
s11.833 6.5 16.5 6.5c4 0 9.16699 -2.16699 15.5 -6.5s13 -9.33301 20 -15s14.333 -10.667 22 -15s14.834 -6.5 21.501 -6.5s15.334 4 26.001 12s21.5 17.167 32.5 27.5s21.167 20.833 30.5 31.5s16 19 20 25z" />
    <glyph glyph-name="adieresis" unicode="&#xe4;" horiz-adv-x="528" 
d="M420 390l-20 -107.999c-6.66699 -36.667 -17.167 -69.167 -31.5 -97.5s-30.833 -52.333 -49.5 -72s-38.334 -34.667 -59.001 -45s-40.667 -15.5 -60 -15.5s-35.5 3 -48.5 9s-23.5 14.167 -31.5 24.5s-13.833 22 -17.5 35s-5.5 26.5 -5.5 40.5c0 11.333 1 22.666 3 33.999
c4.66699 28.667 14.334 55.5 29.001 80.5s32.667 47 54 66s45.333 34 72 45s54.667 16.5 84 16.5c15.333 0 30.5 -1.33301 45.5 -4s26.833 -5.66699 35.5 -9zM501 429.001c-20.667 11.333 -44.5 19.8311 -71.5 25.498s-54.833 8.5 -83.5 8.5
c-36.667 0 -72.5 -5.83301 -107.5 -17.5s-67 -28.667 -96 -51s-53.667 -49.666 -74 -81.999s-34.5 -68.833 -42.5 -109.5c-2.66699 -12.667 -4 -27 -4 -43c0 -21.333 3 -42.166 9 -62.499s15.5 -38.5 28.5 -54.5s29.667 -28.833 50 -38.5s44.5 -14.5 72.5 -14.5
c36 0 71.333 10 106 30s62 51.667 82 95l2 -1l-20 -114h74zM449 570.999c0 2.66699 -1.16699 6.33105 -3.5 10.998s-5.33301 9.16699 -9 13.5s-7.5 8 -11.5 11s-7.66699 4.5 -11 4.5s-7.33301 -1.5 -12 -4.5s-9.5 -6.5 -14.5 -10.5s-9.16699 -8.16699 -12.5 -12.5
s-5 -8.16602 -5 -11.499s1.16699 -7.16602 3.5 -11.499s5.33301 -8.66602 9 -12.999s7.5 -8 11.5 -11s7.66699 -4.5 11 -4.5c2.66699 0 6.5 1.5 11.5 4.5s10 6.5 15 10.5s9.16699 8.16699 12.5 12.5s5 8.16602 5 11.499zM318 570.996
c0 2.66699 -1.16699 6.33105 -3.5 10.998s-5.33301 9.16699 -9 13.5s-7.5 8 -11.5 11s-7.66699 4.5 -11 4.5s-7.33301 -1.5 -12 -4.5s-9.5 -6.5 -14.5 -10.5s-9.16699 -8.16699 -12.5 -12.5s-5 -8.16602 -5 -11.499s1.16699 -7.16602 3.5 -11.499
s5.33301 -8.66602 9 -12.999s7.5 -8 11.5 -11s7.66699 -4.5 11 -4.5c2.66699 0 6.5 1.5 11.5 4.5s10 6.5 15 10.5s9.16699 8.16699 12.5 12.5s5 8.16602 5 11.499z" />
    <glyph glyph-name="aring" unicode="&#xe5;" horiz-adv-x="528" 
d="M420 390l-20 -107.999c-6.66699 -36.667 -17.167 -69.167 -31.5 -97.5s-30.833 -52.333 -49.5 -72s-38.334 -34.667 -59.001 -45s-40.667 -15.5 -60 -15.5s-35.5 3 -48.5 9s-23.5 14.167 -31.5 24.5s-13.833 22 -17.5 35s-5.5 26.5 -5.5 40.5c0 11.333 1 22.666 3 33.999
c4.66699 28.667 14.334 55.5 29.001 80.5s32.667 47 54 66s45.333 34 72 45s54.667 16.5 84 16.5c15.333 0 30.5 -1.33301 45.5 -4s26.833 -5.66699 35.5 -9zM501 429.001c-20.667 11.333 -44.5 19.8311 -71.5 25.498s-54.833 8.5 -83.5 8.5
c-36.667 0 -72.5 -5.83301 -107.5 -17.5s-67 -28.667 -96 -51s-53.667 -49.666 -74 -81.999s-34.5 -68.833 -42.5 -109.5c-2.66699 -12.667 -4 -27 -4 -43c0 -21.333 3 -42.166 9 -62.499s15.5 -38.5 28.5 -54.5s29.667 -28.833 50 -38.5s44.5 -14.5 72.5 -14.5
c36 0 71.333 10 106 30s62 51.667 82 95l2 -1l-20 -114h74zM431 621.999c0 22 -7.66602 40.667 -22.999 56s-33.666 23 -54.999 23c-14 0 -27.333 -2.66699 -40 -8s-23.834 -12.5 -33.501 -21.5s-17.5 -19.5 -23.5 -31.5s-9 -25 -9 -39c0 -21.333 7.66699 -39.833 23 -55.5
s33.666 -23.5 54.999 -23.5c13.333 0 26.333 2.66699 39 8s24 12.5 34 21.5s18 19.5 24 31.5s9 25 9 39zM386.001 621.999c0 -15.333 -5.49902 -28.832 -16.499 -40.499s-24.167 -17.5 -39.5 -17.5c-11.333 0 -20.5 3.5 -27.5 10.5s-10.5 16.167 -10.5 27.5
c0 15.333 5.33301 28.666 16 39.999s23.667 17 39 17c11.333 0 20.666 -3.33301 27.999 -10s11 -15.667 11 -27z" />
    <glyph glyph-name="ae" unicode="&#xe6;" horiz-adv-x="718" 
d="M274 134c-13.333 -27.333 -31.167 -47.832 -53.5 -61.499s-44.833 -20.5 -67.5 -20.5c-21.333 0 -38.333 6.16699 -51 18.5s-19 27.166 -19 44.499c0 5.33301 0.333008 9.33301 1 12c4 21.333 15.167 39.333 33.5 54s43.5 23.667 75.5 27l79 7c-2 -12 -3 -24 -3 -36
c0 -14.667 1.66699 -29.667 5 -45zM612.999 325.001c-5.33301 -29.333 -27.834 -53.5 -67.501 -72.5s-96.834 -28.5 -171.501 -28.5h-24c4.66699 25.333 13.334 48.666 26.001 69.999s27.834 39.833 45.501 55.5s37 27.834 58 36.501s42.167 13 63.5 13
s38.5 -5.16699 51.5 -15.5s19.5 -24.833 19.5 -43.5c0 -6.66699 -0.333008 -11.667 -1 -15zM684.998 319.001c2 10 2.99902 19.667 2.99902 29c0 36 -13 64.333 -39 85s-59 31 -99 31c-33.333 0 -65.333 -6.5 -96 -19.5s-58.667 -30.167 -84 -51.5
c-4.66699 12.667 -11.5 23.5 -20.5 32.5s-19.5 16.333 -31.5 22s-24.833 9.83398 -38.5 12.501s-27.167 4 -40.5 4c-27.333 0 -53.5 -3.16699 -78.5 -9.5s-48.167 -15.833 -69.5 -28.5l5 -61c17.333 10.667 37.333 19.167 60 25.5s45.334 9.5 68.001 9.5
c57.333 0 87 -24.333 89 -73c-5.33301 -8 -10 -16.167 -14 -24.5s-7.66699 -16.833 -11 -25.5l-99 -9c-20 -2 -39.667 -6.16699 -59 -12.5s-37 -15.333 -53 -27s-29.5 -25.834 -40.5 -42.501s-18.5 -36 -22.5 -58c-0.666992 -4 -1.16699 -8 -1.5 -12s-0.5 -8 -0.5 -12
c0 -16 2.83301 -30.833 8.5 -44.5s13.667 -25.667 24 -36s23.166 -18.5 38.499 -24.5s33 -9 53 -9c12.667 0 25.667 1 39 3s27 6 41 12s28.167 14.333 42.5 25s28.166 24.334 41.499 41.001c16 -24 37.667 -42.833 65 -56.5s60 -20.5 98 -20.5c22.667 0 45.5 2.66699 68.5 8
s44.5 13.666 64.5 24.999l13 75c-20 -13.333 -42.333 -23.833 -67 -31.5s-49 -11.5 -73 -11.5c-40 0 -69.667 9.66699 -89 29s-30.666 44.333 -33.999 75c5.33301 0 10.333 -0.166992 15 -0.5s9.66699 -0.5 15 -0.5c88.667 0 159.834 13.5 213.501 40.5
s85.5 65.833 95.5 116.5z" />
    <glyph glyph-name="ccedilla" unicode="&#xe7;" horiz-adv-x="454" 
d="M443 425c-20 13.333 -42 22.333 -66 27s-47.667 7 -71 7c-38 0 -74.167 -7 -108.5 -21s-64.333 -33.333 -90 -58s-46 -53.834 -61 -87.501s-22.5 -69.834 -22.5 -108.501c0 -27.333 4.5 -52.5 13.5 -75.5s21.833 -42.667 38.5 -59s36.334 -29.333 59.001 -39
s47.667 -15.167 75 -16.5c-2.66699 -4.66699 -6.33398 -12 -11.001 -22s-7 -17.333 -7 -22c0 -6.66699 3 -10.834 9 -12.501s12.667 -3.33398 20 -5.00098s14 -4.66699 20 -9s9 -12.5 9 -24.5c0 -14.667 -5.83301 -27.334 -17.5 -38.001s-24.5 -16 -38.5 -16
c-20 0 -37.333 6 -52 18l-15 -36c9.33301 -7.33301 19.666 -12.5 30.999 -15.5s22.666 -4.5 33.999 -4.5c14 0 27.167 2.33301 39.5 7s23.166 11.334 32.499 20.001s16.666 19 21.999 31s8 25 8 39c0 18.667 -6 34.834 -18 48.501s-27.667 20.834 -47 21.501l9 21
c21.333 1.33301 42.333 4.5 63 9.5s40.334 13.167 59.001 24.5l13 71c-21.333 -13.333 -43.666 -23.666 -66.999 -30.999s-47.666 -11 -72.999 -11c-40 0 -72.333 11.667 -97 35s-37 55 -37 95c0 27.333 5.5 53.333 16.5 78s25.667 46.334 44 65.001s39.833 33.5 64.5 44.5
s50.667 16.5 78 16.5c42.667 0 81.334 -10.333 116.001 -31z" />
    <glyph glyph-name="egrave" unicode="&#xe8;" horiz-adv-x="470" 
d="M440 349c0 20 -3.83105 37.166 -11.498 51.499s-18 26.166 -31 35.499s-27.833 16.333 -44.5 21s-34 7 -52 7c-38 0 -73.833 -7.83301 -107.5 -23.5s-63.334 -36.667 -89.001 -63s-46 -56.666 -61 -90.999s-22.5 -70.166 -22.5 -107.499
c0 -29.333 4.83301 -55.5 14.5 -78.5s23 -42.333 40 -58s37.333 -27.667 61 -36s49.834 -12.5 78.501 -12.5c23.333 0 46.166 2.66699 68.499 8s43.5 13.666 63.5 24.999l14 76c-20.667 -13.333 -43 -24 -67 -32s-48.333 -12 -73 -12c-34 0 -62.167 8.33301 -84.5 25
s-35.166 43 -38.499 79c29.333 -1.33301 62.166 -0.333008 98.499 3s71 10.5 104 21.5s62.167 27 87.5 48s41.666 49.167 48.999 84.5c2 8.66699 3 18.334 3 29.001zM366.002 340.999c0 -25.333 -9.00098 -45.668 -27.001 -61.001s-39.5 -27.166 -64.5 -35.499
s-51.167 -14 -78.5 -17s-50 -4.5 -68 -4.5c-4.66699 0 -9.16699 0.166992 -13.5 0.5s-8.83301 0.5 -13.5 0.5c4.66699 22.667 12.834 44.5 24.501 65.5s26 39.667 43 56s36.333 29.333 58 39s44.5 14.5 68.5 14.5c18 0 34.333 -4.5 49 -13.5s22 -23.833 22 -44.5z
M369.001 546.997c-21.333 17.333 -40.167 35.834 -56.5 55.501s-32.5 40.167 -48.5 61.5c-2 3.33301 -4.83301 6.5 -8.5 9.5s-7.5 4.5 -11.5 4.5c-3.33301 0 -7 -1.33301 -11 -4s-7.66699 -5.83398 -11 -9.50098s-6.33301 -7.5 -9 -11.5s-4 -7.33301 -4 -10
c0 -3.33301 0.833008 -6.5 2.5 -9.5s3.5 -5.83301 5.5 -8.5c14.667 -19.333 31.667 -36.833 51 -52.5s39 -30.167 59 -43.5z" />
    <glyph glyph-name="eacute" unicode="&#xe9;" horiz-adv-x="470" 
d="M440 349c0 20 -3.83105 37.166 -11.498 51.499s-18 26.166 -31 35.499s-27.833 16.333 -44.5 21s-34 7 -52 7c-38 0 -73.833 -7.83301 -107.5 -23.5s-63.334 -36.667 -89.001 -63s-46 -56.666 -61 -90.999s-22.5 -70.166 -22.5 -107.499
c0 -29.333 4.83301 -55.5 14.5 -78.5s23 -42.333 40 -58s37.333 -27.667 61 -36s49.834 -12.5 78.501 -12.5c23.333 0 46.166 2.66699 68.499 8s43.5 13.666 63.5 24.999l14 76c-20.667 -13.333 -43 -24 -67 -32s-48.333 -12 -73 -12c-34 0 -62.167 8.33301 -84.5 25
s-35.166 43 -38.499 79c29.333 -1.33301 62.166 -0.333008 98.499 3s71 10.5 104 21.5s62.167 27 87.5 48s41.666 49.167 48.999 84.5c2 8.66699 3 18.334 3 29.001zM366.002 340.999c0 -25.333 -9.00098 -45.668 -27.001 -61.001s-39.5 -27.166 -64.5 -35.499
s-51.167 -14 -78.5 -17s-50 -4.5 -68 -4.5c-4.66699 0 -9.16699 0.166992 -13.5 0.5s-8.83301 0.5 -13.5 0.5c4.66699 22.667 12.834 44.5 24.501 65.5s26 39.667 43 56s36.333 29.333 58 39s44.5 14.5 68.5 14.5c18 0 34.333 -4.5 49 -13.5s22 -23.833 22 -44.5z
M416.001 644.997c0 2.66699 -1.33203 5.83105 -3.99902 9.49805s-5.83398 7.33398 -9.50098 11.001s-7.5 6.66699 -11.5 9s-7.33301 3.5 -10 3.5c-4 0 -8 -1.33301 -12 -4s-7.66699 -5.66699 -11 -9l-59.5 -62c-19.667 -20 -41.167 -38.667 -64.5 -56l42 -18
c46.667 27.333 89 60 127 98c2 2 4.66699 4.83301 8 8.5s5 6.83398 5 9.50098z" />
    <glyph glyph-name="ecircumflex" unicode="&#xea;" horiz-adv-x="470" 
d="M440 349c0 20 -3.83105 37.166 -11.498 51.499s-18 26.166 -31 35.499s-27.833 16.333 -44.5 21s-34 7 -52 7c-38 0 -73.833 -7.83301 -107.5 -23.5s-63.334 -36.667 -89.001 -63s-46 -56.666 -61 -90.999s-22.5 -70.166 -22.5 -107.499
c0 -29.333 4.83301 -55.5 14.5 -78.5s23 -42.333 40 -58s37.333 -27.667 61 -36s49.834 -12.5 78.501 -12.5c23.333 0 46.166 2.66699 68.499 8s43.5 13.666 63.5 24.999l14 76c-20.667 -13.333 -43 -24 -67 -32s-48.333 -12 -73 -12c-34 0 -62.167 8.33301 -84.5 25
s-35.166 43 -38.499 79c29.333 -1.33301 62.166 -0.333008 98.499 3s71 10.5 104 21.5s62.167 27 87.5 48s41.666 49.167 48.999 84.5c2 8.66699 3 18.334 3 29.001zM366.002 340.999c0 -25.333 -9.00098 -45.668 -27.001 -61.001s-39.5 -27.166 -64.5 -35.499
s-51.167 -14 -78.5 -17s-50 -4.5 -68 -4.5c-4.66699 0 -9.16699 0.166992 -13.5 0.5s-8.83301 0.5 -13.5 0.5c4.66699 22.667 12.834 44.5 24.501 65.5s26 39.667 43 56s36.333 29.333 58 39s44.5 14.5 68.5 14.5c18 0 34.333 -4.5 49 -13.5s22 -23.833 22 -44.5z
M440.001 547.997c-14.667 13.333 -28.666 27.335 -41.999 42.002s-25.333 30.334 -36 47.001c-3.33301 4.66699 -6 9.16699 -8 13.5s-4.66699 8.83301 -8 13.5c-2 3.33301 -4.66699 6.5 -8 9.5s-7 4.5 -11 4.5c-4.66699 0 -9.16699 -1.5 -13.5 -4.5
s-8.16602 -6.16699 -11.499 -9.5c-5.33301 -4.66699 -10 -9.33398 -14 -14.001s-8.33301 -9.33398 -13 -14.001c-34 -34 -70 -63.667 -108 -89l40 -18c19.333 10.667 37.666 22.167 54.999 34.5s34.333 25.166 51 38.499c12.667 -14 26.167 -27 40.5 -39
s29.166 -23.333 44.499 -34z" />
    <glyph glyph-name="edieresis" unicode="&#xeb;" horiz-adv-x="470" 
d="M440 349c0 20 -3.83105 37.166 -11.498 51.499s-18 26.166 -31 35.499s-27.833 16.333 -44.5 21s-34 7 -52 7c-38 0 -73.833 -7.83301 -107.5 -23.5s-63.334 -36.667 -89.001 -63s-46 -56.666 -61 -90.999s-22.5 -70.166 -22.5 -107.499
c0 -29.333 4.83301 -55.5 14.5 -78.5s23 -42.333 40 -58s37.333 -27.667 61 -36s49.834 -12.5 78.501 -12.5c23.333 0 46.166 2.66699 68.499 8s43.5 13.666 63.5 24.999l14 76c-20.667 -13.333 -43 -24 -67 -32s-48.333 -12 -73 -12c-34 0 -62.167 8.33301 -84.5 25
s-35.166 43 -38.499 79c29.333 -1.33301 62.166 -0.333008 98.499 3s71 10.5 104 21.5s62.167 27 87.5 48s41.666 49.167 48.999 84.5c2 8.66699 3 18.334 3 29.001zM366.002 340.999c0 -25.333 -9.00098 -45.668 -27.001 -61.001s-39.5 -27.166 -64.5 -35.499
s-51.167 -14 -78.5 -17s-50 -4.5 -68 -4.5c-4.66699 0 -9.16699 0.166992 -13.5 0.5s-8.83301 0.5 -13.5 0.5c4.66699 22.667 12.834 44.5 24.501 65.5s26 39.667 43 56s36.333 29.333 58 39s44.5 14.5 68.5 14.5c18 0 34.333 -4.5 49 -13.5s22 -23.833 22 -44.5z
M416.001 570.997c0 2.66699 -1.16699 6.33105 -3.5 10.998s-5.33301 9.16699 -9 13.5s-7.5 8 -11.5 11s-7.66699 4.5 -11 4.5s-7.5 -1.5 -12.5 -4.5s-10 -6.5 -15 -10.5s-9.16699 -8.16699 -12.5 -12.5s-5 -8.16602 -5 -11.499s1.16699 -7.16602 3.5 -11.499
s5.33301 -8.66602 9 -12.999s7.5 -8 11.5 -11s7.66699 -4.5 11 -4.5s7.5 1.5 12.5 4.5s10 6.5 15 10.5s9.16699 8.16699 12.5 12.5s5 8.16602 5 11.499zM285.001 570.994c0 2.66699 -1.16602 6.33105 -3.49902 10.998s-5.33301 9.16699 -9 13.5s-7.5 8 -11.5 11
s-7.66699 4.5 -11 4.5s-7.5 -1.5 -12.5 -4.5s-9.83301 -6.5 -14.5 -10.5s-8.66699 -8.16699 -12 -12.5s-5 -8.16602 -5 -11.499s1.16699 -7.16602 3.5 -11.499s5.16602 -8.66602 8.49902 -12.999s7 -8 11 -11s7.66699 -4.5 11 -4.5s7.5 1.5 12.5 4.5s10 6.5 15 10.5
s9.16699 8.16699 12.5 12.5s5 8.16602 5 11.499z" />
    <glyph glyph-name="igrave" unicode="&#xec;" horiz-adv-x="211" 
d="M173 453h-75l-79 -453h74zM206 547c-20.667 17.333 -39.3311 35.834 -55.998 55.501s-32.667 40.167 -48 61.5c-2.66699 3.33301 -5.83398 6.5 -9.50098 9.5s-7.5 4.5 -11.5 4.5c-2.66699 0 -6 -1.33301 -10 -4s-7.83301 -5.83398 -11.5 -9.50098
s-6.83398 -7.5 -9.50098 -11.5s-4 -7.33301 -4 -10c0 -3.33301 1 -6.5 3 -9.5s4 -5.83301 6 -8.5c14.667 -19.333 31.667 -36.833 51 -52.5s39 -30.167 59 -43.5z" />
    <glyph glyph-name="iacute" unicode="&#xed;" horiz-adv-x="211" 
d="M173 453h-75l-79 -453h74zM264 645c0 2.66699 -1.33203 5.83008 -3.99902 9.49707s-5.83398 7.33398 -9.50098 11.001s-7.5 6.66699 -11.5 9s-7.33301 3.5 -10 3.5c-4 0 -8 -1.33301 -12 -4s-7.33301 -5.66699 -10 -9l-59.5 -62c-19.667 -20 -41.5 -38.667 -65.5 -56
l42 -18c46.667 26.667 89.334 59.334 128.001 98.001c1.33301 2 3.66602 4.83301 6.99902 8.5s5 6.83398 5 9.50098z" />
    <glyph glyph-name="icircumflex" unicode="&#xee;" horiz-adv-x="211" 
d="M173 453h-75l-79 -453h74zM291 548c-14.667 13.333 -28.665 27.335 -41.998 42.002s-25.333 30.334 -36 47.001c-3.33301 4.66699 -6 9.16699 -8 13.5s-4.66699 8.83301 -8 13.5c-2 3.33301 -4.66699 6.5 -8 9.5s-7 4.5 -11 4.5c-4.66699 0 -9.33398 -1.5 -14.001 -4.5
s-8.66699 -6.16699 -12 -9.5c-4.66699 -4.66699 -9 -9.33398 -13 -14.001s-8.33301 -9.33398 -13 -14.001c-34 -34 -70 -63.667 -108 -89l40 -18c19.333 10.667 37.666 22.167 54.999 34.5s34.333 25.166 51 38.499c12.667 -14 26 -27 40 -39s28.667 -23.333 44 -34z" />
    <glyph glyph-name="idieresis" unicode="&#xef;" horiz-adv-x="211" 
d="M173 453h-75l-79 -453h74zM268 571c0 2.66699 -1.16699 6.33105 -3.5 10.998s-5.33301 9.16699 -9 13.5s-7.5 8 -11.5 11s-7.66699 4.5 -11 4.5s-7.33301 -1.5 -12 -4.5s-9.5 -6.5 -14.5 -10.5s-9.16699 -8.16699 -12.5 -12.5s-5 -8.16602 -5 -11.499
s1.16699 -7.16602 3.5 -11.499s5.33301 -8.66602 9 -12.999s7.5 -8 11.5 -11s7.66699 -4.5 11 -4.5c2.66699 0 6.5 1.5 11.5 4.5s10 6.5 15 10.5s9.16699 8.16699 12.5 12.5s5 8.16602 5 11.499zM137 570.997c0 2.66699 -1.16797 6.33105 -3.50098 10.998
s-5.16602 9.16699 -8.49902 13.5s-7 8 -11 11s-7.66699 4.5 -11 4.5s-7.5 -1.5 -12.5 -4.5s-10 -6.5 -15 -10.5s-9.16699 -8.16699 -12.5 -12.5s-5 -8.16602 -5 -11.499s1.16699 -7.16602 3.5 -11.499s5.33301 -8.66602 9 -12.999s7.5 -8 11.5 -11s7.66699 -4.5 11 -4.5
s7.5 1.5 12.5 4.5s9.83301 6.5 14.5 10.5s8.66699 8.16699 12 12.5s5 8.16602 5 11.499z" />
    <glyph glyph-name="eth" unicode="&#xf0;" horiz-adv-x="496" 
d="M446 250c0 28.667 -3.16992 57.8291 -9.50293 87.4961s-14.833 59 -25.5 88s-22.667 57.167 -36 84.5s-27.333 53.333 -42 78l65 34l-27 53l-69 -36l-26.5 37l-27.5 36h-85c26.667 -33.333 52 -68.666 76 -105.999l-88 -45l27 -53l92 47
c12.667 -21.333 24.334 -43.5 35.001 -66.5s20 -46.167 28 -69.5c-37.333 -2 -74.666 -8.16699 -111.999 -18.5s-71 -25.666 -101 -45.999s-54.333 -46 -73 -77s-28 -68.167 -28 -111.5c0 -26 4.5 -50 13.5 -72s21.333 -40.667 37 -56s34.5 -27.333 56.5 -36s46 -13 72 -13
c38 0 72.167 6.66699 102.5 20s56.333 31.833 78 55.5s38.334 51.334 50.001 83.001s17.5 65.834 17.5 102.501zM371.997 247.995c0 -24 -3.83301 -47.6689 -11.5 -71.002s-18.834 -44.166 -33.501 -62.499s-32.5 -33 -53.5 -44s-44.5 -16.5 -70.5 -16.5
c-34 0 -60.833 10.667 -80.5 32s-29.5 48.666 -29.5 81.999c0 34 8.16699 62.833 24.5 86.5s37 42.834 62 57.501s52.667 25.334 83 32.001s59.833 10.334 88.5 11.001c6.66699 -17.333 11.834 -34.833 15.501 -52.5s5.5 -35.834 5.5 -54.501z" />
    <glyph glyph-name="ntilde" unicode="&#xf1;" horiz-adv-x="523" 
d="M473 339c0 20 -3.49902 37.665 -10.499 52.998s-16.5 28.333 -28.5 39s-26.333 18.834 -43 24.501s-34.334 8.5 -53.001 8.5c-44.667 0 -84.167 -12.333 -118.5 -37s-60.5 -57 -78.5 -97h-2l22 123h-74l-79 -453h74l24 139c4.66699 28.667 12.667 58.5 24 89.5
s26 59.333 44 85s39.833 46.834 65.5 63.501s55.5 25 89.5 25c21.333 0 38.5 -5.83301 51.5 -17.5s19.5 -28.167 19.5 -49.5c0 -3.33301 -0.166992 -6.5 -0.5 -9.5s-0.833008 -6.16699 -1.5 -9.5l-56 -316h74l54 310c2 10 3 19.667 3 29zM470.001 638.998l-44 19.001
l-13.5 -14c-5.66699 -6 -11.667 -11.833 -18 -17.5s-12.666 -10.667 -18.999 -15s-11.833 -6.5 -16.5 -6.5c-4 0 -9.16699 2.33301 -15.5 7l-20 15c-7 5.33301 -14.333 10.333 -22 15s-14.834 7 -21.501 7c-7.33301 0 -16.166 -4 -26.499 -12s-20.833 -17.333 -31.5 -28
s-20.667 -21.334 -30 -32.001s-16.333 -19 -21 -25l44 -19c2.66699 3.33301 6.83398 8 12.501 14s11.667 11.833 18 17.5s12.666 10.667 18.999 15s11.833 6.5 16.5 6.5c4 0 9.16699 -2.16699 15.5 -6.5s13.166 -9.33301 20.499 -15s14.666 -10.667 21.999 -15
s14.333 -6.5 21 -6.5c7.33301 0 16.333 4 27 12s21.334 17.167 32.001 27.5s20.667 20.833 30 31.5s16.333 19 21 25z" />
    <glyph glyph-name="ograve" unicode="&#xf2;" horiz-adv-x="551" 
d="M507 267c0 30 -5 57.002 -15 81.002s-24 44.667 -42 62s-39.333 30.666 -64 39.999s-51.667 14 -81 14c-37.333 0 -73 -7.33301 -107 -22s-64 -34.667 -90 -60s-46.667 -54.833 -62 -88.5s-23 -69.5 -23 -107.5c0 -30 5 -57 15 -81s24 -44.5 42 -61.5
s39.333 -30.167 64 -39.5s51.667 -14 81 -14c37.333 0 73 7.33301 107 22s64 34.667 90 60s46.667 54.666 62 87.999s23 69 23 107zM433 265.002c0 -27.333 -5.33105 -53.501 -15.998 -78.501s-25.334 -47.333 -44.001 -67s-40.167 -35.334 -64.5 -47.001
s-50.5 -17.5 -78.5 -17.5c-40 0 -72 12 -96 36s-36 56 -36 96c0 26.667 5.33301 52.834 16 78.501s25.167 48.334 43.5 68.001s39.666 35.5 63.999 47.5s50.5 18 78.5 18c40.667 0 73 -12.333 97 -37s36 -57 36 -97zM383.002 547.001
c-21.333 17.333 -40.166 35.834 -56.499 55.501s-32.5 40.167 -48.5 61.5c-2 3.33301 -4.83301 6.5 -8.5 9.5s-7.5 4.5 -11.5 4.5c-2.66699 0 -6 -1.33301 -10 -4s-7.83301 -5.83398 -11.5 -9.50098s-6.83398 -7.5 -9.50098 -11.5s-4 -7.33301 -4 -10
c0 -3.33301 1 -6.5 3 -9.5s4 -5.83301 6 -8.5c14.667 -19.333 31.5 -36.833 50.5 -52.5s38.5 -30.167 58.5 -43.5z" />
    <glyph glyph-name="oacute" unicode="&#xf3;" horiz-adv-x="551" 
d="M507 267c0 30 -5 57.002 -15 81.002s-24 44.667 -42 62s-39.333 30.666 -64 39.999s-51.667 14 -81 14c-37.333 0 -73 -7.33301 -107 -22s-64 -34.667 -90 -60s-46.667 -54.833 -62 -88.5s-23 -69.5 -23 -107.5c0 -30 5 -57 15 -81s24 -44.5 42 -61.5
s39.333 -30.167 64 -39.5s51.667 -14 81 -14c37.333 0 73 7.33301 107 22s64 34.667 90 60s46.667 54.666 62 87.999s23 69 23 107zM433 265.002c0 -27.333 -5.33105 -53.501 -15.998 -78.501s-25.334 -47.333 -44.001 -67s-40.167 -35.334 -64.5 -47.001
s-50.5 -17.5 -78.5 -17.5c-40 0 -72 12 -96 36s-36 56 -36 96c0 26.667 5.33301 52.834 16 78.501s25.167 48.334 43.5 68.001s39.666 35.5 63.999 47.5s50.5 18 78.5 18c40.667 0 73 -12.333 97 -37s36 -57 36 -97zM436.002 645.001c0 2.66699 -1.33301 5.83008 -4 9.49707
s-5.83398 7.33398 -9.50098 11.001s-7.5 6.66699 -11.5 9s-7.33301 3.5 -10 3.5c-4.66699 0 -9 -1.33301 -13 -4s-7.33301 -5.66699 -10 -9l-59.5 -62c-19.667 -20 -41.167 -38.667 -64.5 -56l41 -18c46.667 26.667 89.334 59.334 128.001 98.001
c1.33301 2 3.83301 4.83301 7.5 8.5s5.5 6.83398 5.5 9.50098z" />
    <glyph glyph-name="ocircumflex" unicode="&#xf4;" horiz-adv-x="551" 
d="M507 267c0 30 -5 57.002 -15 81.002s-24 44.667 -42 62s-39.333 30.666 -64 39.999s-51.667 14 -81 14c-37.333 0 -73 -7.33301 -107 -22s-64 -34.667 -90 -60s-46.667 -54.833 -62 -88.5s-23 -69.5 -23 -107.5c0 -30 5 -57 15 -81s24 -44.5 42 -61.5
s39.333 -30.167 64 -39.5s51.667 -14 81 -14c37.333 0 73 7.33301 107 22s64 34.667 90 60s46.667 54.666 62 87.999s23 69 23 107zM433 265.002c0 -27.333 -5.33105 -53.501 -15.998 -78.501s-25.334 -47.333 -44.001 -67s-40.167 -35.334 -64.5 -47.001
s-50.5 -17.5 -78.5 -17.5c-40 0 -72 12 -96 36s-36 56 -36 96c0 26.667 5.33301 52.834 16 78.501s25.167 48.334 43.5 68.001s39.666 35.5 63.999 47.5s50.5 18 78.5 18c40.667 0 73 -12.333 97 -37s36 -57 36 -97zM461.002 548.001
c-31.333 26.667 -57.667 56.3359 -79 89.0029l-7.5 13.5c-2.33301 4.33301 -5.16602 8.83301 -8.49902 13.5c-2 3.33301 -4.5 6.5 -7.5 9.5s-6.5 4.5 -10.5 4.5c-4.66699 0 -9.33398 -1.5 -14.001 -4.5s-8.66699 -6.16699 -12 -9.5
c-4.66699 -4.66699 -9 -9.33398 -13 -14.001s-8.33301 -9.33398 -13 -14.001c-16.667 -16.667 -34 -32.334 -52 -47.001s-36.667 -28.667 -56 -42l40 -18c36.667 20.667 72 45 106 73c12.667 -14 26 -27 40 -39s28.667 -23.333 44 -34z" />
    <glyph glyph-name="otilde" unicode="&#xf5;" horiz-adv-x="551" 
d="M507 267c0 30 -5 57.002 -15 81.002s-24 44.667 -42 62s-39.333 30.666 -64 39.999s-51.667 14 -81 14c-37.333 0 -73 -7.33301 -107 -22s-64 -34.667 -90 -60s-46.667 -54.833 -62 -88.5s-23 -69.5 -23 -107.5c0 -30 5 -57 15 -81s24 -44.5 42 -61.5
s39.333 -30.167 64 -39.5s51.667 -14 81 -14c37.333 0 73 7.33301 107 22s64 34.667 90 60s46.667 54.666 62 87.999s23 69 23 107zM433 265.002c0 -27.333 -5.33105 -53.501 -15.998 -78.501s-25.334 -47.333 -44.001 -67s-40.167 -35.334 -64.5 -47.001
s-50.5 -17.5 -78.5 -17.5c-40 0 -72 12 -96 36s-36 56 -36 96c0 26.667 5.33301 52.834 16 78.501s25.167 48.334 43.5 68.001s39.666 35.5 63.999 47.5s50.5 18 78.5 18c40.667 0 73 -12.333 97 -37s36 -57 36 -97zM489.002 639.001l-43.001 19.001l-13.5 -14
c-5.66699 -6 -11.667 -11.833 -18 -17.5s-12.833 -10.667 -19.5 -15s-12 -6.5 -16 -6.5s-9.16699 2.33301 -15.5 7l-20.5 15c-7.33301 5.33301 -14.666 10.333 -21.999 15s-14.333 7 -21 7c-7.33301 0 -16.333 -4 -27 -12s-21.334 -17.333 -32.001 -28
s-20.5 -21.334 -29.5 -32.001s-15.833 -19 -20.5 -25l43 -19l13.5 14c5.66699 6 11.667 11.833 18 17.5s12.666 10.667 18.999 15s11.833 6.5 16.5 6.5c4 0 9.16699 -2.16699 15.5 -6.5s13 -9.33301 20 -15s14.333 -10.667 22 -15s14.834 -6.5 21.501 -6.5
s15.334 4 26.001 12s21.5 17.167 32.5 27.5s21.167 20.833 30.5 31.5s16 19 20 25z" />
    <glyph glyph-name="odieresis" unicode="&#xf6;" horiz-adv-x="551" 
d="M507 267c0 30 -5 57.002 -15 81.002s-24 44.667 -42 62s-39.333 30.666 -64 39.999s-51.667 14 -81 14c-37.333 0 -73 -7.33301 -107 -22s-64 -34.667 -90 -60s-46.667 -54.833 -62 -88.5s-23 -69.5 -23 -107.5c0 -30 5 -57 15 -81s24 -44.5 42 -61.5
s39.333 -30.167 64 -39.5s51.667 -14 81 -14c37.333 0 73 7.33301 107 22s64 34.667 90 60s46.667 54.666 62 87.999s23 69 23 107zM433 265.002c0 -27.333 -5.33105 -53.501 -15.998 -78.501s-25.334 -47.333 -44.001 -67s-40.167 -35.334 -64.5 -47.001
s-50.5 -17.5 -78.5 -17.5c-40 0 -72 12 -96 36s-36 56 -36 96c0 26.667 5.33301 52.834 16 78.501s25.167 48.334 43.5 68.001s39.666 35.5 63.999 47.5s50.5 18 78.5 18c40.667 0 73 -12.333 97 -37s36 -57 36 -97zM438.002 571.001
c0 2.66699 -1.16699 6.33105 -3.5 10.998s-5.33301 9.16699 -9 13.5s-7.5 8 -11.5 11s-7.66699 4.5 -11 4.5s-7.33301 -1.5 -12 -4.5s-9.5 -6.5 -14.5 -10.5s-9.16699 -8.16699 -12.5 -12.5s-5 -8.16602 -5 -11.499s1.16699 -7.16602 3.5 -11.499
s5.33301 -8.66602 9 -12.999s7.5 -8 11.5 -11s7.66699 -4.5 11 -4.5c2.66699 0 6.5 1.5 11.5 4.5s10 6.5 15 10.5s9.16699 8.16699 12.5 12.5s5 8.16602 5 11.499zM307.002 570.998c0 2.66699 -1.16699 6.33105 -3.5 10.998s-5.33301 9.16699 -9 13.5s-7.5 8 -11.5 11
s-7.66699 4.5 -11 4.5s-7.33301 -1.5 -12 -4.5s-9.5 -6.5 -14.5 -10.5s-9.16699 -8.16699 -12.5 -12.5s-5 -8.16602 -5 -11.499s1.16699 -7.16602 3.5 -11.499s5.33301 -8.66602 9 -12.999s7.5 -8 11.5 -11s7.66699 -4.5 11 -4.5c2.66699 0 6.5 1.5 11.5 4.5s10 6.5 15 10.5
s9.16699 8.16699 12.5 12.5s5 8.16602 5 11.499z" />
    <glyph glyph-name="divide" unicode="&#xf7;" horiz-adv-x="460" 
d="M296 402c0 4 -1.33398 8.50098 -4.00098 13.501s-5.83398 9.66699 -9.50098 14s-7.66699 8.16602 -12 11.499s-8.5 5 -12.5 5s-9 -1.66699 -15 -5s-12 -7.5 -18 -12.5s-11.167 -10.167 -15.5 -15.5s-6.5 -10 -6.5 -14s1.33301 -8.5 4 -13.5
s5.83398 -9.83301 9.50098 -14.5s7.83398 -8.66699 12.501 -12s9 -5 13 -5s9 1.66699 15 5s12 7.5 18 12.5s11 10.333 15 16s6 10.5 6 14.5zM421.999 309.001h-374l-12 -64h374zM252.999 156.001c0 4 -1.33203 8.50098 -3.99902 13.501s-5.83398 9.66699 -9.50098 14
s-7.66699 8.16602 -12 11.499s-8.5 5 -12.5 5s-9 -1.66699 -15 -5s-12 -7.5 -18 -12.5s-11.167 -10.167 -15.5 -15.5s-6.5 -10 -6.5 -14s1.16699 -8.5 3.5 -13.5s5.5 -9.83301 9.5 -14.5s8.16699 -8.66699 12.5 -12s8.5 -5 12.5 -5s9.16699 1.66699 15.5 5
s12.333 7.5 18 12.5s10.667 10.333 15 16s6.5 10.5 6.5 14.5z" />
    <glyph glyph-name="oslash" unicode="&#xf8;" horiz-adv-x="551" 
d="M115 110c-8.66699 14.667 -14.167 31.3311 -16.5 49.998s-1.83301 38.334 1.5 59.001c4 24.667 12.167 47.834 24.5 69.501s27.333 40.667 45 57s37.5 29.333 59.5 39s45 14.5 69 14.5c31.333 0 57.333 -7.33301 78 -22zM406 342.997
c17.333 -29.333 22.333 -65.332 15 -107.999c-4 -24.667 -12.167 -47.834 -24.5 -69.501s-27.333 -40.667 -45 -57s-37.5 -29.333 -59.5 -39s-45 -14.5 -69 -14.5c-31.333 0 -57 7 -77 21zM512 450.998l-32.999 32.001l-54 -56c-16 11.333 -34.167 20.333 -54.5 27
s-42.833 10 -67.5 10c-32.667 0 -64.334 -6 -95.001 -18s-58.5 -28.5 -83.5 -49.5s-46 -45.833 -63 -74.5s-28.5 -59.667 -34.5 -93c-6 -34 -5.83301 -65.667 0.5 -95s18.166 -55 35.499 -77l-54 -55l32 -33l55 57c33.333 -24 74 -36 122 -36c32.667 0 64.334 6 95.001 18
s58.5 28.5 83.5 49.5s46.167 45.667 63.5 74s29 59.166 35 92.499c6 34 5.66699 65.667 -1 95s-18.667 55 -36 77z" />
    <glyph glyph-name="ugrave" unicode="&#xf9;" horiz-adv-x="523" 
d="M495 453h-74l-17 -103.5c-6 -37 -14.667 -73.167 -26 -108.5s-26.666 -68 -45.999 -98s-45.333 -54 -78 -72c-23.333 -13.333 -48.333 -20 -75 -20c-21.333 0 -39.333 5.66699 -54 17s-22 28.666 -22 51.999c0 3.33301 0.166992 6.33301 0.5 9s0.833008 5.66699 1.5 9
l56 315h-74l-54 -310c-2 -10 -3 -19.667 -3 -29c0 -20 3.5 -37.667 10.5 -53s16.667 -28.166 29 -38.499s26.666 -18.333 42.999 -24s33.833 -8.5 52.5 -8.5c44.667 0 84.167 12.333 118.5 37s60.5 57 78.5 97l2 -1l-22 -123h74zM369 547
c-21.333 17.333 -40.166 35.834 -56.499 55.501s-32.5 40.167 -48.5 61.5c-2 3.33301 -4.83301 6.5 -8.5 9.5s-7.5 4.5 -11.5 4.5c-2.66699 0 -6 -1.33301 -10 -4s-7.83301 -5.83398 -11.5 -9.50098s-6.83398 -7.5 -9.50098 -11.5s-4 -7.33301 -4 -10
c0 -3.33301 1 -6.5 3 -9.5s4 -5.83301 6 -8.5c14.667 -19.333 31.5 -36.833 50.5 -52.5s38.5 -30.167 58.5 -43.5z" />
    <glyph glyph-name="uacute" unicode="&#xfa;" horiz-adv-x="523" 
d="M495 453h-74l-17 -103.5c-6 -37 -14.667 -73.167 -26 -108.5s-26.666 -68 -45.999 -98s-45.333 -54 -78 -72c-23.333 -13.333 -48.333 -20 -75 -20c-21.333 0 -39.333 5.66699 -54 17s-22 28.666 -22 51.999c0 3.33301 0.166992 6.33301 0.5 9s0.833008 5.66699 1.5 9
l56 315h-74l-54 -310c-2 -10 -3 -19.667 -3 -29c0 -20 3.5 -37.667 10.5 -53s16.667 -28.166 29 -38.499s26.666 -18.333 42.999 -24s33.833 -8.5 52.5 -8.5c44.667 0 84.167 12.333 118.5 37s60.5 57 78.5 97l2 -1l-22 -123h74zM415 645
c0 2.66699 -1.33203 5.83105 -3.99902 9.49805s-5.83398 7.33398 -9.50098 11.001s-7.5 6.66699 -11.5 9s-7.33301 3.5 -10 3.5c-4 0 -8 -1.33301 -12 -4s-7.66699 -5.66699 -11 -9l-59.5 -62c-19.667 -20 -41.167 -38.667 -64.5 -56l42 -18c46.667 27.333 89 60 127 98
c2 2 4.66699 4.83301 8 8.5s5 6.83398 5 9.50098z" />
    <glyph glyph-name="ucircumflex" unicode="&#xfb;" horiz-adv-x="523" 
d="M495 453h-74l-17 -103.5c-6 -37 -14.667 -73.167 -26 -108.5s-26.666 -68 -45.999 -98s-45.333 -54 -78 -72c-23.333 -13.333 -48.333 -20 -75 -20c-21.333 0 -39.333 5.66699 -54 17s-22 28.666 -22 51.999c0 3.33301 0.166992 6.33301 0.5 9s0.833008 5.66699 1.5 9
l56 315h-74l-54 -310c-2 -10 -3 -19.667 -3 -29c0 -20 3.5 -37.667 10.5 -53s16.667 -28.166 29 -38.499s26.666 -18.333 42.999 -24s33.833 -8.5 52.5 -8.5c44.667 0 84.167 12.333 118.5 37s60.5 57 78.5 97l2 -1l-22 -123h74zM441 548
c-15.333 13.333 -29.501 27.335 -42.501 42.002s-24.833 30.334 -35.5 47.001c-3.33301 4.66699 -6.16602 9.16699 -8.49902 13.5s-5.16602 8.83301 -8.49902 13.5c-2 3.33301 -4.5 6.5 -7.5 9.5s-6.5 4.5 -10.5 4.5c-4.66699 0 -9.33398 -1.5 -14.001 -4.5
s-8.66699 -6.16699 -12 -9.5c-4.66699 -4.66699 -9 -9.33398 -13 -14.001s-8.33301 -9.33398 -13 -14.001c-16.667 -16.667 -34 -32.334 -52 -47.001s-36.667 -28.667 -56 -42l40 -18c36.667 20.667 72 45 106 73c12.667 -14 26 -27 40 -39s28.667 -23.333 44 -34z" />
    <glyph glyph-name="udieresis" unicode="&#xfc;" horiz-adv-x="523" 
d="M495 453h-74l-17 -103.5c-6 -37 -14.667 -73.167 -26 -108.5s-26.666 -68 -45.999 -98s-45.333 -54 -78 -72c-23.333 -13.333 -48.333 -20 -75 -20c-21.333 0 -39.333 5.66699 -54 17s-22 28.666 -22 51.999c0 3.33301 0.166992 6.33301 0.5 9s0.833008 5.66699 1.5 9
l56 315h-74l-54 -310c-2 -10 -3 -19.667 -3 -29c0 -20 3.5 -37.667 10.5 -53s16.667 -28.166 29 -38.499s26.666 -18.333 42.999 -24s33.833 -8.5 52.5 -8.5c44.667 0 84.167 12.333 118.5 37s60.5 57 78.5 97l2 -1l-22 -123h74zM417 571
c0 2.66699 -1.16699 6.33105 -3.5 10.998s-5.33301 9.16699 -9 13.5s-7.5 8 -11.5 11s-7.66699 4.5 -11 4.5s-7.5 -1.5 -12.5 -4.5s-9.83301 -6.5 -14.5 -10.5s-8.66699 -8.16699 -12 -12.5s-5 -8.16602 -5 -11.499s1.16699 -7.16602 3.5 -11.499
s5.33301 -8.66602 9 -12.999s7.5 -8 11.5 -11s7.66699 -4.5 11 -4.5c2.66699 0 6.5 1.5 11.5 4.5s10 6.5 15 10.5s9.16699 8.16699 12.5 12.5s5 8.16602 5 11.499zM286 570.997c0 2.66699 -1.16699 6.33105 -3.5 10.998s-5.33301 9.16699 -9 13.5s-7.5 8 -11.5 11
s-7.66699 4.5 -11 4.5s-7.33301 -1.5 -12 -4.5s-9.5 -6.5 -14.5 -10.5s-9.16699 -8.16699 -12.5 -12.5s-5 -8.16602 -5 -11.499s1.16699 -7.16602 3.5 -11.499s5.33301 -8.66602 9 -12.999s7.5 -8 11.5 -11s7.66699 -4.5 11 -4.5c2.66699 0 6.5 1.5 11.5 4.5s10 6.5 15 10.5
s9.16699 8.16699 12.5 12.5s5 8.16602 5 11.499z" />
    <glyph glyph-name="yacute" unicode="&#xfd;" horiz-adv-x="468" 
d="M474 453h-74.001l-130 -225l-31 -54.5l-33 -58.5h-2c-3.33301 19.333 -7.16602 39.166 -11.499 59.499s-8.5 38.5 -12.5 54.5l-53 224h-73l98 -419c-37.333 -62 -75.833 -109.833 -115.5 -143.5s-82.834 -59.5 -129.501 -77.5l47 -47c24.667 10 48.667 22.333 72 37
s46.333 32.834 69 54.501s45.334 47.5 68.001 77.5s46 65.333 70 106zM403.999 645c0 2.66699 -1.33203 5.83301 -3.99902 9.5s-5.83398 7.33398 -9.50098 11.001s-7.5 6.66699 -11.5 9s-7.33301 3.5 -10 3.5c-4 0 -8 -1.33301 -12 -4s-7.66699 -5.66699 -11 -9l-58.5 -62
c-19.667 -20 -41.5 -38.667 -65.5 -56l42 -18c23.333 13.333 45.5 28.166 66.5 44.499s41.167 34.166 60.5 53.499c2 2 4.66699 4.83301 8 8.5s5 6.83398 5 9.50098z" />
    <glyph glyph-name="thorn" unicode="&#xfe;" horiz-adv-x="528" 
d="M420 272c-5.33301 -30 -15.6641 -58 -30.9971 -84s-34.333 -48.667 -57 -68s-47.834 -34.5 -75.501 -45.5s-56.834 -16.5 -87.501 -16.5c-26 0 -49 3.66699 -69 11l18 103c4.66699 28.667 13.167 56.667 25.5 84s27.333 51.833 45 73.5s38 39 61 52s47.5 19.5 73.5 19.5
c17.333 0 32.166 -2.83301 44.499 -8.5s22.5 -13.334 30.5 -23.001s14 -20.667 18 -33s6 -25.166 6 -38.499v-13c0 -4 -0.666992 -8.33301 -2 -13zM494.002 264c1.33301 6.66699 2.33105 13.167 2.99805 19.5s1 12.5 1 18.5c0 20.667 -3.33301 40.834 -10 60.501
s-16.5 37 -29.5 52s-29.167 27 -48.5 36s-42 13.5 -68 13.5c-42.667 0 -80.667 -10.833 -114 -32.5s-59.666 -52.834 -78.999 -93.501l-3 1l66 373h-74l-166 -943h74l42 238c22.667 -6 47.334 -9 74.001 -9c41.333 0 80.5 6.16699 117.5 18.5s70 30 99 53s53.5 51 73.5 84
s34 69.833 42 110.5z" />
    <glyph glyph-name="ydieresis" unicode="&#xff;" horiz-adv-x="468" 
d="M474 453h-74.001l-130 -225l-31 -54.5l-33 -58.5h-2c-3.33301 19.333 -7.16602 39.166 -11.499 59.499s-8.5 38.5 -12.5 54.5l-53 224h-73l98 -419c-37.333 -62 -75.833 -109.833 -115.5 -143.5s-82.834 -59.5 -129.501 -77.5l47 -47c24.667 10 48.667 22.333 72 37
s46.333 32.834 69 54.501s45.334 47.5 68.001 77.5s46 65.333 70 106zM402.999 567c0 3.33301 -1.16797 7.33301 -3.50098 12s-5.16602 9.16699 -8.49902 13.5s-7 8 -11 11s-7.66699 4.5 -11 4.5s-7.5 -1.5 -12.5 -4.5s-10 -6.5 -15 -10.5s-9.16699 -8.16699 -12.5 -12.5
s-5 -8.16602 -5 -11.499s1.16699 -7.33301 3.5 -12s5.33301 -9 9 -13s7.5 -7.5 11.5 -10.5s7.66699 -4.5 11 -4.5s7.5 1.33301 12.5 4s9.83301 6 14.5 10s8.66699 8.16699 12 12.5s5 8.16602 5 11.499zM271.998 567c0 3.33301 -1.16797 7.33301 -3.50098 12
s-5.16602 9.16699 -8.49902 13.5s-7 8 -11 11s-7.66699 4.5 -11 4.5s-7.5 -1.5 -12.5 -4.5s-10 -6.5 -15 -10.5s-9.16699 -8.16699 -12.5 -12.5s-5 -8.16602 -5 -11.499s1.16699 -7.33301 3.5 -12s5.33301 -9 9 -13s7.5 -7.5 11.5 -10.5s7.66699 -4.5 11 -4.5
s7.5 1.33301 12.5 4s9.83301 6 14.5 10s8.66699 8.16699 12 12.5s5 8.16602 5 11.499z" />
    <glyph glyph-name="dotlessi" unicode="&#x131;" horiz-adv-x="211" 
d="M173 453h-75l-79 -453h74z" />
    <glyph glyph-name="Lslash" unicode="&#x141;" horiz-adv-x="440" 
d="M396 68h-290l39 226l177 93l12 69l-177 -93l48 275h-79l-55 -319l-58 -31l-12 -69l58 30l-44 -249h369z" />
    <glyph glyph-name="lslash" unicode="&#x142;" horiz-adv-x="222" 
d="M236 456l-75.998 -40.002l52 296h-74l-60 -339l-58 -31l-11 -68l57 30l-36 -204c-1.33301 -4.66699 -2 -9 -2 -13v-11c0 -15.333 2.5 -28.333 7.5 -39s11.167 -19.667 18.5 -27s15.166 -13 23.499 -17s16.166 -7 23.499 -9l49 49
c-12.667 2.66699 -23.5 8.33398 -32.5 17.001s-13.5 21.334 -13.5 38.001v7c0 2.66699 0.333008 5.66699 1 9l42 242l77 41z" />
    <glyph glyph-name="OE" unicode="&#x152;" horiz-adv-x="841" 
d="M861 638h-335.999c-5.33301 0 -10.666 0.5 -15.999 1.5s-10.666 1.83301 -15.999 2.5c-9.33301 1.33301 -18.333 2 -27 2h-26c-52.667 0 -103 -9.5 -151 -28.5s-90.333 -45.333 -127 -79s-65.834 -73.5 -87.501 -119.5s-32.5 -96 -32.5 -150
c0 -40 7.33301 -76.833 22 -110.5s34.667 -62.5 60 -86.5s55.166 -42.667 89.499 -56s71.166 -20 110.499 -20h29c10 0 20 0.666992 30 2c6 0.666992 11.833 1.5 17.5 2.5s11.5 1.5 17.5 1.5h366l12 68h-293l38 219h213l12 68h-213l38 216h258zM511.001 568
l-87.002 -500.002c-14 -2.66699 -28 -4.5 -42 -5.5s-28 -1.5 -42 -1.5c-31.333 0 -60.166 4.66699 -86.499 14s-49.333 23 -69 41s-35 39.667 -46 65s-16.5 54 -16.5 86c0 43.333 8.5 83.833 25.5 121.5s40 70.334 69 98.001s62.833 49.334 101.5 65.001
s79.334 23.5 122.001 23.5c12 0 24 -0.5 36 -1.5s23.667 -2.83301 35 -5.5z" />
    <glyph glyph-name="oe" unicode="&#x153;" horiz-adv-x="865" 
d="M761 341c0 -25.333 -9.00098 -45.668 -27.001 -61.001s-39.5 -27.166 -64.5 -35.499s-51.167 -14 -78.5 -17s-50 -4.5 -68 -4.5c-4.66699 0 -9.16699 0.166992 -13.5 0.5s-8.83301 0.5 -13.5 0.5c4.66699 22.667 12.834 44.5 24.501 65.5s26 39.667 43 56
s36.333 29.333 58 39s44.5 14.5 68.5 14.5c18 0 34.333 -4.5 49 -13.5s22 -23.833 22 -44.5zM423.999 269.998c0 -26.667 -5.33301 -52.834 -16 -78.501s-25 -48.667 -43 -69s-39.167 -36.666 -63.5 -48.999s-50.5 -18.5 -78.5 -18.5c-40 0 -71 11.667 -93 35
s-33 54.666 -33 93.999c0 26.667 5.33301 52.834 16 78.501s25 48.667 43 69s39.167 36.666 63.5 48.999s50.5 18.5 78.5 18.5c40 0 71 -11.667 93 -35s33 -54.666 33 -93.999zM695.999 463.998c-20.667 0 -41.502 -2.83301 -62.502 -8.5s-41 -13.834 -60 -24.501
s-36.667 -23.167 -53 -37.5s-29.833 -30.5 -40.5 -48.5c-5.33301 20 -13.833 37.5 -25.5 52.5s-25.5 27.5 -41.5 37.5s-33.5 17.333 -52.5 22s-38.167 7 -57.5 7c-37.333 0 -73 -7.66699 -107 -23s-63.833 -36 -89.5 -62s-46 -56 -61 -90s-22.5 -69.667 -22.5 -107
c0 -29.333 4.83301 -55.666 14.5 -78.999s23 -43.5 40 -60.5s37.5 -30 61.5 -39s50.333 -13.5 79 -13.5c44.667 0 85.834 10.833 123.501 32.5s68.834 50.834 93.501 87.501c5.33301 -20.667 13.833 -38.334 25.5 -53.001s25.334 -26.667 41.001 -36
s32.834 -16.166 51.501 -20.499s37.667 -6.5 57 -6.5c23.333 0 46.166 2.66699 68.499 8s43.5 13.666 63.5 24.999l14 76c-20.667 -13.333 -43 -24 -67 -32s-48.333 -12 -73 -12c-34 0 -62.167 8.33301 -84.5 25s-35.166 43 -38.499 79
c29.333 -1.33301 62.166 -0.333008 98.499 3s71 10.5 104 21.5s62.167 27 87.5 48s41.666 49.167 48.999 84.5c2 8.66699 3 18.334 3 29.001c0 20 -3.83301 37.167 -11.5 51.5s-18 26.166 -31 35.499s-27.833 16.333 -44.5 21s-34 7 -52 7z" />
    <glyph glyph-name="Scaron" unicode="&#x160;" horiz-adv-x="471" 
d="M446 607c-11.333 9.33301 -28.501 17.8301 -51.501 25.4971s-49.5 11.5 -79.5 11.5c-28.667 0 -56.167 -4 -82.5 -12s-49.666 -20 -69.999 -36s-36.5 -35.667 -48.5 -59s-18 -50.333 -18 -81c0 -36 11.5 -66.333 34.5 -91s57.5 -45.667 103.5 -63
c34 -12.667 59.167 -27.334 75.5 -44.001s24.5 -37.667 24.5 -63c0 -20.667 -4.33301 -39.167 -13 -55.5s-20 -30.166 -34 -41.499s-30.167 -20 -48.5 -26s-37.166 -9 -56.499 -9c-34.667 0 -64.834 5.33301 -90.501 16s-50.834 25.667 -75.501 45l-5 -78
c16 -13.333 38.167 -25.166 66.5 -35.499s60.5 -15.5 96.5 -15.5c32.667 0 63.667 4.5 93 13.5s54.833 22.5 76.5 40.5s38.834 40.333 51.501 67s19 57.334 19 92.001c0 42 -13.333 75.5 -40 100.5s-63 46.167 -109 63.5c-61.333 23.333 -92 55.333 -92 96
c0 17.333 4 32.833 12 46.5s18.5 25.334 31.5 35.001s27.5 17 43.5 22s32 7.5 48 7.5c24.667 0 47.167 -3.83301 67.5 -11.5s35.833 -15.5 46.5 -23.5zM481.999 859.997l-48.998 22.999c-18.667 -12 -36.834 -24.5 -54.501 -37.5s-34.5 -27.167 -50.5 -42.5
c-10.667 15.333 -22.667 29.5 -36 42.5s-27.333 25.5 -42 37.5l-55 -23c17.333 -15.333 33.166 -31.666 47.499 -48.999s27.166 -35.666 38.499 -54.999c3.33301 -6.66699 6.5 -13.334 9.5 -20.001s6.5 -12.667 10.5 -18c2.66699 -4.66699 6.66699 -7 12 -7
c4.66699 0 9.33398 2.33301 14.001 7c6 5.33301 11.5 11.333 16.5 18s10.167 13 15.5 19c36.667 40 77.667 75 123 105z" />
    <glyph glyph-name="scaron" unicode="&#x161;" horiz-adv-x="368" 
d="M329 427c-8 6 -22.6699 12.833 -44.0029 20.5s-44.333 11.5 -69 11.5c-21.333 0 -41.666 -3.16699 -60.999 -9.5s-36.166 -15.5 -50.499 -27.5s-25.666 -26.667 -33.999 -44s-12.5 -37.333 -12.5 -60c0 -28.667 9.33301 -52 28 -70s45.667 -33.667 81 -47
c20 -7.33301 35.667 -16.333 47 -27s17 -24 17 -40c0 -13.333 -3 -24.666 -9 -33.999s-13.667 -17.333 -23 -24s-19.833 -11.5 -31.5 -14.5s-23.167 -4.5 -34.5 -4.5c-26 0 -49.5 4.5 -70.5 13.5s-39.167 20.5 -54.5 34.5l-5 -71c12.667 -11.333 30.667 -20.666 54 -27.999
s48.333 -11 75 -11c23.333 0 45.5 3 66.5 9s39.333 15.333 55 28s28.167 28.167 37.5 46.5s14 40.166 14 65.499c0 30 -9.83301 54.5 -29.5 73.5s-47.5 35.167 -83.5 48.5c-20 7.33301 -35 15.666 -45 24.999s-15 21 -15 35c0 22.667 8.5 40.167 25.5 52.5
s36.167 18.5 57.5 18.5c18.667 0 36.5 -3 53.5 -9s29.833 -12.333 38.5 -19zM366.997 654l-40.999 19.002c-16 -10 -31.667 -20.5 -47 -31.5s-29.666 -23.167 -42.999 -36.5c-8.66699 13.333 -18.667 25.666 -30 36.999s-23.333 21.666 -36 30.999l-47 -19
c14.667 -12.667 28.167 -26.5 40.5 -41.5s23.166 -30.833 32.499 -47.5c3.33301 -5.33301 6.16602 -10.666 8.49902 -15.999s5.16602 -10.666 8.49902 -15.999c2.66699 -4 6.33398 -6 11.001 -6c2.66699 0 6.66699 2 12 6c4.66699 5.33301 9 10.666 13 15.999
s8.66699 10.666 14 15.999c31.333 33.333 66 63 104 89z" />
    <glyph glyph-name="Ydieresis" unicode="&#x178;" horiz-adv-x="613" 
d="M651 638l-85 0.000976562l-166 -189l-40 -46l-40 -48h-2c-7.33301 15.333 -15.333 31.166 -24 47.499l-24 46.5l-101 189h-83l183 -343l-51 -295h77l51 295zM513 763.001c0 4 -1.33398 8.66699 -4.00098 14s-6.16699 10.5 -10.5 15.5s-8.83301 9.33301 -13.5 13
s-9 5.5 -13 5.5c-3.33301 0 -8 -1.66699 -14 -5s-11.833 -7.5 -17.5 -12.5s-10.5 -10 -14.5 -15s-6 -9.5 -6 -13.5s1.5 -8.66699 4.5 -14s6.5 -10.5 10.5 -15.5s8.33301 -9.16699 13 -12.5s9 -5 13 -5s8.83301 1.66699 14.5 5s11.334 7.33301 17.001 12s10.5 9.5 14.5 14.5
s6 9.5 6 13.5zM358.999 763.001c0 4 -1.33398 8.66699 -4.00098 14s-6.16699 10.5 -10.5 15.5s-8.83301 9.33301 -13.5 13s-9 5.5 -13 5.5c-3.33301 0 -8 -1.66699 -14 -5s-11.833 -7.5 -17.5 -12.5s-10.5 -10 -14.5 -15s-6 -9.5 -6 -13.5s1.5 -8.66699 4.5 -14
s6.5 -10.5 10.5 -15.5s8.33301 -9.16699 13 -12.5s9 -5 13 -5s8.83301 1.66699 14.5 5s11.334 7.33301 17.001 12s10.5 9.5 14.5 14.5s6 9.5 6 13.5z" />
    <glyph glyph-name="Zcaron" unicode="&#x17d;" horiz-adv-x="525" 
d="M534 638h-409l-12 -67h295l1 -2l-68.5 -88l-71.5 -95l-274 -367l-3 -19h442l13 68h-329l-1 1l68.5 89l70.5 93l275 368zM502 861l-49.001 23c-18.667 -11.333 -36.834 -23.666 -54.501 -36.999s-34.5 -27.666 -50.5 -42.999c-10 15.333 -21.667 29.666 -35 42.999
s-27.666 25.666 -42.999 36.999l-55 -23c35.333 -30 64 -64.667 86 -104c3.33301 -6 6.5 -12.333 9.5 -19s6.5 -13 10.5 -19c3.33301 -4.66699 7.33301 -7 12 -7s9.33398 2.33301 14.001 7c6 5.33301 11.5 11.333 16.5 18s10.167 13 15.5 19c38 40 79 75 123 105z" />
    <glyph glyph-name="zcaron" unicode="&#x17e;" horiz-adv-x="427" 
d="M402 453h-320l-10 -60h209l1 -1l-50 -62l-50 -64l-193 -251l-2 -15h354l10 60h-246v1l99 126l196 251zM398 654l-41.999 19.002c-16 -10 -31.5 -20.5 -46.5 -31.5s-29.167 -23.167 -42.5 -36.5c-9.33301 13.333 -19.666 25.666 -30.999 36.999s-23.333 21.666 -36 30.999
l-46 -19c28 -24.667 52.333 -54.334 73 -89.001c3.33301 -5.33301 6.16602 -10.666 8.49902 -15.999s5.16602 -10.666 8.49902 -15.999c2 -4 5.33301 -6 10 -6c4 0 8 2 12 6c5.33301 5.33301 10 10.666 14 15.999s8.33301 10.666 13 15.999
c15.333 16.667 31.833 32.334 49.5 47.001s36.167 28.667 55.5 42z" />
    <glyph glyph-name="florin" unicode="&#x192;" horiz-adv-x="367" 
d="M441 639c-6.66699 1.33301 -14.4961 2.66699 -23.4961 4s-17.5 2 -25.5 2c-56.667 0 -105.834 -16 -147.501 -48s-69.834 -80 -84.501 -144l-35 -154h-79l-10 -45h80l-69 -299c-9.33301 -40 -26.833 -71.333 -52.5 -94s-54.5 -37.667 -86.5 -45l45 -47
c17.333 4 34.666 11 51.999 21s33.5 22.833 48.5 38.5s28.167 33.667 39.5 54s19.666 42.5 24.999 66.5l71 305h112l14 46h-116l35 149c10 44.667 27.833 78.167 53.5 100.5s57.5 33.5 95.5 33.5c5.33301 0 11 -0.333008 17 -1s11.667 -1.66699 17 -3z" />
    <glyph glyph-name="circumflex" unicode="&#x2c6;" 
d="M455 536c-17.333 15.333 -33.835 31.834 -49.502 49.501s-29.834 36.167 -42.501 55.5c-3.33301 5.33301 -6.5 10.666 -9.5 15.999s-6.16699 10.666 -9.5 15.999l-9 11c-3.33301 4 -7.66602 6 -12.999 6s-10.833 -2 -16.5 -6s-10.167 -7.66699 -13.5 -11
c-5.33301 -5.33301 -10.5 -10.833 -15.5 -16.5s-10.167 -11.167 -15.5 -16.5c-19.333 -19.333 -39.666 -37.833 -60.999 -55.5s-43.333 -34.167 -66 -49.5l47 -21c44 24.667 85.667 53.334 125 86.001c14.667 -16.667 30.334 -32 47.001 -46s34 -27.333 52 -40z" />
    <glyph glyph-name="caron" unicode="&#x2c7;" 
d="M460 661l-48.998 23.001c-18.667 -11.333 -36.834 -23.666 -54.501 -36.999s-34.5 -27.666 -50.5 -42.999c-10.667 15.333 -22.667 29.666 -36 42.999s-27.333 25.666 -42 36.999l-55 -23c17.333 -14.667 33.166 -30.834 47.499 -48.501s27.166 -36.167 38.499 -55.5
c3.33301 -6 6.5 -12.333 9.5 -19s6.5 -13 10.5 -19c3.33301 -4.66699 7.33301 -7 12 -7s9.33398 2.33301 14.001 7c6 5.33301 11.5 11.333 16.5 18s10.167 13 15.5 19c18.667 19.333 38.167 37.833 58.5 55.5s41.833 34.167 64.5 49.5z" />
    <glyph glyph-name="breve" unicode="&#x2d8;" 
d="M411 557l-36.9951 43c-10 -6 -21.833 -11 -35.5 -15s-26.5 -6 -38.5 -6c-11.333 0 -23.333 2 -36 6s-23.334 9.33301 -32.001 16l-47 -44c15.333 -12.667 32.166 -22.667 50.499 -30s37.166 -11 56.499 -11c21.333 0 42.166 4 62.499 12s39.166 17.667 56.499 29z" />
    <glyph glyph-name="dotaccent" unicode="&#x2d9;" 
d="M346 564c0 4 -1.5 8.66699 -4.5 14s-6.5 10.5 -10.5 15.5s-8.33301 9.16699 -13 12.5s-9 5 -13 5s-8.83301 -1.66699 -14.5 -5s-11.334 -7.5 -17.001 -12.5s-10.5 -10 -14.5 -15s-6 -9.5 -6 -13.5s1.5 -8.66699 4.5 -14s6.5 -10.5 10.5 -15.5s8.33301 -9.16699 13 -12.5
s9 -5 13 -5s8.83301 1.66699 14.5 5s11.334 7.5 17.001 12.5s10.5 10 14.5 15s6 9.5 6 13.5z" />
    <glyph glyph-name="ring" unicode="&#x2da;" 
d="M418 624c0 12.667 -2.33301 24.667 -7 36s-11.167 21.166 -19.5 29.499s-18.166 15 -29.499 20s-23.333 7.5 -36 7.5c-16 0 -31.5 -3.16699 -46.5 -9.5s-28.167 -14.833 -39.5 -25.5s-20.5 -23.167 -27.5 -37.5s-10.5 -29.5 -10.5 -45.5c0 -12.667 2.33301 -24.667 7 -36
s11.167 -21.166 19.5 -29.499s18.166 -15 29.499 -20s23.333 -7.5 36 -7.5c16 0 31.5 3.16699 46.5 9.5s28.167 14.833 39.5 25.5s20.5 23.167 27.5 37.5s10.5 29.5 10.5 45.5zM365 623c0 -17.333 -6.33301 -32.999 -19 -46.999s-28 -21 -46 -21
c-13.333 0 -24.166 4.16699 -32.499 12.5s-12.5 19.166 -12.5 32.499c0 17.333 6.33301 32.833 19 46.5s28 20.5 46 20.5c13.333 0 24.166 -4 32.499 -12s12.5 -18.667 12.5 -32z" />
    <glyph glyph-name="ogonek" unicode="&#x2db;" 
d="M292 0l-71.9971 -0.000976562c-14.667 -6.66699 -29.834 -14.834 -45.501 -24.501s-29.834 -21 -42.501 -34s-23.167 -27.167 -31.5 -42.5s-12.5 -32 -12.5 -50c0 -24.667 8.83301 -43.5 26.5 -56.5s37.834 -19.5 60.501 -19.5c11.333 0 22.333 1 33 3s21 5.66699 31 11
l18 48c-21.333 -11.333 -43.333 -17 -66 -17c-12.667 0 -24 2.83301 -34 8.5s-15 15.5 -15 29.5c0 16.667 5.33301 32.334 16 47.001s23.667 28.334 39 41.001s31.666 23.667 48.999 33s32.666 17 45.999 23z" />
    <glyph glyph-name="tilde" unicode="&#x2dc;" 
d="M489 644l-50.999 22.0029l-16 -16.5c-6.66699 -7 -13.834 -13.833 -21.501 -20.5s-15.167 -12.5 -22.5 -17.5s-13.666 -7.5 -18.999 -7.5c-4.66699 0 -10.667 2.66699 -18 8l-24 17.5c-8.66699 6.33301 -17.334 12.166 -26.001 17.499s-17 8 -25 8
s-18.333 -4.66699 -31 -14s-25.167 -20.333 -37.5 -33s-24 -25.334 -35 -38.001s-19.167 -22.334 -24.5 -29.001l51 -22c3.33301 4 8.33301 9.33301 15 16l21.5 20.5c7.66699 7 15.167 13 22.5 18s13.666 7.5 18.999 7.5c4.66699 0 10.834 -2.66699 18.501 -8l24 -17
c8.33301 -6 16.833 -11.667 25.5 -17s17 -8 25 -8c8.66699 0 19.167 4.66699 31.5 14s24.833 20.166 37.5 32.499s24.5 24.833 35.5 37.5s19.167 22.334 24.5 29.001z" />
    <glyph glyph-name="hungarumlaut" unicode="&#x2dd;" 
d="M500 651c0 2.66699 -1.49805 6.33398 -4.49805 11.001s-6.83301 9 -11.5 13s-9.33398 7.5 -14.001 10.5s-8.33398 4.5 -11.001 4.5c-5.33301 0 -10.333 -1.83301 -15 -5.5s-8.66699 -7.16699 -12 -10.5l-69.5 -73c-23 -23.333 -48.5 -45.333 -76.5 -66l49 -21
c27.333 16 54 33.333 80 52s49.667 39.667 71 63c2.66699 2.66699 5.66699 6.16699 9 10.5s5 8.16602 5 11.499zM350.002 651c0 2.66699 -1.50195 6.33398 -4.50195 11.001s-6.83301 9 -11.5 13s-9.33398 7.5 -14.001 10.5s-8.33398 4.5 -11.001 4.5
c-5.33301 0 -10.166 -1.83301 -14.499 -5.5s-8.16602 -7.16699 -11.499 -10.5c-5.33301 -5.33301 -10.166 -11 -14.499 -17s-9.16602 -11.667 -14.499 -17c-18 -19.333 -36.833 -37.833 -56.5 -55.5s-40.167 -34.167 -61.5 -49.5l49 -21c27.333 16 54 33.333 80 52
s49.667 39.667 71 63c2.66699 2.66699 5.66699 6.16699 9 10.5s5 8.16602 5 11.499z" />
    <glyph glyph-name="pi" unicode="&#x3c0;" horiz-adv-x="611" 
d="M472 107l-14 -80h-418l51 288c8 -12 18 -21 30 -27zM265 386c-4 -22.667 -15.167 -41.667 -33.5 -57s-38.833 -23 -61.5 -23c-20 0 -36.167 6.16699 -48.5 18.5s-18.5 28.166 -18.5 47.499v6c0 2.66699 0.333008 5.33398 1 8.00098h161zM521 386l-27 -154l-127 154h154z
M561 152l-43.999 54l43 247h-472l-80 -453h472l17 97c12.667 0 25.667 4.66699 39 14s21.666 23 24.999 41z" />
    <glyph glyph-name="endash" unicode="&#x2013;" 
d="M496 252h-502l-9 -52h502z" />
    <glyph glyph-name="emdash" unicode="&#x2014;" horiz-adv-x="1000" 
d="M996 252h-1002l-9 -52h1002z" />
    <glyph glyph-name="quoteleft" unicode="&#x2018;" horiz-adv-x="191" 
d="M209 644l-30.001 5.00195c-10 -8.66699 -21 -19.5 -33 -32.5s-23 -26.833 -33 -41.5s-18.333 -29.834 -25 -45.501s-10 -30.5 -10 -44.5c0 -4.66699 1.66699 -10 5 -16s7.33301 -11.833 12 -17.5s9.66699 -10.334 15 -14.001s10.333 -5.5 15 -5.5
s10.334 1.83301 17.001 5.5s13.167 8.16699 19.5 13.5s11.833 11 16.5 17s7 11.333 7 16c0 4 -1.33301 8.5 -4 13.5s-6.16699 9.83301 -10.5 14.5s-8.83301 8.5 -13.5 11.5s-9 5.16699 -13 6.5c3.33301 20 11.5 40.5 24.5 61.5s26.5 38.5 40.5 52.5z" />
    <glyph glyph-name="quoteright" unicode="&#x2019;" horiz-adv-x="191" 
d="M204 597c0 4.66699 -1.66797 10 -5.00098 16s-7.33301 11.667 -12 17s-9.66699 10 -15 14s-10.333 6 -15 6c-4 0 -9.5 -1.83301 -16.5 -5.5s-13.667 -8.16699 -20 -13.5s-11.833 -10.833 -16.5 -16.5s-7 -10.834 -7 -15.501c0 -4 1.33301 -8.5 4 -13.5
s6.16699 -9.83301 10.5 -14.5s8.83301 -8.66699 13.5 -12s9 -5.33301 13 -6c-3.33301 -20 -11.666 -40.667 -24.999 -62s-27 -39 -41 -53l31 -5c10 8.66699 21 19.5 33 32.5s23 26.833 33 41.5s18.333 29.834 25 45.501s10 30.5 10 44.5z" />
    <glyph glyph-name="quotesinglbase" unicode="&#x201a;" horiz-adv-x="191" 
d="M107 43c0 4.66699 -1.66797 10 -5.00098 16s-7.5 11.667 -12.5 17s-10.167 10 -15.5 14s-10.333 6 -15 6c-4 0 -9.33301 -1.83301 -16 -5.5s-13.167 -8.16699 -19.5 -13.5s-11.833 -10.833 -16.5 -16.5s-7 -10.834 -7 -15.501c0 -4 1.33301 -8.5 4 -13.5
s6.16699 -9.83301 10.5 -14.5s8.83301 -8.66699 13.5 -12s9 -5.33301 13 -6c-3.33301 -20 -11.666 -40.667 -24.999 -62s-27 -39 -41 -53l31 -5c10 8.66699 21 19.5 33 32.5s23 26.833 33 41.5s18.333 29.834 25 45.501s10 30.5 10 44.5z" />
    <glyph glyph-name="quotedblleft" unicode="&#x201c;" horiz-adv-x="355" 
d="M373 644l-30.001 5.00195c-10 -8.66699 -21 -19.5 -33 -32.5s-23 -26.833 -33 -41.5s-18.333 -29.834 -25 -45.501s-10 -30.5 -10 -44.5c0 -4.66699 1.66699 -10 5 -16s7.33301 -11.833 12 -17.5s9.66699 -10.334 15 -14.001s10.333 -5.5 15 -5.5
s10.334 1.83301 17.001 5.5s13.167 8.16699 19.5 13.5s11.833 11 16.5 17s7 11.333 7 16c0 4 -1.33301 8.5 -4 13.5s-6.16699 9.83301 -10.5 14.5s-8.83301 8.5 -13.5 11.5s-9 5.16699 -13 6.5c3.33301 20 11.5 40.5 24.5 61.5s26.5 38.5 40.5 52.5zM208.999 644.002
l-30.001 5.00195c-10 -8.66699 -21 -19.5 -33 -32.5s-23 -26.833 -33 -41.5s-18.333 -29.834 -25 -45.501s-10 -30.5 -10 -44.5c0 -4.66699 1.66699 -10 5 -16s7.33301 -11.833 12 -17.5s9.66699 -10.334 15 -14.001s10.333 -5.5 15 -5.5s10.334 1.83301 17.001 5.5
s13.167 8.16699 19.5 13.5s11.833 11 16.5 17s7 11.333 7 16c0 4 -1.33301 8.5 -4 13.5s-6.16699 9.83301 -10.5 14.5s-8.83301 8.5 -13.5 11.5s-9 5.16699 -13 6.5c3.33301 20 11.5 40.5 24.5 61.5s26.5 38.5 40.5 52.5z" />
    <glyph glyph-name="quotedblright" unicode="&#x201d;" horiz-adv-x="355" 
d="M368 597c0 4.66699 -1.66797 10 -5.00098 16s-7.33301 11.667 -12 17s-9.66699 10 -15 14s-10.333 6 -15 6c-4 0 -9.5 -1.83301 -16.5 -5.5s-13.667 -8.16699 -20 -13.5s-11.833 -10.833 -16.5 -16.5s-7 -10.834 -7 -15.501c0 -4 1.33301 -8.5 4 -13.5
s6.16699 -9.83301 10.5 -14.5s8.83301 -8.66699 13.5 -12s9 -5.33301 13 -6c-3.33301 -20 -11.666 -40.667 -24.999 -62s-27 -39 -41 -53l31 -5c10 8.66699 21 19.5 33 32.5s23 26.833 33 41.5s18.333 29.834 25 45.501s10 30.5 10 44.5zM203.999 597
c0 4.66699 -1.66797 10 -5.00098 16s-7.33301 11.667 -12 17s-9.66699 10 -15 14s-10.333 6 -15 6c-4 0 -9.5 -1.83301 -16.5 -5.5s-13.667 -8.16699 -20 -13.5s-11.833 -10.833 -16.5 -16.5s-7 -10.834 -7 -15.501c0 -4 1.33301 -8.5 4 -13.5s6.16699 -9.83301 10.5 -14.5
s8.83301 -8.66699 13.5 -12s9 -5.33301 13 -6c-3.33301 -20 -11.666 -40.667 -24.999 -62s-27 -39 -41 -53l31 -5c10 8.66699 21 19.5 33 32.5s23 26.833 33 41.5s18.333 29.834 25 45.501s10 30.5 10 44.5z" />
    <glyph glyph-name="quotedblbase" unicode="&#x201e;" horiz-adv-x="355" 
d="M271 43c0 4.66699 -1.66797 10 -5.00098 16s-7.5 11.667 -12.5 17s-10.167 10 -15.5 14s-10.333 6 -15 6c-4 0 -9.33301 -1.83301 -16 -5.5s-13.167 -8.16699 -19.5 -13.5s-11.833 -10.833 -16.5 -16.5s-7 -10.834 -7 -15.501c0 -4 1.33301 -8.5 4 -13.5
s6.16699 -9.83301 10.5 -14.5s8.83301 -8.66699 13.5 -12s9 -5.33301 13 -6c-3.33301 -20 -11.666 -40.667 -24.999 -62s-27 -39 -41 -53l31 -5c10 8.66699 21 19.5 33 32.5s23 26.833 33 41.5s18.333 29.834 25 45.501s10 30.5 10 44.5zM106.999 43
c0 4.66699 -1.66797 10 -5.00098 16s-7.5 11.667 -12.5 17s-10.167 10 -15.5 14s-10.333 6 -15 6c-4 0 -9.33301 -1.83301 -16 -5.5s-13.167 -8.16699 -19.5 -13.5s-11.833 -10.833 -16.5 -16.5s-7 -10.834 -7 -15.501c0 -4 1.33301 -8.5 4 -13.5
s6.16699 -9.83301 10.5 -14.5s8.83301 -8.66699 13.5 -12s9 -5.33301 13 -6c-3.33301 -20 -11.666 -40.667 -24.999 -62s-27 -39 -41 -53l31 -5c10 8.66699 21 19.5 33 32.5s23 26.833 33 41.5s18.333 29.834 25 45.501s10 30.5 10 44.5z" />
    <glyph glyph-name="dagger" unicode="&#x2020;" horiz-adv-x="400" 
d="M388 460l-123 -15l21 112h-76l-17 -112l-120 15l-13 -74l127 15l-100 -629h46l123 629l119 -15z" />
    <glyph glyph-name="daggerdbl" unicode="&#x2021;" horiz-adv-x="400" 
d="M388 460l-123 -15l21 112h-76l-17 -112l-120 15l-13 -74l127 15l-38 -236l-45 -237l-121 15l-13 -74l124 15l-21 -112h75l18 112l119 -15l13 74l-125 -15l37 237l46 236l119 -15z" />
    <glyph glyph-name="bullet" unicode="&#x2022;" horiz-adv-x="362" 
d="M318 277c0 20 -3.5 38.333 -10.5 55s-16.667 31.167 -29 43.5s-26.833 21.833 -43.5 28.5s-35 10 -55 10s-38.333 -3.33301 -55 -10s-31.167 -16.167 -43.5 -28.5s-22 -26.833 -29 -43.5s-10.5 -35 -10.5 -55s3.5 -38.333 10.5 -55s16.667 -31 29 -43
s26.833 -21.333 43.5 -28s35 -10 55 -10s38.333 3.33301 55 10s31.167 16 43.5 28s22 26.333 29 43s10.5 35 10.5 55z" />
    <glyph glyph-name="ellipsis" unicode="&#x2026;" horiz-adv-x="574" 
d="M490 45c0 4 -1.5 9 -4.5 15s-6.83301 11.667 -11.5 17s-9.66699 9.83301 -15 13.5s-10.333 5.5 -15 5.5c-4 0 -9.5 -2 -16.5 -6s-13.833 -8.83301 -20.5 -14.5s-12.5 -11.667 -17.5 -18s-7.5 -11.833 -7.5 -16.5c0 -4 1.5 -9 4.5 -15s6.66699 -11.667 11 -17
s9 -9.83301 14 -13.5s9.83301 -5.5 14.5 -5.5s10.5 2 17.5 6s14 8.83301 21 14.5s13 11.667 18 18s7.5 11.833 7.5 16.5zM298 45c0 4 -1.49902 9 -4.49902 15s-6.83301 11.667 -11.5 17s-9.5 9.83301 -14.5 13.5s-9.83301 5.5 -14.5 5.5s-10.5 -2 -17.5 -6
s-13.833 -8.83301 -20.5 -14.5s-12.334 -11.667 -17.001 -18s-7 -11.833 -7 -16.5c0 -4 1.5 -9 4.5 -15s6.66699 -11.667 11 -17s9 -9.83301 14 -13.5s9.83301 -5.5 14.5 -5.5c4 0 9.66699 2 17 6s14.333 8.83301 21 14.5s12.5 11.667 17.5 18s7.5 11.833 7.5 16.5z
M107.001 45c0 4 -1.5 9 -4.5 15s-6.83301 11.667 -11.5 17s-9.5 9.83301 -14.5 13.5s-9.83301 5.5 -14.5 5.5c-4 0 -9.5 -2 -16.5 -6s-13.833 -8.83301 -20.5 -14.5s-12.5 -11.667 -17.5 -18s-7.5 -11.833 -7.5 -16.5c0 -4 1.5 -9 4.5 -15s6.66699 -11.667 11 -17
s9 -9.83301 14 -13.5s9.83301 -5.5 14.5 -5.5c4 0 9.66699 2 17 6s14.333 8.83301 21 14.5s12.5 11.667 17.5 18s7.5 11.833 7.5 16.5z" />
    <glyph glyph-name="perthousand" unicode="&#x2030;" horiz-adv-x="1048" 
d="M984 151c0 34.667 -11.167 62.5 -33.5 83.5s-50.5 31.5 -84.5 31.5c-22 0 -42.833 -4.33301 -62.5 -13s-37.167 -20.334 -52.5 -35.001s-27.5 -31.834 -36.5 -51.501s-13.5 -40.5 -13.5 -62.5c0 -34.667 11.167 -62.5 33.5 -83.5s50.5 -31.5 84.5 -31.5
c22 0 42.833 4.33301 62.5 13s37.167 20.334 52.5 35.001s27.5 31.834 36.5 51.501s13.5 40.5 13.5 62.5zM355 536c0 34.667 -11.167 62.333 -33.5 83s-50.5 31 -84.5 31c-22 0 -42.833 -4.33301 -62.5 -13s-37.167 -20.167 -52.5 -34.5s-27.5 -31.333 -36.5 -51
s-13.5 -40.5 -13.5 -62.5c0 -34.667 11.167 -62.667 33.5 -84s50.5 -32 84.5 -32c22 0 42.833 4.33301 62.5 13s37.167 20.5 52.5 35.5s27.5 32.333 36.5 52s13.5 40.5 13.5 62.5zM690 626.999l-35 34l-638 -649l35 -34zM635 150.999c0 34.667 -11.167 62.5 -33.5 83.5
s-50.5 31.5 -84.5 31.5c-22 0 -42.833 -4.33301 -62.5 -13s-37.167 -20.334 -52.5 -35.001s-27.5 -31.834 -36.5 -51.501s-13.5 -40.5 -13.5 -62.5c0 -34.667 11.167 -62.5 33.5 -83.5s50.5 -31.5 84.5 -31.5c22 0 42.833 4.33301 62.5 13s37.167 20.334 52.5 35.001
s27.5 31.834 36.5 51.501s13.5 40.5 13.5 62.5zM923 149.999c0 -13.333 -2.66699 -26.334 -8 -39.001s-12.666 -24 -21.999 -34s-20 -18 -32 -24s-25 -9 -39 -9c-18 0 -32.5 5.66699 -43.5 17s-16.5 26 -16.5 44c0 13.333 2.66699 26.333 8 39s12.666 23.834 21.999 33.501
s20 17.5 32 23.5s25 9 39 9c18 0 32.5 -5.5 43.5 -16.5s16.5 -25.5 16.5 -43.5zM294 534.998c0 -13.333 -2.66699 -26.334 -8 -39.001s-12.666 -24 -21.999 -34s-20 -18 -32 -24s-25 -9 -39 -9c-18 0 -32.5 5.66699 -43.5 17s-16.5 26 -16.5 44
c0 13.333 2.66699 26.333 8 39s12.666 23.834 21.999 33.501s20 17.5 32 23.5s25 9 39 9c18 0 32.5 -5.5 43.5 -16.5s16.5 -25.5 16.5 -43.5zM574 149.997c0 -13.333 -2.66699 -26.334 -8 -39.001s-12.666 -24 -21.999 -34s-20 -18 -32 -24s-25 -9 -39 -9
c-18 0 -32.5 5.66699 -43.5 17s-16.5 26 -16.5 44c0 13.333 2.66699 26.333 8 39s12.666 23.834 21.999 33.501s20 17.5 32 23.5s25 9 39 9c18 0 32.5 -5.5 43.5 -16.5s16.5 -25.5 16.5 -43.5z" />
    <glyph glyph-name="guilsinglleft" unicode="&#x2039;" horiz-adv-x="208" 
d="M175 336l-6 31.002c-20.667 -22.667 -42.5 -43.334 -65.5 -62.001l-70.5 -56c-3.33301 -2.66699 -7.33301 -6.33398 -12 -11.001s-7 -9.33398 -7 -14.001c0 -4 1 -7.66699 3 -11s4.33301 -6.66602 7 -9.99902c4 -4 8.16699 -7.83301 12.5 -11.5s8.5 -7.5 12.5 -11.5
c13.333 -14 25.833 -29 37.5 -45s22.5 -32.667 32.5 -50l16 22l-16.5 58c-5.66699 19.333 -13.167 38.333 -22.5 57c15.333 18 29.333 36.5 42 55.5s25 38.5 37 58.5z" />
    <glyph glyph-name="guilsinglright" unicode="&#x203a;" horiz-adv-x="208" 
d="M174 228c0 4 -1.00098 7.66504 -3.00098 10.998s-4.33301 6.66602 -7 9.99902c-4 4 -8.16699 7.83301 -12.5 11.5s-8.5 7.5 -12.5 11.5c-14 14 -26.833 29 -38.5 45s-22.5 32.667 -32.5 50l-15 -22l16.5 -58c5.66699 -19.333 12.834 -38 21.501 -56
c-15.333 -18 -29.333 -36.667 -42 -56l-37 -59l6 -31c21.333 22.667 43.333 43.334 66 62.001l71 56c3.33301 2.66699 7.33301 6.33398 12 11.001s7 9.33398 7 14.001z" />
    <glyph glyph-name="fraction" unicode="&#x2044;" horiz-adv-x="641" 
d="M663 627l-34 34l-638 -649l34 -34z" />
    <glyph glyph-name="Euro" unicode="&#x20ac;" horiz-adv-x="492" 
d="M509 618c-16.667 11.333 -34.666 18.8369 -53.999 22.5039s-38.666 5.5 -57.999 5.5c-36 0 -68.833 -6.83301 -98.5 -20.5s-56.334 -32 -80.001 -55s-44 -49.333 -61 -79s-30.5 -60.167 -40.5 -91.5h-83l-7 -46h78c-2.66699 -11.333 -4.83398 -22.333 -6.50098 -33
s-3.16699 -21.667 -4.5 -33h-79l-8 -45h84c-0.666992 -30.667 2.5 -61 9.5 -91s18.167 -56.833 33.5 -80.5s35.333 -42.834 60 -57.501s54.667 -22 90 -22c19.333 0 37.666 1.5 54.999 4.5s34.666 9.16699 51.999 18.5l11 69
c-15.333 -8.66699 -31.666 -15.334 -48.999 -20.001s-35 -7 -53 -7c-24.667 0 -45.667 5 -63 15s-31.333 23.167 -42 39.5s-18.5 35 -23.5 56s-7.5 42.167 -7.5 63.5v12h166l17 45h-180c1.33301 11.333 3 22.333 5 33s4.66699 21.667 8 33h179l17 46h-182
c8 21.333 18.167 42.666 30.5 63.999s26.833 40.666 43.5 57.999s35.334 31.5 56.001 42.5s43.667 16.5 69 16.5c16 0 31.833 -1.83301 47.5 -5.5s30.5 -9.5 44.5 -17.5z" />
    <glyph glyph-name="trademark" unicode="&#x2122;" horiz-adv-x="416" 
d="M427 638h-23l-89 -135l-44 135h-20l-46 -185h29l29 112l37 -113h11l79 115l-11 -114h30zM224 638h-141l-4 -28h55l-28 -157h31l28 157h54z" />
    <glyph glyph-name="Omega" unicode="&#x2126;" horiz-adv-x="611" 
d="M472 107l-14 -80h-418l51 288c8 -12 18 -21 30 -27zM265 386c-4 -22.667 -15.167 -41.667 -33.5 -57s-38.833 -23 -61.5 -23c-20 0 -36.167 6.16699 -48.5 18.5s-18.5 28.166 -18.5 47.499v6c0 2.66699 0.333008 5.33398 1 8.00098h161zM521 386l-27 -154l-127 154h154z
M561 152l-43.999 54l43 247h-472l-80 -453h472l17 97c12.667 0 25.667 4.66699 39 14s21.666 23 24.999 41z" />
    <glyph glyph-name="partialdiff" unicode="&#x2202;" horiz-adv-x="611" 
d="M472 107l-14 -80h-418l51 288c8 -12 18 -21 30 -27zM265 386c-4 -22.667 -15.167 -41.667 -33.5 -57s-38.833 -23 -61.5 -23c-20 0 -36.167 6.16699 -48.5 18.5s-18.5 28.166 -18.5 47.499v6c0 2.66699 0.333008 5.33398 1 8.00098h161zM521 386l-27 -154l-127 154h154z
M561 152l-43.999 54l43 247h-472l-80 -453h472l17 97c12.667 0 25.667 4.66699 39 14s21.666 23 24.999 41z" />
    <glyph glyph-name="Delta" unicode="&#x2206;" horiz-adv-x="611" 
d="M472 107l-14 -80h-418l51 288c8 -12 18 -21 30 -27zM265 386c-4 -22.667 -15.167 -41.667 -33.5 -57s-38.833 -23 -61.5 -23c-20 0 -36.167 6.16699 -48.5 18.5s-18.5 28.166 -18.5 47.499v6c0 2.66699 0.333008 5.33398 1 8.00098h161zM521 386l-27 -154l-127 154h154z
M561 152l-43.999 54l43 247h-472l-80 -453h472l17 97c12.667 0 25.667 4.66699 39 14s21.666 23 24.999 41z" />
    <glyph glyph-name="product" unicode="&#x220f;" horiz-adv-x="463" 
d="M457 478c0 25.333 -4.16602 48.5 -12.499 69.5s-20.166 39.167 -35.499 54.5s-33.5 27.166 -54.5 35.499s-44.167 12.5 -69.5 12.5c-30.667 0 -59.334 -5.33301 -86.001 -16s-49.834 -25.5 -69.501 -44.5s-35.167 -41.667 -46.5 -68s-17 -54.833 -17 -85.5
c0 -25.333 4.33301 -48.5 13 -69.5s20.667 -39.167 36 -54.5s33.5 -27.166 54.5 -35.499s44.167 -12.5 69.5 -12.5c30.667 0 59.167 5.33301 85.5 16s49.333 25.5 69 44.5s35.167 41.667 46.5 68s17 54.833 17 85.5zM421.001 479c0 -25.333 -4.5 -48.834 -13.5 -70.501
s-21.5 -40.667 -37.5 -57s-34.833 -29.166 -56.5 -38.499s-45.167 -14 -70.5 -14c-41.333 0 -75 12.333 -101 37s-39 58 -39 100c0 25.333 4.5 48.833 13.5 70.5s21.5 40.5 37.5 56.5s34.833 28.667 56.5 38s45.167 14 70.5 14c40.667 0 74.167 -12.167 100.5 -36.5
s39.5 -57.5 39.5 -99.5zM360.001 512.999c0 18 -6.33301 32.833 -19 44.5s-27.667 17.5 -45 17.5h-71l-42 -237h42l16 96h30c11.333 0 22.333 1.83301 33 5.5s20.167 9 28.5 16s15 15.333 20 25s7.5 20.5 7.5 32.5zM320.001 512.999c0 -13.333 -5 -23.833 -15 -31.5
s-21 -11.5 -33 -11.5h-25l12 69h26c8.66699 0 16.667 -1.83301 24 -5.5s11 -10.5 11 -20.5z" />
    <glyph glyph-name="summation" unicode="&#x2211;" horiz-adv-x="611" 
d="M472 107l-14 -80h-418l51 288c8 -12 18 -21 30 -27zM265 386c-4 -22.667 -15.167 -41.667 -33.5 -57s-38.833 -23 -61.5 -23c-20 0 -36.167 6.16699 -48.5 18.5s-18.5 28.166 -18.5 47.499v6c0 2.66699 0.333008 5.33398 1 8.00098h161zM521 386l-27 -154l-127 154h154z
M561 152l-43.999 54l43 247h-472l-80 -453h472l17 97c12.667 0 25.667 4.66699 39 14s21.666 23 24.999 41z" />
    <glyph glyph-name="minus" unicode="&#x2212;" horiz-adv-x="420" 
d="M368 301h-309l-10 -54h309z" />
    <glyph glyph-name="radical" unicode="&#x221a;" horiz-adv-x="569" 
d="M631 712h-126l-233 -391l-58.5 -100l-53.5 -94h-2c-1.33301 11.333 -3 21.333 -5 30s-4.33301 17.667 -7 27l-30 116h-85l-22 -70h53l59 -237h29l391 656h79z" />
    <glyph glyph-name="infinity" unicode="&#x221e;" horiz-adv-x="808" 
d="M785 453l-291.996 0.000976562l12 64c7.33301 44.667 23.333 78 48 100s55.667 33 93 33c10.667 0 21.667 -1.33301 33 -4s21.666 -6 30.999 -10l26 62c-22 9.33301 -49.667 14 -83 14c-28.667 0 -55.5 -4 -80.5 -12s-47.167 -20.333 -66.5 -37
c-16.667 13.333 -36.834 24.833 -60.501 34.5s-51.834 14.5 -84.501 14.5c-56.667 0 -104.834 -15.833 -144.501 -47.5s-65.167 -79.834 -76.5 -144.501l-12 -67h-79l-11 -60h80l-69 -393h74l69 393h217l-69 -393h74l69 393h218l-69 -393h74zM462.004 607.001
c-14.667 -25.333 -25.001 -54.333 -31.001 -87l-11 -67h-218l11 64c7.33301 44.667 23.333 78 48 100s56 33 94 33c20.667 0 40.334 -3.83301 59.001 -11.5s34.667 -18.167 48 -31.5z" />
    <glyph glyph-name="integral" unicode="&#x222b;" horiz-adv-x="611" 
d="M472 107l-14 -80h-418l51 288c8 -12 18 -21 30 -27zM265 386c-4 -22.667 -15.167 -41.667 -33.5 -57s-38.833 -23 -61.5 -23c-20 0 -36.167 6.16699 -48.5 18.5s-18.5 28.166 -18.5 47.499v6c0 2.66699 0.333008 5.33398 1 8.00098h161zM521 386l-27 -154l-127 154h154z
M561 152l-43.999 54l43 247h-472l-80 -453h472l17 97c12.667 0 25.667 4.66699 39 14s21.666 23 24.999 41z" />
    <glyph glyph-name="approxequal" unicode="&#x2248;" horiz-adv-x="460" 
d="M430 358l-7.00098 61c-14.667 -13.333 -30.667 -24.166 -48 -32.499s-36.333 -12.5 -57 -12.5c-13.333 0 -25 2.33301 -35 7l-31 15c-9.33301 5.33301 -19.333 10 -30 14s-23.334 6 -38.001 6c-26 0 -49.167 -4.16699 -69.5 -12.5s-39.166 -20.5 -56.499 -36.5l8 -60
c15.333 13.333 31.5 24.166 48.5 32.499s35.5 12.5 55.5 12.5c12.667 0 24.167 -2.33301 34.5 -7l32.5 -15c9.33301 -4.66699 19.333 -9 30 -13s23.334 -6 38.001 -6c51.333 0 93 15.667 125 47zM399.999 186l-6.99902 61c-14.667 -13.333 -30.667 -24.166 -48 -32.499
s-36.333 -12.5 -57 -12.5c-13.333 0 -25 2.33301 -35 7l-31 15c-9.33301 5.33301 -19.333 10 -30 14s-23.334 6 -38.001 6c-26 0 -49.167 -4.16699 -69.5 -12.5s-39.166 -20.5 -56.499 -36.5l7 -60c15.333 13.333 31.666 24.166 48.999 32.499s36 12.5 56 12.5
c12.667 0 24 -2.33301 34 -7l32 -15c9.33301 -4.66699 19.5 -9 30.5 -13s23.833 -6 38.5 -6c51.333 0 93 15.667 125 47z" />
    <glyph glyph-name="notequal" unicode="&#x2260;" horiz-adv-x="626" 
d="M736 698c-22 9.33301 -49.6631 14.001 -82.9961 14.001c-28.667 0 -55.5 -4 -80.5 -12s-47.167 -20.333 -66.5 -37c-16.667 13.333 -36.834 24.833 -60.501 34.5s-51.834 14.5 -84.501 14.5c-56.667 0 -104.834 -15.833 -144.501 -47.5s-65.167 -79.834 -76.5 -144.501
l-12 -67h-79l-11 -60h80l-69 -393h74l69 393h217l-69 -393h74l69 393h127l23 60h-140l12 64c7.33301 44.667 23.333 78 48 100s55.667 33 93 33c10.667 0 21.667 -1.33301 33 -4s21.666 -6 30.999 -10zM462.004 607.001c-14.667 -25.333 -25.001 -54.333 -31.001 -87
l-11 -67h-218l11 64c7.33301 44.667 23.333 78 48 100s56 33 94 33c20.667 0 40.334 -3.83301 59.001 -11.5s34.667 -18.167 48 -31.5z" />
    <glyph glyph-name="lessequal" unicode="&#x2264;" horiz-adv-x="459" 
d="M445 444l-396 -123l-16 -87l354 -123l10 64l-296 100l331 100zM378 64h-374l-11 -64h374z" />
    <glyph glyph-name="greaterequal" unicode="&#x2265;" horiz-adv-x="459" 
d="M423 321l-352 123l-11 -64l297 -100l-332 -100l-12 -69l394 123zM378 64h-374l-11 -64h374z" />
    <glyph glyph-name="lozenge" unicode="&#x25ca;" horiz-adv-x="589" 
d="M504 277l-178 216l-253 -216l177 -215zM433 278l-172 -146l-117 144l170 146z" />
    <glyph glyph-name="apple" unicode="&#xf8ff;" horiz-adv-x="611" 
d="M472 107l-14 -80h-418l51 288c8 -12 18 -21 30 -27zM265 386c-4 -22.667 -15.167 -41.667 -33.5 -57s-38.833 -23 -61.5 -23c-20 0 -36.167 6.16699 -48.5 18.5s-18.5 28.166 -18.5 47.499v6c0 2.66699 0.333008 5.33398 1 8.00098h161zM521 386l-27 -154l-127 154h154z
M561 152l-43.999 54l43 247h-472l-80 -453h472l17 97c12.667 0 25.667 4.66699 39 14s21.666 23 24.999 41z" />
    <glyph glyph-name="fi" unicode="&#xfb01;" horiz-adv-x="516" 
d="M494 453h-292l11 64c7.33301 44.667 23.666 78 48.999 100s56.666 33 93.999 33c10.667 0 21.667 -1.16699 33 -3.5s21.333 -5.5 30 -9.5l25 60c-10 4.66699 -22.5 8.33398 -37.5 11.001s-31.167 4 -48.5 4c-57.333 0 -105.166 -15.833 -143.499 -47.5
s-63.166 -79.834 -74.499 -144.501l-12 -67h-79l-11 -60h80l-69 -393h74l69 393h217l-69 -393h74z" />
    <glyph glyph-name="fl" unicode="&#xfb02;" horiz-adv-x="541" 
d="M527 644c-15.333 17.333 -36.8311 33.001 -64.498 47.001s-61.5 21 -101.5 21c-56.667 0 -104.834 -15.833 -144.501 -47.5s-65.167 -79.834 -76.5 -144.501l-12 -67h-79l-11 -60h80l-69 -393h74l69 393h109l10 60h-109l11 64c7.33301 44.667 23.333 78 48 100
s56 33 94 33c19.333 0 37.166 -3.16699 53.499 -9.5s29.5 -14.166 39.5 -23.499l-90 -515c-2 -10 -3 -19.667 -3 -29c0 -14.667 2.16699 -27.167 6.5 -37.5s9.66602 -19 15.999 -26s13.333 -12.5 21 -16.5s14.834 -7 21.501 -9l59 50
c-12.667 3.33301 -23.667 10.166 -33 20.499s-14 23.833 -14 40.5v7c0 2.66699 0.666992 5.66699 2 9z" />
    <glyph glyph-name=".null" horiz-adv-x="0" 
 />
    <glyph glyph-name="nonmarkingreturn" 
 />
    </font>
</defs>
</svg>
