<?xml version="1.0" standalone="no"?>
<!DOCTYPE svg PUBLIC "-//W3C//DTD SVG 1.1//EN" "http://www.w3.org/Graphics/SVG/1.1/DTD/svg11.dtd" >
<svg>
<metadata>
Created by FontForge 20090914 at Tue Dec 15 18:18:01 2015
 By www-data
Copyright (c) The Font Bureau, Inc, 2001. All rights reserved.
</metadata>
<defs>
<font id="Agenda-Thin" horiz-adv-x="500" >
  <font-face 
    font-family="Agenda-Thin"
    font-weight="400"
    font-stretch="normal"
    units-per-em="1000"
    panose-1="2 0 6 6 3 0 0 2 0 4"
    ascent="715"
    descent="-285"
    x-height="453"
    cap-height="638"
    bbox="-78 -231.001 1002 885"
    underline-thickness="20"
    underline-position="-70"
    unicode-range="U+0020-U+FB02"
  />
<missing-glyph 
 />
    <glyph glyph-name=".notdef" 
 />
    <glyph glyph-name="space" unicode=" " horiz-adv-x="248" 
 />
    <glyph glyph-name="exclam" unicode="!" horiz-adv-x="215" 
d="M134 638h-37l5 -484l27 -10zM149 27c0 2.66699 -1.33301 6 -4 10s-5.83398 7.66699 -9.50098 11s-7.5 6.33301 -11.5 9s-7.33301 4 -10 4s-6 -1.33301 -10 -4s-7.83301 -5.66699 -11.5 -9s-6.83398 -7 -9.50098 -11s-4 -7.33301 -4 -10s1.33301 -6 4 -10
s5.83398 -7.83301 9.50098 -11.5s7.5 -6.83398 11.5 -9.50098s7.33301 -4 10 -4s6 1.33301 10 4s7.83301 5.83398 11.5 9.50098s6.83398 7.5 9.50098 11.5s4 7.33301 4 10z" />
    <glyph glyph-name="quotedbl" unicode="&#x22;" horiz-adv-x="234" 
d="M201 638h-41l9 -177h22zM74 638h-41l9 -177h22z" />
    <glyph glyph-name="numbersign" unicode="#" horiz-adv-x="384" 
d="M375 391v25h-71l51 222h-28l-51 -222h-123l52 222h-27l-52 -222h-80v-25h74l-33 -144h-78v-25h73l-52 -222h27l52 222h122l-52 -222h28l52 222h80v25h-75l33 144h78zM270 391l-33 -144h-122l33 144h122z" />
    <glyph glyph-name="dollar" unicode="$" horiz-adv-x="433" 
d="M388 156c0 49.333 -13.999 88.998 -41.999 118.998s-71.667 56 -131 78c-48 17.333 -82.833 37.666 -104.5 60.999s-32.5 52 -32.5 86c0 12.667 2.5 26.167 7.5 40.5s12.833 27.333 23.5 39s24.667 21.334 42 29.001s38.666 11.5 63.999 11.5c26 0 50.5 -4 73.5 -12
s41.167 -17.333 54.5 -28l9 27c-17.333 11.333 -36.666 20.833 -57.999 28.5s-45.333 11.834 -72 12.501v89h-25v-90c-25.333 -2 -47.5 -7.66699 -66.5 -17s-34.667 -21 -47 -35s-21.5 -29.5 -27.5 -46.5s-9 -33.833 -9 -50.5c0 -43.333 13.333 -78.833 40 -106.5
s67.667 -51.5 123 -71.5c52.667 -19.333 90.5 -41.833 113.5 -67.5s34.5 -58.167 34.5 -97.5c0 -19.333 -3.5 -37.166 -10.5 -53.499s-17 -30.833 -30 -43.5s-29 -22.5 -48 -29.5s-40.5 -10.5 -64.5 -10.5c-32 0 -60.833 5.16699 -86.5 15.5s-47.5 23.166 -65.5 38.499
l-9 -28c21.333 -17.333 45.166 -30.166 71.499 -38.499s53.5 -13.166 81.5 -14.499v-88h25v88c50 3.33301 90.167 19.666 120.5 48.999s45.5 68 45.5 116z" />
    <glyph glyph-name="percent" unicode="%" horiz-adv-x="706" 
d="M657 116c0 18 -3.16699 34.833 -9.5 50.5s-15.166 29 -26.499 40s-24.5 19.667 -39.5 26s-31.5 9.5 -49.5 9.5s-34.5 -3.16699 -49.5 -9.5s-28.167 -15 -39.5 -26s-20.166 -24.333 -26.499 -40s-9.5 -32.5 -9.5 -50.5c0 -18.667 3.16699 -35.667 9.5 -51
s15.166 -28.5 26.499 -39.5s24.5 -19.5 39.5 -25.5s31.5 -9 49.5 -9s34.5 3 49.5 9s28.167 14.5 39.5 25.5s20.166 24.167 26.499 39.5s9.5 32.333 9.5 51zM629 116c0 -31.333 -9.5 -55.666 -28.5 -72.999s-41.833 -26 -68.5 -26c-26 0 -48.5 8.66699 -67.5 26
s-28.5 41.666 -28.5 72.999s9.5 55.666 28.5 72.999s41.5 26 67.5 26c26.667 0 49.5 -8.66699 68.5 -26s28.5 -41.666 28.5 -72.999zM619 635l-19 16l-523 -648l19 -16zM290 522c0 18 -3.16699 34.833 -9.5 50.5s-15.166 29 -26.499 40s-24.666 19.667 -39.999 26
s-32 9.5 -50 9.5s-34.5 -3.16699 -49.5 -9.5s-28.167 -15 -39.5 -26s-20.166 -24.333 -26.499 -40s-9.5 -32.5 -9.5 -50.5c0 -18.667 3.16699 -35.667 9.5 -51s15.166 -28.5 26.499 -39.5s24.5 -19.667 39.5 -26s31.5 -9.5 49.5 -9.5s34.667 3.16699 50 9.5
s28.666 15 39.999 26s20.166 24.167 26.499 39.5s9.5 32.333 9.5 51zM261 522c0 -31.333 -9.5 -55.833 -28.5 -73.5s-41.833 -26.5 -68.5 -26.5c-26 0 -48.5 8.83301 -67.5 26.5s-28.5 42.167 -28.5 73.5s9.5 55.666 28.5 72.999s41.5 26 67.5 26
c26.667 0 49.5 -8.66699 68.5 -26s28.5 -41.666 28.5 -72.999z" />
    <glyph glyph-name="ampersand" unicode="&#x26;" horiz-adv-x="581" 
d="M572 0l-112.997 113c15.333 21.333 29.666 45.166 42.999 71.499s24.666 56.166 33.999 89.499l-22 22c-9.33301 -34 -20.5 -64.167 -33.5 -90.5s-27.167 -50.166 -42.5 -71.499l-206 206c26.667 16 49.334 31.167 68.001 45.5s33.5 28.333 44.5 42s19 27.334 24 41.001
s7.5 27.834 7.5 42.501c0 22 -4.16699 41.5 -12.5 58.5s-19.333 31.333 -33 43s-29.334 20.5 -47.001 26.5s-35.834 9 -54.501 9c-18 0 -35.333 -3.16699 -52 -9.5s-31.5 -15.5 -44.5 -27.5s-23.5 -26.5 -31.5 -43.5s-12 -36.167 -12 -57.5
c0 -12.667 1.5 -24.834 4.5 -36.501s8.33301 -24 16 -37s17.5 -26.833 29.5 -41.5s27 -31 45 -49c-19.333 -11.333 -37.5 -23.5 -54.5 -36.5s-31.833 -27.167 -44.5 -42.5s-22.667 -32.5 -30 -51.5s-11 -40.167 -11 -63.5c0 -20.667 4 -40.667 12 -60s19.667 -36.5 35 -51.5
s34.166 -27 56.499 -36s47.833 -13.5 76.5 -13.5c40 0 78.333 8 115 24s70.334 41 101.001 75l90 -90h42zM345.003 511c0 -12 -2.00098 -23.667 -6.00098 -35s-11.167 -23 -21.5 -35s-24.166 -24.5 -41.499 -37.5s-39 -27.167 -65 -42.5c-33.333 32.667 -57 60.167 -71 82.5
s-21 44.833 -21 67.5c0 32.667 10.667 59 32 79s47.333 30 78 30c34 0 61.833 -10.167 83.5 -30.5s32.5 -46.5 32.5 -78.5zM420.002 110c-28 -32 -58.667 -55.333 -92 -70s-67.666 -22 -102.999 -22c-22.667 0 -43.334 3.66699 -62.001 11s-34.5 17.333 -47.5 30
s-23 27.167 -30 43.5s-10.5 33.166 -10.5 50.499c0 20.667 3.5 39.334 10.5 56.001s16.5 32 28.5 46s25.833 26.667 41.5 38s32.167 22 49.5 32z" />
    <glyph glyph-name="quotesingle" unicode="'" horiz-adv-x="107" 
d="M74 638h-41l9 -177h22z" />
    <glyph glyph-name="parenleft" unicode="(" horiz-adv-x="199" 
d="M189 701l-32 7.00098c-35.333 -66 -63 -136.833 -83 -212.5s-30 -161.5 -30 -257.5c0 -49.333 2.5 -94.5 7.5 -135.5s12.167 -79.5 21.5 -115.5s20.5 -70 33.5 -102s27.167 -63.333 42.5 -94l37 -12c-17.333 36 -33 71.667 -47 107s-25.667 71.666 -35 108.999
s-16.5 76 -21.5 116s-7.5 82.333 -7.5 127c0 85.333 10.5 167.833 31.5 247.5s48.5 151.5 82.5 215.5z" />
    <glyph glyph-name="parenright" unicode=")" horiz-adv-x="199" 
d="M154 251c0 48.667 -2.5 93.665 -7.5 134.998s-12.167 80 -21.5 116s-20.5 70 -33.5 102s-27.167 63.333 -42.5 94l-36 12c17.333 -36 32.833 -71.667 46.5 -107s25.167 -71.666 34.5 -108.999s16.5 -76 21.5 -116s7.5 -82.333 7.5 -127
c0 -85.333 -10.5 -167.666 -31.5 -246.999s-48.5 -151 -82.5 -215l32 -8c35.333 66 63 136.833 83 212.5s30 161.5 30 257.5z" />
    <glyph glyph-name="asterisk" unicode="*" horiz-adv-x="399" 
d="M384 537l-15 29l-158 -54l3 172l-31 -8l2 -165l-162 53l-4 -31l160 -44l-102 -141l29 -14l93 140l100 -143l21 24l-102 135z" />
    <glyph glyph-name="plus" unicode="+" horiz-adv-x="471" 
d="M423 263v28h-172v162h-30v-162h-172v-28h172v-162h30v162h172z" />
    <glyph glyph-name="comma" unicode="," horiz-adv-x="174" 
d="M122 27c0 2.66699 -1.33105 6 -3.99805 10s-5.83398 7.83301 -9.50098 11.5s-7.5 6.66699 -11.5 9s-7.33301 3.5 -10 3.5s-6 -1.16699 -10 -3.5s-7.83301 -5.33301 -11.5 -9s-6.83398 -7.5 -9.50098 -11.5s-4 -7.33301 -4 -10c0 -4.66699 3.83301 -11 11.5 -19
s15.167 -12.333 22.5 -13c0 -12 -2.83301 -26.5 -8.5 -43.5s-13.5 -32.167 -23.5 -45.5l17 -2c6 8 12.167 17.167 18.5 27.5s11.833 21 16.5 32s8.5 22 11.5 33s4.5 21.167 4.5 30.5z" />
    <glyph glyph-name="hyphen" unicode="-" horiz-adv-x="347" 
d="M299 263v28h-250v-28h250z" />
    <glyph glyph-name="hyphen" unicode="&#xad;" horiz-adv-x="347" 
d="M299 263v28h-250v-28h250z" />
    <glyph glyph-name="period" unicode="." horiz-adv-x="174" 
d="M122 27c0 2.66699 -1.33301 6 -4 10s-5.83398 7.66699 -9.50098 11s-7.5 6.33301 -11.5 9s-7.33301 4 -10 4s-6 -1.33301 -10 -4s-7.83301 -5.66699 -11.5 -9s-6.83398 -7 -9.50098 -11s-4 -7.33301 -4 -10s1.33301 -6 4 -10s5.83398 -7.83301 9.50098 -11.5
s7.5 -6.83398 11.5 -9.50098s7.33301 -4 10 -4s6 1.33301 10 4s7.83301 5.83398 11.5 9.50098s6.83398 7.5 9.50098 11.5s4 7.33301 4 10z" />
    <glyph glyph-name="slash" unicode="/" horiz-adv-x="438" 
d="M374 638l-26 14l-404 -795l26 -13z" />
    <glyph glyph-name="zero" unicode="0" horiz-adv-x="490" 
d="M446 319c0 50 -5.33301 95.335 -16 136.002s-25 75.167 -43 103.5s-39.167 50.166 -63.5 65.499s-50.5 23 -78.5 23s-54.167 -7.5 -78.5 -22.5s-45.666 -36.667 -63.999 -65s-32.666 -62.833 -42.999 -103.5s-15.5 -86.334 -15.5 -137.001
c0 -51.333 5.16699 -97.333 15.5 -138s24.666 -75 42.999 -103s39.666 -49.5 63.999 -64.5s50.5 -22.5 78.5 -22.5s54.167 7.5 78.5 22.5s45.5 36.5 63.5 64.5s32.333 62.333 43 103s16 86.667 16 138zM414 319.002c0 -48 -4.5 -90.501 -13.5 -127.501
s-21.333 -68.333 -37 -94s-33.667 -45.167 -54 -58.5s-41.833 -20 -64.5 -20s-44.334 6.66699 -65.001 20s-38.667 32.833 -54 58.5s-27.666 57.167 -36.999 94.5s-14 79.666 -14 126.999s4.66699 89.5 14 126.5s21.666 68.333 36.999 94s33.333 45.334 54 59.001
s42.334 20.5 65.001 20.5s44.167 -6.66699 64.5 -20s38.333 -32.833 54 -58.5s28 -57.167 37 -94.5s13.5 -79.666 13.5 -126.999z" />
    <glyph glyph-name="one" unicode="1" horiz-adv-x="235" 
d="M162 0v641l-143 -14l-10 -29l122 13v-611h31z" />
    <glyph glyph-name="two" unicode="2" horiz-adv-x="438" 
d="M393 0l0.00195312 27.9971h-303c48.667 49.333 90.334 95 125.001 137s63 81 85 117s38.167 69.333 48.5 100s15.5 59.334 15.5 86.001c0 58.667 -16.333 103.334 -49 134.001s-76 46 -130 46c-26.667 0 -51.334 -3.33301 -74.001 -10s-41.667 -14.667 -57 -24l9 -28
c14.667 9.33301 32.667 17.333 54 24s43.666 10 66.999 10c21.333 0 41.166 -3 59.499 -9s34.166 -15.333 47.499 -28s23.666 -28.334 30.999 -47.001s11 -41 11 -67c0 -25.333 -5.16699 -53.166 -15.5 -83.499s-27.166 -64.166 -50.499 -101.499
s-53.666 -78.5 -90.999 -123.5s-83 -94.833 -137 -149.5v-11h354z" />
    <glyph glyph-name="three" unicode="3" horiz-adv-x="437" 
d="M393 192c0 24.667 -4.49805 47.832 -13.498 69.499s-21 40.334 -36 56.001s-32.5 28 -52.5 37s-41.333 13.5 -64 13.5c34 7.33301 61.833 23.166 83.5 47.499s32.5 53.166 32.5 86.499c0 20 -3.83301 38.667 -11.5 56s-18.5 32.5 -32.5 45.5s-31 23.167 -51 30.5
s-42.333 11 -67 11c-23.333 0 -45 -3.5 -65 -10.5s-37.333 -15.167 -52 -24.5l10 -26c14 10 30.5 18.167 49.5 24.5s38.167 9.5 57.5 9.5c22.667 0 42.167 -3.33301 58.5 -10s30 -15.5 41 -26.5s19.167 -23.5 24.5 -37.5s8 -28.333 8 -43c0 -32.667 -13.667 -61 -41 -85
s-65 -39.667 -113 -47l10 -27c7.33301 1.33301 14.333 2.33301 21 3s14 1 22 1c20.667 0 40.167 -4 58.5 -12s34.166 -18.833 47.499 -32.5s24 -29.667 32 -48s12 -38.166 12 -59.499c0 -26 -4.5 -49.5 -13.5 -70.5s-21.667 -39.167 -38 -54.5
s-35.666 -27.166 -57.999 -35.499s-46.833 -12.5 -73.5 -12.5c-23.333 0 -47 3.5 -71 10.5s-45 17.167 -63 30.5l6 -35c15.333 -10 34.166 -18.167 56.499 -24.5s46.166 -9.5 71.499 -9.5c32 0 61.167 4.83301 87.5 14.5s48.833 23.334 67.5 41.001s33.167 38.667 43.5 63
s15.5 51.166 15.5 80.499z" />
    <glyph glyph-name="four" unicode="4" horiz-adv-x="456" 
d="M412 197v27h-68v414h-21l-314 -414l8 -27h296v-197h31v197h68zM314 584c-0.666992 -21.333 -1 -41.333 -1 -60v-60v-240h-270l181 239l43.5 58.5c15 20.333 29.833 41.5 44.5 63.5z" />
    <glyph glyph-name="five" unicode="5" horiz-adv-x="452" 
d="M407 185c0 28.667 -5.16992 55.1689 -15.5029 79.502s-24.666 45 -42.999 62s-39.833 30.333 -64.5 40s-51.334 14.5 -80.001 14.5c-20.667 0 -38.667 -1.66699 -54 -5s-26.333 -6.33301 -33 -9l7 243h218l9 28h-257l-9 -309c15.333 7.33301 33.5 13.166 54.5 17.499
s42.167 6.5 63.5 6.5c24.667 0 47.667 -4.16699 69 -12.5s39.666 -20 54.999 -35s27.333 -32.667 36 -53s13 -42.5 13 -66.5s-4.5 -46.333 -13.5 -67s-21.167 -38.334 -36.5 -53.001s-33.666 -26.167 -54.999 -34.5s-44 -12.5 -68 -12.5c-52 0 -98.333 14.667 -139 44l6 -35
c14.667 -10 33.834 -18.667 57.501 -26s48.834 -11 75.501 -11c30.667 0 58.667 5 84 15s46.833 23.667 64.5 41s31.334 37.833 41.001 61.5s14.5 49.167 14.5 76.5z" />
    <glyph glyph-name="six" unicode="6" horiz-adv-x="474" 
d="M435 183c0 29.333 -4.83203 56.1689 -14.499 80.502s-23.334 45.166 -41.001 62.499s-38.5 30.833 -62.5 40.5s-50.333 14.5 -79 14.5c-36.667 0 -67 -7.66699 -91 -23s-43 -34 -57 -56c18 66.667 51.167 128.667 99.5 186s106.5 105.666 174.5 144.999l-33 12
c-40.667 -23.333 -78.5 -51.333 -113.5 -84s-65.333 -68.5 -91 -107.5s-45.834 -79.833 -60.501 -122.5s-22 -85.667 -22 -129c0 -32.667 5.16699 -62 15.5 -88s24.5 -48.167 42.5 -66.5s39 -32.333 63 -42s49.667 -14.5 77 -14.5c28.667 0 54.834 4.83301 78.501 14.5
s44 23 61 40s30.167 37.333 39.5 61s14 49.167 14 76.5zM404.001 182.003c0 -24 -4.16797 -46 -12.501 -66s-19.666 -37.333 -33.999 -52s-31.5 -26 -51.5 -34s-41.333 -12 -64 -12c-23.333 0 -45 4.33301 -65 13s-37.5 20.834 -52.5 36.501s-26.833 34.667 -35.5 57
s-13 47.166 -13 74.499v13c0 4 0.333008 8.33301 1 13c9.33301 38 27.666 68.833 54.999 92.5s62.333 35.5 105 35.5c24 0 46.333 -4.16699 67 -12.5s38.334 -20 53.001 -35s26.167 -33 34.5 -54s12.5 -44.167 12.5 -69.5z" />
    <glyph glyph-name="seven" unicode="7" horiz-adv-x="450" 
d="M417 638h-408v-28h364l-261 -610h32z" />
    <glyph glyph-name="eight" unicode="8" horiz-adv-x="488" 
d="M444 168c0 24 -4.66602 45.998 -13.999 65.998s-21.5 37.833 -36.5 53.5s-32.167 28.667 -51.5 39s-39 17.833 -59 22.5c18 5.33301 34.833 12.833 50.5 22.5s29.334 21 41.001 34s21 27.5 28 43.5s10.5 33 10.5 51c0 22.667 -4.66699 43.167 -14 61.5
s-21.666 33.833 -36.999 46.5s-33.333 22.5 -54 29.5s-42.334 10.5 -65.001 10.5s-44.167 -3.33301 -64.5 -10s-38.333 -16.5 -54 -29.5s-28.167 -28.667 -37.5 -47s-14 -38.833 -14 -61.5c0 -18 3.5 -35 10.5 -51s16.5 -30.5 28.5 -43.5s25.833 -24.333 41.5 -34
s32.5 -17.5 50.5 -23.5c-20.667 -5.33301 -40.667 -13.166 -60 -23.499s-36.333 -23.166 -51 -38.499s-26.5 -32.833 -35.5 -52.5s-13.5 -41.5 -13.5 -65.5c0 -27.333 5.33301 -52 16 -74s25 -40.667 43 -56s39 -27 63 -35s49.667 -12 77 -12s53.166 4 77.499 12
s45.666 19.667 63.999 35s32.833 34 43.5 56s16 46.667 16 74zM382.001 499.998c0 -33.333 -12 -61.332 -36 -83.999s-57.333 -40.334 -100 -53.001c-44.667 12.667 -79.5 30.667 -104.5 54s-37.5 51 -37.5 83c0 18 3.83301 34.333 11.5 49s17.834 27.334 30.501 38.001
s27.5 18.834 44.5 24.501s34.833 8.5 53.5 8.5s36.5 -2.83301 53.5 -8.5s31.667 -13.834 44 -24.501s22.166 -23.334 29.499 -38.001s11 -31 11 -49zM412.001 168.999c0 -24 -4.66797 -45.334 -14.001 -64.001s-21.666 -34.5 -36.999 -47.5s-33.333 -22.833 -54 -29.5
s-42 -10 -64 -10s-43 3.33301 -63 10s-37.833 16.5 -53.5 29.5s-28.167 28.833 -37.5 47.5s-14 40 -14 64c0 20.667 4.16699 39.834 12.5 57.501s19.833 33.667 34.5 48s32.167 26.5 52.5 36.5s42.5 18 66.5 24c52 -12.667 93.5 -33.5 124.5 -62.5s46.5 -63.5 46.5 -103.5z
" />
    <glyph glyph-name="nine" unicode="9" horiz-adv-x="474" 
d="M430 437c0 32.667 -5.16504 61.999 -15.498 87.999s-24.5 48.167 -42.5 66.5s-39 32.333 -63 42s-49.667 14.5 -77 14.5c-28.667 0 -54.834 -4.83301 -78.501 -14.5s-44 -23.167 -61 -40.5s-30.167 -37.833 -39.5 -61.5s-14 -49.167 -14 -76.5
c0 -29.333 5 -56.166 15 -80.499s23.667 -45.166 41 -62.499s38.166 -30.833 62.499 -40.5s50.833 -14.5 79.5 -14.5c37.333 0 67.833 8.16699 91.5 24.5s43.167 36.5 58.5 60.5c-9.33301 -33.333 -22.5 -65.833 -39.5 -97.5s-37.333 -61.834 -61 -90.501
s-50.5 -55.667 -80.5 -81s-62 -48 -96 -68l34 -12c40.667 23.333 78.5 51.5 113.5 84.5s65.167 68.833 90.5 107.5s45.333 79.5 60 122.5s22 86.167 22 129.5zM399.002 438.999c0 -3.33301 -0.164062 -6.66699 -0.49707 -10s-0.5 -6.66602 -0.5 -9.99902
c-8 -40 -25.833 -72.333 -53.5 -97s-63.5 -37 -107.5 -37c-24 0 -46.333 4 -67 12s-38.334 19.5 -53.001 34.5s-26.167 33 -34.5 54s-12.5 44.167 -12.5 69.5c0 24 4.16699 46 12.5 66s19.666 37.333 33.999 52s31.333 26 51 34s41.167 12 64.5 12
c22.667 0 44.167 -4.33301 64.5 -13s38.166 -20.834 53.499 -36.501s27.333 -34.5 36 -56.5s13 -46.667 13 -74z" />
    <glyph glyph-name="colon" unicode=":" horiz-adv-x="174" 
d="M122 427c0 2.66699 -1.33301 6 -4 10s-5.83398 7.83301 -9.50098 11.5s-7.5 6.83398 -11.5 9.50098s-7.33301 4 -10 4s-6 -1.33301 -10 -4s-7.83301 -5.83398 -11.5 -9.50098s-6.83398 -7.5 -9.50098 -11.5s-4 -7.33301 -4 -10s1.33301 -6 4 -10
s5.83398 -7.66699 9.50098 -11s7.5 -6.33301 11.5 -9s7.33301 -4 10 -4s6 1.33301 10 4s7.83301 5.66699 11.5 9s6.83398 7 9.50098 11s4 7.33301 4 10zM122 27c0 2.66699 -1.33301 6 -4 10s-5.83398 7.66699 -9.50098 11s-7.5 6.33301 -11.5 9s-7.33301 4 -10 4
s-6 -1.33301 -10 -4s-7.83301 -5.66699 -11.5 -9s-6.83398 -7 -9.50098 -11s-4 -7.33301 -4 -10s1.33301 -6 4 -10s5.83398 -7.83301 9.50098 -11.5s7.5 -6.83398 11.5 -9.50098s7.33301 -4 10 -4s6 1.33301 10 4s7.83301 5.83398 11.5 9.50098s6.83398 7.5 9.50098 11.5
s4 7.33301 4 10z" />
    <glyph glyph-name="semicolon" unicode=";" horiz-adv-x="174" 
d="M122 427c0 2.66699 -1.33301 6 -4 10s-5.83398 7.83301 -9.50098 11.5s-7.5 6.83398 -11.5 9.50098s-7.33301 4 -10 4s-6 -1.33301 -10 -4s-7.83301 -5.83398 -11.5 -9.50098s-6.83398 -7.5 -9.50098 -11.5s-4 -7.33301 -4 -10s1.33301 -6 4 -10
s5.83398 -7.66699 9.50098 -11s7.5 -6.33301 11.5 -9s7.33301 -4 10 -4s6 1.33301 10 4s7.83301 5.66699 11.5 9s6.83398 7 9.50098 11s4 7.33301 4 10zM122 27c0 2.66699 -1.33105 6 -3.99805 10s-5.83398 7.83301 -9.50098 11.5s-7.5 6.66699 -11.5 9
s-7.33301 3.5 -10 3.5s-6 -1.16699 -10 -3.5s-7.83301 -5.33301 -11.5 -9s-6.83398 -7.5 -9.50098 -11.5s-4 -7.33301 -4 -10c0 -4.66699 3.83301 -11 11.5 -19s15.167 -12.333 22.5 -13c0 -12 -2.83301 -26.5 -8.5 -43.5s-13.5 -32.167 -23.5 -45.5l17 -2
c6 8 12.167 17.167 18.5 27.5s11.833 21 16.5 32s8.5 22 11.5 33s4.5 21.167 4.5 30.5z" />
    <glyph glyph-name="semicolon" unicode="&#x37e;" horiz-adv-x="174" 
d="M122 427c0 2.66699 -1.33301 6 -4 10s-5.83398 7.83301 -9.50098 11.5s-7.5 6.83398 -11.5 9.50098s-7.33301 4 -10 4s-6 -1.33301 -10 -4s-7.83301 -5.83398 -11.5 -9.50098s-6.83398 -7.5 -9.50098 -11.5s-4 -7.33301 -4 -10s1.33301 -6 4 -10
s5.83398 -7.66699 9.50098 -11s7.5 -6.33301 11.5 -9s7.33301 -4 10 -4s6 1.33301 10 4s7.83301 5.66699 11.5 9s6.83398 7 9.50098 11s4 7.33301 4 10zM122 27c0 2.66699 -1.33105 6 -3.99805 10s-5.83398 7.83301 -9.50098 11.5s-7.5 6.66699 -11.5 9
s-7.33301 3.5 -10 3.5s-6 -1.16699 -10 -3.5s-7.83301 -5.33301 -11.5 -9s-6.83398 -7.5 -9.50098 -11.5s-4 -7.33301 -4 -10c0 -4.66699 3.83301 -11 11.5 -19s15.167 -12.333 22.5 -13c0 -12 -2.83301 -26.5 -8.5 -43.5s-13.5 -32.167 -23.5 -45.5l17 -2
c6 8 12.167 17.167 18.5 27.5s11.833 21 16.5 32s8.5 22 11.5 33s4.5 21.167 4.5 30.5z" />
    <glyph glyph-name="less" unicode="&#x3c;" horiz-adv-x="471" 
d="M423 138v28l-347 111l347 110v28l-374 -120v-37z" />
    <glyph glyph-name="equal" unicode="=" horiz-adv-x="471" 
d="M423 349v28h-374v-28h374zM423 177v28h-374v-28h374z" />
    <glyph glyph-name="greater" unicode="&#x3e;" horiz-adv-x="471" 
d="M423 258v37l-374 120v-28l347 -110l-347 -111v-28z" />
    <glyph glyph-name="question" unicode="?" horiz-adv-x="375" 
d="M327 500c0 22.667 -4.00098 43 -12.001 61s-19 33.5 -33 46.5s-30.5 23 -49.5 30s-39.5 10.5 -61.5 10.5c-28 0 -52.833 -3.66699 -74.5 -11s-39.167 -15.666 -52.5 -24.999l9 -28c14 10.667 31.5 19.167 52.5 25.5s43.167 9.5 66.5 9.5c18 0 34.333 -3 49 -9
s27.5 -14.167 38.5 -24.5s19.5 -22.833 25.5 -37.5s9 -30.334 9 -47.001c0 -14 -2.33301 -27.333 -7 -40s-10.667 -24.834 -18 -36.501s-15.666 -22.667 -24.999 -33s-19 -20.166 -29 -29.499c-20 -19.333 -35.667 -41 -47 -65s-17 -52 -17 -84
c0 -9.33301 0.666992 -19.833 2 -31.5s3 -21.167 5 -28.5l30 -9c-2 10 -3.66699 21.5 -5 34.5s-2 24.167 -2 33.5c0 27.333 4.5 50.833 13.5 70.5s23.167 39.167 42.5 58.5l33.5 35c11 12 20.667 24.5 29 37.5s15 26.667 20 41s7.5 29.5 7.5 45.5zM207.999 27
c0 2.66699 -1.33301 6 -4 10s-5.83398 7.66699 -9.50098 11s-7.5 6.33301 -11.5 9s-7.33301 4 -10 4s-6 -1.33301 -10 -4s-7.83301 -5.66699 -11.5 -9s-6.83398 -7 -9.50098 -11s-4 -7.33301 -4 -10s1.33301 -6 4 -10s5.83398 -7.83301 9.50098 -11.5
s7.5 -6.83398 11.5 -9.50098s7.33301 -4 10 -4s6 1.33301 10 4s7.83301 5.83398 11.5 9.50098s6.83398 7.5 9.50098 11.5s4 7.33301 4 10z" />
    <glyph glyph-name="at" unicode="@" horiz-adv-x="755" 
d="M711 324c0 48.667 -8.49707 92.833 -25.4971 132.5s-40.5 73.667 -70.5 102s-65.167 50.333 -105.5 66s-83.833 23.5 -130.5 23.5s-90.334 -8.33301 -131.001 -25s-76.167 -39.5 -106.5 -68.5s-54.166 -63.667 -71.499 -104s-26 -83.833 -26 -130.5
c0 -47.333 8 -91 24 -131s38.167 -74.5 66.5 -103.5s62.166 -51.833 101.499 -68.5s82.333 -25 129 -25c42 0 75.667 5 101 15l5 28c-14 -5.33301 -30.833 -9.5 -50.5 -12.5s-37.834 -4.5 -54.501 -4.5c-42.667 0 -81.834 7.5 -117.501 22.5s-66.5 36 -92.5 63
s-46.167 58.833 -60.5 95.5s-21.5 76.667 -21.5 120s8 83.333 24 120s37.667 68.5 65 95.5s59.666 48.167 96.999 63.5s77.333 23 120 23s82.5 -7.16699 119.5 -21.5s69 -34.5 96 -60.5s48.333 -57.167 64 -93.5s23.5 -76.833 23.5 -121.5c0 -20 -3 -39.833 -9 -59.5
s-14.667 -37.167 -26 -52.5s-25 -27.833 -41 -37.5s-34 -14.5 -54 -14.5c-13.333 0 -25.5 4.33301 -36.5 13s-16.5 22.334 -16.5 41.001v177c0 33.333 -12 59.166 -36 77.499s-54 27.5 -90 27.5c-20 0 -38.333 -2.5 -55 -7.5s-30.667 -11.5 -42 -19.5l8 -26
c10.667 7.33301 23.834 13.5 39.501 18.5s32.167 7.5 49.5 7.5c28 0 51.167 -6.66699 69.5 -20s27.5 -33.333 27.5 -60v-42l-101 -9c-14.667 -1.33301 -28.834 -4.16602 -42.501 -8.49902s-25.667 -10.833 -36 -19.5s-18.666 -19.167 -24.999 -31.5
s-9.5 -27.166 -9.5 -44.499c0 -30 10.5 -54 31.5 -72s47.833 -27 80.5 -27c23.333 0 45.333 5.83301 66 17.5s35 27.167 43 46.5c0.666992 -17.333 7.66699 -32.333 21 -45s31.666 -19 54.999 -19c24.667 0 46.834 5.83301 66.501 17.5s36.167 26.667 49.5 45
s23.5 38.666 30.5 60.999s10.5 44.166 10.5 65.499zM471.003 258.999c0 -16 -3.16699 -30.166 -9.5 -42.499s-14.333 -22.5 -24 -30.5s-20.5 -14.167 -32.5 -18.5s-23.667 -6.5 -35 -6.5c-24 0 -44 6.5 -60 19.5s-24 30.5 -24 52.5c0 25.333 8.33301 44.166 25 56.499
s37.667 19.833 63 22.5l97 9v-62z" />
    <glyph glyph-name="A" unicode="A" horiz-adv-x="580" 
d="M547 0l-250 647h-13l-251 -647h33l76 196h295l76 -196h34zM426 225h-273l94 243l21.5 59c7 20 13.833 40.667 20.5 62h2l20.5 -62.5l21.5 -59.5z" />
    <glyph glyph-name="B" unicode="B" horiz-adv-x="487" 
d="M443 184c0 22 -4.16699 43.001 -12.5 63.001s-19.5 38 -33.5 54s-30.667 29.5 -50 40.5s-40 18.167 -62 21.5c25.333 10 45.5 26.667 60.5 50s22.5 49 22.5 77c0 20.667 -4 40 -12 58s-19.167 33.667 -33.5 47s-31.5 23.833 -51.5 31.5s-41.667 11.5 -65 11.5h-132v-638
h175c27.333 0 52.833 4.66699 76.5 14s44.167 22.166 61.5 38.499s31 35.833 41 58.5s15 47 15 73zM336 490.001c0 -17.333 -3.33203 -33.3311 -9.99902 -47.998s-15.834 -27.334 -27.501 -38.001s-25.167 -19 -40.5 -25s-31.333 -9 -48 -9h-104v239h98
c18.667 0 36 -2.83301 52 -8.5s30 -13.834 42 -24.501s21.333 -23.167 28 -37.5s10 -30.5 10 -48.5zM410.001 184.003c0 -22.667 -4.16504 -43.499 -12.498 -62.499s-19.833 -35.333 -34.5 -49s-31.834 -24.334 -51.501 -32.001s-40.834 -11.5 -63.501 -11.5h-142v313h130
c24.667 0 47.5 -4 68.5 -12s39.333 -19 55 -33s28 -30.667 37 -50s13.5 -40.333 13.5 -63z" />
    <glyph glyph-name="C" unicode="C" horiz-adv-x="603" 
d="M559 600c-22 12.667 -49.334 23.335 -82.001 32.002s-67.334 13 -104.001 13c-46 0 -89 -8.16699 -129 -24.5s-74.833 -39 -104.5 -68s-53 -63.5 -70 -103.5s-25.5 -83.333 -25.5 -130c0 -47.333 8.5 -90.833 25.5 -130.5s40.333 -74 70 -103s64.5 -51.667 104.5 -68
s83 -24.5 129 -24.5c38 0 72 3.83301 102 11.5s53.667 17.167 71 28.5l6 35c-23.333 -14.667 -49.833 -26 -79.5 -34s-62.5 -12 -98.5 -12c-41.333 0 -80.166 7.5 -116.499 22.5s-67.833 35.667 -94.5 62s-47.667 57.666 -63 93.999s-23 75.833 -23 118.5
s7.66699 82.167 23 118.5s36.5 67.666 63.5 93.999s58.5 46.833 94.5 61.5s74.667 22 116 22c34.667 0 67.834 -4.5 99.501 -13.5s57.167 -19.167 76.5 -30.5z" />
    <glyph glyph-name="D" unicode="D" horiz-adv-x="615" 
d="M570 319c0 50 -9 94.6689 -27 134.002s-43.167 72.666 -75.5 99.999s-70.666 48.333 -114.999 63s-92.833 22 -145.5 22h-133v-638h133c52.667 0 101.167 7.33301 145.5 22s82.666 35.667 114.999 63s57.5 60.666 75.5 99.999s27 84 27 134zM537 319.002
c0 -44.667 -8 -84.833 -24 -120.5s-38.667 -66 -68 -91s-64.5 -44.167 -105.5 -57.5s-86.167 -20 -135.5 -20h-98v579h98c49.333 0 94.5 -6.66699 135.5 -20s76.167 -32.5 105.5 -57.5s52 -55.5 68 -91.5s24 -76.333 24 -121z" />
    <glyph glyph-name="E" unicode="E" horiz-adv-x="439" 
d="M429 0v29h-323v278h231v29h-231v273h287v29h-319v-638h355z" />
    <glyph glyph-name="F" unicode="F" horiz-adv-x="406" 
d="M396 609v29h-322v-638h32v307h250v29h-250v273h290z" />
    <glyph glyph-name="G" unicode="G" horiz-adv-x="673" 
d="M609 59v237.994h-226v-29h195v-195c-22.667 -15.333 -50.667 -28 -84 -38s-72 -15 -116 -15c-42 0 -81.167 7.5 -117.5 22.5s-68.166 35.833 -95.499 62.5s-48.833 58.167 -64.5 94.5s-23.5 76.166 -23.5 119.499c0 42.667 7.83301 82.334 23.5 119.001
s37 68.334 64 95.001s58.833 47.5 95.5 62.5s76 22.5 118 22.5c35.333 0 69.166 -4.66699 101.499 -14s59.5 -20.666 81.5 -33.999l9 29c-24.667 14.667 -53.667 26.5 -87 35.5s-69 13.5 -107 13.5c-46 0 -89.167 -8.16699 -129.5 -24.5s-75.5 -39.166 -105.5 -68.499
s-53.667 -64.166 -71 -104.499s-26 -84.166 -26 -131.499s8.66699 -91 26 -131s41 -74.667 71 -104s65.167 -52.166 105.5 -68.499s83.833 -24.5 130.5 -24.5c49.333 0 92.833 6 130.5 18s71.5 28.667 101.5 50z" />
    <glyph glyph-name="H" unicode="H" horiz-adv-x="621" 
d="M547 0v638h-33v-302h-408v302h-32v-638h32v307h408v-307h33z" />
    <glyph glyph-name="I" unicode="I" horiz-adv-x="200" 
d="M116 0v638h-32v-638h32z" />
    <glyph glyph-name="J" unicode="J" horiz-adv-x="200" 
d="M116 133l0.000976562 505h-32v-503c0 -67.333 -13.833 -119.333 -41.5 -156s-67.834 -61 -120.501 -73l22 -22c52 11.333 93.667 37.5 125 78.5s47 97.833 47 170.5z" />
    <glyph glyph-name="K" unicode="K" horiz-adv-x="487" 
d="M473 0l-330 322l311 316h-39l-308 -313h-1v313h-32v-638h32v315h1l323 -315h43z" />
    <glyph glyph-name="L" unicode="L" horiz-adv-x="430" 
d="M420 0v29h-314v609h-32v-638h346z" />
    <glyph glyph-name="M" unicode="M" horiz-adv-x="788" 
d="M733 0l-46.999 637.999h-23l-181 -391l-44.5 -98c-14.333 -31.333 -28.5 -64.333 -42.5 -99h-2l-44 101.5l-43 94.5l-182 392h-23l-46 -638h30l27 381c2 30 3.83301 61.833 5.5 95.5s3.16699 65.5 4.5 95.5h2c13.333 -33.333 27.666 -67 42.999 -101l43 -94l176 -379h11
l176 379l46 97.5c15.333 33 29.333 65.5 42 97.5h2l4 -94c1.33301 -31.333 3.33301 -63.666 6 -96.999l28 -381h32z" />
    <glyph glyph-name="N" unicode="N" horiz-adv-x="681" 
d="M607 -5v643h-31v-386c0 -32 0.166992 -63 0.5 -93s0.833008 -61.667 1.5 -95l-2 -1l-77 95.5l-80 95.5l-322 384h-23v-638h31v390v101c0 32 -0.666992 63 -2 93l2 1l36 -45.5l41.5 -51l44.5 -53.5l44 -52l327 -388h9z" />
    <glyph glyph-name="O" unicode="O" horiz-adv-x="747" 
d="M703 319c0 46.667 -8.5 90.167 -25.5 130.5s-40.333 75.166 -70 104.499s-64.5 52.333 -104.5 69s-83 25 -129 25s-89 -8.33301 -129 -25s-75 -39.667 -105 -69s-53.5 -64.166 -70.5 -104.499s-25.5 -83.833 -25.5 -130.5c0 -47.333 8.5 -91 25.5 -131
s40.5 -74.5 70.5 -103.5s65 -51.833 105 -68.5s83 -25 129 -25s89 8.33301 129 25s74.833 39.5 104.5 68.5s53 63.5 70 103.5s25.5 83.667 25.5 131zM670 319c0 -42.667 -7.66699 -82.334 -23 -119.001s-36.333 -68.334 -63 -95.001s-58 -47.5 -94 -62.5
s-74.667 -22.5 -116 -22.5s-80.166 7.5 -116.499 22.5s-67.833 35.833 -94.5 62.5s-47.667 58.334 -63 95.001s-23 76.334 -23 119.001s7.66699 82.334 23 119.001s36.333 68.334 63 95.001s58.167 47.5 94.5 62.5s75.166 22.5 116.499 22.5s80 -7.5 116 -22.5
s67.333 -35.833 94 -62.5s47.667 -58.334 63 -95.001s23 -76.334 23 -119.001z" />
    <glyph glyph-name="P" unicode="P" horiz-adv-x="462" 
d="M422 472c0 23.333 -4.50195 45.168 -13.502 65.501s-21.5 38 -37.5 53s-35 26.667 -57 35s-46.333 12.5 -73 12.5h-167v-638h32v307h139c26 0 49.833 4.16699 71.5 12.5s40.334 19.833 56.001 34.5s27.834 32.167 36.501 52.5s13 42.166 13 65.499zM389.998 472.002
c0 -20 -3.83496 -38.333 -11.502 -55s-18.167 -31 -31.5 -43s-29 -21.333 -47 -28s-37.333 -10 -58 -10h-136v273h132c21.333 0 41.333 -3.33301 60 -10s34.834 -16.167 48.501 -28.5s24.334 -26.833 32.001 -43.5s11.5 -35 11.5 -55z" />
    <glyph glyph-name="Q" unicode="Q" horiz-adv-x="747" 
d="M740 -69c-25.333 -12.667 -56.9971 -19.001 -94.9971 -19.001c-16 0 -31.167 1.33301 -45.5 4s-29.333 6.5 -45 11.5s-32.167 11.333 -49.5 19s-36.333 16.834 -57 27.501c-9.33301 5.33301 -18.666 9.5 -27.999 12.5s-17 5.16699 -23 6.5l1 2
c42.667 1.33301 82.667 10.666 120 27.999s69.666 40.5 96.999 69.5s48.833 63 64.5 102s23.5 80.5 23.5 124.5c0 46.667 -8.5 90.167 -25.5 130.5s-40.333 75.166 -70 104.499s-64.5 52.333 -104.5 69s-83 25 -129 25s-89 -8.33301 -129 -25s-75 -39.667 -105 -69
s-53.5 -64.166 -70.5 -104.499s-25.5 -83.833 -25.5 -130.5c0 -44 7.5 -85 22.5 -123s35.833 -71.5 62.5 -100.5s58.167 -52.5 94.5 -70.5s75.833 -29 118.5 -33l40 -17.5c14 -6.33301 30 -14.166 48 -23.499c22.667 -12 43.167 -22.167 61.5 -30.5
s35.666 -15.333 51.999 -21s32.333 -9.66699 48 -12s32.5 -3.5 50.5 -3.5c15.333 0 29.166 1 41.499 3s22.166 4.33301 29.499 7zM670.003 318.999c0 -42.667 -7.66699 -82.334 -23 -119.001s-36.333 -68.334 -63 -95.001s-58 -47.5 -94 -62.5s-74.667 -22.5 -116 -22.5
s-80.166 7.5 -116.499 22.5s-67.833 35.833 -94.5 62.5s-47.667 58.334 -63 95.001s-23 76.334 -23 119.001s7.66699 82.334 23 119.001s36.333 68.334 63 95.001s58.167 47.5 94.5 62.5s75.166 22.5 116.499 22.5s80 -7.5 116 -22.5s67.333 -35.833 94 -62.5
s47.667 -58.334 63 -95.001s23 -76.334 23 -119.001z" />
    <glyph glyph-name="R" unicode="R" horiz-adv-x="485" 
d="M502 0l-229 311.001c20.667 4 39.667 10.667 57 20s32 21 44 35s21.333 30 28 48s10 37.333 10 58c0 23.333 -4.5 45.166 -13.5 65.499s-21.5 38 -37.5 53s-35 26.667 -57 35s-46.333 12.5 -73 12.5h-157v-638h32v307h131l226 -307h39zM380 472.001
c0 -20 -3.83496 -38.333 -11.502 -55s-18.167 -31 -31.5 -43s-29 -21.333 -47 -28s-37.333 -10 -58 -10h-126v273h122c21.333 0 41.333 -3.33301 60 -10s34.834 -16.167 48.501 -28.5s24.334 -26.833 32.001 -43.5s11.5 -35 11.5 -55z" />
    <glyph glyph-name="S" unicode="S" horiz-adv-x="459" 
d="M415 162c0 24 -3.83105 45.499 -11.498 64.499s-19 36 -34 51s-33.5 28.833 -55.5 41.5s-47.667 24.667 -77 36c-47.333 18.667 -81 39.334 -101 62.001s-30 50.334 -30 83.001c0 14 2.83301 27.833 8.5 41.5s14.167 26 25.5 37s25.833 19.833 43.5 26.5s38.5 10 62.5 10
c22.667 0 45.167 -3.66699 67.5 -11s40.166 -16 53.499 -26l9 29c-14.667 9.33301 -33.334 17.833 -56.001 25.5s-47 11.5 -73 11.5c-30 0 -55.833 -4.33301 -77.5 -13s-39.5 -19.834 -53.5 -33.501s-24.333 -29.167 -31 -46.5s-10 -35 -10 -53
c0 -40.667 12.333 -74.667 37 -102s65 -52 121 -74c52 -20.667 90 -43 114 -67s36 -55.667 36 -95c0 -20 -4 -38.5 -12 -55.5s-19 -31.5 -33 -43.5s-30.667 -21.333 -50 -28s-40 -10 -62 -10c-40 0 -74.167 6.33301 -102.5 19s-53.833 28.667 -76.5 48l7 -40
c18.667 -14.667 42 -27.667 70 -39s61.667 -17 101 -17c26.667 0 51.5 4 74.5 12s43 19.167 60 33.5s30.5 31.833 40.5 52.5s15 44 15 70z" />
    <glyph glyph-name="T" unicode="T" horiz-adv-x="523" 
d="M514 609v29h-505v-29h236v-609h32v609h237z" />
    <glyph glyph-name="U" unicode="U" horiz-adv-x="620" 
d="M547 216l0.000976562 422h-33v-420c0 -32.667 -5 -61.334 -15 -86.001s-24 -45.334 -42 -62.001s-39.5 -29.167 -64.5 -37.5s-52.5 -12.5 -82.5 -12.5s-57.5 4.16699 -82.5 12.5s-46.5 20.833 -64.5 37.5s-32 37.334 -42 62.001s-15 53.334 -15 86.001v420h-32v-422
c0 -70.667 21 -125.834 63 -165.501s99.667 -59.5 173 -59.5s131.166 19.833 173.499 59.5s63.5 94.834 63.5 165.501z" />
    <glyph glyph-name="V" unicode="V" horiz-adv-x="592" 
d="M559 638h-32l-155 -391c-13.333 -32 -26.5 -65.5 -39.5 -100.5s-24.5 -67.5 -34.5 -97.5h-2l-17 47.5l-18.5 51.5l-19.5 51l-19 48l-155 391h-34l257 -650h12z" />
    <glyph glyph-name="W" unicode="W" horiz-adv-x="941" 
d="M908 638h-31.002l-133 -389l-33 -101.5l-29 -93.5h-2l-28.5 94.5l-32.5 101.5l-130 388h-31l-131 -388c-11.333 -32.667 -22.166 -65.667 -32.499 -99l-29.5 -97h-2c-9.33301 32 -19.5 64.5 -30.5 97.5l-33.5 97.5l-133 389h-33l223 -652h13l136 403l33 100.5
c10.667 32.333 21.334 66.5 32.001 102.5h2c10.667 -36 21.667 -70.333 33 -103l34 -100l134 -403h12z" />
    <glyph glyph-name="X" unicode="X" horiz-adv-x="545" 
d="M500 0l-209.001 328.001l198 310h-35l-123 -191l-29.5 -46.5c-10.333 -17 -19.5 -33.167 -27.5 -48.5h-2c-8 15.333 -17.333 31.333 -28 48l-30 47l-121 191h-37l198 -311l-210 -327h35l130 203l30 47c10.667 16.667 21.334 34.667 32.001 54h2
c10 -18.667 20.333 -36.334 31 -53.001l31 -49l129 -202h36z" />
    <glyph glyph-name="Y" unicode="Y" horiz-adv-x="585" 
d="M552 638h-37.001l-149 -210l-37.5 -53l-35.5 -53h-2c-11.333 18 -23.166 35.833 -35.499 53.5l-36.5 52.5l-148 210h-38l242 -342v-296h33v296z" />
    <glyph glyph-name="Z" unicode="Z" horiz-adv-x="509" 
d="M464 0v29h-373l-1 2l60.5 96l61.5 102l239 399v10h-372v-29h325l1 -2l-59.5 -96l-63.5 -104l-238 -397v-10h420z" />
    <glyph glyph-name="bracketleft" unicode="[" horiz-adv-x="262" 
d="M253 -218v28h-148v862h148v28h-179v-918h179z" />
    <glyph glyph-name="backslash" unicode="\" horiz-adv-x="438" 
d="M494 -143l-404 795l-26 -14l404 -794z" />
    <glyph glyph-name="bracketright" unicode="]" horiz-adv-x="262" 
d="M188 -218v918h-179v-28h148v-862h-148v-28h179z" />
    <glyph glyph-name="asciicircum" unicode="^" 
d="M389 529c-24 19.333 -47.167 40.833 -69.5 64.5s-41.166 47.167 -56.499 70.5c-1.33301 2.66699 -3.5 5 -6.5 7s-5.16699 3 -6.5 3s-3.5 -1 -6.5 -3s-5.16699 -4.33301 -6.5 -7c-15.333 -23.333 -34.166 -47 -56.499 -71s-45.5 -45.667 -69.5 -65l20 -9
c43.333 29.333 82.333 63.333 117 102c17.333 -19.333 36.166 -37.5 56.499 -54.5s41.166 -32.833 62.499 -47.5z" />
    <glyph glyph-name="underscore" unicode="_" 
d="M502 -231v28h-502v-28h502z" />
    <glyph glyph-name="grave" unicode="`" 
d="M272 529c-24.667 20 -48.168 41.833 -70.501 65.5s-41.166 47.167 -56.499 70.5c-1.33301 2 -3.5 4.16699 -6.5 6.5s-5.5 3.5 -7.5 3.5c-4 0 -9 -3 -15 -9s-9 -11 -9 -15c0 -2.66699 1.33301 -6 4 -10c18.667 -23.333 39.667 -45.333 63 -66s48 -39.667 74 -57z" />
    <glyph glyph-name="a" unicode="a" horiz-adv-x="432" 
d="M412 11c-14 2.66699 -27.8379 10.5 -41.5049 23.5s-20.5 32.167 -20.5 57.5v235c0 20.667 -4 39.5 -12 56.5s-19.167 31.167 -33.5 42.5s-31.333 20.166 -51 26.499s-40.834 9.5 -63.501 9.5c-26 0 -49.5 -3.16699 -70.5 -9.5s-38.5 -14.5 -52.5 -24.5l8 -27
c12.667 9.33301 29 17.333 49 24s41.667 10 65 10c37.333 0 68.333 -9.33301 93 -28s37 -46.334 37 -83.001v-58l-135 -13c-19.333 -2 -37.666 -5.83301 -54.999 -11.5s-32.666 -14 -45.999 -25s-24 -24.667 -32 -41s-12 -35.5 -12 -57.5
c0 -19.333 3.66699 -36.666 11 -51.999s17.333 -28.666 30 -39.999s27.834 -20 45.501 -26s36.834 -9 57.501 -9c16 0 31.667 2.33301 47 7s29.333 11.167 42 19.5s23.334 18 32.001 29s14.334 23.167 17.001 36.5c0.666992 -28 8.5 -49.5 23.5 -64.5
s30.5 -24.167 46.5 -27.5zM318.995 152c0 -22 -4.16602 -41.334 -12.499 -58.001s-19 -30.667 -32 -42s-27.5 -19.833 -43.5 -25.5s-31.667 -8.5 -47 -8.5c-32.667 0 -59.834 8.83301 -81.501 26.5s-32.5 41.834 -32.5 72.501c0 34 11.167 59.833 33.5 77.5
s50.5 28.167 84.5 31.5l131 12v-86z" />
    <glyph glyph-name="b" unicode="b" horiz-adv-x="518" 
d="M479 227c0 34 -6.00098 65.333 -18.001 94s-28.5 53.5 -49.5 74.5s-45.833 37.333 -74.5 49s-59.667 17.5 -93 17.5c-34 0 -63.167 -5 -87.5 -15s-43.166 -22.333 -56.499 -37v302h-31v-672c20.667 -13.333 45.5 -24.833 74.5 -34.5s61.5 -14.5 97.5 -14.5
c34.667 0 66.667 6 96 18s54.5 28.5 75.5 49.5s37.333 45.833 49 74.5s17.5 60 17.5 94zM447.999 226c0 -30 -5.16602 -57.668 -15.499 -83.001s-24.833 -47.166 -43.5 -65.499s-40.667 -32.833 -66 -43.5s-53 -16 -83 -16c-28 0 -54.5 4.16699 -79.5 12.5
s-45.167 17.166 -60.5 26.499v321c13.333 13.333 32 26 56 38s53 18 87 18c29.333 0 56.5 -5.33301 81.5 -16s46.667 -25.167 65 -43.5s32.666 -40.166 42.999 -65.499s15.5 -53 15.5 -83z" />
    <glyph glyph-name="c" unicode="c" horiz-adv-x="452" 
d="M412 422c-16 10 -36.002 18.5 -60.002 25.5s-50 10.5 -78 10.5c-34.667 0 -66.5 -5.66699 -95.5 -17s-53.833 -27.333 -74.5 -48s-36.667 -45 -48 -73s-17 -59 -17 -93c0 -34.667 5.83301 -66.167 17.5 -94.5s28 -52.666 49 -72.999s45.833 -36.166 74.5 -47.499
s60 -17 94 -17c24.667 0 47.834 2 69.501 6s40.167 10.667 55.5 20l6 33c-18.667 -11.333 -38.5 -19.5 -59.5 -24.5s-44.5 -7.5 -70.5 -7.5c-30.667 0 -58.667 5.33301 -84 16s-47 25.167 -65 43.5s-31.833 40 -41.5 65s-14.5 51.833 -14.5 80.5s4.83301 55.5 14.5 80.5
s23.5 46.667 41.5 65s39.5 32.666 64.5 42.999s53.167 15.5 84.5 15.5c24 0 47.833 -3.83301 71.5 -11.5s42.834 -16.834 57.501 -27.501z" />
    <glyph glyph-name="d" unicode="d" horiz-adv-x="522" 
d="M454 0l-0.000976562 712.002h-31v-307c-13.333 15.333 -32.666 28.666 -57.999 39.999s-55.333 17 -90 17c-33.333 0 -64.5 -6 -93.5 -18s-54 -28.5 -75 -49.5s-37.5 -45.833 -49.5 -74.5s-18 -60 -18 -94s6.16699 -65.5 18.5 -94.5s29 -53.833 50 -74.5
s45.667 -36.834 74 -48.501s58.833 -17.5 91.5 -17.5c36 0 66.833 6 92.5 18s44.5 26 56.5 42h1v-51h31zM422.999 82.002c-14 -17.333 -33.999 -32.3311 -59.999 -44.998s-55 -19 -87 -19c-29.333 0 -56.666 5.33301 -81.999 16s-47.166 25.167 -65.499 43.5
s-32.666 40.166 -42.999 65.499s-15.5 53 -15.5 83s5.16699 57.667 15.5 83s24.666 47.166 42.999 65.499s40.166 32.833 65.499 43.5s52.666 16 81.999 16c32 0 60.667 -6 86 -18s45.666 -26.667 60.999 -44v-290z" />
    <glyph glyph-name="e" unicode="e" horiz-adv-x="481" 
d="M441 283c0 23.333 -4.16699 45.8359 -12.5 67.5029s-20.5 40.667 -36.5 57s-35.833 29.5 -59.5 39.5s-50.834 15 -81.501 15c-28 0 -54.833 -5.83301 -80.5 -17.5s-48.167 -27.834 -67.5 -48.501s-34.833 -45.5 -46.5 -74.5s-17.5 -60.5 -17.5 -94.5
c0 -34.667 6 -66.334 18 -95.001s28.5 -53.5 49.5 -74.5s45.833 -37.333 74.5 -49s59.334 -17.5 92.001 -17.5c28.667 0 53.334 2.83301 74.001 8.5s38.667 14.167 54 25.5l5 34c-17.333 -12 -36.833 -21.667 -58.5 -29s-45.834 -11 -72.501 -11c-31.333 0 -60 6 -86 18
s-48.167 28 -66.5 48s-32 43.167 -41 69.5s-12.167 54.166 -9.5 83.499h346l22 22c0.666992 3.33301 1 7 1 11v12zM410 283.003c0 -8.66699 -0.333984 -14.667 -1.00098 -18h-335c2 20 8 40.167 18 60.5s22.833 38.666 38.5 54.999s33.834 29.5 54.501 39.5s43 15 67 15
c26.667 0 50 -4.33301 70 -13s36.5 -20.167 49.5 -34.5s22.667 -30.666 29 -48.999s9.5 -36.833 9.5 -55.5z" />
    <glyph glyph-name="f" unicode="f" horiz-adv-x="332" 
d="M363 700c-8.66699 3.33301 -19.5 6.16699 -32.5 8.5s-27.167 3.5 -42.5 3.5c-25.333 0 -48.833 -3.5 -70.5 -10.5s-40.5 -17.833 -56.5 -32.5s-28.5 -33.334 -37.5 -56.001s-13.5 -49.667 -13.5 -81v-79h-85v-27h85v-426h31v426h154l7 27h-161v78
c0 26.667 3.83301 49.834 11.5 69.501s18.167 35.667 31.5 48s29 21.5 47 27.5s37.333 9 58 9c11.333 0 23.333 -1.33301 36 -4s22.667 -5.66699 30 -9z" />
    <glyph glyph-name="g" unicode="g" horiz-adv-x="454" 
d="M417 -95c0 33.333 -9.50391 59.665 -28.5039 78.998s-47.5 35.333 -85.5 48l-121 40c-15.333 5.33301 -28.666 11.833 -39.999 19.5s-17 17.167 -17 28.5c0 12.667 7.83301 23.5 23.5 32.5s40.5 13.5 74.5 13.5c24 0 46 4 66 12s37 18.667 51 32s24.833 29 32.5 47
s11.5 37 11.5 57c0 24.667 -5.5 46.334 -16.5 65.001s-24.167 33 -39.5 43c15.333 -3.33301 31.666 -3.33301 48.999 0s30.333 7.66602 39 12.999l-8 26c-19.333 -11.333 -43.666 -17 -72.999 -17c-11.333 0 -21 0.666992 -29 2s-16.667 3.66602 -26 6.99902
c-7.33301 2.66699 -15.666 4.83398 -24.999 6.50098s-20 2.5 -32 2.5c-23.333 0 -44.833 -3.66699 -64.5 -11s-36.667 -17.666 -51 -30.999s-25.5 -29 -33.5 -47s-12 -37.667 -12 -59c0 -19.333 3.16699 -36.666 9.5 -51.999s14.5 -28.833 24.5 -40.5s21.5 -21 34.5 -28
s26.5 -11.833 40.5 -14.5c-31.333 -3.33301 -52 -12.166 -62 -26.499s-15 -30.833 -15 -49.5l41 -41c-13.333 -2 -26.5 -6.66699 -39.5 -14s-24.5 -17.166 -34.5 -29.499s-18.167 -27 -24.5 -44s-9.5 -36.167 -9.5 -57.5s4.83301 -41 14.5 -59s23.167 -33.5 40.5 -46.5
s37.833 -23.333 61.5 -31s49.834 -11.5 78.501 -11.5s54.834 3.5 78.501 10.5s44.167 16.667 61.5 29s30.833 26.666 40.5 42.999s14.5 34.166 14.5 53.499zM353.996 314.999c0 -17.333 -3.49902 -33.333 -10.499 -48s-16.333 -27.5 -28 -38.5s-25.334 -19.667 -41.001 -26
s-32.5 -9.5 -50.5 -9.5c-18.667 0 -36 3.16699 -52 9.5s-30 15 -42 26s-21.333 23.833 -28 38.5s-10 30.667 -10 48s3.33301 33.333 10 48s16 27.334 28 38.001s26 19 42 25s33.333 9 52 9c18 0 34.833 -3 50.5 -9s29.5 -14.333 41.5 -25s21.333 -23.334 28 -38.001
s10 -30.667 10 -48zM386.997 -95.001c0 -14 -3.83594 -27.499 -11.5029 -40.499s-18.667 -24.5 -33 -34.5s-31.666 -18.167 -51.999 -24.5s-43.166 -9.5 -68.499 -9.5s-48.166 3.33301 -68.499 10s-37.666 15.667 -51.999 27s-25.5 24.166 -33.5 38.499s-12 29.5 -12 45.5
c0 17.333 3 33.833 9 49.5s14 29.5 24 41.5s21.667 21.333 35 28s27.666 10 42.999 10l126 -41c28.667 -9.33301 51.5 -22 68.5 -38s25.5 -36.667 25.5 -62z" />
    <glyph glyph-name="h" unicode="h" horiz-adv-x="494" 
d="M430 0l0.00195312 309.997c0 24 -4.33301 45.5 -13 64.5s-20.834 35 -36.501 48s-34.167 22.833 -55.5 29.5s-44.666 10 -69.999 10c-46 0 -82.167 -8.83301 -108.5 -26.5s-41.5 -37.5 -45.5 -59.5h-1v336h-31v-712h31v308c0 20.667 4 38.834 12 54.501
s18.833 28.834 32.5 39.501s29.667 18.834 48 24.501s38.166 8.5 59.499 8.5c43.333 0 78.666 -10.833 105.999 -32.5s41 -53.167 41 -94.5v-308h31z" />
    <glyph glyph-name="i" unicode="i" horiz-adv-x="189" 
d="M125 577c0 2 -1.16602 4.83398 -3.49902 8.50098s-5.16602 7 -8.49902 10s-6.83301 5.66699 -10.5 8s-6.5 3.5 -8.5 3.5c-4.66699 0 -10.834 -3.83301 -18.501 -11.5s-11.5 -13.834 -11.5 -18.501c0 -2 1.16699 -4.83301 3.5 -8.5s5 -7.16699 8 -10.5
s6.33301 -6.16602 10 -8.49902s6.5 -3.5 8.5 -3.5s4.83301 1.16699 8.5 3.5s7.16699 5.16602 10.5 8.49902s6.16602 6.83301 8.49902 10.5s3.5 6.5 3.5 8.5zM110.001 0.000976562v453h-31v-453h31z" />
    <glyph glyph-name="j" unicode="j" horiz-adv-x="189" 
d="M125 577c0 2 -1.16602 4.83398 -3.49902 8.50098s-5.16602 7 -8.49902 10s-6.83301 5.66699 -10.5 8s-6.5 3.5 -8.5 3.5c-4.66699 0 -10.834 -3.83301 -18.501 -11.5s-11.5 -13.834 -11.5 -18.501c0 -2 1.16699 -4.83301 3.5 -8.5s5 -7.16699 8 -10.5
s6.33301 -6.16602 10 -8.49902s6.5 -3.5 8.5 -3.5s4.83301 1.16699 8.5 3.5s7.16699 5.16602 10.5 8.49902s6.16602 6.83301 8.49902 10.5s3.5 6.5 3.5 8.5zM110.001 -54.999v508h-31v-505c0 -87.333 -33.667 -139.333 -101 -156l22 -21c34 9.33301 60.833 28.833 80.5 58.5
s29.5 68.167 29.5 115.5z" />
    <glyph glyph-name="k" unicode="k" horiz-adv-x="397" 
d="M385 0l-249 234l231 219h-38l-228 -216h-1v475h-31v-712h31v229h1l242 -229h42z" />
    <glyph glyph-name="l" unicode="l" horiz-adv-x="183" 
d="M154 10c-36 10 -54 37 -54 81v621h-31v-622c0 -28.667 5.5 -51 16.5 -67s26.833 -27.667 47.5 -35z" />
    <glyph glyph-name="m" unicode="m" horiz-adv-x="744" 
d="M680 0l-0.00292969 325.999c0 22 -3.83301 41.333 -11.5 58s-18.5 30.834 -32.5 42.501s-30.5 20.5 -49.5 26.5s-39.833 9 -62.5 9c-40.667 0 -74.667 -8.16699 -102 -24.5s-42.666 -37.5 -45.999 -63.5c-10 32 -28 54.667 -54 68s-55.667 20 -89 20
c-42.667 0 -75.334 -7.66699 -98.001 -23s-36 -32 -40 -50h-1v64h-30v-453h31v325c0 36 12.833 63.333 38.5 82s57.834 28 96.501 28s69.334 -9.33301 92.001 -28s34 -46 34 -82v-325h31v325c0 36 12.833 63.333 38.5 82s57.834 28 96.501 28s69.5 -9.33301 92.5 -28
s34.5 -46 34.5 -82v-325h31z" />
    <glyph glyph-name="n" unicode="n" horiz-adv-x="489" 
d="M425 0l0.000976562 309.996c0 24 -4.5 45.5 -13.5 64.5s-21.333 35 -37 48s-34.167 22.833 -55.5 29.5s-44.333 10 -69 10c-23.333 0 -44.166 -2.5 -62.499 -7.5s-34 -11.667 -47 -20s-23.333 -17.666 -31 -27.999s-12.5 -20.833 -14.5 -31.5h-1v78h-30v-453h31v308
c0 20.667 4 38.834 12 54.501s18.833 28.834 32.5 39.501s29.667 18.834 48 24.501s38.166 8.5 59.499 8.5c43.333 0 78.666 -10.833 105.999 -32.5s41 -53.167 41 -94.5v-308h31z" />
    <glyph glyph-name="o" unicode="o" horiz-adv-x="551" 
d="M512 226c0 34 -6 65.333 -18 94s-28.667 53.5 -50 74.5s-46.333 37.5 -75 49.5s-60 18 -94 18s-65.333 -6 -94 -18s-53.5 -28.5 -74.5 -49.5s-37.5 -45.833 -49.5 -74.5s-18 -60 -18 -94s6 -65.333 18 -94s28.5 -53.5 49.5 -74.5s45.833 -37.333 74.5 -49
s60 -17.5 94 -17.5s65.333 5.83301 94 17.5s53.667 28 75 49s38 45.833 50 74.5s18 60 18 94zM481 226c0 -30 -5.16699 -57.667 -15.5 -83s-24.833 -47.166 -43.5 -65.499s-40.5 -32.833 -65.5 -43.5s-52.167 -16 -81.5 -16s-56.5 5.33301 -81.5 16s-46.667 25.167 -65 43.5
s-32.666 40.166 -42.999 65.499s-15.5 53 -15.5 83s5.16699 57.667 15.5 83s24.666 47.166 42.999 65.499s40 32.833 65 43.5s52.167 16 81.5 16s56.5 -5.33301 81.5 -16s46.833 -25.167 65.5 -43.5s33.167 -40.166 43.5 -65.499s15.5 -53 15.5 -83z" />
    <glyph glyph-name="p" unicode="p" horiz-adv-x="517" 
d="M478 227c0 34 -6.16602 65.498 -18.499 94.498s-29 53.833 -50 74.5s-45.667 36.834 -74 48.501s-58.833 17.5 -91.5 17.5c-36 0 -66.833 -6 -92.5 -18s-44.5 -26 -56.5 -42h-1v51h-30v-684h31v279c13.333 -15.333 32.666 -28.666 57.999 -39.999s55.333 -17 90 -17
c33.333 0 64.333 6 93 18s53.5 28.5 74.5 49.5s37.5 45.833 49.5 74.5s18 60 18 94zM447.001 226.998c0 -30 -5.16797 -57.665 -15.501 -82.998s-24.666 -47.333 -42.999 -66s-40 -33.334 -65 -44.001s-52.167 -16 -81.5 -16c-32 0 -60.667 6.16699 -86 18.5
s-45.666 27.166 -60.999 44.499v289c14 17.333 34 32.333 60 45s55 19 87 19c29.333 0 56.5 -5.16699 81.5 -15.5s46.667 -24.833 65 -43.5s32.666 -40.5 42.999 -65.5s15.5 -52.5 15.5 -82.5z" />
    <glyph glyph-name="q" unicode="q" horiz-adv-x="513" 
d="M449 -231v686.001h-16l-10 -35c-15.333 11.333 -35 21.166 -59 29.499s-53.333 12.5 -88 12.5s-66.5 -6 -95.5 -18s-54 -28.5 -75 -49.5s-37.333 -45.833 -49 -74.5s-17.5 -60 -17.5 -94s6 -65.333 18 -94s28.5 -53.5 49.5 -74.5s45.833 -37.333 74.5 -49
s60 -17.5 94 -17.5s63 5 87 15s42.667 22.333 56 37v-274h31zM418 75.001c-13.333 -14 -31.832 -27 -55.499 -39s-52.5 -18 -86.5 -18c-29.333 0 -56.5 5.33301 -81.5 16s-46.833 25.334 -65.5 44.001s-33.167 40.667 -43.5 66s-15.5 52.666 -15.5 81.999
c0 30 5.16699 57.667 15.5 83s24.833 47.333 43.5 66s40.667 33.167 66 43.5s53 15.5 83 15.5c14 0 27.833 -1.33301 41.5 -4s26.667 -6 39 -10s23.666 -8.66699 33.999 -14s18.833 -10.333 25.5 -15v-316z" />
    <glyph glyph-name="r" unicode="r" horiz-adv-x="297" 
d="M288 454c-6.66699 2 -14.0029 3.33496 -22.0029 4.00195s-15 1 -21 1c-21.333 0 -40.666 -3.5 -57.999 -10.5s-32.333 -16.167 -45 -27.5s-23 -24.333 -31 -39s-13 -29.667 -15 -45h-1v116h-31v-453h31v232c0 32 3.83301 60.167 11.5 84.5s18.334 44.666 32.001 60.999
s29.5 28.666 47.5 36.999s37.333 12.5 58 12.5c6 0 12.333 -0.5 19 -1.5s12.334 -2.16699 17.001 -3.5z" />
    <glyph glyph-name="s" unicode="s" horiz-adv-x="356" 
d="M316 114c0 35.333 -12.0039 63.665 -36.0039 84.998s-56 39 -96 53c-28 9.33301 -50.333 21 -67 35s-25 35 -25 63c0 24.667 8.83301 44.167 26.5 58.5s39.834 21.5 66.501 21.5c19.333 0 37.333 -3.16699 54 -9.5s29.667 -13.166 39 -20.499l10 28
c-9.33301 7.33301 -23.166 14 -41.499 20s-38.833 9 -61.5 9c-35.333 0 -64.666 -9.5 -87.999 -28.5s-35 -45.5 -35 -79.5c0 -35.333 10.333 -62.166 31 -80.499s50 -34.166 88 -47.499c30.667 -10.667 55.667 -24.5 75 -41.5s29 -39.167 29 -66.5
c0 -15.333 -3 -28.5 -9 -39.5s-14.167 -20.333 -24.5 -28s-22.166 -13.334 -35.499 -17.001s-27.333 -5.5 -42 -5.5c-27.333 0 -51.5 4.5 -72.5 13.5s-40.167 21.833 -57.5 38.5l7 -39c14 -11.333 31 -20.833 51 -28.5s44 -11.5 72 -11.5c20 0 38.5 2.5 55.5 7.5
s32 12.5 45 22.5s23.167 22.333 30.5 37s11 31.667 11 51z" />
    <glyph glyph-name="t" unicode="t" horiz-adv-x="339" 
d="M319 453h-173.001v122l-30 -16v-106h-91v-27h91v-326c0 -34.667 9.16699 -60.5 27.5 -77.5s41.5 -25.5 69.5 -25.5c9.33301 0 18.5 0.666992 27.5 2s16.5 4 22.5 8l5 30c-6 -4 -13.833 -7.16699 -23.5 -9.5s-19.5 -3.5 -29.5 -3.5
c-19.333 0 -35.666 5.83301 -48.999 17.5s-20 31.5 -20 59.5v325h164z" />
    <glyph glyph-name="u" unicode="u" horiz-adv-x="489" 
d="M425 0l0.00292969 453.004h-31v-308c0 -20.667 -4 -38.834 -12 -54.501s-18.833 -28.834 -32.5 -39.501s-29.834 -18.834 -48.501 -24.501s-38.667 -8.5 -60 -8.5c-43.333 0 -78.5 10.833 -105.5 32.5s-40.5 53.167 -40.5 94.5v308h-31v-310c0 -24 4.5 -45.5 13.5 -64.5
s21.167 -35 36.5 -48s33.666 -22.833 54.999 -29.5s44.333 -10 69 -10c23.333 0 44.166 2.5 62.499 7.5s34 11.667 47 20s23.5 17.666 31.5 27.999s13 20.833 15 31.5h1v-78h30z" />
    <glyph glyph-name="v" unicode="v" horiz-adv-x="465" 
d="M432 453l-31 0.00195312l-115 -279l-27 -66.5c-8.66699 -21.667 -16.667 -43.834 -24 -66.501h-2c-7.33301 22.667 -15.333 45.167 -24 67.5s-17.667 44.166 -27 65.499l-117 279h-32l194 -465h11z" />
    <glyph glyph-name="w" unicode="w" horiz-adv-x="722" 
d="M689 453l-29.998 0.000976562l-96 -273l-23 -67.5c-8 -23.667 -15.333 -46.834 -22 -69.501h-2c-6.66699 22.667 -13.834 45.5 -21.501 68.5l-23.5 68.5l-97 273h-25l-97 -273l-24.5 -70c-8.33301 -24.667 -15.166 -47 -20.499 -67h-2c-5.33301 20 -12 42.333 -20 67
s-16 48 -24 70l-97 273h-31l168 -466h10l101 282l24.5 70c8.33301 24.667 16.166 49 23.499 73h2c7.33301 -24 15.166 -48.167 23.499 -72.5l24.5 -70.5l101 -282h10z" />
    <glyph glyph-name="x" unicode="x" horiz-adv-x="422" 
d="M383 0l-154 234.001l146 219h-34l-87 -132c-7.33301 -10.667 -14.5 -21.834 -21.5 -33.501s-13.167 -22.5 -18.5 -32.5h-2l-19.5 32l-21.5 34l-87 132h-35l145 -221l-155 -232h34l92 139l23.5 35c8.33301 12 15.833 24 22.5 36h2c6 -12 12.5 -23.667 19.5 -35l22.5 -35
l93 -140h35z" />
    <glyph glyph-name="y" unicode="y" horiz-adv-x="466" 
d="M433 453l-30 -0.00292969l-113 -272l-28 -67c-10.667 -25.333 -20 -48.666 -28 -69.999h-2c-7.33301 22.667 -15.666 45.834 -24.999 69.501s-18.666 46.167 -27.999 67.5l-114 272h-32l185 -443c-13.333 -27.333 -26.833 -52.166 -40.5 -74.499s-28.667 -42.5 -45 -60.5
s-34.5 -33.833 -54.5 -47.5s-42.667 -25.5 -68 -35.5l22 -22c24.667 10 47.5 22.333 68.5 37s40.667 32.5 59 53.5s35.666 45.833 51.999 74.5s32.166 61.667 47.499 99z" />
    <glyph glyph-name="z" unicode="z" horiz-adv-x="413" 
d="M374 0l-0.000976562 27h-288l-1 2c14.667 20.667 29.667 43 45 67l46 71l180 278v8h-296v-27h251l1 -2c-15.333 -21.333 -30.666 -44 -45.999 -68l-46 -71l-181 -277v-8h335z" />
    <glyph glyph-name="braceleft" unicode="{" horiz-adv-x="291" 
d="M281 -192c-30 0 -54.5 5.66113 -73.5 16.9941s-34.167 26.833 -45.5 46.5s-19.166 42.834 -23.499 69.501s-6.5 55.667 -6.5 87c0 46 -6.16699 87.167 -18.5 123.5s-33.166 65.833 -62.499 88.5c29.333 22.667 50.166 52.167 62.499 88.5s18.5 77.5 18.5 123.5
c0 31.333 2.16699 60.333 6.5 87s12.166 49.834 23.499 69.501s26.5 35.167 45.5 46.5s43.5 17 73.5 17l-11 26c-32.667 0 -60 -6.33301 -82 -19s-39.5 -30 -52.5 -52s-22.167 -48 -27.5 -78s-8 -62.333 -8 -97c0 -47.333 -6.66699 -89.166 -20 -125.499
s-37 -65.166 -71 -86.499c34 -21.333 57.667 -50.166 71 -86.499s20 -78.166 20 -125.499c0 -34.667 2.66699 -67 8 -97s14.5 -56 27.5 -78s30.5 -39.333 52.5 -52s49.333 -19 82 -19z" />
    <glyph glyph-name="bar" unicode="|" horiz-adv-x="177" 
d="M103 -231v944h-29v-944h29z" />
    <glyph glyph-name="braceright" unicode="}" horiz-adv-x="291" 
d="M281 240c-34 21.333 -57.667 50.1719 -71 86.5049s-20 78.166 -20 125.499c0 34.667 -2.66699 67 -8 97s-14.5 56 -27.5 78s-30.5 39.333 -52.5 52s-49.333 19 -82 19l-11 -26c30 0 54.667 -5.66699 74 -17s34.666 -26.833 45.999 -46.5s19.166 -42.834 23.499 -69.501
s6.5 -55.667 6.5 -87c0 -46 6 -87.167 18 -123.5s32.667 -65.833 62 -88.5c-29.333 -22.667 -50 -52.167 -62 -88.5s-18 -77.5 -18 -123.5c0 -31.333 -2.16699 -60.333 -6.5 -87s-12.166 -49.834 -23.499 -69.501s-26.666 -35.167 -45.999 -46.5s-44 -17 -74 -17l11 -26
c32.667 0 60 6.33301 82 19s39.5 30 52.5 52s22.167 48 27.5 78s8 62.333 8 97c0 47.333 6.66699 89.166 20 125.499s37 65.166 71 86.499z" />
    <glyph glyph-name="asciitilde" unicode="~" horiz-adv-x="336" 
d="M287 319l-17.001 8l-13 -15.5c-5.33301 -6.33301 -10.833 -12.5 -16.5 -18.5s-11.167 -11 -16.5 -15s-10 -6 -14 -6c-3.33301 0 -8.66602 2.33301 -15.999 7l-24 15.5c-8.66699 5.66699 -17.167 10.834 -25.5 15.501s-15.5 7 -21.5 7
c-4.66699 0 -10.167 -2.33301 -16.5 -7s-12.833 -10.834 -19.5 -18.501s-13.334 -16.167 -20.001 -25.5s-12.667 -18.333 -18 -27l17 -8l12.5 15.5c5 6.33301 10.333 12.5 16 18.5s11.167 11 16.5 15s10 6 14 6c3.33301 0 8.66602 -2.33301 15.999 -7l24 -15.5
c8.66699 -5.66699 17.334 -10.834 26.001 -15.501s16 -7 22 -7c4.66699 0 10.167 2.33301 16.5 7s12.833 10.834 19.5 18.501s13.334 16 20.001 25s12.667 18.167 18 27.5z" />
    <glyph glyph-name="nonbreakingspace" unicode="&#xa0;" horiz-adv-x="124" 
 />
    <glyph glyph-name="exclamdown" unicode="&#xa1;" horiz-adv-x="206" 
d="M135 611c0 2.66699 -1.33301 6 -4 10s-5.83398 7.83301 -9.50098 11.5s-7.5 6.83398 -11.5 9.50098s-7.33301 4 -10 4s-6 -1.33301 -10 -4s-7.66699 -5.83398 -11 -9.50098s-6.33301 -7.5 -9 -11.5s-4 -7.33301 -4 -10s1.33301 -6 4 -10s5.66699 -7.66699 9 -11
s7 -6.33301 11 -9s7.33301 -4 10 -4s6 1.33301 10 4s7.83301 5.66699 11.5 9s6.83398 7 9.50098 11s4 7.33301 4 10zM117 0l-4 484l-27 10l-5 -494h36z" />
    <glyph glyph-name="cent" unicode="&#xa2;" horiz-adv-x="452" 
d="M288 0l-0.00195312 89.0029c22 1.33301 42.667 4 62 8s35.666 10 48.999 18l6 33c-18.667 -11.333 -38.5 -19.5 -59.5 -24.5s-44.5 -7.5 -70.5 -7.5c-30.667 0 -58.667 5.33301 -84 16s-47 25.167 -65 43.5s-31.833 40 -41.5 65s-14.5 51.833 -14.5 80.5
s4.83301 55.5 14.5 80.5s23.5 46.667 41.5 65s39.5 32.666 64.5 42.999s53.167 15.5 84.5 15.5c24 0 47.833 -3.83301 71.5 -11.5s42.834 -16.834 57.501 -27.501l8 30c-14.667 9.33301 -32.667 17.333 -54 24s-44.666 10.667 -69.999 12v86h-25v-86
c-33.333 -1.33301 -63.666 -8 -90.999 -20s-50.833 -28.167 -70.5 -48.5s-35 -44.333 -46 -72s-16.5 -57.834 -16.5 -90.501c0 -33.333 5.5 -64 16.5 -92s26.5 -52.167 46.5 -72.5s43.667 -36.333 71 -48s57.333 -18.167 90 -19.5v-89h25z" />
    <glyph glyph-name="sterling" unicode="&#xa3;" horiz-adv-x="444" 
d="M400 17c-23.333 9.33301 -49.499 16.001 -78.499 20.001s-56.833 6 -83.5 6c-10.667 0 -22.5 -0.5 -35.5 -1.5s-26 -2.5 -39 -4.5s-25.5 -4.5 -37.5 -7.5s-22 -6.16699 -30 -9.5c13.333 21.333 24.166 49.833 32.499 85.5s12.5 78.834 12.5 129.501v75h115l8 24h-123v132
c0 26.667 3.83301 49.834 11.5 69.501s18.167 35.667 31.5 48s29 21.5 47 27.5s37.333 9 58 9c11.333 0 23.333 -1.33301 36 -4s22.667 -5.66699 30 -9l8 28c-8.66699 3.33301 -19.5 6.16602 -32.5 8.49902s-27.167 3.5 -42.5 3.5c-25.333 0 -48.833 -3.5 -70.5 -10.5
s-40.5 -17.833 -56.5 -32.5s-28.5 -33.334 -37.5 -56.001s-13.5 -49.667 -13.5 -81v-133h-85v-24h85v-74c0 -49.333 -4 -92.5 -12 -129.5s-20.667 -70.5 -38 -100.5l14 -17c8.66699 2.66699 19.5 5.66699 32.5 9s26.833 6.16602 41.5 8.49902s29.667 4.33301 45 6
s30 2.5 44 2.5c27.333 0 54.833 -2.33301 82.5 -7s51.5 -11 71.5 -19z" />
    <glyph glyph-name="currency" unicode="&#xa4;" horiz-adv-x="499" 
d="M339 281h-197.998c-0.666992 6 -1 12 -1 18v20c0 7.33301 0.166992 14.5 0.5 21.5s0.833008 14.167 1.5 21.5h201l8 25h-207c4.66699 34 12.667 65.167 24 93.5s25.333 52.5 42 72.5s35.667 35.5 57 46.5s44.333 16.5 69 16.5c21.333 0 41.833 -3 61.5 -9
s35.5 -13.667 47.5 -23l9 27c-13.333 9.33301 -30 17.166 -50 23.499s-43 9.5 -69 9.5c-29.333 0 -56.333 -6.16699 -81 -18.5s-46.667 -29.833 -66 -52.5s-35.5 -49.834 -48.5 -81.501s-21.833 -66.5 -26.5 -104.5h-88v-25h86
c-0.666992 -7.33301 -1.16699 -14.5 -1.5 -21.5s-0.5 -14.167 -0.5 -21.5v-20c0 -6 0.333008 -12 1 -18h-85v-25h88c4.66699 -39.333 13.334 -75 26.001 -107s28.667 -59.5 48 -82.5s41.666 -40.833 66.999 -53.5s52.666 -19 81.999 -19c23.333 0 44.166 2.5 62.499 7.5
s32.833 11.5 43.5 19.5l5 33c-14.667 -11.333 -30.834 -19.666 -48.501 -24.999s-38.167 -8 -61.5 -8c-25.333 0 -48.666 5.66699 -69.999 17s-40.5 27.333 -57.5 48s-31.167 45.334 -42.5 74.001s-19 60.667 -23 96h186z" />
    <glyph glyph-name="yen" unicode="&#xa5;" horiz-adv-x="484" 
d="M451 638h-33.998l-118 -219l-28.5 -54c-9.66699 -18 -18.834 -36.333 -27.501 -55h-2c-8.66699 18.667 -17.834 37.167 -27.501 55.5l-28.5 53.5l-117 219h-35l184 -345h-135v-24h144v-269h31v269h145v24h-136z" />
    <glyph glyph-name="brokenbar" unicode="&#xa6;" horiz-adv-x="188" 
d="M108 300v412h-29v-412h29zM108 -231v412h-29v-412h29z" />
    <glyph glyph-name="section" unicode="&#xa7;" horiz-adv-x="478" 
d="M404 -78c0 43.333 -14.332 80.3359 -42.999 111.003l40 115l-267 269c-10.667 10.667 -18.167 23 -22.5 37s-6.5 30 -6.5 48c0 12.667 2.33301 25.834 7 39.501s12.167 26.167 22.5 37.5s24 20.666 41 27.999s37.5 11 61.5 11c11.333 0 23.166 -1 35.499 -3
s24.166 -4.66699 35.499 -8s21.833 -7.33301 31.5 -12s17.834 -9.66699 24.501 -15l9 29c-15.333 10.667 -35.166 19.667 -59.499 27s-49.833 11 -76.5 11c-29.333 0 -54.333 -4.66699 -75 -14s-37.5 -21 -50.5 -35s-22.5 -29.5 -28.5 -46.5s-9 -33.5 -9 -49.5
c0 -44.667 14.667 -82 44 -112l-41 -114l267 -269c20 -20 30 -48.333 30 -85c0 -12.667 -2.33301 -25.834 -7 -39.501s-12.334 -26.334 -23.001 -38.001s-24.5 -21.167 -41.5 -28.5s-37.5 -11 -61.5 -11c-11.333 0 -23.166 1 -35.499 3s-24.166 4.83301 -35.499 8.5
s-21.833 7.83398 -31.5 12.501s-17.834 9.66699 -24.501 15l-9 -29c15.333 -10.667 35.166 -19.834 59.499 -27.501s49.833 -11.5 76.5 -11.5c29.333 0 54.333 4.66699 75 14s37.5 21.166 50.5 35.499s22.5 30 28.5 47s9 33.5 9 49.5zM371.001 138.003l-30 -88l-234 235
l30 88z" />
    <glyph glyph-name="dieresis" unicode="&#xa8;" 
d="M351 559c0 4.66699 -3.83301 10.834 -11.5 18.501s-13.834 11.5 -18.501 11.5s-10.834 -3.83301 -18.501 -11.5s-11.5 -13.834 -11.5 -18.501s3.83301 -10.834 11.5 -18.501s13.834 -11.5 18.501 -11.5s10.834 3.83301 18.501 11.5s11.5 13.834 11.5 18.501zM209 559
c0 4.66699 -3.83301 10.834 -11.5 18.501s-13.834 11.5 -18.501 11.5s-10.834 -3.83301 -18.501 -11.5s-11.5 -13.834 -11.5 -18.501s3.83301 -10.834 11.5 -18.501s13.834 -11.5 18.501 -11.5s10.834 3.83301 18.501 11.5s11.5 13.834 11.5 18.501z" />
    <glyph glyph-name="copyright" unicode="&#xa9;" horiz-adv-x="615" 
d="M571 250c0 38.667 -6.83301 74 -20.5 106s-32.334 59.5 -56.001 82.5s-51.5 40.833 -83.5 53.5s-66.333 19 -103 19s-71 -6.33301 -103 -19s-60 -30.5 -84 -53.5s-42.833 -50.5 -56.5 -82.5s-20.5 -67.333 -20.5 -106c0 -38 6.83301 -73 20.5 -105s32.5 -59.5 56.5 -82.5
s52 -41 84 -54s66.333 -19.5 103 -19.5s71 6.5 103 19.5s59.833 31 83.5 54s42.334 50.5 56.001 82.5s20.5 67 20.5 105zM546 250c0 -34.667 -6 -66.5 -18 -95.5s-28.667 -54 -50 -75s-46.5 -37.5 -75.5 -49.5s-60.5 -18 -94.5 -18s-65.5 6 -94.5 18
s-54.167 28.5 -75.5 49.5s-38.166 46 -50.499 75s-18.5 60.833 -18.5 95.5s6.16699 66.667 18.5 96s29.166 54.666 50.499 75.999s46.5 37.833 75.5 49.5s60.5 17.5 94.5 17.5s65.5 -5.83301 94.5 -17.5s54.167 -28.167 75.5 -49.5s38 -46.666 50 -75.999s18 -61.333 18 -96
zM411 373c-11.333 7.33301 -24.832 13.1611 -40.499 17.4941s-32.167 6.5 -49.5 6.5c-22 0 -42 -3.5 -60 -10.5s-33.5 -17 -46.5 -30s-23 -28.333 -30 -46s-10.5 -37.167 -10.5 -58.5c0 -22 3.66699 -41.833 11 -59.5s17.5 -33 30.5 -46s28.5 -23 46.5 -30
s37.667 -10.5 59 -10.5c17.333 0 32.666 1.83301 45.999 5.5s24.333 7.83398 33 12.501l5 28c-10.667 -6 -23.167 -10.833 -37.5 -14.5s-29.5 -5.5 -45.5 -5.5c-18 0 -34.333 3.16699 -49 9.5s-27.334 14.833 -38.001 25.5s-18.834 23.334 -24.501 38.001
s-8.5 30.334 -8.5 47.001s2.83301 32.334 8.5 47.001s13.834 27.334 24.501 38.001s23.334 19.167 38.001 25.5s31 9.5 49 9.5c14 0 28.5 -2.16699 43.5 -6.5s27.833 -10.166 38.5 -17.499z" />
    <glyph glyph-name="ordfeminine" unicode="&#xaa;" horiz-adv-x="361" 
d="M342 289c-12 2.66699 -23.666 8.83496 -34.999 18.502s-17 24.5 -17 44.5v187c0 34 -12.167 60.667 -36.5 80s-55.166 29 -92.499 29c-21.333 0 -40.166 -2.5 -56.499 -7.5s-30.5 -11.833 -42.5 -20.5l6 -24c10.667 7.33301 24.334 13.666 41.001 18.999s34 8 52 8
c29.333 0 53.666 -7.16699 72.999 -21.5s29 -35.833 29 -64.5v-45l-110 -11c-14 -1.33301 -27.833 -4.33301 -41.5 -9s-25.834 -11.334 -36.501 -20.001s-19.334 -19.5 -26.001 -32.5s-10 -28.5 -10 -46.5c0 -30.667 11.167 -55.5 33.5 -74.5s50.166 -28.5 83.499 -28.5
c24.667 0 47.5 6.33301 68.5 19s34.833 28.667 41.5 48c2 -20 8.66699 -35.333 20 -46s23.333 -17.667 36 -21zM263.001 400.001c0 -17.333 -3.33301 -32.666 -10 -45.999s-15.167 -24.5 -25.5 -33.5s-21.833 -15.667 -34.5 -20s-25 -6.5 -37 -6.5
c-24.667 0 -45.667 7.16699 -63 21.5s-26 33.166 -26 56.499c0 27.333 8.5 47.833 25.5 61.5s37.833 21.5 62.5 23.5l108 10v-67zM207.001 158.001c0 4.66699 -3.83301 10.834 -11.5 18.501s-13.834 11.5 -18.501 11.5s-10.834 -3.83301 -18.501 -11.5
s-11.5 -13.834 -11.5 -18.501s3.83301 -10.834 11.5 -18.501s13.834 -11.5 18.501 -11.5s10.834 3.83301 18.501 11.5s11.5 13.834 11.5 18.501z" />
    <glyph glyph-name="guillemotleft" unicode="&#xab;" horiz-adv-x="351" 
d="M299 128c-9.33301 17.333 -19.166 34.3311 -29.499 50.998s-21.5 32.334 -33.5 47.001c12 14.667 23.167 30.334 33.5 47.001s20.166 33.667 29.499 51l-7 17c-14.667 -20.667 -30.667 -40 -48 -58s-34.333 -33.333 -51 -46c-5.33301 -4 -8 -7.66699 -8 -11
s2.66699 -7 8 -11c16.667 -12.667 33.667 -28 51 -46s33.333 -37.333 48 -58zM147 127.998c-9.33301 17.333 -19 34.3311 -29 50.998s-21 32.334 -33 47.001c12 14.667 23 30.334 33 47.001s19.667 33.667 29 51l-7 17c-14.667 -20.667 -30.667 -40 -48 -58
s-34.333 -33.333 -51 -46c-5.33301 -4 -8 -7.66699 -8 -11s2.66699 -7 8 -11c16.667 -12.667 33.667 -28 51 -46s33.333 -37.333 48 -58z" />
    <glyph glyph-name="logicalnot" unicode="&#xac;" horiz-adv-x="517" 
d="M449 152v139h-400v-28h370v-111h30z" />
    <glyph glyph-name="registered" unicode="&#xae;" horiz-adv-x="420" 
d="M381 478c0 24.667 -4.33301 47.5 -13 68.5s-20.834 39 -36.501 54s-33.834 26.667 -54.501 35s-43 12.5 -67 12.5c-23.333 0 -45.333 -4.16699 -66 -12.5s-38.834 -20 -54.501 -35s-28 -33 -37 -54s-13.5 -43.833 -13.5 -68.5s4.5 -47.334 13.5 -68.001
s21.333 -38.5 37 -53.5s33.834 -26.667 54.501 -35s42.667 -12.5 66 -12.5c24 0 46.333 4.16699 67 12.5s38.834 20 54.501 35s27.834 32.833 36.501 53.5s13 43.334 13 68.001zM359 478c0 -22.667 -3.66699 -43.167 -11 -61.5s-17.666 -34 -30.999 -47
s-29.166 -23 -47.499 -30s-38.166 -10.5 -59.499 -10.5s-41 3.5 -59 10.5s-33.667 17 -47 30s-23.833 28.667 -31.5 47s-11.5 38.833 -11.5 61.5c0 22 3.83301 42.167 11.5 60.5s18.167 34 31.5 47s29 23.167 47 30.5s37.667 11 59 11s41.166 -3.66699 59.499 -11
s34.166 -17.5 47.499 -30.5s23.666 -28.667 30.999 -47s11 -38.5 11 -60.5zM295 389l-58 81c10.667 4.66699 19.5 11.5 26.5 20.5s10.5 19.5 10.5 31.5c0 15.333 -5.5 28.5 -16.5 39.5s-25.833 16.5 -44.5 16.5h-56v-203h22v90h34l63 -87zM252 522
c0 -10 -3.83301 -18.5 -11.5 -25.5s-17.167 -10.5 -28.5 -10.5h-33v71h33c11.333 0 20.833 -3.33301 28.5 -10s11.5 -15 11.5 -25z" />
    <glyph glyph-name="macron" unicode="&#xaf;" 
d="M328 530v28h-156v-28h156z" />
    <glyph glyph-name="macron" unicode="&#x2c9;" 
d="M328 530v28h-156v-28h156z" />
    <glyph glyph-name="degree" unicode="&#xb0;" horiz-adv-x="281" 
d="M229 560c0 12 -2.33301 23.333 -7 34s-11 20 -19 28s-17.333 14.333 -28 19s-22 7 -34 7s-23.333 -2.33301 -34 -7s-20.167 -11 -28.5 -19s-14.833 -17.333 -19.5 -28s-7 -22 -7 -34s2.33301 -23.333 7 -34s11.167 -20 19.5 -28s17.833 -14.333 28.5 -19s22 -7 34 -7
s23.333 2.33301 34 7s20 11 28 19s14.333 17.333 19 28s7 22 7 34zM203 560c0 -17.333 -5.83301 -32.333 -17.5 -45s-26.5 -19 -44.5 -19s-32.833 6.33301 -44.5 19s-17.5 27.667 -17.5 45c0 18 5.83301 33 17.5 45s26.5 18 44.5 18s32.833 -6 44.5 -18s17.5 -27 17.5 -45z
" />
    <glyph glyph-name="plusminus" unicode="&#xb1;" horiz-adv-x="810" 
d="M780 10c-36 10 -53.999 37.002 -53.999 81.002v574c-16.667 12.667 -36.834 23.667 -60.501 33s-51.834 14 -84.501 14c-28 0 -54 -4.33301 -78 -13s-44 -22.334 -60 -41.001c-18.667 15.333 -40.5 28.166 -65.5 38.499s-54.833 15.5 -89.5 15.5
c-25.333 0 -48.833 -3.5 -70.5 -10.5s-40.5 -17.833 -56.5 -32.5s-28.5 -33.334 -37.5 -56.001s-13.5 -49.667 -13.5 -81v-79h-85v-27h85v-426h31v426h261v-426h31v426h130v27h-130v78c0 26.667 3.83301 49.834 11.5 69.501s18.334 35.667 32.001 48s29.5 21.5 47.5 27.5
s37.333 9 58 9c26 0 48.5 -3.66699 67.5 -11s34.167 -15 45.5 -23v-561c0 -28.667 5.5 -51 16.5 -67s26.833 -27.667 47.5 -35zM427.001 633.002c-8 -13.333 -14.166 -28.1689 -18.499 -44.502s-6.5 -35.166 -6.5 -56.499v-79h-261v78c0 26.667 3.83301 49.834 11.5 69.501
s18.167 35.667 31.5 48s29 21.5 47 27.5s37.333 9 58 9c30 0 56.667 -5.33301 80 -16s42.666 -22.667 57.999 -36z" />
    <glyph glyph-name="twosuperior" unicode="&#xb2;" horiz-adv-x="339" 
d="M292 246v22.9951h-199c57.333 49.333 102 96.5 134 141.5s48 85.167 48 120.5c0 36 -11.667 64.5 -35 85.5s-55 31.5 -95 31.5c-19.333 0 -37.166 -2.16699 -53.499 -6.5s-29.833 -9.5 -40.5 -15.5l9 -23c10.667 6.66699 23.167 11.834 37.5 15.501
s30.166 5.5 47.499 5.5c31.333 0 56.333 -7.66699 75 -23s28 -38.666 28 -69.999c0 -15.333 -3.66699 -32.166 -11 -50.499s-19 -38.666 -35 -60.999s-37.167 -47.166 -63.5 -74.499s-58.5 -57.333 -96.5 -90v-9h250z" />
    <glyph glyph-name="threesuperior" unicode="&#xb3;" horiz-adv-x="322" 
d="M277 366c0 28 -8.66797 51.835 -26.001 71.502s-38.666 32.167 -63.999 37.5c17.333 7.33301 31.333 18 42 32s16 30.333 16 49c0 25.333 -9.66699 47 -29 65s-45.666 27 -78.999 27c-15.333 0 -29.666 -2.16699 -42.999 -6.5s-25.666 -10.166 -36.999 -17.499l10 -23
c22 14.667 45.333 22 70 22c28 0 48.667 -7 62 -21s20 -29.667 20 -47c0 -18.667 -9 -35.167 -27 -49.5s-43 -23.833 -75 -28.5l10 -23c6 1.33301 11.167 2.16602 15.5 2.49902s9.16602 0.5 14.499 0.5c12 0 23.667 -2.33301 35 -7s21.333 -11 30 -19s15.5 -17.5 20.5 -28.5
s7.5 -22.833 7.5 -35.5c0 -30.667 -10.833 -55.334 -32.5 -74.001s-49.167 -28 -82.5 -28c-15.333 0 -30.5 2.5 -45.5 7.5s-28.833 11.833 -41.5 20.5l7 -33c9.33301 -5.33301 20.666 -10 33.999 -14s28.666 -6 45.999 -6c42.667 0 77 11.667 103 35s39 53.666 39 90.999z
" />
    <glyph glyph-name="acute" unicode="&#xb4;" 
d="M390 652c0 4 -2.66895 8.83301 -8.00195 14.5s-10 8.5 -14 8.5c-2 0 -4.5 -1.16699 -7.5 -3.5s-5.16699 -4.5 -6.5 -6.5c-15.333 -23.333 -34.166 -47 -56.499 -71s-45.833 -46 -70.5 -66l22 -10c26 17.333 50.833 36.333 74.5 57s44.834 43 63.501 67
c2 2.66699 3 6 3 10z" />
    <glyph glyph-name="mu" unicode="&#xb5;" horiz-adv-x="600" 
d="M562 148l-50.999 51.001v254h-472v-453h472v97c11.333 0 22.666 4.16699 33.999 12.5s17 21.166 17 38.499zM488.001 221.001l-171 171h171v-171zM240.001 392.001c0 -24.667 -8.66699 -45.667 -26 -63s-38.333 -26 -63 -26s-45.667 8.66699 -63 26s-26 38.333 -26 63
h178zM488.001 21.001h-426v294c9.33301 -10.667 21 -19.667 35 -27l391 -185v-82z" />
    <glyph glyph-name="mu" unicode="&#x3bc;" horiz-adv-x="600" 
d="M562 148l-50.999 51.001v254h-472v-453h472v97c11.333 0 22.666 4.16699 33.999 12.5s17 21.166 17 38.499zM488.001 221.001l-171 171h171v-171zM240.001 392.001c0 -24.667 -8.66699 -45.667 -26 -63s-38.333 -26 -63 -26s-45.667 8.66699 -63 26s-26 38.333 -26 63
h178zM488.001 21.001h-426v294c9.33301 -10.667 21 -19.667 35 -27l391 -185v-82z" />
    <glyph glyph-name="paragraph" unicode="&#xb6;" horiz-adv-x="319" 
d="M310 615l-0.000976562 28h-109c-21.333 0 -41.666 -3.16699 -60.999 -9.5s-36.5 -15.5 -51.5 -27.5s-27 -27.167 -36 -45.5s-13.5 -39.5 -13.5 -63.5s4.5 -45 13.5 -63s21 -32.833 36 -44.5s32.167 -20.5 51.5 -26.5s39.333 -9 60 -9h15v-406
c0 -88 -33.333 -140.333 -100 -157l21 -20c34 9.33301 60.833 28.833 80.5 58.5s29.5 68.167 29.5 115.5v670h64z" />
    <glyph glyph-name="periodcentered" unicode="&#xb7;" horiz-adv-x="174" 
d="M122 270c0 2.66699 -1.33301 6 -4 10s-5.83398 7.83301 -9.50098 11.5s-7.5 6.83398 -11.5 9.50098s-7.33301 4 -10 4s-6 -1.33301 -10 -4s-7.83301 -5.83398 -11.5 -9.50098s-6.83398 -7.5 -9.50098 -11.5s-4 -7.33301 -4 -10s1.33301 -6 4 -10
s5.83398 -7.83301 9.50098 -11.5s7.5 -6.83398 11.5 -9.50098s7.33301 -4 10 -4s6 1.33301 10 4s7.83301 5.83398 11.5 9.50098s6.83398 7.5 9.50098 11.5s4 7.33301 4 10z" />
    <glyph glyph-name="periodcentered" unicode="&#x22c5;" horiz-adv-x="174" 
d="M122 270c0 2.66699 -1.33301 6 -4 10s-5.83398 7.83301 -9.50098 11.5s-7.5 6.83398 -11.5 9.50098s-7.33301 4 -10 4s-6 -1.33301 -10 -4s-7.83301 -5.83398 -11.5 -9.50098s-6.83398 -7.5 -9.50098 -11.5s-4 -7.33301 -4 -10s1.33301 -6 4 -10
s5.83398 -7.83301 9.50098 -11.5s7.5 -6.83398 11.5 -9.50098s7.33301 -4 10 -4s6 1.33301 10 4s7.83301 5.83398 11.5 9.50098s6.83398 7.5 9.50098 11.5s4 7.33301 4 10z" />
    <glyph glyph-name="cedilla" unicode="&#xb8;" 
d="M335 -128c0 14 -2.66797 26.333 -8.00098 37s-12 19.5 -20 26.5s-16.833 12.5 -26.5 16.5s-19.167 6.33301 -28.5 7l16 44h-23l-16 -46c-1.33301 -4.66699 -1.33301 -9.16699 0 -13.5s5.66602 -6.5 12.999 -6.5c6 0 12.833 -1.16699 20.5 -3.5
s14.834 -6.16602 21.501 -11.499s12.334 -12 17.001 -20s7 -18 7 -30c0 -23.333 -7.5 -40.166 -22.5 -50.499s-31.167 -15.5 -48.5 -15.5c-11.333 0 -22.5 1.83301 -33.5 5.5s-21.5 9.16699 -31.5 16.5l-7 -24c10.667 -8 22.167 -13.667 34.5 -17s24.833 -5 37.5 -5
c12 0 23.833 1.83301 35.5 5.5s22.167 9.16699 31.5 16.5s16.833 16.666 22.5 27.999s8.5 24.666 8.5 39.999z" />
    <glyph glyph-name="onesuperior" unicode="&#xb9;" horiz-adv-x="240" 
d="M151 247v401l-98 -7l-7 -25l78 6v-375h27z" />
    <glyph glyph-name="ordmasculine" unicode="&#xba;" horiz-adv-x="457" 
d="M418 458c0 26.667 -4.83301 51.667 -14.5 75s-23 43.5 -40 60.5s-37.167 30.333 -60.5 40s-48.333 14.5 -75 14.5c-27.333 0 -52.5 -4.83301 -75.5 -14.5s-42.833 -23 -59.5 -40s-29.834 -37.167 -39.501 -60.5s-14.5 -48.333 -14.5 -75
c0 -27.333 4.83301 -52.333 14.5 -75s22.834 -42.5 39.501 -59.5s36.5 -30.167 59.5 -39.5s48.167 -14 75.5 -14c26.667 0 51.667 4.66699 75 14s43.5 22.5 60.5 39.5s30.333 36.833 40 59.5s14.5 47.667 14.5 75zM390 458c0 -24 -4.16699 -46 -12.5 -66
s-19.666 -37.167 -33.999 -51.5s-31.5 -25.666 -51.5 -33.999s-41.333 -12.5 -64 -12.5c-23.333 0 -44.666 4.16699 -63.999 12.5s-36.333 19.666 -51 33.999s-26 31.5 -34 51.5s-12 42 -12 66c0 23.333 4 45.166 12 65.499s19.333 37.833 34 52.5s31.667 26.167 51 34.5
s40.666 12.5 63.999 12.5c22.667 0 44 -4.16699 64 -12.5s37.167 -19.833 51.5 -34.5s25.666 -32.167 33.999 -52.5s12.5 -42.166 12.5 -65.499zM258 158c0 4.66699 -3.83301 10.834 -11.5 18.501s-13.834 11.5 -18.501 11.5s-10.834 -3.83301 -18.501 -11.5
s-11.5 -13.834 -11.5 -18.501s3.83301 -10.834 11.5 -18.501s13.834 -11.5 18.501 -11.5s10.834 3.83301 18.501 11.5s11.5 13.834 11.5 18.501z" />
    <glyph glyph-name="guillemotright" unicode="&#xbb;" horiz-adv-x="351" 
d="M318 226c0 1.33301 -1 3.17188 -3 5.50488s-4 4.16602 -6 5.49902c-16.667 12.667 -33.5 28 -50.5 46s-32.833 37.333 -47.5 58l-7 -17c9.33301 -17.333 19 -34.333 29 -51s21 -32.334 33 -47.001c-12 -14.667 -23 -30.334 -33 -47.001s-19.667 -33.667 -29 -51l7 -17
c14.667 20.667 30.5 40 47.5 58s33.833 33.333 50.5 46c2 1.33301 4 3.16602 6 5.49902s3 4.16602 3 5.49902zM166 226.006c0 1.33301 -1 3.17188 -3 5.50488s-4 4.16602 -6 5.49902c-16.667 12.667 -33.5 28 -50.5 46s-32.833 37.333 -47.5 58l-7 -17
c9.33301 -17.333 19 -34.333 29 -51s21 -32.334 33 -47.001c-12 -14.667 -23 -30.334 -33 -47.001s-19.667 -33.667 -29 -51l7 -17c14.667 20.667 30.5 40 47.5 58s33.833 33.333 50.5 46c2 1.33301 4 3.16602 6 5.49902s3 4.16602 3 5.49902z" />
    <glyph glyph-name="onequarter" unicode="&#xbc;" horiz-adv-x="693" 
d="M637 115v24h-55v258h-18l-200 -262l7 -20h184v-115h27v115h55zM557 353c-0.666992 -12 -1.16699 -24 -1.5 -36s-0.5 -23.667 -0.5 -35v-143h-160l108 142l27.5 36.5c9 12.333 17.167 24.5 24.5 36.5zM601 635l-17 14l-522 -646l17 -15zM151 247v401l-98 -7l-7 -25l78 6
v-375h27z" />
    <glyph glyph-name="onehalf" unicode="&#xbd;" horiz-adv-x="768" 
d="M713 0v23.9971h-199c57.333 49.333 102 96.333 134 141s48 84.667 48 120c0 36 -11.667 64.5 -35 85.5s-55 31.5 -95 31.5c-19.333 0 -37.166 -2.16699 -53.499 -6.5s-29.833 -9.5 -40.5 -15.5l9 -22c21.333 13.333 49.666 20 84.999 20c31.333 0 56.333 -7.5 75 -22.5
s28 -38.167 28 -69.5c0 -15.333 -3.66699 -32.166 -11 -50.499s-19 -38.666 -35 -60.999s-37.167 -47.166 -63.5 -74.499s-58.5 -57.333 -96.5 -90v-10h250zM601 634.997l-17 14l-522 -646l17 -15zM151 246.997v401l-98 -7l-7 -25l78 6v-375h27z" />
    <glyph glyph-name="threequarters" unicode="&#xbe;" horiz-adv-x="755" 
d="M704 115v24h-54v258h-18l-201 -262l8 -20h184v-115h27v115h54zM625 353c-0.666992 -12 -1.16699 -24 -1.5 -36s-0.5 -23.667 -0.5 -35v-143h-160l108 142l27.5 36.5c9 12.333 17.167 24.5 24.5 36.5zM669 635l-17 14l-522 -646l16 -15zM277 366
c0 28 -8.66797 51.835 -26.001 71.502s-38.666 32.167 -63.999 37.5c17.333 7.33301 31.333 18 42 32s16 30.333 16 49c0 25.333 -9.66699 47 -29 65s-45.666 27 -78.999 27c-15.333 0 -29.666 -2.16699 -42.999 -6.5s-25.666 -10.166 -36.999 -17.499l10 -23
c22 14.667 45.333 22 70 22c28 0 48.667 -7 62 -21s20 -29.667 20 -47c0 -18.667 -9 -35.167 -27 -49.5s-43 -23.833 -75 -28.5l10 -23c6 1.33301 11.167 2.16602 15.5 2.49902s9.16602 0.5 14.499 0.5c12 0 23.667 -2.33301 35 -7s21.333 -11 30 -19s15.5 -17.5 20.5 -28.5
s7.5 -22.833 7.5 -35.5c0 -30.667 -10.833 -55.334 -32.5 -74.001s-49.167 -28 -82.5 -28c-15.333 0 -30.5 2.5 -45.5 7.5s-28.833 11.833 -41.5 20.5l7 -33c9.33301 -5.33301 20.666 -10 33.999 -14s28.666 -6 45.999 -6c42.667 0 77 11.667 103 35s39 53.666 39 90.999z
" />
    <glyph glyph-name="questiondown" unicode="&#xbf;" horiz-adv-x="374" 
d="M237 613c0 2.66699 -1.33301 6 -4 10s-5.83398 7.83301 -9.50098 11.5s-7.5 6.83398 -11.5 9.50098s-7.33301 4 -10 4s-6 -1.33301 -10 -4s-7.83301 -5.83398 -11.5 -9.50098s-6.83398 -7.5 -9.50098 -11.5s-4 -7.33301 -4 -10s1.33301 -6 4 -10
s5.83398 -7.83301 9.50098 -11.5s7.5 -6.83398 11.5 -9.50098s7.33301 -4 10 -4s6 1.33301 10 4s7.83301 5.83398 11.5 9.50098s6.83398 7.5 9.50098 11.5s4 7.33301 4 10zM331 27l-8.99805 28.001c-14 -10.667 -31.5 -19.167 -52.5 -25.5s-43.167 -9.5 -66.5 -9.5
c-18 0 -34.333 3 -49 9s-27.5 14.167 -38.5 24.5s-19.5 22.666 -25.5 36.999s-9 30.166 -9 47.499c0 14 2.33301 27.333 7 40s10.667 24.834 18 36.501s15.666 22.667 24.999 33s19 20.166 29 29.499c20 19.333 35.667 41 47 65s17 52 17 84
c0 9.33301 -0.666992 19.833 -2 31.5s-3 21.167 -5 28.5l-30 9c2 -10 3.66699 -21.333 5 -34s2 -23.667 2 -33c0 -27.333 -4.5 -51.166 -13.5 -71.499s-23.167 -39.833 -42.5 -58.5c-11.333 -11.333 -22.333 -23 -33 -35s-20.334 -24.5 -29.001 -37.5
s-15.5 -26.667 -20.5 -41s-7.5 -29.5 -7.5 -45.5c0 -22.667 3.83301 -43 11.5 -61s18.5 -33.333 32.5 -46s30.5 -22.5 49.5 -29.5s39.5 -10.5 61.5 -10.5c28 0 53 3.5 75 10.5s39.667 15.167 53 24.5z" />
    <glyph glyph-name="Agrave" unicode="&#xc0;" horiz-adv-x="580" 
d="M547 0l-250 647h-13l-251 -647h33l76 196h295l76 -196h34zM426 225h-273l94 243l21.5 59c7 20 13.833 40.667 20.5 62h2l20.5 -62.5l21.5 -59.5zM351 729c-24.667 20 -48.168 41.833 -70.501 65.5s-41.166 47.167 -56.499 70.5c-1.33301 2 -3.5 4.16699 -6.5 6.5
s-5.5 3.5 -7.5 3.5c-4 0 -9 -3 -15 -9s-9 -11 -9 -15c0 -2.66699 1.33301 -6 4 -10c18.667 -23.333 39.667 -45.333 63 -66s48 -39.667 74 -57z" />
    <glyph glyph-name="Aacute" unicode="&#xc1;" horiz-adv-x="580" 
d="M547 0l-250 647h-13l-251 -647h33l76 196h295l76 -196h34zM426 225h-273l94 243l21.5 59c7 20 13.833 40.667 20.5 62h2l20.5 -62.5l21.5 -59.5zM392 852c0 4 -2.66895 8.83301 -8.00195 14.5s-10 8.5 -14 8.5c-2 0 -4.5 -1.16699 -7.5 -3.5s-5.16699 -4.5 -6.5 -6.5
c-15.333 -23.333 -34.166 -47 -56.499 -71s-45.833 -46 -70.5 -66l22 -10c26 17.333 50.833 36.333 74.5 57s44.834 43 63.501 67c2 2.66699 3 6 3 10z" />
    <glyph glyph-name="Acircumflex" unicode="&#xc2;" horiz-adv-x="580" 
d="M547 0l-250 647h-13l-251 -647h33l76 196h295l76 -196h34zM426 225h-273l94 243l21.5 59c7 20 13.833 40.667 20.5 62h2l20.5 -62.5l21.5 -59.5zM433 729c-24.667 20 -48.167 41.833 -70.5 65.5s-41.166 47.167 -56.499 70.5c-1.33301 2 -3.5 4.16699 -6.5 6.5
s-5.5 3.5 -7.5 3.5s-4.5 -1.16699 -7.5 -3.5s-5.16699 -4.5 -6.5 -6.5c-15.333 -23.333 -34.166 -47 -56.499 -71s-45.833 -46 -70.5 -66l22 -10c21.333 14.667 41.833 30.334 61.5 47.001s38.167 34.667 55.5 54c17.333 -19.333 36.166 -37.333 56.499 -54
s41.166 -32.334 62.499 -47.001z" />
    <glyph glyph-name="Atilde" unicode="&#xc3;" horiz-adv-x="580" 
d="M547 0l-250 647h-13l-251 -647h33l76 196h295l76 -196h34zM426 225h-273l94 243l21.5 59c7 20 13.833 40.667 20.5 62h2l20.5 -62.5l21.5 -59.5zM435 821l-21 10c-4 -5.33301 -9.16699 -11.666 -15.5 -18.999s-12.833 -14.333 -19.5 -21s-13.167 -12.334 -19.5 -17.001
s-11.5 -7 -15.5 -7s-10.333 2.66699 -19 8l-28 18c-10 6.66699 -20 12.667 -30 18s-18.667 8 -26 8c-6 0 -12.667 -2.83301 -20 -8.5s-15 -12.834 -23 -21.501s-16 -18.5 -24 -29.5s-15 -21.833 -21 -32.5l21 -10c4 5.33301 9.16699 11.666 15.5 18.999
s12.833 14.333 19.5 21s13.167 12.334 19.5 17.001s11.5 7 15.5 7s10.333 -2.66699 19 -8l28 -18c10 -6.66699 20 -12.667 30 -18s18.667 -8 26 -8c6 0 12.667 2.83301 20 8.5s15 12.834 23 21.501s16 18.5 24 29.5s15 21.833 21 32.5z" />
    <glyph glyph-name="Adieresis" unicode="&#xc4;" horiz-adv-x="580" 
d="M547 0l-250 647h-13l-251 -647h33l76 196h295l76 -196h34zM426 225h-273l94 243l21.5 59c7 20 13.833 40.667 20.5 62h2l20.5 -62.5l21.5 -59.5zM391 759c0 4.66699 -3.83301 10.834 -11.5 18.501s-13.834 11.5 -18.501 11.5s-10.834 -3.83301 -18.501 -11.5
s-11.5 -13.834 -11.5 -18.501s3.83301 -10.834 11.5 -18.501s13.834 -11.5 18.501 -11.5s10.834 3.83301 18.501 11.5s11.5 13.834 11.5 18.501zM249 759c0 4.66699 -3.83301 10.834 -11.5 18.501s-13.834 11.5 -18.501 11.5s-10.834 -3.83301 -18.501 -11.5
s-11.5 -13.834 -11.5 -18.501s3.83301 -10.834 11.5 -18.501s13.834 -11.5 18.501 -11.5s10.834 3.83301 18.501 11.5s11.5 13.834 11.5 18.501z" />
    <glyph glyph-name="Aring" unicode="&#xc5;" horiz-adv-x="580" 
d="M547 0l-250 647h-13l-251 -647h33l76 196h295l76 -196h34zM426 225h-273l94 243l21.5 59c7 20 13.833 40.667 20.5 62h2l20.5 -62.5l21.5 -59.5zM380 797c0 12 -2.33301 23.333 -7 34s-11.167 20 -19.5 28s-17.833 14.333 -28.5 19s-22 7 -34 7s-23.333 -2.33301 -34 -7
s-20.167 -11 -28.5 -19s-14.833 -17.333 -19.5 -28s-7 -22 -7 -34s2.33301 -23.333 7 -34s11.167 -20 19.5 -28s17.833 -14.333 28.5 -19s22 -7 34 -7s23.333 2.33301 34 7s20.167 11 28.5 19s14.833 17.333 19.5 28s7 22 7 34zM353 797
c0 -17.333 -5.83301 -32.166 -17.5 -44.499s-26.5 -18.5 -44.5 -18.5s-32.833 6.16699 -44.5 18.5s-17.5 27.166 -17.5 44.499c0 18 5.83301 33 17.5 45s26.5 18 44.5 18s32.833 -6 44.5 -18s17.5 -27 17.5 -45z" />
    <glyph glyph-name="AE" unicode="&#xc6;" horiz-adv-x="778" 
d="M769 0v29h-323v278h231v29h-231v273h287v29h-330l-370 -638h34l114 196h233v-196h355zM415 605c-0.666992 -21.333 -1 -42.667 -1 -64v-63v-253h-217l146 252l36 64.5c12 21.667 23.333 43.167 34 64.5z" />
    <glyph glyph-name="Ccedilla" unicode="&#xc7;" horiz-adv-x="603" 
d="M559 600c-22 12.667 -49.334 23.3359 -82.001 32.0029s-67.334 13 -104.001 13c-46 0 -89 -8.16699 -129 -24.5s-74.833 -39 -104.5 -68s-53 -63.5 -70 -103.5s-25.5 -83.333 -25.5 -130c0 -46 8.16699 -88.5 24.5 -127.5s38.666 -72.833 66.999 -101.5
s61.833 -51.5 100.5 -68.5s80 -26.5 124 -28.5l-13 -36c-1.33301 -4.66699 -1.33301 -9.16699 0 -13.5s5.66602 -6.5 12.999 -6.5c6.66699 0 13.834 -1.16699 21.501 -3.5s14.834 -6.16602 21.501 -11.499s12.167 -12 16.5 -20s6.5 -18 6.5 -30
c0 -23.333 -7.5 -40.166 -22.5 -50.499s-31.167 -15.5 -48.5 -15.5c-10.667 0 -21.667 1.83301 -33 5.5s-22 9.16699 -32 16.5l-7 -24c10.667 -8 22.167 -13.667 34.5 -17s24.833 -5 37.5 -5c12 0 23.833 1.83301 35.5 5.5s22.167 9.16699 31.5 16.5
s16.833 16.666 22.5 27.999s8.5 24.666 8.5 39.999c0 14 -2.5 26.333 -7.5 37s-11.5 19.5 -19.5 26.5s-17 12.5 -27 16.5s-19.667 6.33301 -29 7l13 34c36 1.33301 68 5.66602 96 12.999s50.333 16.333 67 27l6 35c-23.333 -14.667 -49.833 -26 -79.5 -34
s-62.5 -12 -98.5 -12c-41.333 0 -80.166 7.5 -116.499 22.5s-67.833 35.667 -94.5 62s-47.667 57.666 -63 93.999s-23 75.833 -23 118.5s7.66699 82.167 23 118.5s36.5 67.666 63.5 93.999s58.5 46.833 94.5 61.5s74.667 22 116 22c34.667 0 67.834 -4.5 99.501 -13.5
s57.167 -19.167 76.5 -30.5z" />
    <glyph glyph-name="Egrave" unicode="&#xc8;" horiz-adv-x="439" 
d="M429 0v29h-323v278h231v29h-231v273h287v29h-319v-638h355zM296 729c-24.667 20 -48.168 41.833 -70.501 65.5s-41.166 47.167 -56.499 70.5c-1.33301 2 -3.5 4.16699 -6.5 6.5s-5.5 3.5 -7.5 3.5c-4 0 -9 -3 -15 -9s-9 -11 -9 -15c0 -2.66699 1.33301 -6 4 -10
c18.667 -23.333 39.667 -45.333 63 -66s48 -39.667 74 -57z" />
    <glyph glyph-name="Eacute" unicode="&#xc9;" horiz-adv-x="439" 
d="M429 0v29h-323v278h231v29h-231v273h287v29h-319v-638h355zM354 852c0 4 -2.66895 8.83301 -8.00195 14.5s-10 8.5 -14 8.5c-2 0 -4.5 -1.16699 -7.5 -3.5s-5.16699 -4.5 -6.5 -6.5c-15.333 -23.333 -34.166 -47 -56.499 -71s-45.833 -46 -70.5 -66l22 -10
c26 17.333 50.833 36.333 74.5 57s44.834 43 63.501 67c2 2.66699 3 6 3 10z" />
    <glyph glyph-name="Ecircumflex" unicode="&#xca;" horiz-adv-x="439" 
d="M429 0v29h-323v278h231v29h-231v273h287v29h-319v-638h355zM384 729c-24.667 20 -48.167 41.833 -70.5 65.5s-41.166 47.167 -56.499 70.5c-1.33301 2 -3.5 4.16699 -6.5 6.5s-5.5 3.5 -7.5 3.5s-4.5 -1.16699 -7.5 -3.5s-5.16699 -4.5 -6.5 -6.5
c-15.333 -23.333 -34.166 -47 -56.499 -71s-45.833 -46 -70.5 -66l22 -10c21.333 14.667 41.833 30.334 61.5 47.001s38.167 34.667 55.5 54c17.333 -19.333 36.166 -37.333 56.499 -54s41.166 -32.334 62.499 -47.001z" />
    <glyph glyph-name="Edieresis" unicode="&#xcb;" horiz-adv-x="439" 
d="M429 0v29h-323v278h231v29h-231v273h287v29h-319v-638h355zM342 759c0 4.66699 -3.83301 10.834 -11.5 18.501s-13.834 11.5 -18.501 11.5s-10.834 -3.83301 -18.501 -11.5s-11.5 -13.834 -11.5 -18.501s3.83301 -10.834 11.5 -18.501s13.834 -11.5 18.501 -11.5
s10.834 3.83301 18.501 11.5s11.5 13.834 11.5 18.501zM200 759c0 4.66699 -3.83301 10.834 -11.5 18.501s-13.834 11.5 -18.501 11.5s-10.834 -3.83301 -18.501 -11.5s-11.5 -13.834 -11.5 -18.501s3.83301 -10.834 11.5 -18.501s13.834 -11.5 18.501 -11.5
s10.834 3.83301 18.501 11.5s11.5 13.834 11.5 18.501z" />
    <glyph glyph-name="Igrave" unicode="&#xcc;" horiz-adv-x="200" 
d="M116 0v638h-32v-638h32zM167 729c-24.667 20 -48.168 41.833 -70.501 65.5s-41.166 47.167 -56.499 70.5c-1.33301 2 -3.5 4.16699 -6.5 6.5s-5.5 3.5 -7.5 3.5c-4 0 -9 -3 -15 -9s-9 -11 -9 -15c0 -2.66699 1.33301 -6 4 -10c18.667 -23.333 39.667 -45.333 63 -66
s48 -39.667 74 -57z" />
    <glyph glyph-name="Iacute" unicode="&#xcd;" horiz-adv-x="200" 
d="M116 0v638h-32v-638h32zM200 852c0 4 -2.66895 8.83301 -8.00195 14.5s-10 8.5 -14 8.5c-2 0 -4.5 -1.16699 -7.5 -3.5s-5.16699 -4.5 -6.5 -6.5c-15.333 -23.333 -34.166 -47 -56.499 -71s-45.833 -46 -70.5 -66l22 -10c26 17.333 50.833 36.333 74.5 57
s44.834 43 63.501 67c2 2.66699 3 6 3 10z" />
    <glyph glyph-name="Icircumflex" unicode="&#xce;" horiz-adv-x="200" 
d="M116 0v638h-32v-638h32zM242 729c-24.667 20 -48.167 41.833 -70.5 65.5s-41.166 47.167 -56.499 70.5c-1.33301 2 -3.5 4.16699 -6.5 6.5s-5.5 3.5 -7.5 3.5s-4.5 -1.16699 -7.5 -3.5s-5.16699 -4.5 -6.5 -6.5c-15.333 -23.333 -34.166 -47 -56.499 -71
s-45.833 -46 -70.5 -66l22 -10c21.333 14.667 41.833 30.334 61.5 47.001s38.167 34.667 55.5 54c17.333 -19.333 36.166 -37.333 56.499 -54s41.166 -32.334 62.499 -47.001z" />
    <glyph glyph-name="Idieresis" unicode="&#xcf;" horiz-adv-x="200" 
d="M116 0v638h-32v-638h32zM200 759c0 4.66699 -3.83301 10.834 -11.5 18.501s-13.834 11.5 -18.501 11.5s-10.834 -3.83301 -18.501 -11.5s-11.5 -13.834 -11.5 -18.501s3.83301 -10.834 11.5 -18.501s13.834 -11.5 18.501 -11.5s10.834 3.83301 18.501 11.5
s11.5 13.834 11.5 18.501zM58 759c0 4.66699 -3.83301 10.834 -11.5 18.501s-13.834 11.5 -18.501 11.5s-10.834 -3.83301 -18.501 -11.5s-11.5 -13.834 -11.5 -18.501s3.83301 -10.834 11.5 -18.501s13.834 -11.5 18.501 -11.5s10.834 3.83301 18.501 11.5
s11.5 13.834 11.5 18.501z" />
    <glyph glyph-name="Eth" unicode="&#xd0;" horiz-adv-x="655" 
d="M611 319c0 50 -9.16699 94.6689 -27.5 134.002s-43.666 72.666 -75.999 99.999s-70.666 48.333 -114.999 63s-92.833 22 -145.5 22h-133v-303h-89v-27h89v-308h133c52.667 0 101.167 7.33301 145.5 22s82.666 35.667 114.999 63s57.666 60.666 75.999 99.999
s27.5 84 27.5 134zM578 319.002c0 -44.667 -8.16699 -84.833 -24.5 -120.5s-39.166 -66 -68.499 -91s-64.5 -44.167 -105.5 -57.5s-86.167 -20 -135.5 -20h-97v278h148l9 27h-157v274h97c49.333 0 94.5 -6.66699 135.5 -20s76.167 -32.5 105.5 -57.5
s52.166 -55.5 68.499 -91.5s24.5 -76.333 24.5 -121z" />
    <glyph glyph-name="Ntilde" unicode="&#xd1;" horiz-adv-x="681" 
d="M607 -5v643h-31v-386c0 -32 0.166992 -63 0.5 -93s0.833008 -61.667 1.5 -95l-2 -1l-77 95.5l-80 95.5l-322 384h-23v-638h31v390v101c0 32 -0.666992 63 -2 93l2 1l36 -45.5l41.5 -51l44.5 -53.5l44 -52l327 -388h9zM483 821l-21 10
c-4 -5.33301 -9.16699 -11.666 -15.5 -18.999s-12.833 -14.333 -19.5 -21s-13.167 -12.334 -19.5 -17.001s-11.5 -7 -15.5 -7s-10.333 2.66699 -19 8l-28 18c-10 6.66699 -20 12.667 -30 18s-18.667 8 -26 8c-6 0 -12.667 -2.83301 -20 -8.5s-15 -12.834 -23 -21.501
s-16 -18.5 -24 -29.5s-15 -21.833 -21 -32.5l21 -10c4 5.33301 9.16699 11.666 15.5 18.999s12.833 14.333 19.5 21s13.167 12.334 19.5 17.001s11.5 7 15.5 7s10.333 -2.66699 19 -8l28 -18c10 -6.66699 20 -12.667 30 -18s18.667 -8 26 -8c6 0 12.667 2.83301 20 8.5
s15 12.834 23 21.501s16 18.5 24 29.5s15 21.833 21 32.5z" />
    <glyph glyph-name="Ograve" unicode="&#xd2;" horiz-adv-x="747" 
d="M703 319c0 46.667 -8.5 90.167 -25.5 130.5s-40.333 75.166 -70 104.499s-64.5 52.333 -104.5 69s-83 25 -129 25s-89 -8.33301 -129 -25s-75 -39.667 -105 -69s-53.5 -64.166 -70.5 -104.499s-25.5 -83.833 -25.5 -130.5c0 -47.333 8.5 -91 25.5 -131
s40.5 -74.5 70.5 -103.5s65 -51.833 105 -68.5s83 -25 129 -25s89 8.33301 129 25s74.833 39.5 104.5 68.5s53 63.5 70 103.5s25.5 83.667 25.5 131zM670 319c0 -42.667 -7.66699 -82.334 -23 -119.001s-36.333 -68.334 -63 -95.001s-58 -47.5 -94 -62.5
s-74.667 -22.5 -116 -22.5s-80.166 7.5 -116.499 22.5s-67.833 35.833 -94.5 62.5s-47.667 58.334 -63 95.001s-23 76.334 -23 119.001s7.66699 82.334 23 119.001s36.333 68.334 63 95.001s58.167 47.5 94.5 62.5s75.166 22.5 116.499 22.5s80 -7.5 116 -22.5
s67.333 -35.833 94 -62.5s47.667 -58.334 63 -95.001s23 -76.334 23 -119.001zM428 729c-24.667 20 -48.168 41.833 -70.501 65.5s-41.166 47.167 -56.499 70.5c-1.33301 2 -3.5 4.16699 -6.5 6.5s-5.5 3.5 -7.5 3.5c-4 0 -9 -3 -15 -9s-9 -11 -9 -15
c0 -2.66699 1.33301 -6 4 -10c18.667 -23.333 39.667 -45.333 63 -66s48 -39.667 74 -57z" />
    <glyph glyph-name="Oacute" unicode="&#xd3;" horiz-adv-x="747" 
d="M703 319c0 46.667 -8.5 90.167 -25.5 130.5s-40.333 75.166 -70 104.499s-64.5 52.333 -104.5 69s-83 25 -129 25s-89 -8.33301 -129 -25s-75 -39.667 -105 -69s-53.5 -64.166 -70.5 -104.499s-25.5 -83.833 -25.5 -130.5c0 -47.333 8.5 -91 25.5 -131
s40.5 -74.5 70.5 -103.5s65 -51.833 105 -68.5s83 -25 129 -25s89 8.33301 129 25s74.833 39.5 104.5 68.5s53 63.5 70 103.5s25.5 83.667 25.5 131zM670 319c0 -42.667 -7.66699 -82.334 -23 -119.001s-36.333 -68.334 -63 -95.001s-58 -47.5 -94 -62.5
s-74.667 -22.5 -116 -22.5s-80.166 7.5 -116.499 22.5s-67.833 35.833 -94.5 62.5s-47.667 58.334 -63 95.001s-23 76.334 -23 119.001s7.66699 82.334 23 119.001s36.333 68.334 63 95.001s58.167 47.5 94.5 62.5s75.166 22.5 116.499 22.5s80 -7.5 116 -22.5
s67.333 -35.833 94 -62.5s47.667 -58.334 63 -95.001s23 -76.334 23 -119.001zM470 852c0 4 -2.66895 8.83301 -8.00195 14.5s-10 8.5 -14 8.5c-2 0 -4.5 -1.16699 -7.5 -3.5s-5.16699 -4.5 -6.5 -6.5c-15.333 -23.333 -34.166 -47 -56.499 -71s-45.833 -46 -70.5 -66
l22 -10c26 17.333 50.833 36.333 74.5 57s44.834 43 63.501 67c2 2.66699 3 6 3 10z" />
    <glyph glyph-name="Ocircumflex" unicode="&#xd4;" horiz-adv-x="747" 
d="M703 319c0 46.667 -8.5 90.167 -25.5 130.5s-40.333 75.166 -70 104.499s-64.5 52.333 -104.5 69s-83 25 -129 25s-89 -8.33301 -129 -25s-75 -39.667 -105 -69s-53.5 -64.166 -70.5 -104.499s-25.5 -83.833 -25.5 -130.5c0 -47.333 8.5 -91 25.5 -131
s40.5 -74.5 70.5 -103.5s65 -51.833 105 -68.5s83 -25 129 -25s89 8.33301 129 25s74.833 39.5 104.5 68.5s53 63.5 70 103.5s25.5 83.667 25.5 131zM670 319c0 -42.667 -7.66699 -82.334 -23 -119.001s-36.333 -68.334 -63 -95.001s-58 -47.5 -94 -62.5
s-74.667 -22.5 -116 -22.5s-80.166 7.5 -116.499 22.5s-67.833 35.833 -94.5 62.5s-47.667 58.334 -63 95.001s-23 76.334 -23 119.001s7.66699 82.334 23 119.001s36.333 68.334 63 95.001s58.167 47.5 94.5 62.5s75.166 22.5 116.499 22.5s80 -7.5 116 -22.5
s67.333 -35.833 94 -62.5s47.667 -58.334 63 -95.001s23 -76.334 23 -119.001zM515 729c-24.667 20 -48.167 41.833 -70.5 65.5s-41.166 47.167 -56.499 70.5c-1.33301 2 -3.5 4.16699 -6.5 6.5s-5.5 3.5 -7.5 3.5s-4.5 -1.16699 -7.5 -3.5s-5.16699 -4.5 -6.5 -6.5
c-15.333 -23.333 -34.166 -47 -56.499 -71s-45.833 -46 -70.5 -66l22 -10c21.333 14.667 41.833 30.334 61.5 47.001s38.167 34.667 55.5 54c17.333 -19.333 36.166 -37.333 56.499 -54s41.166 -32.334 62.499 -47.001z" />
    <glyph glyph-name="Otilde" unicode="&#xd5;" horiz-adv-x="747" 
d="M703 319c0 46.667 -8.5 90.167 -25.5 130.5s-40.333 75.166 -70 104.499s-64.5 52.333 -104.5 69s-83 25 -129 25s-89 -8.33301 -129 -25s-75 -39.667 -105 -69s-53.5 -64.166 -70.5 -104.499s-25.5 -83.833 -25.5 -130.5c0 -47.333 8.5 -91 25.5 -131
s40.5 -74.5 70.5 -103.5s65 -51.833 105 -68.5s83 -25 129 -25s89 8.33301 129 25s74.833 39.5 104.5 68.5s53 63.5 70 103.5s25.5 83.667 25.5 131zM670 319c0 -42.667 -7.66699 -82.334 -23 -119.001s-36.333 -68.334 -63 -95.001s-58 -47.5 -94 -62.5
s-74.667 -22.5 -116 -22.5s-80.166 7.5 -116.499 22.5s-67.833 35.833 -94.5 62.5s-47.667 58.334 -63 95.001s-23 76.334 -23 119.001s7.66699 82.334 23 119.001s36.333 68.334 63 95.001s58.167 47.5 94.5 62.5s75.166 22.5 116.499 22.5s80 -7.5 116 -22.5
s67.333 -35.833 94 -62.5s47.667 -58.334 63 -95.001s23 -76.334 23 -119.001zM520 821l-21 10c-4 -5.33301 -9.16699 -11.666 -15.5 -18.999s-12.833 -14.333 -19.5 -21s-13.167 -12.334 -19.5 -17.001s-11.5 -7 -15.5 -7s-10.333 2.66699 -19 8l-28 18
c-10 6.66699 -20 12.667 -30 18s-18.667 8 -26 8c-6 0 -12.667 -2.83301 -20 -8.5s-15 -12.834 -23 -21.501s-16 -18.5 -24 -29.5s-15 -21.833 -21 -32.5l21 -10c4 5.33301 9.16699 11.666 15.5 18.999s12.833 14.333 19.5 21s13.167 12.334 19.5 17.001s11.5 7 15.5 7
s10.333 -2.66699 19 -8l28 -18c10 -6.66699 20 -12.667 30 -18s18.667 -8 26 -8c6 0 12.667 2.83301 20 8.5s15 12.834 23 21.501s16 18.5 24 29.5s15 21.833 21 32.5z" />
    <glyph glyph-name="Odieresis" unicode="&#xd6;" horiz-adv-x="747" 
d="M703 319c0 46.667 -8.5 90.167 -25.5 130.5s-40.333 75.166 -70 104.499s-64.5 52.333 -104.5 69s-83 25 -129 25s-89 -8.33301 -129 -25s-75 -39.667 -105 -69s-53.5 -64.166 -70.5 -104.499s-25.5 -83.833 -25.5 -130.5c0 -47.333 8.5 -91 25.5 -131
s40.5 -74.5 70.5 -103.5s65 -51.833 105 -68.5s83 -25 129 -25s89 8.33301 129 25s74.833 39.5 104.5 68.5s53 63.5 70 103.5s25.5 83.667 25.5 131zM670 319c0 -42.667 -7.66699 -82.334 -23 -119.001s-36.333 -68.334 -63 -95.001s-58 -47.5 -94 -62.5
s-74.667 -22.5 -116 -22.5s-80.166 7.5 -116.499 22.5s-67.833 35.833 -94.5 62.5s-47.667 58.334 -63 95.001s-23 76.334 -23 119.001s7.66699 82.334 23 119.001s36.333 68.334 63 95.001s58.167 47.5 94.5 62.5s75.166 22.5 116.499 22.5s80 -7.5 116 -22.5
s67.333 -35.833 94 -62.5s47.667 -58.334 63 -95.001s23 -76.334 23 -119.001zM475 759c0 4.66699 -3.83301 10.834 -11.5 18.501s-13.834 11.5 -18.501 11.5s-10.834 -3.83301 -18.501 -11.5s-11.5 -13.834 -11.5 -18.501s3.83301 -10.834 11.5 -18.501
s13.834 -11.5 18.501 -11.5s10.834 3.83301 18.501 11.5s11.5 13.834 11.5 18.501zM333 759c0 4.66699 -3.83301 10.834 -11.5 18.501s-13.834 11.5 -18.501 11.5s-10.834 -3.83301 -18.501 -11.5s-11.5 -13.834 -11.5 -18.501s3.83301 -10.834 11.5 -18.501
s13.834 -11.5 18.501 -11.5s10.834 3.83301 18.501 11.5s11.5 13.834 11.5 18.501z" />
    <glyph glyph-name="multiply" unicode="&#xd7;" horiz-adv-x="485" 
d="M398 138l-134 135l133 133l-19 18l-133 -133l-135 135l-18 -19l134 -135l-135 -135l19 -18l135 135l133 -134z" />
    <glyph glyph-name="Oslash" unicode="&#xd8;" horiz-adv-x="747" 
d="M703 319c0 51.333 -10 98.332 -30 140.999s-47.333 79 -82 109l59 73l-19 15l-59 -73c-28 20 -58.5 35.667 -91.5 47s-68.5 17 -106.5 17c-46 0 -89 -8.33301 -129 -25s-75 -39.667 -105 -69s-53.5 -64.166 -70.5 -104.499s-25.5 -83.833 -25.5 -130.5
c0 -51.333 10.167 -98.333 30.5 -141s47.833 -79 82.5 -109l-61 -75l19 -16l61 76c28 -20 58.5 -35.5 91.5 -46.5s68.5 -16.5 106.5 -16.5c46 0 89 8.33301 129 25s74.833 39.5 104.5 68.5s53 63.5 70 103.5s25.5 83.667 25.5 131zM670 318.999
c0 -42.667 -7.66797 -82.332 -23.001 -118.999s-36.333 -68.334 -63 -95.001s-58 -47.5 -94 -62.5s-74.667 -22.5 -116 -22.5c-34 0 -66.167 5 -96.5 15s-57.833 24.333 -82.5 43l376 467c30.667 -27.333 54.834 -60.333 72.501 -99s26.5 -81 26.5 -127zM552.999 560.001
l-376.998 -467.002c-30.667 27.333 -54.834 60.333 -72.501 99s-26.5 81 -26.5 127c0 42.667 7.66699 82.334 23 119.001s36.333 68.334 63 95.001s58.167 47.5 94.5 62.5s75.166 22.5 116.499 22.5c34 0 66.167 -5 96.5 -15s57.833 -24.333 82.5 -43z" />
    <glyph glyph-name="Ugrave" unicode="&#xd9;" horiz-adv-x="620" 
d="M547 216l0.000976562 422h-33v-420c0 -32.667 -5 -61.334 -15 -86.001s-24 -45.334 -42 -62.001s-39.5 -29.167 -64.5 -37.5s-52.5 -12.5 -82.5 -12.5s-57.5 4.16699 -82.5 12.5s-46.5 20.833 -64.5 37.5s-32 37.334 -42 62.001s-15 53.334 -15 86.001v420h-32v-422
c0 -70.667 21 -125.834 63 -165.501s99.667 -59.5 173 -59.5s131.166 19.833 173.499 59.5s63.5 94.834 63.5 165.501zM370.001 729c-24.667 20 -48.168 41.833 -70.501 65.5s-41.166 47.167 -56.499 70.5c-1.33301 2 -3.5 4.16699 -6.5 6.5s-5.5 3.5 -7.5 3.5
c-4 0 -9 -3 -15 -9s-9 -11 -9 -15c0 -2.66699 1.33301 -6 4 -10c18.667 -23.333 39.667 -45.333 63 -66s48 -39.667 74 -57z" />
    <glyph glyph-name="Uacute" unicode="&#xda;" horiz-adv-x="620" 
d="M547 216l0.000976562 422h-33v-420c0 -32.667 -5 -61.334 -15 -86.001s-24 -45.334 -42 -62.001s-39.5 -29.167 -64.5 -37.5s-52.5 -12.5 -82.5 -12.5s-57.5 4.16699 -82.5 12.5s-46.5 20.833 -64.5 37.5s-32 37.334 -42 62.001s-15 53.334 -15 86.001v420h-32v-422
c0 -70.667 21 -125.834 63 -165.501s99.667 -59.5 173 -59.5s131.166 19.833 173.499 59.5s63.5 94.834 63.5 165.501zM413.001 852c0 4 -2.66895 8.83301 -8.00195 14.5s-10 8.5 -14 8.5c-2 0 -4.5 -1.16699 -7.5 -3.5s-5.16699 -4.5 -6.5 -6.5
c-15.333 -23.333 -34.166 -47 -56.499 -71s-45.833 -46 -70.5 -66l22 -10c26 17.333 50.833 36.333 74.5 57s44.834 43 63.501 67c2 2.66699 3 6 3 10z" />
    <glyph glyph-name="Ucircumflex" unicode="&#xdb;" horiz-adv-x="620" 
d="M547 216l0.000976562 422h-33v-420c0 -32.667 -5 -61.334 -15 -86.001s-24 -45.334 -42 -62.001s-39.5 -29.167 -64.5 -37.5s-52.5 -12.5 -82.5 -12.5s-57.5 4.16699 -82.5 12.5s-46.5 20.833 -64.5 37.5s-32 37.334 -42 62.001s-15 53.334 -15 86.001v420h-32v-422
c0 -70.667 21 -125.834 63 -165.501s99.667 -59.5 173 -59.5s131.166 19.833 173.499 59.5s63.5 94.834 63.5 165.501zM453.001 729c-24.667 20 -48.167 41.833 -70.5 65.5s-41.166 47.167 -56.499 70.5c-1.33301 2 -3.5 4.16699 -6.5 6.5s-5.5 3.5 -7.5 3.5
s-4.5 -1.16699 -7.5 -3.5s-5.16699 -4.5 -6.5 -6.5c-15.333 -23.333 -34.166 -47 -56.499 -71s-45.833 -46 -70.5 -66l22 -10c21.333 14.667 41.833 30.334 61.5 47.001s38.167 34.667 55.5 54c17.333 -19.333 36.166 -37.333 56.499 -54s41.166 -32.334 62.499 -47.001z
" />
    <glyph glyph-name="Udieresis" unicode="&#xdc;" horiz-adv-x="620" 
d="M547 216l0.000976562 422h-33v-420c0 -32.667 -5 -61.334 -15 -86.001s-24 -45.334 -42 -62.001s-39.5 -29.167 -64.5 -37.5s-52.5 -12.5 -82.5 -12.5s-57.5 4.16699 -82.5 12.5s-46.5 20.833 -64.5 37.5s-32 37.334 -42 62.001s-15 53.334 -15 86.001v420h-32v-422
c0 -70.667 21 -125.834 63 -165.501s99.667 -59.5 173 -59.5s131.166 19.833 173.499 59.5s63.5 94.834 63.5 165.501zM414.001 759c0 4.66699 -3.83301 10.834 -11.5 18.501s-13.834 11.5 -18.501 11.5s-10.834 -3.83301 -18.501 -11.5s-11.5 -13.834 -11.5 -18.501
s3.83301 -10.834 11.5 -18.501s13.834 -11.5 18.501 -11.5s10.834 3.83301 18.501 11.5s11.5 13.834 11.5 18.501zM272.001 759c0 4.66699 -3.83301 10.834 -11.5 18.501s-13.834 11.5 -18.501 11.5s-10.834 -3.83301 -18.501 -11.5s-11.5 -13.834 -11.5 -18.501
s3.83301 -10.834 11.5 -18.501s13.834 -11.5 18.501 -11.5s10.834 3.83301 18.501 11.5s11.5 13.834 11.5 18.501z" />
    <glyph glyph-name="Yacute" unicode="&#xdd;" horiz-adv-x="585" 
d="M552 638h-37.001l-149 -210l-37.5 -53l-35.5 -53h-2c-11.333 18 -23.166 35.833 -35.499 53.5l-36.5 52.5l-148 210h-38l242 -342v-296h33v296zM401.999 852c0 4 -2.66895 8.83301 -8.00195 14.5s-10 8.5 -14 8.5c-2 0 -4.5 -1.16699 -7.5 -3.5s-5.16699 -4.5 -6.5 -6.5
c-15.333 -23.333 -34.166 -47 -56.499 -71s-45.833 -46 -70.5 -66l22 -10c26 17.333 50.833 36.333 74.5 57s44.834 43 63.501 67c2 2.66699 3 6 3 10z" />
    <glyph glyph-name="Thorn" unicode="&#xde;" horiz-adv-x="456" 
d="M417 398c0 23.333 -4.49902 45.168 -13.499 65.501s-21.5 38 -37.5 53s-35.167 26.667 -57.5 35s-46.833 12.5 -73.5 12.5h-129v78h-32v-642h32v233h138c24 0 46.667 4.16699 68 12.5s39.666 19.833 54.999 34.5s27.5 32.167 36.5 52.5s13.5 42.166 13.5 65.499z
M384.001 398.002c0 -20 -3.83594 -38.333 -11.5029 -55s-18 -31 -31 -43s-28.167 -21.333 -45.5 -28s-35.666 -10 -54.999 -10h-135v273h126c21.333 0 41.333 -3.33301 60 -10s34.834 -16.167 48.501 -28.5s24.334 -26.833 32.001 -43.5s11.5 -35 11.5 -55z" />
    <glyph glyph-name="germandbls" unicode="&#xdf;" horiz-adv-x="590" 
d="M550 111c0 36 -11.8311 64.9951 -35.498 86.9951s-56.167 40 -97.5 54c-28 10 -50.833 22.833 -68.5 38.5s-26.5 37.167 -26.5 64.5c0 28.667 12.667 49.834 38 63.501s62 20.5 110 20.5c7.33301 23.333 11 48 11 74c0 24.667 -3.83301 49 -11.5 73
s-19.5 45.333 -35.5 64s-36.167 33.667 -60.5 45s-52.833 17 -85.5 17c-25.333 0 -48.833 -3.5 -70.5 -10.5s-40.5 -17.833 -56.5 -32.5s-28.5 -33.334 -37.5 -56.001s-13.5 -49.667 -13.5 -81v-79h-85v-27h85v-426h31v531c0 26.667 3.83301 49.834 11.5 69.501
s18.167 35.667 31.5 48s29 21.5 47 27.5s37 9 57 9c28 0 52.167 -5 72.5 -15s37.166 -23.167 50.499 -39.5s23.166 -34.666 29.499 -54.999s9.5 -40.5 9.5 -60.5c0 -20.667 -2 -37.334 -6 -50.001c-46 0 -82.833 -9.66699 -110.5 -29s-41.5 -46.666 -41.5 -81.999
c0 -34.667 10.667 -62.167 32 -82.5s51.333 -37.166 90 -50.499c31.333 -11.333 56.833 -25.666 76.5 -42.999s29.5 -40 29.5 -68c0 -15.333 -3 -28.666 -9 -39.999s-14.333 -20.833 -25 -28.5s-22.834 -13.5 -36.501 -17.5s-27.834 -6 -42.501 -6
c-28 0 -51.667 4.5 -71 13.5s-37.666 20.5 -54.999 34.5v-33c13.333 -11.333 30.333 -21.166 51 -29.499s45.334 -12.5 74.001 -12.5c20 0 38.667 2.66699 56 8s32.5 13.166 45.5 23.499s23.333 22.833 31 37.5s11.5 31.667 11.5 51z" />
    <glyph glyph-name="agrave" unicode="&#xe0;" horiz-adv-x="432" 
d="M412 11c-14 2.66699 -27.8379 10.5 -41.5049 23.5s-20.5 32.167 -20.5 57.5v235c0 20.667 -4 39.5 -12 56.5s-19.167 31.167 -33.5 42.5s-31.333 20.166 -51 26.499s-40.834 9.5 -63.501 9.5c-26 0 -49.5 -3.16699 -70.5 -9.5s-38.5 -14.5 -52.5 -24.5l8 -27
c12.667 9.33301 29 17.333 49 24s41.667 10 65 10c37.333 0 68.333 -9.33301 93 -28s37 -46.334 37 -83.001v-58l-135 -13c-19.333 -2 -37.666 -5.83301 -54.999 -11.5s-32.666 -14 -45.999 -25s-24 -24.667 -32 -41s-12 -35.5 -12 -57.5
c0 -19.333 3.66699 -36.666 11 -51.999s17.333 -28.666 30 -39.999s27.834 -20 45.501 -26s36.834 -9 57.501 -9c16 0 31.667 2.33301 47 7s29.333 11.167 42 19.5s23.334 18 32.001 29s14.334 23.167 17.001 36.5c0.666992 -28 8.5 -49.5 23.5 -64.5
s30.5 -24.167 46.5 -27.5zM318.995 152c0 -22 -4.16602 -41.334 -12.499 -58.001s-19 -30.667 -32 -42s-27.5 -19.833 -43.5 -25.5s-31.667 -8.5 -47 -8.5c-32.667 0 -59.834 8.83301 -81.501 26.5s-32.5 41.834 -32.5 72.501c0 34 11.167 59.833 33.5 77.5
s50.5 28.167 84.5 31.5l131 12v-86zM246.996 541.999c-21.333 16.667 -41.333 35.167 -60 55.5s-34.667 40.166 -48 59.499c-1.33301 2 -3.33301 4 -6 6s-4.66699 3 -6 3c-3.33301 0 -7.5 -2.66699 -12.5 -8s-7.5 -9.66602 -7.5 -12.999s1 -6 3 -8
c16 -20.667 34 -39.5 54 -56.5s41 -33.167 63 -48.5z" />
    <glyph glyph-name="aacute" unicode="&#xe1;" horiz-adv-x="432" 
d="M412 11c-14 2.66699 -27.8379 10.5 -41.5049 23.5s-20.5 32.167 -20.5 57.5v235c0 20.667 -4 39.5 -12 56.5s-19.167 31.167 -33.5 42.5s-31.333 20.166 -51 26.499s-40.834 9.5 -63.501 9.5c-26 0 -49.5 -3.16699 -70.5 -9.5s-38.5 -14.5 -52.5 -24.5l8 -27
c12.667 9.33301 29 17.333 49 24s41.667 10 65 10c37.333 0 68.333 -9.33301 93 -28s37 -46.334 37 -83.001v-58l-135 -13c-19.333 -2 -37.666 -5.83301 -54.999 -11.5s-32.666 -14 -45.999 -25s-24 -24.667 -32 -41s-12 -35.5 -12 -57.5
c0 -19.333 3.66699 -36.666 11 -51.999s17.333 -28.666 30 -39.999s27.834 -20 45.501 -26s36.834 -9 57.501 -9c16 0 31.667 2.33301 47 7s29.333 11.167 42 19.5s23.334 18 32.001 29s14.334 23.167 17.001 36.5c0.666992 -28 8.5 -49.5 23.5 -64.5
s30.5 -24.167 46.5 -27.5zM318.995 152c0 -22 -4.16602 -41.334 -12.499 -58.001s-19 -30.667 -32 -42s-27.5 -19.833 -43.5 -25.5s-31.667 -8.5 -47 -8.5c-32.667 0 -59.834 8.83301 -81.501 26.5s-32.5 41.834 -32.5 72.501c0 34 11.167 59.833 33.5 77.5
s50.5 28.167 84.5 31.5l131 12v-86zM289.996 645.999c0 3.33301 -2.33203 7.49902 -6.99902 12.499s-8.66699 7.5 -12 7.5c-1.33301 0 -3.33301 -1 -6 -3s-4.66699 -4 -6 -6c-13.333 -19.333 -29.333 -39.166 -48 -59.499s-38.667 -39.166 -60 -56.499l19 -9
c22 15.333 43.167 31.666 63.5 48.999s38.166 36.333 53.499 57c2 2 3 4.66699 3 8z" />
    <glyph glyph-name="acircumflex" unicode="&#xe2;" horiz-adv-x="432" 
d="M412 11c-14 2.66699 -27.8379 10.5 -41.5049 23.5s-20.5 32.167 -20.5 57.5v235c0 20.667 -4 39.5 -12 56.5s-19.167 31.167 -33.5 42.5s-31.333 20.166 -51 26.499s-40.834 9.5 -63.501 9.5c-26 0 -49.5 -3.16699 -70.5 -9.5s-38.5 -14.5 -52.5 -24.5l8 -27
c12.667 9.33301 29 17.333 49 24s41.667 10 65 10c37.333 0 68.333 -9.33301 93 -28s37 -46.334 37 -83.001v-58l-135 -13c-19.333 -2 -37.666 -5.83301 -54.999 -11.5s-32.666 -14 -45.999 -25s-24 -24.667 -32 -41s-12 -35.5 -12 -57.5
c0 -19.333 3.66699 -36.666 11 -51.999s17.333 -28.666 30 -39.999s27.834 -20 45.501 -26s36.834 -9 57.501 -9c16 0 31.667 2.33301 47 7s29.333 11.167 42 19.5s23.334 18 32.001 29s14.334 23.167 17.001 36.5c0.666992 -28 8.5 -49.5 23.5 -64.5
s30.5 -24.167 46.5 -27.5zM318.995 152c0 -22 -4.16602 -41.334 -12.499 -58.001s-19 -30.667 -32 -42s-27.5 -19.833 -43.5 -25.5s-31.667 -8.5 -47 -8.5c-32.667 0 -59.834 8.83301 -81.501 26.5s-32.5 41.834 -32.5 72.501c0 34 11.167 59.833 33.5 77.5
s50.5 28.167 84.5 31.5l131 12v-86zM325.996 541.999c-21.333 16.667 -41.333 35.166 -60 55.499s-34.667 40.166 -48 59.499c-1.33301 2 -3.33301 4 -6 6s-4.66699 3 -6 3s-3.33301 -1 -6 -3s-4.66699 -4 -6 -6c-13.333 -19.333 -29.333 -39.166 -48 -59.499
s-38.667 -39.166 -60 -56.499l19 -9c18 12.667 35.5 26.167 52.5 40.5s32.5 29.5 46.5 45.5c14.667 -16 30.667 -31.167 48 -45.5s35 -27.833 53 -40.5z" />
    <glyph glyph-name="atilde" unicode="&#xe3;" horiz-adv-x="432" 
d="M412 11c-14 2.66699 -27.8379 10.5 -41.5049 23.5s-20.5 32.167 -20.5 57.5v235c0 20.667 -4 39.5 -12 56.5s-19.167 31.167 -33.5 42.5s-31.333 20.166 -51 26.499s-40.834 9.5 -63.501 9.5c-26 0 -49.5 -3.16699 -70.5 -9.5s-38.5 -14.5 -52.5 -24.5l8 -27
c12.667 9.33301 29 17.333 49 24s41.667 10 65 10c37.333 0 68.333 -9.33301 93 -28s37 -46.334 37 -83.001v-58l-135 -13c-19.333 -2 -37.666 -5.83301 -54.999 -11.5s-32.666 -14 -45.999 -25s-24 -24.667 -32 -41s-12 -35.5 -12 -57.5
c0 -19.333 3.66699 -36.666 11 -51.999s17.333 -28.666 30 -39.999s27.834 -20 45.501 -26s36.834 -9 57.501 -9c16 0 31.667 2.33301 47 7s29.333 11.167 42 19.5s23.334 18 32.001 29s14.334 23.167 17.001 36.5c0.666992 -28 8.5 -49.5 23.5 -64.5
s30.5 -24.167 46.5 -27.5zM318.995 152c0 -22 -4.16602 -41.334 -12.499 -58.001s-19 -30.667 -32 -42s-27.5 -19.833 -43.5 -25.5s-31.667 -8.5 -47 -8.5c-32.667 0 -59.834 8.83301 -81.501 26.5s-32.5 41.834 -32.5 72.501c0 34 11.167 59.833 33.5 77.5
s50.5 28.167 84.5 31.5l131 12v-86zM330.996 619.999l-17.999 8c-3.33301 -4.66699 -7.66602 -10 -12.999 -16s-10.833 -11.833 -16.5 -17.5s-11.167 -10.5 -16.5 -14.5s-10 -6 -14 -6c-3.33301 0 -8.66602 2.33301 -15.999 7l-24 15l-25.5 15
c-8.33301 4.66699 -15.5 7 -21.5 7c-5.33301 0 -11.166 -2.33301 -17.499 -7s-12.833 -10.834 -19.5 -18.501s-13.334 -16.167 -20.001 -25.5s-12.667 -18.333 -18 -27l18 -9c3.33301 4.66699 7.66602 10.167 12.999 16.5s10.666 12.333 15.999 18s10.666 10.5 15.999 14.5
s10 6 14 6c3.33301 0 8.66602 -2.33301 15.999 -7l24 -15c8.66699 -5.33301 17.334 -10.333 26.001 -15s16 -7 22 -7c4.66699 0 10.167 2.33301 16.5 7s13 10.834 20 18.501s13.833 16 20.5 25s12.667 18.167 18 27.5z" />
    <glyph glyph-name="adieresis" unicode="&#xe4;" horiz-adv-x="432" 
d="M412 11c-14 2.66699 -27.8379 10.5 -41.5049 23.5s-20.5 32.167 -20.5 57.5v235c0 20.667 -4 39.5 -12 56.5s-19.167 31.167 -33.5 42.5s-31.333 20.166 -51 26.499s-40.834 9.5 -63.501 9.5c-26 0 -49.5 -3.16699 -70.5 -9.5s-38.5 -14.5 -52.5 -24.5l8 -27
c12.667 9.33301 29 17.333 49 24s41.667 10 65 10c37.333 0 68.333 -9.33301 93 -28s37 -46.334 37 -83.001v-58l-135 -13c-19.333 -2 -37.666 -5.83301 -54.999 -11.5s-32.666 -14 -45.999 -25s-24 -24.667 -32 -41s-12 -35.5 -12 -57.5
c0 -19.333 3.66699 -36.666 11 -51.999s17.333 -28.666 30 -39.999s27.834 -20 45.501 -26s36.834 -9 57.501 -9c16 0 31.667 2.33301 47 7s29.333 11.167 42 19.5s23.334 18 32.001 29s14.334 23.167 17.001 36.5c0.666992 -28 8.5 -49.5 23.5 -64.5
s30.5 -24.167 46.5 -27.5zM318.995 152c0 -22 -4.16602 -41.334 -12.499 -58.001s-19 -30.667 -32 -42s-27.5 -19.833 -43.5 -25.5s-31.667 -8.5 -47 -8.5c-32.667 0 -59.834 8.83301 -81.501 26.5s-32.5 41.834 -32.5 72.501c0 34 11.167 59.833 33.5 77.5
s50.5 28.167 84.5 31.5l131 12v-86zM286.996 566.999c0 4 -3.16699 9.33301 -9.5 16s-11.5 10 -15.5 10s-9.33301 -3.33301 -16 -10s-10 -12 -10 -16s3.33301 -9.16699 10 -15.5s12 -9.5 16 -9.5s9.16699 3.16699 15.5 9.5s9.5 11.5 9.5 15.5zM165.996 566.999
c0 4 -3.16699 9.33301 -9.5 16s-11.5 10 -15.5 10s-9.33301 -3.33301 -16 -10s-10 -12 -10 -16s3.33301 -9.16699 10 -15.5s12 -9.5 16 -9.5s9.16699 3.16699 15.5 9.5s9.5 11.5 9.5 15.5z" />
    <glyph glyph-name="aring" unicode="&#xe5;" horiz-adv-x="432" 
d="M412 11c-14 2.66699 -27.8379 10.5 -41.5049 23.5s-20.5 32.167 -20.5 57.5v235c0 20.667 -4 39.5 -12 56.5s-19.167 31.167 -33.5 42.5s-31.333 20.166 -51 26.499s-40.834 9.5 -63.501 9.5c-26 0 -49.5 -3.16699 -70.5 -9.5s-38.5 -14.5 -52.5 -24.5l8 -27
c12.667 9.33301 29 17.333 49 24s41.667 10 65 10c37.333 0 68.333 -9.33301 93 -28s37 -46.334 37 -83.001v-58l-135 -13c-19.333 -2 -37.666 -5.83301 -54.999 -11.5s-32.666 -14 -45.999 -25s-24 -24.667 -32 -41s-12 -35.5 -12 -57.5
c0 -19.333 3.66699 -36.666 11 -51.999s17.333 -28.666 30 -39.999s27.834 -20 45.501 -26s36.834 -9 57.501 -9c16 0 31.667 2.33301 47 7s29.333 11.167 42 19.5s23.334 18 32.001 29s14.334 23.167 17.001 36.5c0.666992 -28 8.5 -49.5 23.5 -64.5
s30.5 -24.167 46.5 -27.5zM318.995 152c0 -22 -4.16602 -41.334 -12.499 -58.001s-19 -30.667 -32 -42s-27.5 -19.833 -43.5 -25.5s-31.667 -8.5 -47 -8.5c-32.667 0 -59.834 8.83301 -81.501 26.5s-32.5 41.834 -32.5 72.501c0 34 11.167 59.833 33.5 77.5
s50.5 28.167 84.5 31.5l131 12v-86zM274.996 598.999c0 20.667 -7.5 38.334 -22.5 53.001s-32.833 22 -53.5 22s-38.5 -7.33301 -53.5 -22s-22.5 -32.334 -22.5 -53.001c0 -20 7.5 -37.333 22.5 -52s32.833 -22 53.5 -22s38.5 7.33301 53.5 22s22.5 32 22.5 52z
M251.996 598.999c0 -15.333 -5 -28 -15 -38s-22.667 -15 -38 -15s-28 5 -38 15s-15 22.667 -15 38s5 28.166 15 38.499s22.667 15.5 38 15.5s28 -5.16699 38 -15.5s15 -23.166 15 -38.499z" />
    <glyph glyph-name="ae" unicode="&#xe6;" horiz-adv-x="740" 
d="M701 283c0 23.333 -4.1709 45.832 -12.5039 67.499s-20.5 40.667 -36.5 57s-35.833 29.5 -59.5 39.5s-50.834 15 -81.501 15c-34 0 -66.333 -8.83301 -97 -26.5s-54.667 -41.5 -72 -71.5c-4 17.333 -11 32.166 -21 44.499s-21.667 22.5 -35 30.5s-28.333 13.833 -45 17.5
s-33.667 5.5 -51 5.5c-26 0 -49.5 -3.16699 -70.5 -9.5s-38.5 -14.5 -52.5 -24.5l8 -27c12.667 9.33301 29 17.333 49 24s41.667 10 65 10c36 0 66.5 -9 91.5 -27s37.833 -45 38.5 -81c-4 -10 -7.66699 -20.167 -11 -30.5s-5.66602 -21.166 -6.99902 -32.499l-117 -11
c-19.333 -2 -37.666 -5.83301 -54.999 -11.5s-32.666 -14 -45.999 -25s-24 -24.667 -32 -41s-12 -35.5 -12 -57.5c0 -19.333 3.66699 -36.666 11 -51.999s17.333 -28.666 30 -39.999s27.834 -20 45.501 -26s36.834 -9 57.501 -9c14 0 28.833 1.83301 44.5 5.5
s30.667 9.83398 45 18.501s27.166 20 38.499 34s20 31.333 26 52c8 -16 18.667 -30.833 32 -44.5s28.5 -25.334 45.5 -35.001s35.5 -17.167 55.5 -22.5s40.667 -8 62 -8c28.667 0 53.5 2.83301 74.5 8.5s39.167 14.167 54.5 25.5l5 34
c-17.333 -12 -36.833 -21.667 -58.5 -29s-45.834 -11 -72.501 -11c-31.333 0 -60.166 6 -86.499 18s-48.5 28 -66.5 48s-31.667 43.167 -41 69.5s-12.666 54.166 -9.99902 83.499h346l22 22c0.666992 3.33301 1.16699 7 1.5 11s0.5 8 0.5 12zM669.996 282.999
c0 -8.66699 -0.333008 -14.667 -1 -18h-335c2 20 8 40.167 18 60.5s22.667 38.666 38 54.999s33.333 29.5 54 39.5s43 15 67 15c26.667 0 50 -4.33301 70 -13s36.5 -20.167 49.5 -34.5s22.833 -30.666 29.5 -48.999s10 -36.833 10 -55.5zM316.996 130.999
c-2.66699 -18.667 -8.49902 -34.999 -17.499 -48.999s-19.667 -25.833 -32 -35.5s-25.833 -16.834 -40.5 -21.501s-29 -7 -43 -7c-32.667 0 -59.834 8.83301 -81.501 26.5s-32.5 41.834 -32.5 72.501c0 34 11.167 59.833 33.5 77.5s50.5 28.167 84.5 31.5l111 10
c-0.666992 -18 0.333008 -35.833 3 -53.5s7.66699 -34.834 15 -51.501z" />
    <glyph glyph-name="ccedilla" unicode="&#xe7;" horiz-adv-x="452" 
d="M412 422c-16 10 -36.001 18.5059 -60.001 25.5059s-50 10.5 -78 10.5c-34.667 0 -66.5 -5.66699 -95.5 -17s-53.833 -27.333 -74.5 -48s-36.667 -45 -48 -73s-17 -59 -17 -93s5.66699 -65 17 -93s27 -52.167 47 -72.5s43.833 -36.333 71.5 -48
s57.834 -17.834 90.501 -18.501l-11 -32c-1.33301 -3.33301 -1.33301 -7 0 -11s5 -6 11 -6c5.33301 0 11.166 -1 17.499 -3s12.333 -5.16699 18 -9.5s10.5 -10 14.5 -17s6 -15.5 6 -25.5c0 -20 -6.5 -34.333 -19.5 -43s-26.833 -13 -41.5 -13
c-9.33301 0 -18.666 1.5 -27.999 4.5s-18.333 7.83301 -27 14.5l-6 -21c9.33301 -6.66699 19.166 -11.334 29.499 -14.001s20.833 -4 31.5 -4c10 0 20 1.5 30 4.5s19 7.66699 27 14s14.5 14.166 19.5 23.499s7.5 20.666 7.5 33.999c0 12 -2.16699 22.5 -6.5 31.5
s-10 16.5 -17 22.5s-14.667 10.667 -23 14s-16.5 5.33301 -24.5 6l11 30c23.333 0.666992 44.833 3 64.5 7s36.5 10.333 50.5 19l6 33c-18.667 -11.333 -38.5 -19.5 -59.5 -24.5s-44.5 -7.5 -70.5 -7.5c-30.667 0 -58.667 5.33301 -84 16s-47 25.167 -65 43.5
s-31.833 40 -41.5 65s-14.5 51.833 -14.5 80.5s4.83301 55.5 14.5 80.5s23.5 46.667 41.5 65s39.5 32.666 64.5 42.999s53.167 15.5 84.5 15.5c24 0 47.833 -3.83301 71.5 -11.5s42.834 -16.834 57.501 -27.501z" />
    <glyph glyph-name="egrave" unicode="&#xe8;" horiz-adv-x="481" 
d="M441 283c0 23.333 -4.16699 45.8359 -12.5 67.5029s-20.5 40.667 -36.5 57s-35.833 29.5 -59.5 39.5s-50.834 15 -81.501 15c-28 0 -54.833 -5.83301 -80.5 -17.5s-48.167 -27.834 -67.5 -48.501s-34.833 -45.5 -46.5 -74.5s-17.5 -60.5 -17.5 -94.5
c0 -34.667 6 -66.334 18 -95.001s28.5 -53.5 49.5 -74.5s45.833 -37.333 74.5 -49s59.334 -17.5 92.001 -17.5c28.667 0 53.334 2.83301 74.001 8.5s38.667 14.167 54 25.5l5 34c-17.333 -12 -36.833 -21.667 -58.5 -29s-45.834 -11 -72.501 -11c-31.333 0 -60 6 -86 18
s-48.167 28 -66.5 48s-32 43.167 -41 69.5s-12.167 54.166 -9.5 83.499h346l22 22c0.666992 3.33301 1 7 1 11v12zM410 283.003c0 -8.66699 -0.333984 -14.667 -1.00098 -18h-335c2 20 8 40.167 18 60.5s22.833 38.666 38.5 54.999s33.834 29.5 54.501 39.5s43 15 67 15
c26.667 0 50 -4.33301 70 -13s36.5 -20.167 49.5 -34.5s22.667 -30.666 29 -48.999s9.5 -36.833 9.5 -55.5zM298.999 541.003c-21.333 17.333 -41.3311 36.167 -59.998 56.5s-34.667 40.166 -48 59.499c-1.33301 2 -3.33301 4 -6 6s-4.66699 3 -6 3
c-3.33301 0 -7.5 -2.66699 -12.5 -8s-7.5 -9.66602 -7.5 -12.999s1 -6 3 -8c15.333 -20.667 33.166 -39.5 53.499 -56.5s41.166 -33.167 62.499 -48.5z" />
    <glyph glyph-name="eacute" unicode="&#xe9;" horiz-adv-x="481" 
d="M441 283c0 23.333 -4.16699 45.8359 -12.5 67.5029s-20.5 40.667 -36.5 57s-35.833 29.5 -59.5 39.5s-50.834 15 -81.501 15c-28 0 -54.833 -5.83301 -80.5 -17.5s-48.167 -27.834 -67.5 -48.501s-34.833 -45.5 -46.5 -74.5s-17.5 -60.5 -17.5 -94.5
c0 -34.667 6 -66.334 18 -95.001s28.5 -53.5 49.5 -74.5s45.833 -37.333 74.5 -49s59.334 -17.5 92.001 -17.5c28.667 0 53.334 2.83301 74.001 8.5s38.667 14.167 54 25.5l5 34c-17.333 -12 -36.833 -21.667 -58.5 -29s-45.834 -11 -72.501 -11c-31.333 0 -60 6 -86 18
s-48.167 28 -66.5 48s-32 43.167 -41 69.5s-12.167 54.166 -9.5 83.499h346l22 22c0.666992 3.33301 1 7 1 11v12zM410 283.003c0 -8.66699 -0.333984 -14.667 -1.00098 -18h-335c2 20 8 40.167 18 60.5s22.833 38.666 38.5 54.999s33.834 29.5 54.501 39.5s43 15 67 15
c26.667 0 50 -4.33301 70 -13s36.5 -20.167 49.5 -34.5s22.667 -30.666 29 -48.999s9.5 -36.833 9.5 -55.5zM347.999 646.003c0 3.33301 -2.33203 7.49902 -6.99902 12.499s-8.66699 7.5 -12 7.5c-1.33301 0 -3.33301 -1 -6 -3s-4.66699 -4 -6 -6
c-13.333 -19.333 -29.333 -39.166 -48 -59.499s-38.667 -39.166 -60 -56.499l19 -9c22 15.333 43.167 31.666 63.5 48.999s38.166 36 53.499 56c2 2.66699 3 5.66699 3 9z" />
    <glyph glyph-name="ecircumflex" unicode="&#xea;" horiz-adv-x="481" 
d="M441 283c0 23.333 -4.16699 45.8359 -12.5 67.5029s-20.5 40.667 -36.5 57s-35.833 29.5 -59.5 39.5s-50.834 15 -81.501 15c-28 0 -54.833 -5.83301 -80.5 -17.5s-48.167 -27.834 -67.5 -48.501s-34.833 -45.5 -46.5 -74.5s-17.5 -60.5 -17.5 -94.5
c0 -34.667 6 -66.334 18 -95.001s28.5 -53.5 49.5 -74.5s45.833 -37.333 74.5 -49s59.334 -17.5 92.001 -17.5c28.667 0 53.334 2.83301 74.001 8.5s38.667 14.167 54 25.5l5 34c-17.333 -12 -36.833 -21.667 -58.5 -29s-45.834 -11 -72.501 -11c-31.333 0 -60 6 -86 18
s-48.167 28 -66.5 48s-32 43.167 -41 69.5s-12.167 54.166 -9.5 83.499h346l22 22c0.666992 3.33301 1 7 1 11v12zM410 283.003c0 -8.66699 -0.333984 -14.667 -1.00098 -18h-335c2 20 8 40.167 18 60.5s22.833 38.666 38.5 54.999s33.834 29.5 54.501 39.5s43 15 67 15
c26.667 0 50 -4.33301 70 -13s36.5 -20.167 49.5 -34.5s22.667 -30.666 29 -48.999s9.5 -36.833 9.5 -55.5zM376.999 542.003c-21.333 16.667 -41.334 35.166 -60.001 55.499s-34.667 40.166 -48 59.499c-1.33301 2 -3.33301 4 -6 6s-4.66699 3 -6 3s-3.33301 -1 -6 -3
s-4.66699 -4 -6 -6c-13.333 -19.333 -29.333 -39.166 -48 -59.499s-38.667 -39.166 -60 -56.499l19 -9c18 12.667 35.333 26.167 52 40.5s32.334 29.5 47.001 45.5c14.667 -16 30.667 -31.167 48 -45.5s35 -27.833 53 -40.5z" />
    <glyph glyph-name="edieresis" unicode="&#xeb;" horiz-adv-x="481" 
d="M441 283c0 23.333 -4.16699 45.8359 -12.5 67.5029s-20.5 40.667 -36.5 57s-35.833 29.5 -59.5 39.5s-50.834 15 -81.501 15c-28 0 -54.833 -5.83301 -80.5 -17.5s-48.167 -27.834 -67.5 -48.501s-34.833 -45.5 -46.5 -74.5s-17.5 -60.5 -17.5 -94.5
c0 -34.667 6 -66.334 18 -95.001s28.5 -53.5 49.5 -74.5s45.833 -37.333 74.5 -49s59.334 -17.5 92.001 -17.5c28.667 0 53.334 2.83301 74.001 8.5s38.667 14.167 54 25.5l5 34c-17.333 -12 -36.833 -21.667 -58.5 -29s-45.834 -11 -72.501 -11c-31.333 0 -60 6 -86 18
s-48.167 28 -66.5 48s-32 43.167 -41 69.5s-12.167 54.166 -9.5 83.499h346l22 22c0.666992 3.33301 1 7 1 11v12zM410 283.003c0 -8.66699 -0.333984 -14.667 -1.00098 -18h-335c2 20 8 40.167 18 60.5s22.833 38.666 38.5 54.999s33.834 29.5 54.501 39.5s43 15 67 15
c26.667 0 50 -4.33301 70 -13s36.5 -20.167 49.5 -34.5s22.667 -30.666 29 -48.999s9.5 -36.833 9.5 -55.5zM340.999 567.003c0 4 -3.16699 9.33301 -9.5 16s-11.5 10 -15.5 10s-9.33301 -3.33301 -16 -10s-10 -12 -10 -16s3.33301 -9.16699 10 -15.5s12 -9.5 16 -9.5
s9.16699 3.16699 15.5 9.5s9.5 11.5 9.5 15.5zM220.999 567.003c0 4 -3.33301 9.33301 -10 16s-12 10 -16 10c-3.33301 0 -8.33301 -3.33301 -15 -10s-10 -12 -10 -16s3.33301 -9.16699 10 -15.5s11.667 -9.5 15 -9.5c4 0 9.33301 3.16699 16 9.5s10 11.5 10 15.5z" />
    <glyph glyph-name="igrave" unicode="&#xec;" horiz-adv-x="189" 
d="M110 0v453h-31v-453h31zM142 541c-21.333 17.333 -41.334 36.168 -60.001 56.501s-34.667 40.166 -48 59.499c-1.33301 2 -3.33301 4 -6 6s-4.66699 3 -6 3c-3.33301 0 -7.66602 -2.66699 -12.999 -8s-8 -9.66602 -8 -12.999c0 -2.66699 1.33301 -5.33398 4 -8.00098
c15.333 -20.667 33 -39.5 53 -56.5s41 -33.167 63 -48.5z" />
    <glyph glyph-name="iacute" unicode="&#xed;" horiz-adv-x="189" 
d="M110 0v453h-31v-453h31zM188 646c0 3.33301 -2.16699 7.49902 -6.5 12.499s-8.16602 7.5 -11.499 7.5c-1.33301 0 -3.33301 -1 -6 -3s-4.66699 -4 -6 -6c-13.333 -19.333 -29.333 -39.166 -48 -59.499s-38.667 -39.166 -60 -56.499l19 -9
c21.333 15.333 42.166 31.666 62.499 48.999s38.5 36 54.5 56c1.33301 2 2 5 2 9z" />
    <glyph glyph-name="icircumflex" unicode="&#xee;" horiz-adv-x="189" 
d="M110 0v453h-31v-453h31zM216 542c-21.333 16.667 -41.333 35.166 -60 55.499s-34.667 40.166 -48 59.499c-1.33301 2 -3.33301 4 -6 6s-4.66699 3 -6 3s-3.33301 -1 -6 -3s-4.66699 -4 -6 -6c-13.333 -19.333 -29.333 -39.166 -48 -59.499s-38.667 -39.166 -60 -56.499
l19 -9c38 25.333 71.333 54 100 86c14 -16 29.667 -31.167 47 -45.5s35.333 -27.833 54 -40.5z" />
    <glyph glyph-name="idieresis" unicode="&#xef;" horiz-adv-x="189" 
d="M110 0v453h-31v-453h31zM182 567c0 4 -3.33301 9.33301 -10 16s-12 10 -16 10s-9.16699 -3.33301 -15.5 -10s-9.5 -12 -9.5 -16s3.16699 -9.16699 9.5 -15.5s11.5 -9.5 15.5 -9.5s9.33301 3.16699 16 9.5s10 11.5 10 15.5zM61 567c0 4 -3.16699 9.33301 -9.5 16
s-11.5 10 -15.5 10s-9.33301 -3.33301 -16 -10s-10 -12 -10 -16s3.33301 -9.16699 10 -15.5s12 -9.5 16 -9.5s9.16699 3.16699 15.5 9.5s9.5 11.5 9.5 15.5z" />
    <glyph glyph-name="eth" unicode="&#xf0;" horiz-adv-x="489" 
d="M445 209c0 8.66699 -1.33301 18.999 -4 30.999s-6 24.833 -10 38.5s-8.66699 27.334 -14 41.001s-10.666 26.5 -15.999 38.5l-109 235l81 34l-11 23l-81 -34l-45 96h-34l51 -108l-92 -39l11 -22l92 38l74 -158c-10.667 -0.666992 -22.667 -2.16699 -36 -4.5
s-27 -5 -41 -8s-27.5 -6.16699 -40.5 -9.5s-24.5 -7 -34.5 -11c-42.667 -16 -77.834 -40.833 -105.501 -74.5s-41.5 -74.5 -41.5 -122.5c0 -29.333 5 -56.5 15 -81.5s23.833 -46.5 41.5 -64.5s38.5 -32.167 62.5 -42.5s50 -15.5 78 -15.5s54.667 4.5 80 13.5
s47.5 22.5 66.5 40.5s34.167 40.833 45.5 68.5s17 60.167 17 97.5zM414 208.999c0 -32 -5.00293 -60.002 -15.0029 -84.002s-23.333 -44 -40 -60s-35.667 -28 -57 -36s-43.333 -12 -66 -12s-44.167 4.16699 -64.5 12.5s-38 20.333 -53 36s-26.833 34.334 -35.5 56.001
s-13 45.5 -13 71.5c0 78.667 43.667 136 131 172c9.33301 4 20.333 7.66699 33 11s25.834 6.33301 39.501 9s27.167 4.83398 40.5 6.50098l37 4.5c8 -16 15.833 -32.5 23.5 -49.5s14.334 -33.667 20.001 -50s10.334 -32 14.001 -47s5.5 -28.5 5.5 -40.5z" />
    <glyph glyph-name="ntilde" unicode="&#xf1;" horiz-adv-x="489" 
d="M425 0l0.000976562 309.996c0 24 -4.5 45.5 -13.5 64.5s-21.333 35 -37 48s-34.167 22.833 -55.5 29.5s-44.333 10 -69 10c-23.333 0 -44.166 -2.5 -62.499 -7.5s-34 -11.667 -47 -20s-23.333 -17.666 -31 -27.999s-12.5 -20.833 -14.5 -31.5h-1v78h-30v-453h31v308
c0 20.667 4 38.834 12 54.501s18.833 28.834 32.5 39.501s29.667 18.834 48 24.501s38.166 8.5 59.499 8.5c43.333 0 78.666 -10.833 105.999 -32.5s41 -53.167 41 -94.5v-308h31zM371.001 619.996l-18.001 8c-3.33301 -4.66699 -7.66602 -10 -12.999 -16
s-10.833 -11.833 -16.5 -17.5s-11.167 -10.5 -16.5 -14.5s-10 -6 -14 -6c-3.33301 0 -8.5 2.33301 -15.5 7l-23.5 15c-8.66699 5.33301 -17.334 10.333 -26.001 15s-16 7 -22 7c-5.33301 0 -11.166 -2.33301 -17.499 -7s-12.833 -10.834 -19.5 -18.501
s-13.334 -16.167 -20.001 -25.5s-12.667 -18.333 -18 -27l18 -9c3.33301 4.66699 7.66602 10.167 12.999 16.5s10.833 12.333 16.5 18s11.167 10.5 16.5 14.5s9.66602 6 12.999 6s8.66602 -2.33301 15.999 -7l24 -15c8.66699 -5.33301 17.334 -10.333 26.001 -15
s16 -7 22 -7c4.66699 0 10.334 2.33301 17.001 7s13.334 10.834 20.001 18.501s13.334 16 20.001 25s12.667 18.167 18 27.5z" />
    <glyph glyph-name="ograve" unicode="&#xf2;" horiz-adv-x="551" 
d="M512 226c0 34 -6 65.333 -18 94s-28.667 53.5 -50 74.5s-46.333 37.5 -75 49.5s-60 18 -94 18s-65.333 -6 -94 -18s-53.5 -28.5 -74.5 -49.5s-37.5 -45.833 -49.5 -74.5s-18 -60 -18 -94s6 -65.333 18 -94s28.5 -53.5 49.5 -74.5s45.833 -37.333 74.5 -49
s60 -17.5 94 -17.5s65.333 5.83301 94 17.5s53.667 28 75 49s38 45.833 50 74.5s18 60 18 94zM481 226c0 -30 -5.16699 -57.667 -15.5 -83s-24.833 -47.166 -43.5 -65.499s-40.5 -32.833 -65.5 -43.5s-52.167 -16 -81.5 -16s-56.5 5.33301 -81.5 16s-46.667 25.167 -65 43.5
s-32.666 40.166 -42.999 65.499s-15.5 53 -15.5 83s5.16699 57.667 15.5 83s24.666 47.166 42.999 65.499s40 32.833 65 43.5s52.167 16 81.5 16s56.5 -5.33301 81.5 -16s46.833 -25.167 65.5 -43.5s33.167 -40.166 43.5 -65.499s15.5 -53 15.5 -83zM324 541
c-21.333 17.333 -41.333 36.167 -60 56.5s-34.667 40.166 -48 59.499c-1.33301 2 -3.33301 4 -6 6s-4.66699 3 -6 3c-3.33301 0 -7.5 -2.66699 -12.5 -8s-7.5 -9.66602 -7.5 -12.999s1 -6 3 -8c16 -20.667 34 -39.5 54 -56.5s41 -33.167 63 -48.5z" />
    <glyph glyph-name="oacute" unicode="&#xf3;" horiz-adv-x="551" 
d="M512 226c0 34 -6 65.333 -18 94s-28.667 53.5 -50 74.5s-46.333 37.5 -75 49.5s-60 18 -94 18s-65.333 -6 -94 -18s-53.5 -28.5 -74.5 -49.5s-37.5 -45.833 -49.5 -74.5s-18 -60 -18 -94s6 -65.333 18 -94s28.5 -53.5 49.5 -74.5s45.833 -37.333 74.5 -49
s60 -17.5 94 -17.5s65.333 5.83301 94 17.5s53.667 28 75 49s38 45.833 50 74.5s18 60 18 94zM481 226c0 -30 -5.16699 -57.667 -15.5 -83s-24.833 -47.166 -43.5 -65.499s-40.5 -32.833 -65.5 -43.5s-52.167 -16 -81.5 -16s-56.5 5.33301 -81.5 16s-46.667 25.167 -65 43.5
s-32.666 40.166 -42.999 65.499s-15.5 53 -15.5 83s5.16699 57.667 15.5 83s24.666 47.166 42.999 65.499s40 32.833 65 43.5s52.167 16 81.5 16s56.5 -5.33301 81.5 -16s46.833 -25.167 65.5 -43.5s33.167 -40.166 43.5 -65.499s15.5 -53 15.5 -83zM362 646
c0 3.33301 -2.33203 7.49902 -6.99902 12.499s-8.66699 7.5 -12 7.5c-1.33301 0 -3.33301 -1 -6 -3s-4.66699 -4 -6 -6c-13.333 -19.333 -29.333 -39.166 -48 -59.499s-38.667 -39.166 -60 -56.499l19 -9c22 15.333 43.167 31.666 63.5 48.999s38.166 36 53.499 56
c2 2.66699 3 5.66699 3 9z" />
    <glyph glyph-name="ocircumflex" unicode="&#xf4;" horiz-adv-x="551" 
d="M512 226c0 34 -6 65.333 -18 94s-28.667 53.5 -50 74.5s-46.333 37.5 -75 49.5s-60 18 -94 18s-65.333 -6 -94 -18s-53.5 -28.5 -74.5 -49.5s-37.5 -45.833 -49.5 -74.5s-18 -60 -18 -94s6 -65.333 18 -94s28.5 -53.5 49.5 -74.5s45.833 -37.333 74.5 -49
s60 -17.5 94 -17.5s65.333 5.83301 94 17.5s53.667 28 75 49s38 45.833 50 74.5s18 60 18 94zM481 226c0 -30 -5.16699 -57.667 -15.5 -83s-24.833 -47.166 -43.5 -65.499s-40.5 -32.833 -65.5 -43.5s-52.167 -16 -81.5 -16s-56.5 5.33301 -81.5 16s-46.667 25.167 -65 43.5
s-32.666 40.166 -42.999 65.499s-15.5 53 -15.5 83s5.16699 57.667 15.5 83s24.666 47.166 42.999 65.499s40 32.833 65 43.5s52.167 16 81.5 16s56.5 -5.33301 81.5 -16s46.833 -25.167 65.5 -43.5s33.167 -40.166 43.5 -65.499s15.5 -53 15.5 -83zM396 542
c-20.667 16.667 -40.334 35.166 -59.001 55.499s-34.667 40.166 -48 59.499c-1.33301 2 -3.33301 4 -6 6s-4.66699 3 -6 3c-2 0 -4.16699 -1 -6.5 -3s-4.16602 -4 -5.49902 -6c-13.333 -19.333 -29.333 -39.166 -48 -59.499s-38.667 -39.166 -60 -56.499l18 -9
c38 25.333 71.333 54 100 86c14 -16 29.833 -31.167 47.5 -45.5s35.5 -27.833 53.5 -40.5z" />
    <glyph glyph-name="otilde" unicode="&#xf5;" horiz-adv-x="551" 
d="M512 226c0 34 -6 65.333 -18 94s-28.667 53.5 -50 74.5s-46.333 37.5 -75 49.5s-60 18 -94 18s-65.333 -6 -94 -18s-53.5 -28.5 -74.5 -49.5s-37.5 -45.833 -49.5 -74.5s-18 -60 -18 -94s6 -65.333 18 -94s28.5 -53.5 49.5 -74.5s45.833 -37.333 74.5 -49
s60 -17.5 94 -17.5s65.333 5.83301 94 17.5s53.667 28 75 49s38 45.833 50 74.5s18 60 18 94zM481 226c0 -30 -5.16699 -57.667 -15.5 -83s-24.833 -47.166 -43.5 -65.499s-40.5 -32.833 -65.5 -43.5s-52.167 -16 -81.5 -16s-56.5 5.33301 -81.5 16s-46.667 25.167 -65 43.5
s-32.666 40.166 -42.999 65.499s-15.5 53 -15.5 83s5.16699 57.667 15.5 83s24.666 47.166 42.999 65.499s40 32.833 65 43.5s52.167 16 81.5 16s56.5 -5.33301 81.5 -16s46.833 -25.167 65.5 -43.5s33.167 -40.166 43.5 -65.499s15.5 -53 15.5 -83zM401 620l-17.999 8
c-3.33301 -4.66699 -7.66602 -10 -12.999 -16s-10.833 -11.833 -16.5 -17.5s-11.167 -10.5 -16.5 -14.5s-10 -6 -14 -6c-3.33301 0 -8.66602 2.33301 -15.999 7l-23.5 15c-8.33301 5.33301 -16.833 10.333 -25.5 15s-16 7 -22 7c-5.33301 0 -11.166 -2.33301 -17.499 -7
s-12.833 -10.834 -19.5 -18.501s-13.334 -16.167 -20.001 -25.5s-12.667 -18.333 -18 -27l18 -9c3.33301 4.66699 7.66602 10.167 12.999 16.5s10.666 12.333 15.999 18s10.666 10.5 15.999 14.5s10 6 14 6c3.33301 0 8.66602 -2.33301 15.999 -7l24 -15
c8.66699 -5.33301 17.334 -10.333 26.001 -15s16 -7 22 -7c4.66699 0 10.167 2.33301 16.5 7s13 10.834 20 18.501s13.833 16 20.5 25s12.667 18.167 18 27.5z" />
    <glyph glyph-name="odieresis" unicode="&#xf6;" horiz-adv-x="551" 
d="M512 226c0 34 -6 65.333 -18 94s-28.667 53.5 -50 74.5s-46.333 37.5 -75 49.5s-60 18 -94 18s-65.333 -6 -94 -18s-53.5 -28.5 -74.5 -49.5s-37.5 -45.833 -49.5 -74.5s-18 -60 -18 -94s6 -65.333 18 -94s28.5 -53.5 49.5 -74.5s45.833 -37.333 74.5 -49
s60 -17.5 94 -17.5s65.333 5.83301 94 17.5s53.667 28 75 49s38 45.833 50 74.5s18 60 18 94zM481 226c0 -30 -5.16699 -57.667 -15.5 -83s-24.833 -47.166 -43.5 -65.499s-40.5 -32.833 -65.5 -43.5s-52.167 -16 -81.5 -16s-56.5 5.33301 -81.5 16s-46.667 25.167 -65 43.5
s-32.666 40.166 -42.999 65.499s-15.5 53 -15.5 83s5.16699 57.667 15.5 83s24.666 47.166 42.999 65.499s40 32.833 65 43.5s52.167 16 81.5 16s56.5 -5.33301 81.5 -16s46.833 -25.167 65.5 -43.5s33.167 -40.166 43.5 -65.499s15.5 -53 15.5 -83zM362 567
c0 4 -3.33301 9.33301 -10 16s-12 10 -16 10s-9.16699 -3.33301 -15.5 -10s-9.5 -12 -9.5 -16s3.16699 -9.16699 9.5 -15.5s11.5 -9.5 15.5 -9.5s9.33301 3.16699 16 9.5s10 11.5 10 15.5zM241 567c0 4 -3.33301 9.33301 -10 16s-11.667 10 -15 10
c-4 0 -9.33301 -3.33301 -16 -10s-10 -12 -10 -16s3.33301 -9.16699 10 -15.5s12 -9.5 16 -9.5c3.33301 0 8.33301 3.16699 15 9.5s10 11.5 10 15.5z" />
    <glyph glyph-name="divide" unicode="&#xf7;" horiz-adv-x="473" 
d="M266 394c0 2 -1.16797 4.83203 -3.50098 8.49902s-5 7.16699 -8 10.5s-6.33301 6.16602 -10 8.49902s-6.5 3.5 -8.5 3.5s-4.83301 -1.16699 -8.5 -3.5s-7.16699 -5.16602 -10.5 -8.49902s-6.16602 -6.83301 -8.49902 -10.5s-3.5 -6.5 -3.5 -8.5
s1.16699 -4.83301 3.5 -8.5s5.16602 -7 8.49902 -10s6.83301 -5.66699 10.5 -8s6.5 -3.5 8.5 -3.5c4.66699 0 10.834 3.83301 18.501 11.5s11.5 13.834 11.5 18.501zM423.999 262.999v28h-374v-28h374zM265.999 160.999c0 4.66699 -3.83203 10.833 -11.499 18.5
s-13.834 11.5 -18.501 11.5c-2 0 -4.83301 -1.16699 -8.5 -3.5s-7.16699 -5 -10.5 -8s-6.16602 -6.33301 -8.49902 -10s-3.5 -6.5 -3.5 -8.5s1.16699 -4.83301 3.5 -8.5s5.16602 -7.16699 8.49902 -10.5s6.83301 -6.16602 10.5 -8.49902s6.5 -3.5 8.5 -3.5
s4.83301 1.16699 8.5 3.5s7 5.16602 10 8.49902s5.66699 6.83301 8 10.5s3.5 6.5 3.5 8.5z" />
    <glyph glyph-name="oslash" unicode="&#xf8;" horiz-adv-x="551" 
d="M512 226c0 36.667 -6.83008 70.167 -20.4971 100.5s-32.834 56.166 -57.501 77.499l43 54l-19 15l-43 -54c-19.333 13.333 -40.833 23.833 -64.5 31.5s-48.834 11.5 -75.501 11.5c-34 0 -65.333 -6 -94 -18s-53.5 -28.5 -74.5 -49.5s-37.5 -45.833 -49.5 -74.5
s-18 -60 -18 -94c0 -36 6.83301 -69.167 20.5 -99.5s32.5 -56.166 56.5 -77.499l-44 -55l19 -16l45 55c39.333 -28 85.666 -42 138.999 -42c34 0 65.333 5.83301 94 17.5s53.667 28 75 49s38 45.833 50 74.5s18 60 18 94zM481.003 226
c0 -30 -5.16895 -57.668 -15.502 -83.001s-24.833 -47.166 -43.5 -65.499s-40.5 -32.833 -65.5 -43.5s-52.167 -16 -81.5 -16c-23.333 0 -45.166 3.33301 -65.499 10s-38.833 16 -55.5 28l261 325c20.667 -18.667 36.834 -41.167 48.501 -67.5s17.5 -55.5 17.5 -87.5z
M396.001 395.999l-261.999 -324.999c-20 18.667 -35.667 41.167 -47 67.5s-17 55.5 -17 87.5c0 30 5.16699 57.667 15.5 83s24.666 47.166 42.999 65.499s40 32.833 65 43.5s52.167 16 81.5 16c23.333 0 45 -3.33301 65 -10s38.667 -16 56 -28z" />
    <glyph glyph-name="ugrave" unicode="&#xf9;" horiz-adv-x="489" 
d="M425 0l0.00292969 453.004h-31v-308c0 -20.667 -4 -38.834 -12 -54.501s-18.833 -28.834 -32.5 -39.501s-29.834 -18.834 -48.501 -24.501s-38.667 -8.5 -60 -8.5c-43.333 0 -78.5 10.833 -105.5 32.5s-40.5 53.167 -40.5 94.5v308h-31v-310c0 -24 4.5 -45.5 13.5 -64.5
s21.167 -35 36.5 -48s33.666 -22.833 54.999 -29.5s44.333 -10 69 -10c23.333 0 44.166 2.5 62.499 7.5s34 11.667 47 20s23.5 17.666 31.5 27.999s13 20.833 15 31.5h1v-78h30zM289.003 541.004c-21.333 17.333 -41.3311 36.167 -59.998 56.5s-34.667 40.166 -48 59.499
c-1.33301 2 -3.33301 4 -6 6s-4.66699 3 -6 3c-3.33301 0 -7.5 -2.66699 -12.5 -8s-7.5 -9.66602 -7.5 -12.999s1 -6 3 -8c15.333 -20.667 33.166 -39.5 53.499 -56.5s41.166 -33.167 62.499 -48.5z" />
    <glyph glyph-name="uacute" unicode="&#xfa;" horiz-adv-x="489" 
d="M425 0l0.00292969 453.004h-31v-308c0 -20.667 -4 -38.834 -12 -54.501s-18.833 -28.834 -32.5 -39.501s-29.834 -18.834 -48.501 -24.501s-38.667 -8.5 -60 -8.5c-43.333 0 -78.5 10.833 -105.5 32.5s-40.5 53.167 -40.5 94.5v308h-31v-310c0 -24 4.5 -45.5 13.5 -64.5
s21.167 -35 36.5 -48s33.666 -22.833 54.999 -29.5s44.333 -10 69 -10c23.333 0 44.166 2.5 62.499 7.5s34 11.667 47 20s23.5 17.666 31.5 27.999s13 20.833 15 31.5h1v-78h30zM340.003 646.004c0 3.33301 -2.33203 7.49902 -6.99902 12.499s-8.66699 7.5 -12 7.5
c-1.33301 0 -3.33301 -1 -6 -3s-4.66699 -4 -6 -6c-13.333 -19.333 -29.333 -39.166 -48 -59.499s-38.667 -39.166 -60 -56.499l19 -9c22 15.333 43.167 31.666 63.5 48.999s38.166 36 53.499 56c2 2.66699 3 5.66699 3 9z" />
    <glyph glyph-name="ucircumflex" unicode="&#xfb;" horiz-adv-x="489" 
d="M425 0l0.00292969 453.004h-31v-308c0 -20.667 -4 -38.834 -12 -54.501s-18.833 -28.834 -32.5 -39.501s-29.834 -18.834 -48.501 -24.501s-38.667 -8.5 -60 -8.5c-43.333 0 -78.5 10.833 -105.5 32.5s-40.5 53.167 -40.5 94.5v308h-31v-310c0 -24 4.5 -45.5 13.5 -64.5
s21.167 -35 36.5 -48s33.666 -22.833 54.999 -29.5s44.333 -10 69 -10c23.333 0 44.166 2.5 62.499 7.5s34 11.667 47 20s23.5 17.666 31.5 27.999s13 20.833 15 31.5h1v-78h30zM365.003 542.004c-21.333 16.667 -41.333 35.166 -60 55.499s-34.667 40.166 -48 59.499
c-1.33301 2 -3.33301 4 -6 6s-4.66699 3 -6 3s-3.33301 -1 -6 -3s-4.66699 -4 -6 -6c-13.333 -19.333 -29.333 -39.166 -48 -59.499s-38.667 -39.166 -60 -56.499l19 -9c18 12.667 35.5 26.167 52.5 40.5s32.5 29.5 46.5 45.5c14.667 -16 30.667 -31.167 48 -45.5
s35.333 -27.833 54 -40.5z" />
    <glyph glyph-name="udieresis" unicode="&#xfc;" horiz-adv-x="489" 
d="M425 0l0.00292969 453.004h-31v-308c0 -20.667 -4 -38.834 -12 -54.501s-18.833 -28.834 -32.5 -39.501s-29.834 -18.834 -48.501 -24.501s-38.667 -8.5 -60 -8.5c-43.333 0 -78.5 10.833 -105.5 32.5s-40.5 53.167 -40.5 94.5v308h-31v-310c0 -24 4.5 -45.5 13.5 -64.5
s21.167 -35 36.5 -48s33.666 -22.833 54.999 -29.5s44.333 -10 69 -10c23.333 0 44.166 2.5 62.499 7.5s34 11.667 47 20s23.5 17.666 31.5 27.999s13 20.833 15 31.5h1v-78h30zM331.003 567.004c0 4 -3.33301 9.33301 -10 16s-11.667 10 -15 10
c-4 0 -9.33301 -3.33301 -16 -10s-10 -12 -10 -16s3.33301 -9.16699 10 -15.5s12 -9.5 16 -9.5c3.33301 0 8.33301 3.16699 15 9.5s10 11.5 10 15.5zM210.003 567.004c0 4 -3.16699 9.33301 -9.5 16s-11.5 10 -15.5 10s-9.33301 -3.33301 -16 -10s-10 -12 -10 -16
s3.33301 -9.16699 10 -15.5s12 -9.5 16 -9.5s9.16699 3.16699 15.5 9.5s9.5 11.5 9.5 15.5z" />
    <glyph glyph-name="yacute" unicode="&#xfd;" horiz-adv-x="466" 
d="M433 453l-30 -0.00292969l-113 -272l-28 -67c-10.667 -25.333 -20 -48.666 -28 -69.999h-2c-7.33301 22.667 -15.666 45.834 -24.999 69.501s-18.666 46.167 -27.999 67.5l-114 272h-32l185 -443c-13.333 -27.333 -26.833 -52.166 -40.5 -74.499s-28.667 -42.5 -45 -60.5
s-34.5 -33.833 -54.5 -47.5s-42.667 -25.5 -68 -35.5l22 -22c24.667 10 47.5 22.333 68.5 37s40.667 32.5 59 53.5s35.666 45.833 51.999 74.5s32.166 61.667 47.499 99zM337 645.997c0 3.33301 -2.33203 7.49902 -6.99902 12.499s-8.66699 7.5 -12 7.5
c-1.33301 0 -3.33301 -1 -6 -3s-4.66699 -4 -6 -6c-13.333 -19.333 -29.333 -39.166 -48 -59.499s-38.667 -39.166 -60 -56.499l19 -9c22 15.333 43.167 31.666 63.5 48.999s38.166 36 53.499 56c2 2.66699 3 5.66699 3 9z" />
    <glyph glyph-name="thorn" unicode="&#xfe;" horiz-adv-x="514" 
d="M474 227c0 34 -6.16895 65.499 -18.502 94.499s-29 53.833 -50 74.5s-45.667 36.834 -74 48.501s-58.833 17.5 -91.5 17.5c-28 0 -54 -4.16699 -78 -12.5s-44.667 -20.5 -62 -36.5v299h-31v-943h31v269c14.667 -14 34.834 -25.333 60.501 -34s51.834 -13 78.501 -13
c33.333 0 64.333 6 93 18s53.5 28.5 74.5 49.5s37.5 45.833 49.5 74.5s18 60 18 94zM442.998 226.999c0 -30 -5.16797 -57.666 -15.501 -82.999s-24.666 -47.333 -42.999 -66s-40 -33.334 -65 -44.001s-52.167 -16 -81.5 -16c-28.667 0 -55.167 5.5 -79.5 16.5
s-43.833 24.5 -58.5 40.5v304c16.667 17.333 36.834 30.833 60.501 40.5s49.5 14.5 77.5 14.5c29.333 0 56.5 -5.16699 81.5 -15.5s46.667 -24.833 65 -43.5s32.666 -40.5 42.999 -65.5s15.5 -52.5 15.5 -82.5z" />
    <glyph glyph-name="ydieresis" unicode="&#xff;" horiz-adv-x="466" 
d="M433 453l-30 -0.00292969l-113 -272l-28 -67c-10.667 -25.333 -20 -48.666 -28 -69.999h-2c-7.33301 22.667 -15.666 45.834 -24.999 69.501s-18.666 46.167 -27.999 67.5l-114 272h-32l185 -443c-13.333 -27.333 -26.833 -52.166 -40.5 -74.499s-28.667 -42.5 -45 -60.5
s-34.5 -33.833 -54.5 -47.5s-42.667 -25.5 -68 -35.5l22 -22c24.667 10 47.5 22.333 68.5 37s40.667 32.5 59 53.5s35.666 45.833 51.999 74.5s32.166 61.667 47.499 99zM326 563.997c0 4 -3.33301 9.16699 -10 15.5s-12 9.5 -16 9.5c-3.33301 0 -8.33301 -3.16699 -15 -9.5
s-10 -11.5 -10 -15.5s3.33301 -9.33301 10 -16s11.667 -10 15 -10c4 0 9.33301 3.33301 16 10s10 12 10 16zM205 563.997c0 4 -3.16699 9.16699 -9.5 15.5s-11.5 9.5 -15.5 9.5s-9.33301 -3.16699 -16 -9.5s-10 -11.5 -10 -15.5s3.33301 -9.33301 10 -16s12 -10 16 -10
s9.16699 3.33301 15.5 10s9.5 12 9.5 16z" />
    <glyph glyph-name="dotlessi" unicode="&#x131;" horiz-adv-x="189" 
d="M110 0v453h-31v-453h31z" />
    <glyph glyph-name="Lslash" unicode="&#x141;" horiz-adv-x="429" 
d="M420 0v29h-314v257l187 108v30l-187 -108v322h-33v-341l-55 -32v-30l55 32v-267h347z" />
    <glyph glyph-name="lslash" unicode="&#x142;" horiz-adv-x="184" 
d="M180 394v30l-80 -47v335h-31v-353l-56 -32v-30l56 32v-239c0 -28.667 5.5 -51 16.5 -67s26.833 -27.667 47.5 -35l21 21c-36 10 -54 37.333 -54 82v256z" />
    <glyph glyph-name="OE" unicode="&#x152;" horiz-adv-x="813" 
d="M803 0v29h-323v278h231v29h-231v273h287v29h-318c-12 2 -24.333 3.66699 -37 5s-25.667 2 -39 2c-46 0 -89 -8.16699 -129 -24.5s-74.833 -39 -104.5 -68s-53 -63.5 -70 -103.5s-25.5 -83.333 -25.5 -130c0 -47.333 8.5 -90.833 25.5 -130.5s40.333 -74 70 -103
s64.5 -51.667 104.5 -68s83 -24.5 129 -24.5c14.667 0 28.5 0.666992 41.5 2s25.5 3 37.5 5h351zM448 29c-11.333 -2 -23.334 -3.66504 -36.001 -4.99805s-25.334 -2 -38.001 -2c-41.333 0 -80.166 7.5 -116.499 22.5s-67.833 35.667 -94.5 62s-47.667 57.666 -63 93.999
s-23 75.833 -23 118.5s7.66699 82.167 23 118.5s36.5 67.666 63.5 93.999s58.5 46.833 94.5 61.5s74.667 22 116 22c26.667 0 51.334 -2.33301 74.001 -7v-579z" />
    <glyph glyph-name="oe" unicode="&#x153;" horiz-adv-x="923" 
d="M883 283c0 23.333 -4.16602 45.834 -12.499 67.501s-20.5 40.667 -36.5 57s-35.833 29.5 -59.5 39.5s-50.834 15 -81.501 15c-22 0 -43.667 -4 -65 -12s-40.833 -19 -58.5 -33s-33 -31 -46 -51s-22.167 -42 -27.5 -66c-6 24.667 -16 47 -30 67s-30.833 37 -50.5 51
s-41.5 24.833 -65.5 32.5s-49 11.5 -75 11.5c-34 0 -65.333 -6 -94 -18s-53.5 -28.5 -74.5 -49.5s-37.5 -45.833 -49.5 -74.5s-18 -60 -18 -94s6 -65.333 18 -94s28.5 -53.5 49.5 -74.5s45.833 -37.333 74.5 -49s60 -17.5 94 -17.5c26 0 50.833 3.66699 74.5 11
s45.334 17.833 65.001 31.5s36.5 30.334 50.5 50.001s24.667 42.167 32 67.5c6.66699 -24.667 16.834 -46.834 30.501 -66.501s30.167 -36.5 49.5 -50.5s40.666 -24.667 63.999 -32s47.666 -11 72.999 -11c28.667 0 53.334 2.83301 74.001 8.5s38.667 14.167 54 25.5l5 34
c-17.333 -12 -36.833 -21.667 -58.5 -29s-45.834 -11 -72.501 -11c-31.333 0 -60 6 -86 18s-48 28 -66 48s-31.5 43.167 -40.5 69.5s-12.167 54.166 -9.5 83.499h346l22 22c0.666992 3.33301 1 7 1 11v12zM852.001 283.001c0 -8.66699 -0.333984 -14.667 -1.00098 -18h-335
c2 20 8 40.167 18 60.5s22.833 38.666 38.5 54.999s33.834 29.5 54.501 39.5s43 15 67 15c26.667 0 50 -4.33301 70 -13s36.5 -20.167 49.5 -34.5s22.667 -30.666 29 -48.999s9.5 -36.833 9.5 -55.5zM481 226.001c0 -30 -5.16699 -57.667 -15.5 -83
s-24.833 -47.166 -43.5 -65.499s-40.5 -32.833 -65.5 -43.5s-52.167 -16 -81.5 -16s-56.5 5.33301 -81.5 16s-46.667 25.167 -65 43.5s-32.666 40.166 -42.999 65.499s-15.5 53 -15.5 83s5.16699 57.667 15.5 83s24.666 47.166 42.999 65.499s40 32.833 65 43.5
s52.167 16 81.5 16s56.5 -5.33301 81.5 -16s46.833 -25.167 65.5 -43.5s33.167 -40.166 43.5 -65.499s15.5 -53 15.5 -83z" />
    <glyph glyph-name="Scaron" unicode="&#x160;" horiz-adv-x="459" 
d="M415 162c0 24 -3.83105 45.499 -11.498 64.499s-19 36 -34 51s-33.5 28.833 -55.5 41.5s-47.667 24.667 -77 36c-47.333 18.667 -81 39.334 -101 62.001s-30 50.334 -30 83.001c0 14 2.83301 27.833 8.5 41.5s14.167 26 25.5 37s25.833 19.833 43.5 26.5s38.5 10 62.5 10
c22.667 0 45.167 -3.66699 67.5 -11s40.166 -16 53.499 -26l9 29c-14.667 9.33301 -33.334 17.833 -56.001 25.5s-47 11.5 -73 11.5c-30 0 -55.833 -4.33301 -77.5 -13s-39.5 -19.834 -53.5 -33.501s-24.333 -29.167 -31 -46.5s-10 -35 -10 -53
c0 -40.667 12.333 -74.667 37 -102s65 -52 121 -74c52 -20.667 90 -43 114 -67s36 -55.667 36 -95c0 -20 -4 -38.5 -12 -55.5s-19 -31.5 -33 -43.5s-30.667 -21.333 -50 -28s-40 -10 -62 -10c-40 0 -74.167 6.33301 -102.5 19s-53.833 28.667 -76.5 48l7 -40
c18.667 -14.667 42 -27.667 70 -39s61.667 -17 101 -17c26.667 0 51.5 4 74.5 12s43 19.167 60 33.5s30.5 31.833 40.5 52.5s15 44 15 70zM375.002 857.999l-23 11c-21.333 -14.667 -41.666 -30.334 -60.999 -47.001s-37 -34.334 -53 -53.001
c-16 18.667 -33.833 36.334 -53.5 53.001s-40.167 32.334 -61.5 47.001l-24 -11c25.333 -20 49 -42 71 -66s40.667 -47.667 56 -71c2.66699 -5.33301 6.33398 -8 11.001 -8c1.33301 0 3.16602 1 5.49902 3s4.16602 3.66699 5.49902 5c15.333 23.333 34 47 56 71
s45.667 46 71 66z" />
    <glyph glyph-name="scaron" unicode="&#x161;" horiz-adv-x="356" 
d="M316 114c0 35.333 -12.0039 63.665 -36.0039 84.998s-56 39 -96 53c-28 9.33301 -50.333 21 -67 35s-25 35 -25 63c0 24.667 8.83301 44.167 26.5 58.5s39.834 21.5 66.501 21.5c19.333 0 37.333 -3.16699 54 -9.5s29.667 -13.166 39 -20.499l10 28
c-9.33301 7.33301 -23.166 14 -41.499 20s-38.833 9 -61.5 9c-35.333 0 -64.666 -9.5 -87.999 -28.5s-35 -45.5 -35 -79.5c0 -35.333 10.333 -62.166 31 -80.499s50 -34.166 88 -47.499c30.667 -10.667 55.667 -24.5 75 -41.5s29 -39.167 29 -66.5
c0 -15.333 -3 -28.5 -9 -39.5s-14.167 -20.333 -24.5 -28s-22.166 -13.334 -35.499 -17.001s-27.333 -5.5 -42 -5.5c-27.333 0 -51.5 4.5 -72.5 13.5s-40.167 21.833 -57.5 38.5l7 -39c14 -11.333 31 -20.833 51 -28.5s44 -11.5 72 -11.5c20 0 38.5 2.5 55.5 7.5
s32 12.5 45 22.5s23.167 22.333 30.5 37s11 31.667 11 51zM293.996 655.999l-20 9c-17.333 -12.667 -34.333 -26 -51 -40s-31.667 -29 -45 -45c-14 16 -29.333 31 -46 45s-34 27.333 -52 40l-21 -9c21.333 -17.333 41.333 -36.166 60 -56.499s34.667 -40.5 48 -60.5
c1.33301 -1.33301 3 -2.83301 5 -4.5s3.66699 -2.5 5 -2.5s2.83301 0.833008 4.5 2.5l4.5 4.5c13.333 20 29.333 40.167 48 60.5s38.667 39.166 60 56.499z" />
    <glyph glyph-name="Ydieresis" unicode="&#x178;" horiz-adv-x="585" 
d="M552 638h-37.001l-149 -210l-37.5 -53l-35.5 -53h-2c-11.333 18 -23.166 35.833 -35.499 53.5l-36.5 52.5l-148 210h-38l242 -342v-296h33v296zM388.999 759c0 4.66699 -3.83301 10.834 -11.5 18.501s-13.834 11.5 -18.501 11.5s-10.834 -3.83301 -18.501 -11.5
s-11.5 -13.834 -11.5 -18.501s3.83301 -10.834 11.5 -18.501s13.834 -11.5 18.501 -11.5s10.834 3.83301 18.501 11.5s11.5 13.834 11.5 18.501zM246.999 759c0 4.66699 -3.83301 10.834 -11.5 18.501s-13.834 11.5 -18.501 11.5s-10.834 -3.83301 -18.501 -11.5
s-11.5 -13.834 -11.5 -18.501s3.83301 -10.834 11.5 -18.501s13.834 -11.5 18.501 -11.5s10.834 3.83301 18.501 11.5s11.5 13.834 11.5 18.501z" />
    <glyph glyph-name="Zcaron" unicode="&#x17d;" horiz-adv-x="509" 
d="M464 0v29h-373l-1 2l60.5 96l61.5 102l239 399v10h-372v-29h325l1 -2l-59.5 -96l-63.5 -104l-238 -397v-10h420zM394 863l-23 11c-21.333 -14.667 -41.666 -30.334 -60.999 -47.001s-37 -34.334 -53 -53.001c-16 18.667 -33.833 36.334 -53.5 53.001
s-40.167 32.334 -61.5 47.001l-24 -11c25.333 -20 49 -42 71 -66s40.667 -47.667 56 -71c2.66699 -5.33301 6.33398 -8 11.001 -8c1.33301 0 3.16602 1 5.49902 3s4.16602 3.66699 5.49902 5c15.333 23.333 34 47 56 71s45.667 46 71 66z" />
    <glyph glyph-name="zcaron" unicode="&#x17e;" horiz-adv-x="413" 
d="M374 0l-0.000976562 27h-288l-1 2c14.667 20.667 29.667 43 45 67l46 71l180 278v8h-296v-27h251l1 -2c-15.333 -21.333 -30.666 -44 -45.999 -68l-46 -71l-181 -277v-8h335zM325.999 656l-20 9c-18 -12.667 -35.167 -26 -51.5 -40s-31.5 -29 -45.5 -45
c-13.333 16 -28.5 31 -45.5 45s-34.5 27.333 -52.5 40l-20 -9c21.333 -17.333 41.333 -36.166 60 -56.499s34.667 -40.5 48 -60.5l4.5 -4.5c1.66699 -1.66699 3.16699 -2.5 4.5 -2.5s3 0.833008 5 2.5s3.66699 3.16699 5 4.5c13.333 20 29.333 40.167 48 60.5
s38.667 39.166 60 56.499z" />
    <glyph glyph-name="florin" unicode="&#x192;" horiz-adv-x="407" 
d="M417 644c-4 0.666992 -8.33203 1.33301 -12.999 2s-9.33398 1 -14.001 1c-25.333 0 -49.5 -3.5 -72.5 -10.5s-43.833 -18 -62.5 -33s-34.667 -33.833 -48 -56.5s-22.666 -49.667 -27.999 -81l-31 -173h-88v-24h85l-58 -321c-16 -87.333 -59.667 -139.666 -131 -156.999
l20 -20c36 9.33301 66.167 28.333 90.5 57s41.166 67.667 50.499 117l59 324h115l8 24h-120l31 173c4.66699 26.667 12.667 49.667 24 69s24.833 35.166 40.5 47.499s33 21.5 52 27.5s38.833 9 59.5 9h12c4 0 8 -0.333008 12 -1z" />
    <glyph glyph-name="circumflex" unicode="&#x2c6;" 
d="M391 529c-24.667 20 -48.167 41.833 -70.5 65.5s-41.166 47.167 -56.499 70.5c-1.33301 2 -3.5 4.16699 -6.5 6.5s-5.5 3.5 -7.5 3.5s-4.5 -1.16699 -7.5 -3.5s-5.16699 -4.5 -6.5 -6.5c-15.333 -23.333 -34.166 -47 -56.499 -71s-45.833 -46 -70.5 -66l22 -10
c21.333 14.667 41.833 30.334 61.5 47.001s38.167 34.667 55.5 54c17.333 -19.333 36.166 -37.333 56.499 -54s41.166 -32.334 62.499 -47.001z" />
    <glyph glyph-name="caron" unicode="&#x2c7;" 
d="M388 663l-23 11c-21.333 -14.667 -41.666 -30.334 -60.999 -47.001s-37 -34.334 -53 -53.001c-16 18.667 -33.833 36.334 -53.5 53.001s-40.167 32.334 -61.5 47.001l-24 -11c25.333 -20 49 -42 71 -66s40.667 -47.667 56 -71c2.66699 -5.33301 6.33398 -8 11.001 -8
c1.33301 0 3.16602 1 5.49902 3s4.16602 3.66699 5.49902 5c15.333 23.333 34 47 56 71s45.667 46 71 66z" />
    <glyph glyph-name="breve" unicode="&#x2d8;" 
d="M337 546l-20.001 20.001c-6.66699 -4.66699 -16 -8.83398 -28 -12.501s-24.667 -5.5 -38 -5.5s-26.166 1.83301 -38.499 5.5s-22.166 8.16699 -29.499 13.5l-20 -21c8.66699 -6 20.667 -12 36 -18s32.666 -9 51.999 -9c18.667 0 35.5 3 50.5 9s26.833 12 35.5 18z" />
    <glyph glyph-name="dotaccent" unicode="&#x2d9;" 
d="M280 559c0 4.66699 -3.83301 10.834 -11.5 18.501s-13.834 11.5 -18.501 11.5s-10.834 -3.83301 -18.501 -11.5s-11.5 -13.834 -11.5 -18.501s3.83301 -10.834 11.5 -18.501s13.834 -11.5 18.501 -11.5s10.834 3.83301 18.501 11.5s11.5 13.834 11.5 18.501z" />
    <glyph glyph-name="ring" unicode="&#x2da;" 
d="M339 597c0 12 -2.33301 23.333 -7 34s-11.167 20 -19.5 28s-17.833 14.333 -28.5 19s-22 7 -34 7s-23.333 -2.33301 -34 -7s-20.167 -11 -28.5 -19s-14.833 -17.333 -19.5 -28s-7 -22 -7 -34s2.33301 -23.333 7 -34s11.167 -20 19.5 -28s17.833 -14.333 28.5 -19
s22 -7 34 -7s23.333 2.33301 34 7s20.167 11 28.5 19s14.833 17.333 19.5 28s7 22 7 34zM312 597c0 -17.333 -5.83301 -32.166 -17.5 -44.499s-26.5 -18.5 -44.5 -18.5s-32.833 6.16699 -44.5 18.5s-17.5 27.166 -17.5 44.499c0 18 5.83301 33 17.5 45s26.5 18 44.5 18
s32.833 -6 44.5 -18s17.5 -27 17.5 -45z" />
    <glyph glyph-name="ogonek" unicode="&#x2db;" 
d="M328 -174c-10 -7.33301 -20.1699 -12.501 -30.5029 -15.501s-22.833 -4.5 -37.5 -4.5c-16.667 0 -31 4.66699 -43 14s-18 23.333 -18 42c0 14 3.5 27.833 10.5 41.5s16.333 26.334 28 38.001s25.334 22.5 41.001 32.5s32.167 18.667 49.5 26h-38
c-13.333 -5.33301 -27 -12.5 -41 -21.5s-26.667 -19.5 -38 -31.5s-20.666 -25.5 -27.999 -40.5s-11 -31.167 -11 -48.5c0 -24.667 8.5 -43.5 25.5 -56.5s35.833 -19.5 56.5 -19.5c16.667 0 29.834 1.5 39.501 4.5s18.167 6.16699 25.5 9.5z" />
    <glyph glyph-name="tilde" unicode="&#x2dc;" 
d="M392 621l-21 10c-4 -5.33301 -9.16699 -11.666 -15.5 -18.999s-12.833 -14.333 -19.5 -21s-13.167 -12.334 -19.5 -17.001s-11.5 -7 -15.5 -7s-10.333 2.66699 -19 8l-28 18c-10 6.66699 -20 12.667 -30 18s-18.667 8 -26 8c-6 0 -12.667 -2.83301 -20 -8.5
s-15 -12.834 -23 -21.501s-16 -18.5 -24 -29.5s-15 -21.833 -21 -32.5l21 -10c4 5.33301 9.16699 11.666 15.5 18.999s12.833 14.333 19.5 21s13.167 12.334 19.5 17.001s11.5 7 15.5 7s10.333 -2.66699 19 -8l28 -18c10 -6.66699 20 -12.667 30 -18s18.667 -8 26 -8
c6 0 12.667 2.83301 20 8.5s15 12.834 23 21.501s16 18.5 24 29.5s15 21.833 21 32.5z" />
    <glyph glyph-name="hungarumlaut" unicode="&#x2dd;" 
d="M395 652c0 4 -3.00098 8.83301 -9.00098 14.5s-11 8.5 -15 8.5c-2 0 -4.5 -1.16699 -7.5 -3.5s-5.16699 -4.5 -6.5 -6.5c-15.333 -23.333 -34.166 -46.833 -56.499 -70.5s-45.833 -45.5 -70.5 -65.5l24 -11c26 17.333 50.5 36.333 73.5 57s43.833 42.667 62.5 66
c1.33301 1.33301 2.5 3 3.5 5s1.5 4 1.5 6zM273.999 652c0 4 -3.00098 8.83301 -9.00098 14.5s-11 8.5 -15 8.5c-2 0 -4.5 -1.16699 -7.5 -3.5s-5.16699 -4.5 -6.5 -6.5c-15.333 -23.333 -34.166 -46.833 -56.499 -70.5s-45.833 -45.5 -70.5 -65.5l24 -11
c26 17.333 50.5 36.333 73.5 57s43.833 42.667 62.5 66c1.33301 1.33301 2.5 3 3.5 5s1.5 4 1.5 6z" />
    <glyph glyph-name="pi" unicode="&#x3c0;" horiz-adv-x="600" 
d="M562 148l-50.999 51.001v254h-472v-453h472v97c11.333 0 22.666 4.16699 33.999 12.5s17 21.166 17 38.499zM488.001 221.001l-171 171h171v-171zM240.001 392.001c0 -24.667 -8.66699 -45.667 -26 -63s-38.333 -26 -63 -26s-45.667 8.66699 -63 26s-26 38.333 -26 63
h178zM488.001 21.001h-426v294c9.33301 -10.667 21 -19.667 35 -27l391 -185v-82z" />
    <glyph glyph-name="endash" unicode="&#x2013;" 
d="M502 213v26h-502v-26h502z" />
    <glyph glyph-name="emdash" unicode="&#x2014;" horiz-adv-x="1000" 
d="M1002 213v26h-1002v-26h1002z" />
    <glyph glyph-name="quoteleft" unicode="&#x2018;" horiz-adv-x="174" 
d="M122 524c0 4.66699 -4.00195 11 -12.002 19s-15.667 12.333 -23 13c0 12 3 26.333 9 43s14 31.667 24 45l-17 3c-6 -8 -12.167 -17.167 -18.5 -27.5s-11.833 -21 -16.5 -32s-8.5 -22.167 -11.5 -33.5s-4.5 -21.333 -4.5 -30c0 -3.33301 1.33301 -7 4 -11
s5.83398 -7.66699 9.50098 -11s7.5 -6.33301 11.5 -9s7.33301 -4 10 -4s6 1.33301 10 4s7.83301 5.66699 11.5 9s6.83398 7 9.50098 11s4 7.66699 4 11z" />
    <glyph glyph-name="quoteright" unicode="&#x2019;" horiz-adv-x="174" 
d="M122 613c0 2.66699 -1.33105 6.16699 -3.99805 10.5s-5.83398 8.16602 -9.50098 11.499s-7.5 6.33301 -11.5 9s-7.33301 4 -10 4s-6 -1.33301 -10 -4s-7.83301 -5.66699 -11.5 -9s-6.83398 -7.16602 -9.50098 -11.499s-4 -7.83301 -4 -10.5
c0 -4.66699 3.83301 -11 11.5 -19s15.167 -12.333 22.5 -13c0 -12 -2.83301 -26.333 -8.5 -43s-13.5 -31.667 -23.5 -45l17 -3c6 8 12.167 17.167 18.5 27.5s11.833 21 16.5 32s8.5 22 11.5 33s4.5 21.167 4.5 30.5z" />
    <glyph glyph-name="quotesinglbase" unicode="&#x201a;" horiz-adv-x="174" 
d="M122 27c0 2.66699 -1.33105 6 -3.99805 10s-5.83398 7.83301 -9.50098 11.5s-7.5 6.66699 -11.5 9s-7.33301 3.5 -10 3.5s-6 -1.16699 -10 -3.5s-7.83301 -5.33301 -11.5 -9s-6.83398 -7.5 -9.50098 -11.5s-4 -7.33301 -4 -10c0 -4.66699 3.83301 -11 11.5 -19
s15.167 -12.333 22.5 -13c0 -12 -2.83301 -26.5 -8.5 -43.5s-13.5 -32.167 -23.5 -45.5l17 -2c6 8 12.167 17.167 18.5 27.5s11.833 21 16.5 32s8.5 22 11.5 33s4.5 21.167 4.5 30.5z" />
    <glyph glyph-name="quotedblleft" unicode="&#x201c;" horiz-adv-x="318" 
d="M266 524c0 4.66699 -4.00195 11 -12.002 19s-15.667 12.333 -23 13c0 12 3 26.333 9 43s14 31.667 24 45l-17 3c-6 -8 -12.167 -17.167 -18.5 -27.5s-11.833 -21 -16.5 -32s-8.5 -22.167 -11.5 -33.5s-4.5 -21.333 -4.5 -30c0 -3.33301 1.33301 -7 4 -11
s5.83398 -7.66699 9.50098 -11s7.5 -6.33301 11.5 -9s7.33301 -4 10 -4s6 1.33301 10 4s7.83301 5.66699 11.5 9s6.83398 7 9.50098 11s4 7.66699 4 11zM121.998 524c0 4.66699 -4.00195 11 -12.002 19s-15.667 12.333 -23 13c0 12 3 26.333 9 43s14 31.667 24 45l-17 3
c-6 -8 -12.167 -17.167 -18.5 -27.5s-11.833 -21 -16.5 -32s-8.5 -22.167 -11.5 -33.5s-4.5 -21.333 -4.5 -30c0 -3.33301 1.33301 -7 4 -11s5.83398 -7.66699 9.50098 -11s7.5 -6.33301 11.5 -9s7.33301 -4 10 -4s6 1.33301 10 4s7.83301 5.66699 11.5 9
s6.83398 7 9.50098 11s4 7.66699 4 11z" />
    <glyph glyph-name="quotedblright" unicode="&#x201d;" horiz-adv-x="318" 
d="M266 613c0 2.66699 -1.33105 6.16699 -3.99805 10.5s-5.83398 8.16602 -9.50098 11.499s-7.5 6.33301 -11.5 9s-7.33301 4 -10 4s-6 -1.33301 -10 -4s-7.83301 -5.66699 -11.5 -9s-6.83398 -7.16602 -9.50098 -11.499s-4 -7.83301 -4 -10.5c0 -4.66699 4 -11 12 -19
s15.667 -12.333 23 -13c0 -12 -3 -26.333 -9 -43s-14 -31.667 -24 -45l17 -3c6 8 12.167 17.167 18.5 27.5s11.833 21 16.5 32s8.5 22 11.5 33s4.5 21.167 4.5 30.5zM122.002 613c0 2.66699 -1.33105 6.16699 -3.99805 10.5s-5.83398 8.16602 -9.50098 11.499
s-7.5 6.33301 -11.5 9s-7.33301 4 -10 4s-6 -1.33301 -10 -4s-7.83301 -5.66699 -11.5 -9s-6.83398 -7.16602 -9.50098 -11.499s-4 -7.83301 -4 -10.5c0 -4.66699 3.83301 -11 11.5 -19s15.167 -12.333 22.5 -13c0 -12 -2.83301 -26.333 -8.5 -43s-13.5 -31.667 -23.5 -45
l17 -3c6 8 12.167 17.167 18.5 27.5s11.833 21 16.5 32s8.5 22 11.5 33s4.5 21.167 4.5 30.5z" />
    <glyph glyph-name="quotedblbase" unicode="&#x201e;" horiz-adv-x="318" 
d="M266 27c0 2.66699 -1.33105 6 -3.99805 10s-5.83398 7.83301 -9.50098 11.5s-7.5 6.66699 -11.5 9s-7.33301 3.5 -10 3.5s-6 -1.16699 -10 -3.5s-7.83301 -5.33301 -11.5 -9s-6.83398 -7.5 -9.50098 -11.5s-4 -7.33301 -4 -10c0 -4.66699 4 -11 12 -19
s15.667 -12.333 23 -13c0 -12 -3 -26.5 -9 -43.5s-14 -32.167 -24 -45.5l17 -2c6 8 12.167 17.167 18.5 27.5s11.833 21 16.5 32s8.5 22 11.5 33s4.5 21.167 4.5 30.5zM122.002 27c0 2.66699 -1.33105 6 -3.99805 10s-5.83398 7.83301 -9.50098 11.5s-7.5 6.66699 -11.5 9
s-7.33301 3.5 -10 3.5s-6 -1.16699 -10 -3.5s-7.83301 -5.33301 -11.5 -9s-6.83398 -7.5 -9.50098 -11.5s-4 -7.33301 -4 -10c0 -4.66699 3.83301 -11 11.5 -19s15.167 -12.333 22.5 -13c0 -12 -2.83301 -26.5 -8.5 -43.5s-13.5 -32.167 -23.5 -45.5l17 -2
c6 8 12.167 17.167 18.5 27.5s11.833 21 16.5 32s8.5 22 11.5 33s4.5 21.167 4.5 30.5z" />
    <glyph glyph-name="dagger" unicode="&#x2020;" horiz-adv-x="412" 
d="M364 423v33l-142 -8l1 109h-34l1 -109l-141 8v-33l141 8l5 -651h21l6 651z" />
    <glyph glyph-name="daggerdbl" unicode="&#x2021;" horiz-adv-x="412" 
d="M364 -119v33l-142 -7l-2 262l2 262l142 -8v33l-142 -8l1 109h-34l1 -109l-141 8v-33l141 8l2 -262l-2 -262l-141 7v-33l141 8l-1 -109h34l-1 109z" />
    <glyph glyph-name="bullet" unicode="&#x2022;" horiz-adv-x="329" 
d="M280 277c0 33.333 -10.833 61 -32.5 83s-49.167 33 -82.5 33s-61 -11 -83 -33s-33 -49.667 -33 -83s11 -60.833 33 -82.5s49.667 -32.5 83 -32.5s60.833 10.833 82.5 32.5s32.5 49.167 32.5 82.5z" />
    <glyph glyph-name="ellipsis" unicode="&#x2026;" horiz-adv-x="521" 
d="M469 27c0 2.66699 -1.33301 6 -4 10s-5.83398 7.66699 -9.50098 11s-7.5 6.33301 -11.5 9s-7.33301 4 -10 4s-6 -1.33301 -10 -4s-7.83301 -5.66699 -11.5 -9s-6.83398 -7 -9.50098 -11s-4 -7.33301 -4 -10s1.33301 -6 4 -10s5.83398 -7.83301 9.50098 -11.5
s7.5 -6.83398 11.5 -9.50098s7.33301 -4 10 -4s6 1.33301 10 4s7.83301 5.83398 11.5 9.50098s6.83398 7.5 9.50098 11.5s4 7.33301 4 10zM295 27c0 2.66699 -1.33301 6 -4 10s-5.83398 7.66699 -9.50098 11s-7.5 6.33301 -11.5 9s-7.33301 4 -10 4s-6 -1.33301 -10 -4
s-7.66699 -5.66699 -11 -9s-6.33301 -7 -9 -11s-4 -7.33301 -4 -10s1.33301 -6 4 -10s5.66699 -7.83301 9 -11.5s7 -6.83398 11 -9.50098s7.33301 -4 10 -4s6 1.33301 10 4s7.83301 5.83398 11.5 9.50098s6.83398 7.5 9.50098 11.5s4 7.33301 4 10zM122 27
c0 2.66699 -1.33301 6 -4 10s-5.83398 7.66699 -9.50098 11s-7.5 6.33301 -11.5 9s-7.33301 4 -10 4s-6 -1.33301 -10 -4s-7.83301 -5.66699 -11.5 -9s-6.83398 -7 -9.50098 -11s-4 -7.33301 -4 -10s1.33301 -6 4 -10s5.83398 -7.83301 9.50098 -11.5
s7.5 -6.83398 11.5 -9.50098s7.33301 -4 10 -4s6 1.33301 10 4s7.83301 5.83398 11.5 9.50098s6.83398 7.5 9.50098 11.5s4 7.33301 4 10z" />
    <glyph glyph-name="perthousand" unicode="&#x2030;" horiz-adv-x="1026" 
d="M976 116c0 18 -3.16699 34.833 -9.5 50.5s-15 29 -26 40s-24.167 19.667 -39.5 26s-32 9.5 -50 9.5s-34.5 -3.16699 -49.5 -9.5s-28.167 -15 -39.5 -26s-20.166 -24.333 -26.499 -40s-9.5 -32.5 -9.5 -50.5c0 -18.667 3.16699 -35.667 9.5 -51s15.166 -28.5 26.499 -39.5
s24.5 -19.5 39.5 -25.5s31.5 -9 49.5 -9s34.667 3 50 9s28.5 14.5 39.5 25.5s19.667 24.167 26 39.5s9.5 32.333 9.5 51zM948 116c0 -31.333 -9.5 -55.666 -28.5 -72.999s-41.833 -26 -68.5 -26c-26 0 -48.5 8.66699 -67.5 26s-28.5 41.666 -28.5 72.999
s9.5 55.666 28.5 72.999s41.5 26 67.5 26c26.667 0 49.5 -8.66699 68.5 -26s28.5 -41.666 28.5 -72.999zM656 116c0 18 -3.16699 34.833 -9.5 50.5s-15.166 29 -26.499 40s-24.5 19.667 -39.5 26s-31.5 9.5 -49.5 9.5s-34.5 -3.16699 -49.5 -9.5s-28.167 -15 -39.5 -26
s-20.166 -24.333 -26.499 -40s-9.5 -32.5 -9.5 -50.5c0 -18.667 3.16699 -35.667 9.5 -51s15.166 -28.5 26.499 -39.5s24.5 -19.5 39.5 -25.5s31.5 -9 49.5 -9s34.5 3 49.5 9s28.167 14.5 39.5 25.5s20.166 24.167 26.499 39.5s9.5 32.333 9.5 51zM628 116
c0 -31.333 -9.5 -55.666 -28.5 -72.999s-41.833 -26 -68.5 -26c-26 0 -48.5 8.66699 -67.5 26s-28.5 41.666 -28.5 72.999s9.5 55.666 28.5 72.999s41.5 26 67.5 26c26.667 0 49.5 -8.66699 68.5 -26s28.5 -41.666 28.5 -72.999zM618 635l-19 16l-523 -648l19 -16zM290 522
c0 18.667 -3.16699 35.667 -9.5 51s-15.166 28.5 -26.499 39.5s-24.666 19.667 -39.999 26s-32 9.5 -50 9.5s-34.5 -3.16699 -49.5 -9.5s-28.167 -15 -39.5 -26s-20.166 -24.167 -26.499 -39.5s-9.5 -32.333 -9.5 -51s3.16699 -35.667 9.5 -51s15.166 -28.5 26.499 -39.5
s24.5 -19.667 39.5 -26s31.5 -9.5 49.5 -9.5s34.667 3.16699 50 9.5s28.666 15 39.999 26s20.166 24.167 26.499 39.5s9.5 32.333 9.5 51zM261 522c0 -31.333 -9.5 -55.666 -28.5 -72.999s-41.833 -26 -68.5 -26c-26 0 -48.5 8.66699 -67.5 26s-28.5 41.666 -28.5 72.999
s9.5 55.666 28.5 72.999s41.5 26 67.5 26c26.667 0 49.5 -8.66699 68.5 -26s28.5 -41.666 28.5 -72.999z" />
    <glyph glyph-name="guilsinglleft" unicode="&#x2039;" horiz-adv-x="199" 
d="M147 128c-9.33301 17.333 -19 34.3311 -29 50.998s-21 32.334 -33 47.001c12 14.667 23 30.334 33 47.001s19.667 33.667 29 51l-7 17c-14.667 -20.667 -30.667 -40 -48 -58s-34.333 -33.333 -51 -46c-5.33301 -4 -8 -7.66699 -8 -11s2.66699 -7 8 -11
c16.667 -12.667 33.667 -28 51 -46s33.333 -37.333 48 -58z" />
    <glyph glyph-name="guilsinglright" unicode="&#x203a;" horiz-adv-x="199" 
d="M166 226c0 1.33301 -1 3.17188 -3 5.50488s-4 4.16602 -6 5.49902c-16.667 12.667 -33.5 28 -50.5 46s-32.833 37.333 -47.5 58l-7 -17c9.33301 -17.333 19 -34.333 29 -51s21 -32.334 33 -47.001c-12 -14.667 -23 -30.334 -33 -47.001s-19.667 -33.667 -29 -51l7 -17
c14.667 20.667 30.5 40 47.5 58s33.833 33.333 50.5 46c2 1.33301 4 3.16602 6 5.49902s3 4.16602 3 5.49902z" />
    <glyph glyph-name="fraction" unicode="&#x2044;" horiz-adv-x="670" 
d="M606 635l-19 16l-523 -648l19 -16z" />
    <glyph glyph-name="Euro" unicode="&#x20ac;" horiz-adv-x="499" 
d="M339 281h-197.998c-0.666992 6 -1 12 -1 18v20c0 7.33301 0.166992 14.5 0.5 21.5s0.833008 14.167 1.5 21.5h201l8 25h-207c4.66699 34 12.667 65.167 24 93.5s25.333 52.5 42 72.5s35.667 35.5 57 46.5s44.333 16.5 69 16.5c21.333 0 41.833 -3 61.5 -9
s35.5 -13.667 47.5 -23l9 27c-13.333 9.33301 -30 17.166 -50 23.499s-43 9.5 -69 9.5c-29.333 0 -56.333 -6.16699 -81 -18.5s-46.667 -29.833 -66 -52.5s-35.5 -49.834 -48.5 -81.501s-21.833 -66.5 -26.5 -104.5h-88v-25h86
c-0.666992 -7.33301 -1.16699 -14.5 -1.5 -21.5s-0.5 -14.167 -0.5 -21.5v-20c0 -6 0.333008 -12 1 -18h-85v-25h88c4.66699 -39.333 13.334 -75 26.001 -107s28.667 -59.5 48 -82.5s41.666 -40.833 66.999 -53.5s52.666 -19 81.999 -19c23.333 0 44.166 2.5 62.499 7.5
s32.833 11.5 43.5 19.5l5 33c-14.667 -11.333 -30.834 -19.666 -48.501 -24.999s-38.167 -8 -61.5 -8c-25.333 0 -48.666 5.66699 -69.999 17s-40.5 27.333 -57.5 48s-31.167 45.334 -42.5 74.001s-19 60.667 -23 96h186z" />
    <glyph glyph-name="trademark" unicode="&#x2122;" horiz-adv-x="415" 
d="M372 453l-12 185h-14l-70 -151l-70 151h-14l-13 -185h19l11 133l63 -136h7l65 136l9 -133h19zM164 619v19h-140v-19h60v-166h21v166h59z" />
    <glyph glyph-name="Omega" unicode="&#x2126;" horiz-adv-x="600" 
d="M562 148l-50.999 51.001v254h-472v-453h472v97c11.333 0 22.666 4.16699 33.999 12.5s17 21.166 17 38.499zM488.001 221.001l-171 171h171v-171zM240.001 392.001c0 -24.667 -8.66699 -45.667 -26 -63s-38.333 -26 -63 -26s-45.667 8.66699 -63 26s-26 38.333 -26 63
h178zM488.001 21.001h-426v294c9.33301 -10.667 21 -19.667 35 -27l391 -185v-82z" />
    <glyph glyph-name="partialdiff" unicode="&#x2202;" horiz-adv-x="600" 
d="M562 148l-50.999 51.001v254h-472v-453h472v97c11.333 0 22.666 4.16699 33.999 12.5s17 21.166 17 38.499zM488.001 221.001l-171 171h171v-171zM240.001 392.001c0 -24.667 -8.66699 -45.667 -26 -63s-38.333 -26 -63 -26s-45.667 8.66699 -63 26s-26 38.333 -26 63
h178zM488.001 21.001h-426v294c9.33301 -10.667 21 -19.667 35 -27l391 -185v-82z" />
    <glyph glyph-name="Delta" unicode="&#x2206;" horiz-adv-x="600" 
d="M562 148l-50.999 51.001v254h-472v-453h472v97c11.333 0 22.666 4.16699 33.999 12.5s17 21.166 17 38.499zM488.001 221.001l-171 171h171v-171zM240.001 392.001c0 -24.667 -8.66699 -45.667 -26 -63s-38.333 -26 -63 -26s-45.667 8.66699 -63 26s-26 38.333 -26 63
h178zM488.001 21.001h-426v294c9.33301 -10.667 21 -19.667 35 -27l391 -185v-82z" />
    <glyph glyph-name="product" unicode="&#x220f;" horiz-adv-x="420" 
d="M381 478c0 24.667 -4.33301 47.5 -13 68.5s-20.834 39 -36.501 54s-33.834 26.667 -54.501 35s-43 12.5 -67 12.5c-23.333 0 -45.333 -4.16699 -66 -12.5s-38.834 -20 -54.501 -35s-28 -33 -37 -54s-13.5 -43.833 -13.5 -68.5s4.5 -47.334 13.5 -68.001
s21.333 -38.5 37 -53.5s33.834 -26.667 54.501 -35s42.667 -12.5 66 -12.5c24 0 46.333 4.16699 67 12.5s38.834 20 54.501 35s27.834 32.833 36.501 53.5s13 43.334 13 68.001zM359 478c0 -22.667 -3.66699 -43.167 -11 -61.5s-17.666 -34 -30.999 -47
s-29.166 -23 -47.499 -30s-38.166 -10.5 -59.499 -10.5s-41 3.5 -59 10.5s-33.667 17 -47 30s-23.833 28.667 -31.5 47s-11.5 38.833 -11.5 61.5c0 22 3.83301 42.167 11.5 60.5s18.167 34 31.5 47s29 23.167 47 30.5s37.667 11 59 11s41.166 -3.66699 59.499 -11
s34.166 -17.5 47.499 -30.5s23.666 -28.667 30.999 -47s11 -38.5 11 -60.5zM280 522c0 15.333 -5.66699 28.499 -17 39.499s-26.333 16.5 -45 16.5h-56v-203h23v90h33c18.667 0 33.667 5.83301 45 17.5s17 24.834 17 39.501zM257 521.999c0 -10 -3.66699 -18.5 -11 -25.5
s-16.666 -10.5 -27.999 -10.5h-33v71h33c11.333 0 20.666 -3.33301 27.999 -10s11 -15 11 -25z" />
    <glyph glyph-name="summation" unicode="&#x2211;" horiz-adv-x="600" 
d="M562 148l-50.999 51.001v254h-472v-453h472v97c11.333 0 22.666 4.16699 33.999 12.5s17 21.166 17 38.499zM488.001 221.001l-171 171h171v-171zM240.001 392.001c0 -24.667 -8.66699 -45.667 -26 -63s-38.333 -26 -63 -26s-45.667 8.66699 -63 26s-26 38.333 -26 63
h178zM488.001 21.001h-426v294c9.33301 -10.667 21 -19.667 35 -27l391 -185v-82z" />
    <glyph glyph-name="minus" unicode="&#x2212;" horiz-adv-x="465" 
d="M414 263v26h-362v-26h362z" />
    <glyph glyph-name="radical" unicode="&#x221a;" horiz-adv-x="592" 
d="M577 687v25h-98l-190 -440l-48.5 -113.5l-42.5 -105.5h-2l-15.5 39.5c-5 12.333 -10.833 25.833 -17.5 40.5l-72 159h-61l-4 -27h43l121 -270h11l298 692h78z" />
    <glyph glyph-name="infinity" unicode="&#x221e;" horiz-adv-x="790" 
d="M726 0l-0.000976562 453.003h-293v78c0 26.667 3.83301 49.834 11.5 69.501s18.334 35.667 32.001 48s29.5 21.5 47.5 27.5s37.333 9 58 9c11.333 0 23.333 -1.33301 36 -4s22.667 -5.66699 30 -9l8 28c-8.66699 3.33301 -19.5 6.16602 -32.5 8.49902
s-27.167 3.5 -42.5 3.5c-28 0 -54 -4.33301 -78 -13s-44 -22.334 -60 -41.001c-18.667 15.333 -40.5 28.166 -65.5 38.499s-54.833 15.5 -89.5 15.5c-25.333 0 -48.833 -3.5 -70.5 -10.5s-40.5 -17.833 -56.5 -32.5s-28.5 -33.334 -37.5 -56.001s-13.5 -49.667 -13.5 -81
v-79h-85v-27h85v-426h31v426h261v-426h31v426h262v-426h31zM426.999 633.003c-8 -13.333 -14.166 -28.1689 -18.499 -44.502s-6.5 -35.166 -6.5 -56.499v-79h-261v78c0 26.667 3.83301 49.834 11.5 69.501s18.167 35.667 31.5 48s29 21.5 47 27.5s37.333 9 58 9
c30 0 56.667 -5.33301 80 -16s42.666 -22.667 57.999 -36z" />
    <glyph glyph-name="integral" unicode="&#x222b;" horiz-adv-x="600" 
d="M562 148l-50.999 51.001v254h-472v-453h472v97c11.333 0 22.666 4.16699 33.999 12.5s17 21.166 17 38.499zM488.001 221.001l-171 171h171v-171zM240.001 392.001c0 -24.667 -8.66699 -45.667 -26 -63s-38.333 -26 -63 -26s-45.667 8.66699 -63 26s-26 38.333 -26 63
h178zM488.001 21.001h-426v294c9.33301 -10.667 21 -19.667 35 -27l391 -185v-82z" />
    <glyph glyph-name="approxequal" unicode="&#x2248;" horiz-adv-x="472" 
d="M415 376l-8 26c-26 -30 -59.667 -45 -101 -45c-13.333 0 -25.166 2.5 -35.499 7.5l-32.5 15.5c-10 5.33301 -20.5 9.83301 -31.5 13.5s-23.5 5.5 -37.5 5.5c-23.333 0 -44.333 -4 -63 -12s-34.667 -19.667 -48 -35l9 -25c26 30 59.333 45 100 45
c13.333 0 25.166 -2.5 35.499 -7.5l32.5 -15.5c10 -5.33301 20.667 -10 32 -14s24 -6 38 -6c47.333 0 84 15.667 110 47zM415 204l-8 26c-26 -30 -59.667 -45 -101 -45c-13.333 0 -25.166 2.5 -35.499 7.5l-32.5 15.5c-10 5.33301 -20.5 9.83301 -31.5 13.5
s-23.5 5.5 -37.5 5.5c-23.333 0 -44.333 -4 -63 -12s-34.667 -19.667 -48 -35l9 -25c26 30 59.333 45 100 45c13.333 0 25.166 -2.5 35.499 -7.5l32.5 -15.5c10 -5.33301 20.667 -10 32 -14s24 -6 38 -6c47.333 0 84 15.667 110 47z" />
    <glyph glyph-name="notequal" unicode="&#x2260;" horiz-adv-x="624" 
d="M656 700c-8.66699 3.33301 -19.501 6.16895 -32.501 8.50195s-27.167 3.5 -42.5 3.5c-28 0 -54 -4.33301 -78 -13s-44 -22.334 -60 -41.001c-18.667 15.333 -40.5 28.166 -65.5 38.499s-54.833 15.5 -89.5 15.5c-25.333 0 -48.833 -3.5 -70.5 -10.5
s-40.5 -17.833 -56.5 -32.5s-28.5 -33.334 -37.5 -56.001s-13.5 -49.667 -13.5 -81v-79h-85v-27h85v-426h31v426h261v-426h31v426h153l6 27h-159v78c0 26.667 3.83301 49.834 11.5 69.501s18.334 35.667 32.001 48s29.5 21.5 47.5 27.5s37.333 9 58 9
c11.333 0 23.333 -1.33301 36 -4s22.667 -5.66699 30 -9zM426.999 633.003c-8 -13.333 -14.166 -28.1689 -18.499 -44.502s-6.5 -35.166 -6.5 -56.499v-79h-261v78c0 26.667 3.83301 49.834 11.5 69.501s18.167 35.667 31.5 48s29 21.5 47 27.5s37.333 9 58 9
c30 0 56.667 -5.33301 80 -16s42.666 -22.667 57.999 -36z" />
    <glyph glyph-name="lessequal" unicode="&#x2264;" horiz-adv-x="471" 
d="M423 138v28l-347 111l347 110v28l-374 -120v-37zM423 0v28h-374v-28h374z" />
    <glyph glyph-name="greaterequal" unicode="&#x2265;" horiz-adv-x="471" 
d="M423 258v37l-374 120v-28l347 -110l-347 -111v-28zM423 0v28h-374v-28h374z" />
    <glyph glyph-name="lozenge" unicode="&#x25ca;" horiz-adv-x="599" 
d="M493 277l-199 199l-199 -199l199 -199zM456 277l-162 -162l-162 162l162 161z" />
    <glyph glyph-name="apple" unicode="&#xf8ff;" horiz-adv-x="600" 
d="M562 148l-50.999 51.001v254h-472v-453h472v97c11.333 0 22.666 4.16699 33.999 12.5s17 21.166 17 38.499zM488.001 221.001l-171 171h171v-171zM240.001 392.001c0 -24.667 -8.66699 -45.667 -26 -63s-38.333 -26 -63 -26s-45.667 8.66699 -63 26s-26 38.333 -26 63
h178zM488.001 21.001h-426v294c9.33301 -10.667 21 -19.667 35 -27l391 -185v-82z" />
    <glyph glyph-name="fi" unicode="&#xfb01;" horiz-adv-x="497" 
d="M433 0v453.001h-292v78c0 26.667 3.83301 49.834 11.5 69.501s18.167 35.667 31.5 48s29 21.5 47 27.5s37.333 9 58 9c11.333 0 23.333 -1.33301 36 -4s22.667 -5.66699 30 -9l8 28c-8.66699 3.33301 -19.5 6.16602 -32.5 8.49902s-27.167 3.5 -42.5 3.5
c-25.333 0 -48.833 -3.5 -70.5 -10.5s-40.5 -17.833 -56.5 -32.5s-28.5 -33.334 -37.5 -56.001s-13.5 -49.667 -13.5 -81v-79h-85v-27h85v-426h31v426h261v-426h31z" />
    <glyph glyph-name="fl" unicode="&#xfb02;" horiz-adv-x="517" 
d="M487 10c-36 10 -53.998 37 -53.998 81v574c-16.667 12.667 -36.834 23.667 -60.501 33s-51.834 14 -84.501 14c-25.333 0 -48.833 -3.5 -70.5 -10.5s-40.5 -17.833 -56.5 -32.5s-28.5 -33.334 -37.5 -56.001s-13.5 -49.667 -13.5 -81v-79h-85v-27h85v-426h31v426h129v27
h-129v78c0 26.667 3.83301 49.834 11.5 69.501s18.167 35.667 31.5 48s29 21.5 47 27.5s37.333 9 58 9c26 0 48.5 -3.66699 67.5 -11s34.167 -15 45.5 -23v-561c0 -28.667 5.5 -51 16.5 -67s26.833 -27.667 47.5 -35z" />
    <glyph glyph-name=".null" horiz-adv-x="0" 
 />
    <glyph glyph-name="nonmarkingreturn" 
 />
    </font>
</defs>
</svg>
